M48
;GenerationSoftware,Autodesk,EAGLE,9.2.2*%
;CreationDate,2018-12-26T13:13:17Z*%
FMAT,2
ICI,OFF
METRIC,TZ,000.000
T16C0.300
T15C0.350
T14C0.381
T13C0.400
T12C0.500
T11C0.508
T10C0.550
T9C0.600
T8C0.800
T7C0.813
T6C0.900
T5C1.016
T4C1.651
T3C1.950
T2C3.000
T1C3.200
%
G90
M71
T1
X48565Y61773
X59995Y61773
T2
X4500Y67000
X40500Y67000
X4500Y5500
X59500Y5500
T3
X40500Y57860
X40500Y12140
X4940Y57860
X4940Y12140
T4
X62281Y58598
X46279Y58598
T5
X62328Y10000
X8353Y62175
X59432Y10000
X5457Y62175
X62627Y21370
X62373Y18830
X62627Y16290
X62373Y13750
T6
X20656Y62650
X20656Y63250
X20656Y68150
X20656Y68600
X20656Y69200
X9070Y67600
X53400Y4940
X35156Y68600
X20656Y69650
X35156Y62200
X35156Y63700
X35156Y62650
X35156Y63250
X20656Y62950
X35156Y62950
X35156Y68150
X35156Y68910
X20656Y68910
X20656Y62200
X20656Y63700
X35156Y69200
X35156Y69650
T7
X53645Y55423
X52375Y52883
X49835Y52883
X58725Y55423
X50216Y66675
X47676Y66675
X54915Y52883
X57455Y52883
X56185Y55423
X58344Y66675
X60884Y66675
X51105Y55423
T8
X54120Y1825
X54120Y6875
X45480Y6875
X8350Y70715
X8350Y65665
X16990Y65665
X16990Y70715
X45480Y1825
T9
X46200Y4875
X46200Y4875
X16270Y67665
X16270Y67665
T10
X26800Y28150
X26800Y26950
T11
X40032Y10423
T12
X40250Y21000
T13
X20224Y19321
X32750Y19950
X33050Y17610
T14
X55867Y24792
X54243Y22800
X40640Y36271
X38635Y9165
X58979Y28118
X55931Y31166
X7837Y22282
X40750Y47800
X5487Y13982
X3187Y57832
X3487Y60682
X2087Y60682
X44495Y60709
X62081Y34216
X43095Y60709
X38995Y60909
X52267Y9292
X37595Y60909
X36195Y60909
X50597Y31420
X40750Y46380
X49327Y31420
X7137Y14632
X34950Y44040
X48514Y27178
X27978Y32075
X40750Y43840
X50597Y32690
X41556Y63425
X57000Y37700
X61697Y35458
X11700Y32200
X50470Y42088
X7800Y37500
X48882Y42088
X1981Y57800
X52057Y42088
X11700Y27200
X7798Y57800
X60769Y52286
X2100Y47650
X55713Y38688
X55677Y59334
X2100Y34950
X51803Y36500
X2100Y37500
X62205Y39141
X2100Y40000
X55229Y36354
X2100Y45100
X47939Y41599
X2100Y50200
X54216Y50787
X2083Y52700
X53950Y69037
X7800Y40000
X48374Y55105
X7800Y42550
X45187Y68732
X7800Y45100
X19401Y26208
X7800Y47650
X51537Y59461
X7800Y50200
X58547Y59385
X7800Y52700
X45695Y62509
X5598Y54045
X61163Y56083
X2100Y42600
X50451Y24980
X37249Y9171
X55370Y34045
X49035Y33710
X50660Y50279
X59665Y41173
X57023Y24691
X60931Y34138
X58064Y43790
X7800Y34900
T15
X35650Y15900
X31600Y13400
X28850Y2200
X32600Y13400
X30750Y2150
X50400Y9950
X49425Y4975
X45525Y15900
X29750Y14400
X46539Y17211
X29750Y13200
X61224Y15542
X13075Y69675
X61013Y14542
X13800Y68525
X12295Y64058
X29187Y5968
X23230Y8930
X47101Y12030
X30887Y5568
X57050Y11050
X40900Y39600
X58200Y21800
X40900Y38600
X55900Y22150
X60300Y13875
X43350Y12100
X23600Y12600
X26500Y6850
X45675Y19400
X16550Y19000
X2100Y14600
X4950Y19550
X23400Y4750
X4350Y15900
X15650Y23500
X16650Y23500
X10406Y35950
X48000Y40300
X60400Y24400
X17306Y49900
X14250Y26650
X13300Y63450
X35500Y34150
X39800Y26100
X12850Y29700
X14773Y15220
X15598Y4023
X10838Y15216
X10678Y3176
X21020Y3100
X10555Y9214
X17798Y4023
X28850Y7850
X41200Y30200
X24100Y5544
X39850Y30150
X26500Y9450
X24800Y9550
X17750Y19000
X39850Y31450
X18800Y19000
X41200Y31450
X19300Y42400
X19500Y10200
X19750Y8500
X21750Y42250
X18510Y41100
X18700Y14100
X12600Y8100
X22100Y8600
X12300Y9800
X51200Y12650
X50425Y4675
X48500Y17300
X12100Y68900
X48500Y18350
X46750Y20450
X7800Y12099
X30675Y15975
X34300Y7600
X36700Y1350
X38625Y7900
X15700Y61150
X14800Y61150
X14750Y55350
X57400Y21000
X18575Y68325
X34400Y6200
X56000Y20300
X40400Y8700
X53300Y21100
X60350Y17150
X48300Y21125
X60350Y16025
X51750Y21348
X35650Y13400
T16
X30106Y64350
X27706Y64300
X26206Y64300
X24806Y64300
X23306Y64300
X34706Y31700
X15256Y48150
X19581Y52200
X31406Y32300
X31706Y55300
X27206Y55300
X17506Y43400
X17606Y37700
X22706Y55500
X28717Y33691
X26017Y32541
X13750Y55425
X32606Y49300
X23306Y32600
X53100Y15750
X52700Y10550
X54300Y19400
X21806Y51200
X19241Y23535
X19206Y45100
X13806Y36000
X21196Y20342
X34231Y39691
X24617Y32541
X27617Y36141
X35488Y2212
X27317Y30511
X50400Y8850
X34650Y8485
X27017Y36741
X21867Y29261
X23517Y35941
X32222Y39950
X19241Y24385
X33817Y35141
X34281Y42641
X33817Y34341
X48950Y24600
X17706Y40500
X30017Y32311
X30506Y51900
X18406Y42400
X29706Y52650
X13106Y38900
X18406Y43300
X28606Y52650
X12206Y38200
X32406Y34200
X16106Y40500
X31656Y64350
X40250Y18450
X45750Y34850
X30617Y35741
X14506Y36800
X33031Y44741
X34517Y35841
X32917Y37341
X32731Y39141
X32331Y41341
X33731Y44041
X33631Y45441
X33731Y46891
X33917Y36641
X32481Y38241
X33031Y43341
X33031Y46141
X33031Y47591
X29356Y49200
X28406Y49100
X33581Y48391
X9617Y35141
X57900Y14900
X57900Y16050
X56800Y16050
X56800Y14900
X55700Y14950
X55700Y16100
X57900Y17100
X56800Y17100
X55700Y17100
X28406Y40200
X22906Y40200
X28406Y45700
X22906Y45700
X27306Y40200
X26206Y40200
X24006Y40200
X14917Y31741
X27306Y45700
X26206Y45700
X24006Y45700
X25106Y45700
X28406Y41300
X28406Y42400
X28406Y43500
X28406Y44600
X22906Y41300
X22906Y42400
X22906Y43500
X22906Y44600
X27306Y41300
X26206Y41300
X25106Y41300
X24006Y41300
X27306Y42400
X26206Y42400
X25106Y42400
X24006Y42400
X27306Y43500
X26206Y43500
X25106Y43500
X24006Y43500
X24006Y44600
X25106Y44600
X26206Y44600
X27306Y44600
X4917Y51441
X4967Y36191
X16717Y25491
X30554Y10618
X16906Y21100
X29506Y51200
X32606Y51200
X21906Y32600
X20317Y33841
X20317Y31741
X20317Y29641
X19917Y27741
X18167Y25541
X15267Y25541
X14967Y27741
X14917Y29641
X14917Y33841
X16317Y35541
X35681Y41141
X25106Y40200
M30