G04 EAGLE Gerber RS-274X export*
G75*
%MOMM*%
%FSLAX34Y34*%
%LPD*%
%INSoldermask Top*%
%IPPOS*%
%AMOC8*
5,1,8,0,0,1.08239X$1,22.5*%
G01*
%ADD10R,2.003200X1.803200*%
%ADD11R,1.103200X0.903200*%
%ADD12R,0.903200X1.103200*%
%ADD13R,0.733200X1.533200*%
%ADD14R,2.993200X1.473200*%
%ADD15C,2.153200*%
%ADD16R,1.203200X0.403200*%
%ADD17R,0.403200X1.203200*%
%ADD18R,6.953200X6.953200*%
%ADD19R,1.403200X2.003200*%
%ADD20R,1.003200X1.103200*%
%ADD21R,1.103200X1.003200*%
%ADD22R,1.117600X0.965200*%
%ADD23R,0.965200X1.117600*%
%ADD24R,1.422400X0.762000*%
%ADD25R,2.003200X2.603200*%
%ADD26R,0.703200X1.253200*%
%ADD27R,0.503200X2.803200*%
%ADD28C,1.701800*%
%ADD29C,1.103200*%
%ADD30R,0.603200X1.703200*%
%ADD31R,2.003200X2.203200*%
%ADD32R,1.603200X2.203200*%
%ADD33R,0.473200X1.103200*%
%ADD34R,0.473200X1.003200*%
%ADD35C,0.803200*%
%ADD36R,1.403200X1.403200*%
%ADD37R,0.553200X1.603200*%
%ADD38C,2.082800*%
%ADD39R,1.303200X1.203200*%
%ADD40R,2.203200X2.203200*%
%ADD41R,0.403200X0.903200*%
%ADD42R,0.903200X0.403200*%
%ADD43R,5.703200X3.603200*%
%ADD44R,2.803200X1.953200*%
%ADD45R,2.753200X1.953200*%
%ADD46R,0.403200X1.003200*%
%ADD47R,1.003200X0.403200*%
%ADD48R,2.003200X2.003200*%
%ADD49R,0.903200X0.803200*%
%ADD50R,1.203200X1.303200*%
%ADD51R,1.403200X1.003200*%
%ADD52R,0.803200X2.173200*%
%ADD53C,1.203200*%
%ADD54R,2.903200X3.153200*%
%ADD55R,1.003200X0.453200*%
%ADD56R,0.453200X1.003200*%
%ADD57R,0.453200X1.403200*%
%ADD58R,1.003200X1.403200*%
%ADD59R,2.653200X3.703200*%
%ADD60R,1.727200X1.727200*%
%ADD61C,1.727200*%
%ADD62C,2.679700*%
%ADD63C,3.403600*%
%ADD64C,6.203200*%
%ADD65C,0.609600*%

G36*
X472233Y58073D02*
X472233Y58073D01*
X472235Y58071D01*
X473308Y58177D01*
X473313Y58182D01*
X473317Y58179D01*
X474349Y58492D01*
X474353Y58497D01*
X474358Y58495D01*
X475309Y59003D01*
X475312Y59010D01*
X475317Y59009D01*
X476150Y59693D01*
X476152Y59700D01*
X476157Y59700D01*
X476841Y60533D01*
X476841Y60540D01*
X476847Y60541D01*
X477355Y61492D01*
X477354Y61499D01*
X477358Y61501D01*
X477671Y62533D01*
X477670Y62537D01*
X477672Y62539D01*
X477671Y62541D01*
X477673Y62542D01*
X477779Y63615D01*
X477775Y63621D01*
X477779Y63625D01*
X477673Y64698D01*
X477668Y64703D01*
X477671Y64707D01*
X477358Y65739D01*
X477353Y65743D01*
X477355Y65748D01*
X476847Y66699D01*
X476840Y66702D01*
X476841Y66707D01*
X476157Y67540D01*
X476150Y67542D01*
X476150Y67547D01*
X475317Y68231D01*
X475310Y68231D01*
X475309Y68237D01*
X474358Y68745D01*
X474351Y68744D01*
X474349Y68748D01*
X473317Y69061D01*
X473311Y69059D01*
X473308Y69063D01*
X472279Y69165D01*
X472279Y75520D01*
X472277Y75523D01*
X472279Y75525D01*
X472164Y76695D01*
X472159Y76701D01*
X472162Y76705D01*
X471820Y77830D01*
X471815Y77835D01*
X471817Y77839D01*
X471262Y78877D01*
X471256Y78880D01*
X471257Y78885D01*
X470511Y79794D01*
X470504Y79796D01*
X470504Y79801D01*
X469595Y80547D01*
X469587Y80547D01*
X469587Y80552D01*
X468549Y81107D01*
X468542Y81106D01*
X468540Y81110D01*
X467415Y81452D01*
X467408Y81449D01*
X467405Y81454D01*
X466235Y81569D01*
X466233Y81568D01*
X466233Y81569D01*
X466227Y81569D01*
X466226Y81568D01*
X466225Y81569D01*
X465055Y81454D01*
X465049Y81449D01*
X465045Y81452D01*
X463920Y81110D01*
X463915Y81105D01*
X463911Y81107D01*
X462873Y80552D01*
X462870Y80546D01*
X462865Y80547D01*
X461956Y79801D01*
X461954Y79794D01*
X461949Y79794D01*
X461203Y78885D01*
X461203Y78877D01*
X461198Y78877D01*
X460643Y77839D01*
X460644Y77832D01*
X460640Y77830D01*
X460598Y77692D01*
X460597Y77692D01*
X460403Y77051D01*
X460298Y76705D01*
X460301Y76698D01*
X460296Y76695D01*
X460181Y75525D01*
X460183Y75522D01*
X460181Y75520D01*
X460181Y64520D01*
X460183Y64517D01*
X460181Y64515D01*
X460296Y63345D01*
X460301Y63339D01*
X460298Y63335D01*
X460640Y62210D01*
X460645Y62205D01*
X460643Y62201D01*
X461198Y61163D01*
X461204Y61160D01*
X461203Y61155D01*
X461949Y60246D01*
X461956Y60244D01*
X461956Y60239D01*
X462865Y59493D01*
X462873Y59493D01*
X462873Y59488D01*
X463407Y59202D01*
X463643Y59009D01*
X463650Y59009D01*
X463651Y59003D01*
X464602Y58495D01*
X464609Y58496D01*
X464611Y58492D01*
X465643Y58179D01*
X465650Y58181D01*
X465652Y58177D01*
X466725Y58071D01*
X466728Y58073D01*
X466730Y58071D01*
X472230Y58071D01*
X472233Y58073D01*
G37*
G36*
X552133Y58073D02*
X552133Y58073D01*
X552135Y58071D01*
X553208Y58177D01*
X553213Y58182D01*
X553217Y58179D01*
X554249Y58492D01*
X554253Y58497D01*
X554258Y58495D01*
X555209Y59003D01*
X555212Y59010D01*
X555217Y59009D01*
X555453Y59202D01*
X555987Y59488D01*
X555990Y59494D01*
X555995Y59493D01*
X556904Y60239D01*
X556906Y60246D01*
X556911Y60246D01*
X557657Y61155D01*
X557657Y61163D01*
X557662Y61163D01*
X558217Y62201D01*
X558216Y62208D01*
X558220Y62210D01*
X558337Y62594D01*
X558531Y63235D01*
X558562Y63335D01*
X558559Y63342D01*
X558564Y63345D01*
X558679Y64515D01*
X558677Y64518D01*
X558679Y64520D01*
X558679Y75520D01*
X558677Y75523D01*
X558679Y75525D01*
X558564Y76695D01*
X558559Y76701D01*
X558562Y76705D01*
X558220Y77830D01*
X558215Y77835D01*
X558217Y77839D01*
X557662Y78877D01*
X557656Y78880D01*
X557657Y78885D01*
X556911Y79794D01*
X556904Y79796D01*
X556904Y79801D01*
X555995Y80547D01*
X555987Y80547D01*
X555987Y80552D01*
X554949Y81107D01*
X554942Y81106D01*
X554940Y81110D01*
X553815Y81452D01*
X553808Y81449D01*
X553805Y81454D01*
X552635Y81569D01*
X552633Y81568D01*
X552633Y81569D01*
X552627Y81569D01*
X552626Y81568D01*
X552625Y81569D01*
X551455Y81454D01*
X551449Y81449D01*
X551445Y81452D01*
X550320Y81110D01*
X550315Y81105D01*
X550311Y81107D01*
X549273Y80552D01*
X549270Y80546D01*
X549265Y80547D01*
X548356Y79801D01*
X548354Y79794D01*
X548349Y79794D01*
X547603Y78885D01*
X547603Y78877D01*
X547598Y78877D01*
X547043Y77839D01*
X547044Y77832D01*
X547040Y77830D01*
X546998Y77692D01*
X546997Y77692D01*
X546803Y77051D01*
X546698Y76705D01*
X546701Y76698D01*
X546696Y76695D01*
X546581Y75525D01*
X546583Y75522D01*
X546581Y75520D01*
X546581Y69165D01*
X545552Y69063D01*
X545547Y69058D01*
X545543Y69061D01*
X544511Y68748D01*
X544507Y68743D01*
X544502Y68745D01*
X543551Y68237D01*
X543548Y68230D01*
X543543Y68231D01*
X542710Y67547D01*
X542708Y67540D01*
X542703Y67540D01*
X542019Y66707D01*
X542019Y66700D01*
X542013Y66699D01*
X541505Y65748D01*
X541506Y65741D01*
X541502Y65739D01*
X541189Y64707D01*
X541191Y64701D01*
X541187Y64698D01*
X541081Y63625D01*
X541085Y63619D01*
X541081Y63615D01*
X541187Y62542D01*
X541192Y62537D01*
X541189Y62533D01*
X541502Y61501D01*
X541507Y61497D01*
X541505Y61492D01*
X542013Y60541D01*
X542020Y60538D01*
X542019Y60533D01*
X542703Y59700D01*
X542710Y59698D01*
X542710Y59693D01*
X543543Y59009D01*
X543550Y59009D01*
X543551Y59003D01*
X544502Y58495D01*
X544509Y58496D01*
X544511Y58492D01*
X545543Y58179D01*
X545550Y58181D01*
X545552Y58177D01*
X546625Y58071D01*
X546628Y58073D01*
X546630Y58071D01*
X552130Y58071D01*
X552133Y58073D01*
G37*
G36*
X84675Y645216D02*
X84675Y645216D01*
X84681Y645221D01*
X84685Y645218D01*
X85810Y645560D01*
X85815Y645565D01*
X85819Y645563D01*
X86857Y646118D01*
X86860Y646124D01*
X86865Y646123D01*
X87774Y646869D01*
X87776Y646876D01*
X87781Y646876D01*
X88527Y647785D01*
X88527Y647793D01*
X88532Y647793D01*
X89087Y648831D01*
X89086Y648838D01*
X89090Y648840D01*
X89207Y649224D01*
X89401Y649865D01*
X89432Y649965D01*
X89429Y649972D01*
X89434Y649975D01*
X89549Y651145D01*
X89547Y651148D01*
X89549Y651150D01*
X89549Y657505D01*
X90578Y657607D01*
X90583Y657612D01*
X90587Y657609D01*
X91619Y657922D01*
X91623Y657927D01*
X91628Y657925D01*
X92579Y658433D01*
X92582Y658440D01*
X92587Y658439D01*
X93420Y659123D01*
X93422Y659130D01*
X93427Y659130D01*
X94111Y659963D01*
X94111Y659970D01*
X94117Y659971D01*
X94625Y660922D01*
X94624Y660929D01*
X94628Y660931D01*
X94941Y661963D01*
X94940Y661967D01*
X94942Y661969D01*
X94941Y661971D01*
X94943Y661972D01*
X95049Y663045D01*
X95045Y663051D01*
X95049Y663055D01*
X94943Y664128D01*
X94938Y664133D01*
X94941Y664137D01*
X94628Y665169D01*
X94623Y665173D01*
X94625Y665178D01*
X94117Y666129D01*
X94110Y666132D01*
X94111Y666137D01*
X93427Y666970D01*
X93420Y666972D01*
X93420Y666977D01*
X92587Y667661D01*
X92580Y667661D01*
X92579Y667667D01*
X91628Y668175D01*
X91621Y668174D01*
X91619Y668178D01*
X90587Y668491D01*
X90581Y668489D01*
X90578Y668493D01*
X89505Y668599D01*
X89502Y668597D01*
X89500Y668599D01*
X84000Y668599D01*
X83997Y668597D01*
X83995Y668599D01*
X82922Y668493D01*
X82917Y668488D01*
X82913Y668491D01*
X81881Y668178D01*
X81877Y668173D01*
X81872Y668175D01*
X80921Y667667D01*
X80918Y667660D01*
X80913Y667661D01*
X80677Y667468D01*
X80143Y667182D01*
X80140Y667176D01*
X80135Y667177D01*
X79226Y666431D01*
X79224Y666424D01*
X79219Y666424D01*
X78473Y665515D01*
X78473Y665507D01*
X78468Y665507D01*
X77913Y664469D01*
X77914Y664462D01*
X77910Y664460D01*
X77868Y664322D01*
X77867Y664322D01*
X77673Y663681D01*
X77568Y663335D01*
X77571Y663328D01*
X77566Y663325D01*
X77451Y662155D01*
X77453Y662152D01*
X77451Y662150D01*
X77451Y651150D01*
X77453Y651147D01*
X77451Y651145D01*
X77566Y649975D01*
X77571Y649969D01*
X77568Y649965D01*
X77910Y648840D01*
X77915Y648835D01*
X77913Y648831D01*
X78468Y647793D01*
X78474Y647790D01*
X78473Y647785D01*
X79219Y646876D01*
X79226Y646874D01*
X79226Y646869D01*
X80135Y646123D01*
X80143Y646123D01*
X80143Y646118D01*
X81181Y645563D01*
X81188Y645564D01*
X81190Y645560D01*
X82315Y645218D01*
X82322Y645221D01*
X82325Y645216D01*
X83495Y645101D01*
X83501Y645105D01*
X83505Y645101D01*
X84675Y645216D01*
G37*
G36*
X171075Y645216D02*
X171075Y645216D01*
X171081Y645221D01*
X171085Y645218D01*
X172210Y645560D01*
X172215Y645565D01*
X172219Y645563D01*
X173257Y646118D01*
X173260Y646124D01*
X173265Y646123D01*
X174174Y646869D01*
X174176Y646876D01*
X174181Y646876D01*
X174927Y647785D01*
X174927Y647793D01*
X174932Y647793D01*
X175487Y648831D01*
X175486Y648838D01*
X175490Y648840D01*
X175607Y649224D01*
X175801Y649865D01*
X175832Y649965D01*
X175829Y649972D01*
X175834Y649975D01*
X175949Y651145D01*
X175947Y651148D01*
X175949Y651150D01*
X175949Y662150D01*
X175947Y662153D01*
X175949Y662155D01*
X175834Y663325D01*
X175829Y663331D01*
X175832Y663335D01*
X175490Y664460D01*
X175485Y664465D01*
X175487Y664469D01*
X174932Y665507D01*
X174926Y665510D01*
X174927Y665515D01*
X174181Y666424D01*
X174174Y666426D01*
X174174Y666431D01*
X173265Y667177D01*
X173257Y667177D01*
X173257Y667182D01*
X172723Y667468D01*
X172487Y667661D01*
X172480Y667661D01*
X172479Y667667D01*
X171528Y668175D01*
X171521Y668174D01*
X171519Y668178D01*
X170487Y668491D01*
X170481Y668489D01*
X170478Y668493D01*
X169405Y668599D01*
X169402Y668597D01*
X169400Y668599D01*
X163900Y668599D01*
X163897Y668597D01*
X163895Y668599D01*
X162822Y668493D01*
X162817Y668488D01*
X162813Y668491D01*
X161781Y668178D01*
X161777Y668173D01*
X161772Y668175D01*
X160821Y667667D01*
X160818Y667660D01*
X160813Y667661D01*
X159980Y666977D01*
X159978Y666970D01*
X159973Y666970D01*
X159289Y666137D01*
X159289Y666130D01*
X159283Y666129D01*
X158775Y665178D01*
X158776Y665171D01*
X158772Y665169D01*
X158459Y664137D01*
X158461Y664131D01*
X158457Y664128D01*
X158351Y663055D01*
X158355Y663049D01*
X158351Y663045D01*
X158457Y661972D01*
X158462Y661967D01*
X158459Y661963D01*
X158772Y660931D01*
X158777Y660927D01*
X158775Y660922D01*
X159283Y659971D01*
X159290Y659968D01*
X159289Y659963D01*
X159973Y659130D01*
X159980Y659128D01*
X159980Y659123D01*
X160813Y658439D01*
X160820Y658439D01*
X160821Y658433D01*
X161772Y657925D01*
X161779Y657926D01*
X161781Y657922D01*
X162813Y657609D01*
X162820Y657611D01*
X162822Y657607D01*
X163851Y657505D01*
X163851Y651150D01*
X163853Y651147D01*
X163851Y651145D01*
X163966Y649975D01*
X163971Y649969D01*
X163968Y649965D01*
X164310Y648840D01*
X164315Y648835D01*
X164313Y648831D01*
X164868Y647793D01*
X164874Y647790D01*
X164873Y647785D01*
X165619Y646876D01*
X165626Y646874D01*
X165626Y646869D01*
X166535Y646123D01*
X166543Y646123D01*
X166543Y646118D01*
X167581Y645563D01*
X167588Y645564D01*
X167590Y645560D01*
X168715Y645218D01*
X168722Y645221D01*
X168725Y645216D01*
X169895Y645101D01*
X169901Y645105D01*
X169905Y645101D01*
X171075Y645216D01*
G37*
G36*
X84773Y694226D02*
X84773Y694226D01*
X84778Y694231D01*
X84782Y694228D01*
X86002Y694598D01*
X86006Y694604D01*
X86011Y694601D01*
X87134Y695202D01*
X87137Y695209D01*
X87142Y695207D01*
X88127Y696016D01*
X88129Y696023D01*
X88134Y696023D01*
X88943Y697008D01*
X88943Y697015D01*
X88948Y697016D01*
X89549Y698139D01*
X89548Y698147D01*
X89552Y698148D01*
X89922Y699368D01*
X89920Y699374D01*
X89924Y699377D01*
X90049Y700645D01*
X90047Y700648D01*
X90049Y700650D01*
X90049Y713650D01*
X90047Y713653D01*
X90049Y713655D01*
X89924Y714923D01*
X89919Y714928D01*
X89922Y714932D01*
X89552Y716152D01*
X89547Y716156D01*
X89549Y716161D01*
X88948Y717284D01*
X88941Y717287D01*
X88943Y717292D01*
X88134Y718277D01*
X88127Y718279D01*
X88127Y718284D01*
X87142Y719093D01*
X87135Y719093D01*
X87134Y719098D01*
X86011Y719699D01*
X86004Y719698D01*
X86002Y719702D01*
X84782Y720072D01*
X84776Y720070D01*
X84773Y720074D01*
X83505Y720199D01*
X83499Y720195D01*
X83495Y720199D01*
X82227Y720074D01*
X82222Y720069D01*
X82218Y720072D01*
X80998Y719702D01*
X80994Y719697D01*
X80989Y719699D01*
X79866Y719098D01*
X79863Y719091D01*
X79858Y719093D01*
X78873Y718284D01*
X78871Y718277D01*
X78866Y718277D01*
X78057Y717292D01*
X78057Y717285D01*
X78052Y717284D01*
X77451Y716161D01*
X77452Y716154D01*
X77448Y716152D01*
X77078Y714932D01*
X77080Y714926D01*
X77076Y714923D01*
X76951Y713655D01*
X76953Y713652D01*
X76951Y713650D01*
X76951Y700650D01*
X76953Y700647D01*
X76951Y700645D01*
X77076Y699377D01*
X77081Y699372D01*
X77078Y699368D01*
X77448Y698148D01*
X77454Y698144D01*
X77451Y698139D01*
X78052Y697016D01*
X78059Y697013D01*
X78057Y697008D01*
X78866Y696023D01*
X78873Y696021D01*
X78873Y696016D01*
X79858Y695207D01*
X79865Y695207D01*
X79866Y695202D01*
X80989Y694601D01*
X80997Y694602D01*
X80998Y694598D01*
X82218Y694228D01*
X82224Y694230D01*
X82227Y694226D01*
X83495Y694101D01*
X83501Y694105D01*
X83505Y694101D01*
X84773Y694226D01*
G37*
G36*
X171173Y694226D02*
X171173Y694226D01*
X171178Y694231D01*
X171182Y694228D01*
X172402Y694598D01*
X172406Y694604D01*
X172411Y694601D01*
X173534Y695202D01*
X173537Y695209D01*
X173542Y695207D01*
X174527Y696016D01*
X174529Y696023D01*
X174534Y696023D01*
X175343Y697008D01*
X175343Y697015D01*
X175348Y697016D01*
X175949Y698139D01*
X175948Y698147D01*
X175952Y698148D01*
X176322Y699368D01*
X176320Y699374D01*
X176324Y699377D01*
X176449Y700645D01*
X176447Y700648D01*
X176449Y700650D01*
X176449Y713650D01*
X176447Y713653D01*
X176449Y713655D01*
X176324Y714923D01*
X176319Y714928D01*
X176322Y714932D01*
X175952Y716152D01*
X175947Y716156D01*
X175949Y716161D01*
X175348Y717284D01*
X175341Y717287D01*
X175343Y717292D01*
X174534Y718277D01*
X174527Y718279D01*
X174527Y718284D01*
X173542Y719093D01*
X173535Y719093D01*
X173534Y719098D01*
X172411Y719699D01*
X172404Y719698D01*
X172402Y719702D01*
X171182Y720072D01*
X171176Y720070D01*
X171173Y720074D01*
X169905Y720199D01*
X169899Y720195D01*
X169895Y720199D01*
X168627Y720074D01*
X168622Y720069D01*
X168618Y720072D01*
X167398Y719702D01*
X167394Y719697D01*
X167389Y719699D01*
X166266Y719098D01*
X166263Y719091D01*
X166258Y719093D01*
X165273Y718284D01*
X165271Y718277D01*
X165266Y718277D01*
X164457Y717292D01*
X164457Y717285D01*
X164452Y717284D01*
X163851Y716161D01*
X163852Y716154D01*
X163848Y716152D01*
X163478Y714932D01*
X163480Y714926D01*
X163476Y714923D01*
X163351Y713655D01*
X163353Y713652D01*
X163351Y713650D01*
X163351Y700650D01*
X163353Y700647D01*
X163351Y700645D01*
X163476Y699377D01*
X163481Y699372D01*
X163478Y699368D01*
X163848Y698148D01*
X163854Y698144D01*
X163851Y698139D01*
X164452Y697016D01*
X164459Y697013D01*
X164457Y697008D01*
X165266Y696023D01*
X165273Y696021D01*
X165273Y696016D01*
X166258Y695207D01*
X166265Y695207D01*
X166266Y695202D01*
X167389Y694601D01*
X167397Y694602D01*
X167398Y694598D01*
X168618Y694228D01*
X168624Y694230D01*
X168627Y694226D01*
X169895Y694101D01*
X169901Y694105D01*
X169905Y694101D01*
X171173Y694226D01*
G37*
G36*
X553903Y6596D02*
X553903Y6596D01*
X553908Y6601D01*
X553912Y6598D01*
X555132Y6968D01*
X555136Y6974D01*
X555141Y6971D01*
X556264Y7572D01*
X556267Y7579D01*
X556272Y7577D01*
X557257Y8386D01*
X557259Y8393D01*
X557264Y8393D01*
X558073Y9378D01*
X558073Y9385D01*
X558078Y9386D01*
X558679Y10509D01*
X558678Y10517D01*
X558682Y10518D01*
X559052Y11738D01*
X559050Y11744D01*
X559054Y11747D01*
X559179Y13015D01*
X559177Y13018D01*
X559179Y13020D01*
X559179Y26020D01*
X559177Y26023D01*
X559179Y26025D01*
X559054Y27293D01*
X559049Y27298D01*
X559052Y27302D01*
X558682Y28522D01*
X558677Y28526D01*
X558679Y28531D01*
X558078Y29654D01*
X558071Y29657D01*
X558073Y29662D01*
X557264Y30647D01*
X557257Y30649D01*
X557257Y30654D01*
X556272Y31463D01*
X556265Y31463D01*
X556264Y31468D01*
X555141Y32069D01*
X555134Y32068D01*
X555132Y32072D01*
X553912Y32442D01*
X553906Y32440D01*
X553903Y32444D01*
X552635Y32569D01*
X552629Y32565D01*
X552625Y32569D01*
X551357Y32444D01*
X551352Y32439D01*
X551348Y32442D01*
X550128Y32072D01*
X550124Y32067D01*
X550119Y32069D01*
X548996Y31468D01*
X548993Y31461D01*
X548988Y31463D01*
X548003Y30654D01*
X548001Y30647D01*
X547996Y30647D01*
X547187Y29662D01*
X547187Y29655D01*
X547182Y29654D01*
X546581Y28531D01*
X546582Y28524D01*
X546578Y28522D01*
X546208Y27302D01*
X546210Y27296D01*
X546206Y27293D01*
X546081Y26025D01*
X546083Y26022D01*
X546081Y26020D01*
X546081Y13020D01*
X546083Y13017D01*
X546081Y13015D01*
X546206Y11747D01*
X546211Y11742D01*
X546208Y11738D01*
X546578Y10518D01*
X546584Y10514D01*
X546581Y10509D01*
X547182Y9386D01*
X547189Y9383D01*
X547187Y9378D01*
X547996Y8393D01*
X548003Y8391D01*
X548003Y8386D01*
X548988Y7577D01*
X548995Y7577D01*
X548996Y7572D01*
X550119Y6971D01*
X550127Y6972D01*
X550128Y6968D01*
X551348Y6598D01*
X551354Y6600D01*
X551357Y6596D01*
X552625Y6471D01*
X552631Y6475D01*
X552635Y6471D01*
X553903Y6596D01*
G37*
G36*
X467503Y6596D02*
X467503Y6596D01*
X467508Y6601D01*
X467512Y6598D01*
X468732Y6968D01*
X468736Y6974D01*
X468741Y6971D01*
X469864Y7572D01*
X469867Y7579D01*
X469872Y7577D01*
X470857Y8386D01*
X470859Y8393D01*
X470864Y8393D01*
X471673Y9378D01*
X471673Y9385D01*
X471678Y9386D01*
X472279Y10509D01*
X472278Y10517D01*
X472282Y10518D01*
X472652Y11738D01*
X472650Y11744D01*
X472654Y11747D01*
X472779Y13015D01*
X472777Y13018D01*
X472779Y13020D01*
X472779Y26020D01*
X472777Y26023D01*
X472779Y26025D01*
X472654Y27293D01*
X472649Y27298D01*
X472652Y27302D01*
X472282Y28522D01*
X472277Y28526D01*
X472279Y28531D01*
X471678Y29654D01*
X471671Y29657D01*
X471673Y29662D01*
X470864Y30647D01*
X470857Y30649D01*
X470857Y30654D01*
X469872Y31463D01*
X469865Y31463D01*
X469864Y31468D01*
X468741Y32069D01*
X468734Y32068D01*
X468732Y32072D01*
X467512Y32442D01*
X467506Y32440D01*
X467503Y32444D01*
X466235Y32569D01*
X466229Y32565D01*
X466225Y32569D01*
X464957Y32444D01*
X464952Y32439D01*
X464948Y32442D01*
X463728Y32072D01*
X463724Y32067D01*
X463719Y32069D01*
X462596Y31468D01*
X462593Y31461D01*
X462588Y31463D01*
X461603Y30654D01*
X461601Y30647D01*
X461596Y30647D01*
X460787Y29662D01*
X460787Y29655D01*
X460782Y29654D01*
X460181Y28531D01*
X460182Y28524D01*
X460178Y28522D01*
X459808Y27302D01*
X459810Y27296D01*
X459806Y27293D01*
X459681Y26025D01*
X459683Y26022D01*
X459681Y26020D01*
X459681Y13020D01*
X459683Y13017D01*
X459681Y13015D01*
X459806Y11747D01*
X459811Y11742D01*
X459808Y11738D01*
X460178Y10518D01*
X460184Y10514D01*
X460181Y10509D01*
X460782Y9386D01*
X460789Y9383D01*
X460787Y9378D01*
X461596Y8393D01*
X461603Y8391D01*
X461603Y8386D01*
X462588Y7577D01*
X462595Y7577D01*
X462596Y7572D01*
X463719Y6971D01*
X463727Y6972D01*
X463728Y6968D01*
X464948Y6598D01*
X464954Y6600D01*
X464957Y6596D01*
X466225Y6471D01*
X466231Y6475D01*
X466235Y6471D01*
X467503Y6596D01*
G37*
D10*
X471051Y106203D03*
X471051Y134203D03*
D11*
X454744Y108351D03*
X454744Y95351D03*
D12*
X126556Y359586D03*
X113556Y359586D03*
D13*
X105256Y414826D03*
X117956Y414826D03*
X130656Y414826D03*
X130656Y446830D03*
X117956Y446830D03*
X105256Y446830D03*
D14*
X433550Y108250D03*
X376450Y108250D03*
X433550Y133650D03*
X376450Y133650D03*
X433550Y159050D03*
X376450Y159050D03*
X433550Y184450D03*
X376450Y184450D03*
X433550Y209850D03*
X376450Y209850D03*
X433550Y235250D03*
X376450Y235250D03*
X433550Y260650D03*
X376450Y260650D03*
X433550Y286050D03*
X376450Y286050D03*
X433550Y311450D03*
X376450Y311450D03*
X433550Y336850D03*
X376450Y336850D03*
X433550Y362250D03*
X376450Y362250D03*
X433550Y387650D03*
X376450Y387650D03*
X433550Y413050D03*
X376450Y413050D03*
X433550Y438450D03*
X376450Y438450D03*
X433550Y463850D03*
X376450Y463850D03*
X433550Y489250D03*
X376450Y489250D03*
X433550Y514650D03*
X376450Y514650D03*
X433550Y540050D03*
X376450Y540050D03*
X433550Y565450D03*
X376450Y565450D03*
X433550Y590850D03*
X376450Y590850D03*
X77950Y108250D03*
X20850Y108250D03*
X77950Y133650D03*
X20850Y133650D03*
X77950Y159050D03*
X20850Y159050D03*
X77950Y184450D03*
X20850Y184450D03*
X77950Y209850D03*
X20850Y209850D03*
X77950Y235250D03*
X20850Y235250D03*
X77950Y260650D03*
X20850Y260650D03*
X77950Y286050D03*
X20850Y286050D03*
X77950Y311450D03*
X20850Y311450D03*
X77950Y336850D03*
X20850Y336850D03*
X77950Y362250D03*
X20850Y362250D03*
X77950Y387650D03*
X20850Y387650D03*
X77950Y413050D03*
X20850Y413050D03*
X77950Y438450D03*
X20850Y438450D03*
X77950Y463850D03*
X20850Y463850D03*
X77950Y489250D03*
X20850Y489250D03*
X77950Y514650D03*
X20850Y514650D03*
X77950Y540050D03*
X20850Y540050D03*
X77950Y565450D03*
X20850Y565450D03*
X77950Y590850D03*
X20850Y590850D03*
D15*
X405000Y578600D03*
X405000Y121400D03*
X49400Y121400D03*
X49400Y578600D03*
D16*
X306056Y387496D03*
X306056Y391496D03*
X306056Y395496D03*
X306056Y399496D03*
X306056Y403496D03*
X306056Y407496D03*
X306056Y411496D03*
X306056Y415496D03*
X306056Y419496D03*
X306056Y423496D03*
X306056Y427496D03*
X306056Y431496D03*
X306056Y435496D03*
X306056Y439496D03*
X306056Y443496D03*
X306056Y447496D03*
X306056Y451496D03*
X306056Y455496D03*
X306056Y459496D03*
X306056Y463496D03*
X306056Y467496D03*
X306056Y471496D03*
D17*
X298556Y478996D03*
X294556Y478996D03*
X290556Y478996D03*
X286556Y478996D03*
X282556Y478996D03*
X278556Y478996D03*
X274556Y478996D03*
X270556Y478996D03*
X266556Y478996D03*
X262556Y478996D03*
X258556Y478996D03*
X254556Y478996D03*
X250556Y478996D03*
X246556Y478996D03*
X242556Y478996D03*
X238556Y478996D03*
X234556Y478996D03*
X230556Y478996D03*
X226556Y478996D03*
X222556Y478996D03*
X218556Y478996D03*
X214556Y478996D03*
D16*
X207056Y471496D03*
X207056Y467496D03*
X207056Y463496D03*
X207056Y459496D03*
X207056Y455496D03*
X207056Y451496D03*
X207056Y447496D03*
X207056Y443496D03*
X207056Y439496D03*
X207056Y435496D03*
X207056Y431496D03*
X207056Y427496D03*
X207056Y423496D03*
X207056Y419496D03*
X207056Y415496D03*
X207056Y411496D03*
X207056Y407496D03*
X207056Y403496D03*
X207056Y399496D03*
X207056Y395496D03*
X207056Y391496D03*
X207056Y387496D03*
D17*
X214556Y379996D03*
X218556Y379996D03*
X222556Y379996D03*
X226556Y379996D03*
X230556Y379996D03*
X234556Y379996D03*
X238556Y379996D03*
X242556Y379996D03*
X246556Y379996D03*
X250556Y379996D03*
X254556Y379996D03*
X258556Y379996D03*
X262556Y379996D03*
X266556Y379996D03*
X270556Y379996D03*
X274556Y379996D03*
X278556Y379996D03*
X282556Y379996D03*
X286556Y379996D03*
X290556Y379996D03*
X294556Y379996D03*
X298556Y379996D03*
D18*
X256556Y429496D03*
D19*
X162166Y327406D03*
X162166Y287406D03*
X186166Y287406D03*
X186166Y327406D03*
D20*
X188166Y350406D03*
X174166Y350406D03*
X160166Y264406D03*
X174166Y264406D03*
D12*
X248094Y302666D03*
X263094Y302666D03*
D11*
X130056Y322496D03*
X130056Y307496D03*
X130056Y272496D03*
X130056Y287496D03*
X342306Y375906D03*
X342306Y390906D03*
D21*
X355306Y390406D03*
X355306Y376406D03*
D11*
X161306Y473906D03*
X161306Y488906D03*
X160556Y442496D03*
X160556Y457496D03*
X158786Y426496D03*
X158786Y411496D03*
X158516Y383496D03*
X158516Y398496D03*
D12*
X218666Y314406D03*
X233666Y314406D03*
X218666Y300406D03*
X233666Y300406D03*
D20*
X341806Y403906D03*
X355806Y403906D03*
X305056Y508996D03*
X319056Y508996D03*
D21*
X175306Y488406D03*
X175306Y474406D03*
X173246Y444266D03*
X173246Y458266D03*
X176056Y397996D03*
X176056Y383996D03*
X175056Y411996D03*
X175056Y425996D03*
X114504Y256556D03*
X114504Y242556D03*
D20*
X274056Y508996D03*
X288056Y508996D03*
X218056Y521996D03*
X204056Y521996D03*
D21*
X128504Y256556D03*
X128504Y242556D03*
D20*
X342306Y419406D03*
X356306Y419406D03*
X218056Y502996D03*
X204056Y502996D03*
X192056Y209996D03*
X178056Y209996D03*
X233166Y347406D03*
X219166Y347406D03*
X233056Y333396D03*
X219056Y333396D03*
X273166Y347406D03*
X287166Y347406D03*
X246166Y347406D03*
X260166Y347406D03*
X246166Y333406D03*
X260166Y333406D03*
X300166Y347406D03*
X314166Y347406D03*
X298666Y333806D03*
X312666Y333806D03*
D22*
X142504Y256414D03*
X142504Y242698D03*
D23*
X191914Y224996D03*
X178198Y224996D03*
D24*
X120055Y226496D03*
X120055Y216996D03*
X120055Y207344D03*
X146264Y207344D03*
X146264Y226496D03*
D25*
X478946Y284516D03*
X478946Y325516D03*
D21*
X160056Y224996D03*
X160056Y210996D03*
X105056Y229996D03*
X105056Y215996D03*
D22*
X456504Y270948D03*
X456504Y284664D03*
D21*
X502446Y322984D03*
X502446Y308984D03*
X516836Y322984D03*
X516836Y308984D03*
D26*
X217556Y544996D03*
X227056Y544996D03*
X236556Y544996D03*
X236556Y571996D03*
X227056Y571996D03*
X217556Y571996D03*
X262556Y544996D03*
X272056Y544996D03*
X281556Y544996D03*
X281556Y571996D03*
X272056Y571996D03*
X262556Y571996D03*
X307556Y544996D03*
X317056Y544996D03*
X326556Y544996D03*
X326556Y571996D03*
X317056Y571996D03*
X307556Y571996D03*
D27*
X242500Y621896D03*
X247500Y621896D03*
X252500Y621896D03*
X257500Y621896D03*
X262500Y621896D03*
X267500Y621896D03*
X272500Y621896D03*
X277500Y621896D03*
X282500Y621896D03*
X287500Y621896D03*
X292500Y621896D03*
X297500Y621896D03*
X302500Y621896D03*
X307500Y621896D03*
X312500Y621896D03*
X317500Y621896D03*
X322500Y621896D03*
X327500Y621896D03*
X332500Y621896D03*
D28*
X360000Y681603D02*
X360000Y696589D01*
X215000Y696589D02*
X215000Y681603D01*
X215000Y636989D02*
X215000Y622003D01*
X360000Y622003D02*
X360000Y636989D01*
D29*
X360000Y621996D03*
X360000Y636996D03*
X360000Y626496D03*
X360000Y632496D03*
X360000Y681496D03*
X360000Y696496D03*
X360000Y685996D03*
X360000Y691996D03*
X215000Y621996D03*
X215000Y636996D03*
X215000Y626496D03*
X215000Y632496D03*
X215000Y681496D03*
X215000Y685996D03*
X215000Y696496D03*
X215000Y691996D03*
D11*
X346056Y555496D03*
X346056Y570496D03*
D30*
X256350Y141250D03*
X249850Y141250D03*
X243350Y141250D03*
X236850Y141250D03*
X230350Y141250D03*
X223850Y141250D03*
X217350Y141250D03*
X210850Y141250D03*
X204350Y141250D03*
X197850Y141250D03*
X197850Y68750D03*
X204350Y68750D03*
X210850Y68750D03*
X217350Y68750D03*
X223850Y68750D03*
X230350Y68750D03*
X236850Y68750D03*
X243350Y68750D03*
X249850Y68750D03*
X256350Y68750D03*
D12*
X235950Y166750D03*
X222950Y166750D03*
X247050Y166750D03*
X260050Y166750D03*
D31*
X176300Y20500D03*
X176300Y62500D03*
X125500Y62500D03*
X125500Y20500D03*
D32*
X150900Y20500D03*
X150900Y62500D03*
D33*
X152950Y649650D03*
X147950Y649650D03*
X142950Y649650D03*
X137950Y649650D03*
X132950Y649650D03*
X127950Y649650D03*
X122950Y649650D03*
X117950Y649650D03*
X112950Y649650D03*
X107950Y649650D03*
X102950Y649650D03*
X97950Y649650D03*
D34*
X100450Y665650D03*
X105450Y665650D03*
X110450Y665650D03*
X115450Y665650D03*
X120450Y665650D03*
X125450Y665650D03*
X130450Y665650D03*
X135450Y665650D03*
X140450Y665650D03*
X145450Y665650D03*
X150450Y665650D03*
X155450Y665650D03*
D29*
X90700Y676000D03*
D35*
X162700Y676650D03*
D33*
X483180Y77020D03*
X488180Y77020D03*
X493180Y77020D03*
X498180Y77020D03*
X503180Y77020D03*
X508180Y77020D03*
X513180Y77020D03*
X518180Y77020D03*
X523180Y77020D03*
X528180Y77020D03*
X533180Y77020D03*
X538180Y77020D03*
D34*
X535680Y61020D03*
X530680Y61020D03*
X525680Y61020D03*
X520680Y61020D03*
X515680Y61020D03*
X510680Y61020D03*
X505680Y61020D03*
X500680Y61020D03*
X495680Y61020D03*
X490680Y61020D03*
X485680Y61020D03*
X480680Y61020D03*
D29*
X545430Y50670D03*
D35*
X473430Y50020D03*
D12*
X227500Y15600D03*
X240500Y15600D03*
D36*
X274500Y15600D03*
X253500Y15600D03*
D12*
X227500Y35100D03*
X240500Y35100D03*
D36*
X274500Y35100D03*
X253500Y35100D03*
D11*
X346670Y101000D03*
X346670Y114000D03*
D12*
X331800Y101210D03*
X318800Y101210D03*
D37*
X309375Y28350D03*
X315725Y28350D03*
X322075Y28350D03*
X328425Y28350D03*
X334775Y28350D03*
X341125Y28350D03*
X347475Y28350D03*
X353825Y28350D03*
X353825Y83850D03*
X347475Y83850D03*
X341125Y83850D03*
X334775Y83850D03*
X328425Y83850D03*
X322075Y83850D03*
X315725Y83850D03*
X309375Y83850D03*
D11*
X291500Y106300D03*
X291500Y93300D03*
X364490Y28640D03*
X364490Y41640D03*
X364370Y84460D03*
X364370Y71460D03*
X379340Y41610D03*
X379340Y28610D03*
X378490Y71160D03*
X378490Y84160D03*
D12*
X178750Y127090D03*
X163750Y127090D03*
X179260Y111060D03*
X164260Y111060D03*
X278710Y126180D03*
X293710Y126180D03*
X278490Y167680D03*
X293490Y167680D03*
D11*
X455000Y136500D03*
X455000Y149500D03*
X455000Y184500D03*
X455000Y171500D03*
D12*
X291950Y153920D03*
X278950Y153920D03*
X291830Y139960D03*
X278830Y139960D03*
D22*
X123000Y165358D03*
X123000Y151642D03*
D38*
X706778Y104480D03*
X677822Y104480D03*
D11*
X179700Y177400D03*
X179700Y162400D03*
X197550Y162400D03*
X197550Y177400D03*
D39*
X230250Y180350D03*
X213250Y180350D03*
X246750Y180350D03*
X263750Y180350D03*
D40*
X650000Y214460D03*
X710000Y214460D03*
X650000Y150340D03*
X710000Y150340D03*
D41*
X589610Y190190D03*
X585610Y190190D03*
X581610Y190190D03*
X577610Y190190D03*
X573610Y190190D03*
X569610Y190190D03*
X565610Y190190D03*
X561610Y190190D03*
X557610Y190190D03*
X553610Y190190D03*
X549610Y190190D03*
X545610Y190190D03*
X541610Y190190D03*
X537610Y190190D03*
D42*
X530110Y182690D03*
X530110Y178690D03*
X530110Y174690D03*
X530110Y170690D03*
X530110Y166690D03*
X530110Y162690D03*
X530110Y158690D03*
X530110Y154690D03*
X530110Y150690D03*
X530110Y146690D03*
X530110Y142690D03*
X530110Y138690D03*
X530110Y134690D03*
X530110Y130690D03*
D41*
X537610Y123190D03*
X541610Y123190D03*
X545610Y123190D03*
X549610Y123190D03*
X553610Y123190D03*
X557610Y123190D03*
X561610Y123190D03*
X565610Y123190D03*
X569610Y123190D03*
X573610Y123190D03*
X577610Y123190D03*
X581610Y123190D03*
X585610Y123190D03*
X589610Y123190D03*
D42*
X597110Y130690D03*
X597110Y134690D03*
X597110Y138690D03*
X597110Y142690D03*
X597110Y146690D03*
X597110Y150690D03*
X597110Y154690D03*
X597110Y158690D03*
X597110Y162690D03*
X597110Y166690D03*
X597110Y170690D03*
X597110Y174690D03*
X597110Y178690D03*
X597110Y182690D03*
D43*
X563610Y146190D03*
D44*
X578110Y175440D03*
D45*
X548860Y175440D03*
D46*
X163240Y559660D03*
X159240Y559660D03*
X155240Y559660D03*
X151240Y559660D03*
X147240Y559660D03*
X163240Y589660D03*
X159240Y589660D03*
X155240Y589660D03*
X151240Y589660D03*
X147240Y589660D03*
D47*
X170240Y574660D03*
X170240Y570660D03*
X170240Y566660D03*
X170240Y578660D03*
X170240Y582660D03*
X140240Y574660D03*
X140240Y570660D03*
X140240Y566660D03*
X140240Y578660D03*
X140240Y582660D03*
D48*
X155240Y574660D03*
D47*
X402120Y34130D03*
X402120Y38130D03*
X402120Y42130D03*
X402120Y46130D03*
X402120Y50130D03*
X432120Y34130D03*
X432120Y38130D03*
X432120Y42130D03*
X432120Y46130D03*
X432120Y50130D03*
D46*
X417120Y27130D03*
X413120Y27130D03*
X409120Y27130D03*
X421120Y27130D03*
X425120Y27130D03*
X417120Y57130D03*
X413120Y57130D03*
X409120Y57130D03*
X421120Y57130D03*
X425120Y57130D03*
D48*
X417120Y42130D03*
D49*
X568160Y219180D03*
X568160Y209180D03*
X568160Y237690D03*
X568160Y227690D03*
X557470Y219180D03*
X557470Y209180D03*
X557370Y237760D03*
X557370Y227760D03*
X554200Y100528D03*
X554200Y90528D03*
X563958Y100530D03*
X563958Y90530D03*
X504960Y218460D03*
X504960Y208460D03*
D50*
X155070Y625790D03*
X155070Y608790D03*
X109410Y583370D03*
X109410Y566370D03*
D49*
X122220Y576700D03*
X122220Y566700D03*
D51*
X641750Y334410D03*
X641750Y352410D03*
D52*
X346710Y284750D03*
X334010Y284750D03*
X321310Y284750D03*
X308610Y284750D03*
X308610Y235900D03*
X321310Y235900D03*
X334010Y235900D03*
X346710Y235900D03*
D49*
X321310Y299800D03*
X321310Y309800D03*
X334010Y299800D03*
X334010Y309800D03*
X346710Y299800D03*
X346710Y309800D03*
X334010Y220900D03*
X334010Y210900D03*
D11*
X346710Y202900D03*
X346710Y215900D03*
D53*
X508740Y198810D03*
X494380Y202810D03*
X542390Y110690D03*
X542850Y98600D03*
X493750Y189440D03*
X629240Y82870D03*
X628820Y95410D03*
X628880Y108050D03*
X630510Y158810D03*
X630470Y171640D03*
D49*
X530726Y105620D03*
X530726Y95620D03*
D12*
X252850Y52070D03*
X267850Y52070D03*
D23*
X152908Y179070D03*
X139192Y179070D03*
D54*
X677500Y363750D03*
X677500Y296250D03*
X677500Y398750D03*
X677500Y466250D03*
D51*
X644820Y407460D03*
X644820Y389460D03*
X626340Y407780D03*
X626340Y389780D03*
D11*
X610860Y390370D03*
X610860Y403370D03*
D12*
X624754Y421960D03*
X611754Y421960D03*
D55*
X595540Y390720D03*
X595540Y395720D03*
X595540Y400720D03*
X595540Y405720D03*
D56*
X588540Y412720D03*
D57*
X583540Y410720D03*
X578540Y410720D03*
D56*
X573540Y412720D03*
D55*
X566540Y405720D03*
X566540Y400720D03*
X566540Y395720D03*
X566540Y390720D03*
D56*
X573540Y383720D03*
D57*
X578540Y385720D03*
X583540Y385720D03*
D56*
X588540Y383720D03*
D58*
X534460Y420960D03*
X552460Y420960D03*
D51*
X577980Y446010D03*
X577980Y428010D03*
D39*
X595300Y428150D03*
X595300Y445150D03*
D51*
X550630Y405490D03*
X550630Y387490D03*
X532850Y405880D03*
X532850Y387880D03*
X497570Y405740D03*
X497570Y387740D03*
X515050Y405660D03*
X515050Y387660D03*
D12*
X599688Y368772D03*
X586688Y368772D03*
X560640Y368770D03*
X573640Y368770D03*
D59*
X616600Y312020D03*
X547100Y312020D03*
D60*
X604450Y554228D03*
D61*
X591750Y528828D03*
X579050Y554228D03*
X566350Y528828D03*
X553650Y554228D03*
X540950Y528828D03*
X528250Y554228D03*
X515550Y528828D03*
D62*
X640010Y585978D03*
X479990Y585978D03*
D61*
X493960Y666750D03*
X519360Y666750D03*
X626040Y666750D03*
X600640Y666750D03*
D63*
X617150Y617728D03*
X502850Y617728D03*
D38*
X706778Y262500D03*
X677822Y262500D03*
D64*
X45000Y670000D03*
X680000Y55000D03*
X45000Y55000D03*
X680000Y670000D03*
D65*
X522236Y68554D03*
M02*
