G04 EAGLE Gerber RS-274X export*
G75*
%MOMM*%
%FSLAX34Y34*%
%LPD*%
%IN*%
%IPPOS*%
%AMOC8*
5,1,8,0,0,1.08239X$1,22.5*%
G01*
%ADD10C,0.254000*%


D10*
X0Y15000D02*
X57Y13693D01*
X228Y12395D01*
X511Y11118D01*
X905Y9870D01*
X1405Y8661D01*
X2010Y7500D01*
X2713Y6396D01*
X3509Y5358D01*
X4393Y4393D01*
X5358Y3509D01*
X6396Y2713D01*
X7500Y2010D01*
X8661Y1405D01*
X9870Y905D01*
X11118Y511D01*
X12395Y228D01*
X13693Y57D01*
X15000Y0D01*
X710000Y0D01*
X711307Y57D01*
X712605Y228D01*
X713882Y511D01*
X715130Y905D01*
X716339Y1405D01*
X717500Y2010D01*
X718604Y2713D01*
X719642Y3509D01*
X720607Y4393D01*
X721491Y5358D01*
X722287Y6396D01*
X722990Y7500D01*
X723595Y8661D01*
X724095Y9870D01*
X724489Y11118D01*
X724772Y12395D01*
X724943Y13693D01*
X725000Y15000D01*
X725000Y710000D01*
X724943Y711307D01*
X724772Y712605D01*
X724489Y713882D01*
X724095Y715130D01*
X723595Y716339D01*
X722990Y717500D01*
X722287Y718604D01*
X721491Y719642D01*
X720607Y720607D01*
X719642Y721491D01*
X718604Y722287D01*
X717500Y722990D01*
X716339Y723595D01*
X715130Y724095D01*
X713882Y724489D01*
X712605Y724772D01*
X711307Y724943D01*
X710000Y725000D01*
X15000Y725000D01*
X13693Y724943D01*
X12395Y724772D01*
X11118Y724489D01*
X9870Y724095D01*
X8661Y723595D01*
X7500Y722990D01*
X6396Y722287D01*
X5358Y721491D01*
X4393Y720607D01*
X3509Y719642D01*
X2713Y718604D01*
X2010Y717500D01*
X1405Y716339D01*
X905Y715130D01*
X511Y713882D01*
X228Y712605D01*
X57Y711307D01*
X0Y710000D01*
X0Y15000D01*
X463230Y64020D02*
X463243Y63715D01*
X463283Y63412D01*
X463349Y63114D01*
X463441Y62823D01*
X463558Y62541D01*
X463699Y62270D01*
X463863Y62012D01*
X464049Y61770D01*
X464255Y61545D01*
X464480Y61339D01*
X464722Y61153D01*
X464980Y60989D01*
X465251Y60848D01*
X465533Y60731D01*
X465824Y60639D01*
X466122Y60573D01*
X466425Y60533D01*
X466730Y60520D01*
X472230Y60520D01*
X472535Y60533D01*
X472838Y60573D01*
X473136Y60639D01*
X473427Y60731D01*
X473709Y60848D01*
X473980Y60989D01*
X474238Y61153D01*
X474480Y61339D01*
X474705Y61545D01*
X474911Y61770D01*
X475097Y62012D01*
X475261Y62270D01*
X475402Y62541D01*
X475519Y62823D01*
X475611Y63114D01*
X475677Y63412D01*
X475717Y63715D01*
X475730Y64020D01*
X475717Y64325D01*
X475677Y64628D01*
X475611Y64926D01*
X475519Y65217D01*
X475402Y65499D01*
X475261Y65770D01*
X475097Y66028D01*
X474911Y66270D01*
X474705Y66495D01*
X474480Y66701D01*
X474238Y66887D01*
X473980Y67051D01*
X473709Y67192D01*
X473427Y67309D01*
X473136Y67401D01*
X472838Y67467D01*
X472535Y67507D01*
X472230Y67520D01*
X469230Y67520D01*
X469230Y76520D01*
X469219Y76781D01*
X469184Y77041D01*
X469128Y77296D01*
X469049Y77546D01*
X468949Y77788D01*
X468828Y78020D01*
X468687Y78241D01*
X468528Y78448D01*
X468351Y78641D01*
X468158Y78818D01*
X467951Y78977D01*
X467730Y79118D01*
X467498Y79239D01*
X467256Y79339D01*
X467006Y79418D01*
X466751Y79474D01*
X466491Y79509D01*
X466230Y79520D01*
X465969Y79509D01*
X465709Y79474D01*
X465454Y79418D01*
X465204Y79339D01*
X464962Y79239D01*
X464730Y79118D01*
X464509Y78977D01*
X464302Y78818D01*
X464109Y78641D01*
X463932Y78448D01*
X463773Y78241D01*
X463632Y78020D01*
X463511Y77788D01*
X463411Y77546D01*
X463332Y77296D01*
X463276Y77041D01*
X463241Y76781D01*
X463230Y76520D01*
X463230Y64020D01*
X462730Y13020D02*
X462743Y12715D01*
X462783Y12412D01*
X462849Y12114D01*
X462941Y11823D01*
X463058Y11541D01*
X463199Y11270D01*
X463363Y11012D01*
X463549Y10770D01*
X463755Y10545D01*
X463980Y10339D01*
X464222Y10153D01*
X464480Y9989D01*
X464751Y9848D01*
X465033Y9731D01*
X465324Y9639D01*
X465622Y9573D01*
X465925Y9533D01*
X466230Y9520D01*
X466535Y9533D01*
X466838Y9573D01*
X467136Y9639D01*
X467427Y9731D01*
X467709Y9848D01*
X467980Y9989D01*
X468238Y10153D01*
X468480Y10339D01*
X468705Y10545D01*
X468911Y10770D01*
X469097Y11012D01*
X469261Y11270D01*
X469402Y11541D01*
X469519Y11823D01*
X469611Y12114D01*
X469677Y12412D01*
X469717Y12715D01*
X469730Y13020D01*
X469730Y26020D01*
X469717Y26325D01*
X469677Y26628D01*
X469611Y26926D01*
X469519Y27217D01*
X469402Y27499D01*
X469261Y27770D01*
X469097Y28028D01*
X468911Y28270D01*
X468705Y28495D01*
X468480Y28701D01*
X468238Y28887D01*
X467980Y29051D01*
X467709Y29192D01*
X467427Y29309D01*
X467136Y29401D01*
X466838Y29467D01*
X466535Y29507D01*
X466230Y29520D01*
X465925Y29507D01*
X465622Y29467D01*
X465324Y29401D01*
X465033Y29309D01*
X464751Y29192D01*
X464480Y29051D01*
X464222Y28887D01*
X463980Y28701D01*
X463755Y28495D01*
X463549Y28270D01*
X463363Y28028D01*
X463199Y27770D01*
X463058Y27499D01*
X462941Y27217D01*
X462849Y26926D01*
X462783Y26628D01*
X462743Y26325D01*
X462730Y26020D01*
X462730Y13020D01*
X549130Y13020D02*
X549143Y12715D01*
X549183Y12412D01*
X549249Y12114D01*
X549341Y11823D01*
X549458Y11541D01*
X549599Y11270D01*
X549763Y11012D01*
X549949Y10770D01*
X550155Y10545D01*
X550380Y10339D01*
X550622Y10153D01*
X550880Y9989D01*
X551151Y9848D01*
X551433Y9731D01*
X551724Y9639D01*
X552022Y9573D01*
X552325Y9533D01*
X552630Y9520D01*
X552935Y9533D01*
X553238Y9573D01*
X553536Y9639D01*
X553827Y9731D01*
X554109Y9848D01*
X554380Y9989D01*
X554638Y10153D01*
X554880Y10339D01*
X555105Y10545D01*
X555311Y10770D01*
X555497Y11012D01*
X555661Y11270D01*
X555802Y11541D01*
X555919Y11823D01*
X556011Y12114D01*
X556077Y12412D01*
X556117Y12715D01*
X556130Y13020D01*
X556130Y26020D01*
X556117Y26325D01*
X556077Y26628D01*
X556011Y26926D01*
X555919Y27217D01*
X555802Y27499D01*
X555661Y27770D01*
X555497Y28028D01*
X555311Y28270D01*
X555105Y28495D01*
X554880Y28701D01*
X554638Y28887D01*
X554380Y29051D01*
X554109Y29192D01*
X553827Y29309D01*
X553536Y29401D01*
X553238Y29467D01*
X552935Y29507D01*
X552630Y29520D01*
X552325Y29507D01*
X552022Y29467D01*
X551724Y29401D01*
X551433Y29309D01*
X551151Y29192D01*
X550880Y29051D01*
X550622Y28887D01*
X550380Y28701D01*
X550155Y28495D01*
X549949Y28270D01*
X549763Y28028D01*
X549599Y27770D01*
X549458Y27499D01*
X549341Y27217D01*
X549249Y26926D01*
X549183Y26628D01*
X549143Y26325D01*
X549130Y26020D01*
X549130Y13020D01*
X543130Y64020D02*
X543143Y63715D01*
X543183Y63412D01*
X543249Y63114D01*
X543341Y62823D01*
X543458Y62541D01*
X543599Y62270D01*
X543763Y62012D01*
X543949Y61770D01*
X544155Y61545D01*
X544380Y61339D01*
X544622Y61153D01*
X544880Y60989D01*
X545151Y60848D01*
X545433Y60731D01*
X545724Y60639D01*
X546022Y60573D01*
X546325Y60533D01*
X546630Y60520D01*
X552130Y60520D01*
X552435Y60533D01*
X552738Y60573D01*
X553036Y60639D01*
X553327Y60731D01*
X553609Y60848D01*
X553880Y60989D01*
X554138Y61153D01*
X554380Y61339D01*
X554605Y61545D01*
X554811Y61770D01*
X554997Y62012D01*
X555161Y62270D01*
X555302Y62541D01*
X555419Y62823D01*
X555511Y63114D01*
X555577Y63412D01*
X555617Y63715D01*
X555630Y64020D01*
X555630Y76520D01*
X555619Y76781D01*
X555584Y77041D01*
X555528Y77296D01*
X555449Y77546D01*
X555349Y77788D01*
X555228Y78020D01*
X555087Y78241D01*
X554928Y78448D01*
X554751Y78641D01*
X554558Y78818D01*
X554351Y78977D01*
X554130Y79118D01*
X553898Y79239D01*
X553656Y79339D01*
X553406Y79418D01*
X553151Y79474D01*
X552891Y79509D01*
X552630Y79520D01*
X552369Y79509D01*
X552109Y79474D01*
X551854Y79418D01*
X551604Y79339D01*
X551362Y79239D01*
X551130Y79118D01*
X550909Y78977D01*
X550702Y78818D01*
X550509Y78641D01*
X550332Y78448D01*
X550173Y78241D01*
X550032Y78020D01*
X549911Y77788D01*
X549811Y77546D01*
X549732Y77296D01*
X549676Y77041D01*
X549641Y76781D01*
X549630Y76520D01*
X549630Y67520D01*
X546630Y67520D01*
X546325Y67507D01*
X546022Y67467D01*
X545724Y67401D01*
X545433Y67309D01*
X545151Y67192D01*
X544880Y67051D01*
X544622Y66887D01*
X544380Y66701D01*
X544155Y66495D01*
X543949Y66270D01*
X543763Y66028D01*
X543599Y65770D01*
X543458Y65499D01*
X543341Y65217D01*
X543249Y64926D01*
X543183Y64628D01*
X543143Y64325D01*
X543130Y64020D01*
X355500Y621996D02*
X355513Y621608D01*
X355559Y621223D01*
X355639Y620843D01*
X355751Y620471D01*
X355896Y620111D01*
X356071Y619764D01*
X356276Y619435D01*
X356509Y619124D01*
X356768Y618835D01*
X357051Y618569D01*
X357357Y618329D01*
X357682Y618117D01*
X358024Y617934D01*
X358381Y617781D01*
X358750Y617661D01*
X359128Y617572D01*
X359512Y617517D01*
X359900Y617496D01*
X360297Y617509D01*
X360691Y617556D01*
X361079Y617638D01*
X361459Y617753D01*
X361828Y617901D01*
X362182Y618081D01*
X362519Y618290D01*
X362836Y618528D01*
X363132Y618793D01*
X363403Y619083D01*
X363648Y619395D01*
X363865Y619728D01*
X364053Y620078D01*
X364209Y620443D01*
X364332Y620820D01*
X364422Y621207D01*
X364478Y621600D01*
X364500Y621996D01*
X364500Y636496D01*
X364522Y636894D01*
X364509Y637293D01*
X364461Y637689D01*
X364380Y638079D01*
X364264Y638461D01*
X364115Y638831D01*
X363935Y639187D01*
X363725Y639526D01*
X363486Y639845D01*
X363219Y640142D01*
X362928Y640415D01*
X362615Y640661D01*
X362281Y640880D01*
X361929Y641068D01*
X361562Y641225D01*
X361183Y641349D01*
X360795Y641439D01*
X360400Y641496D01*
X360010Y641518D01*
X359620Y641507D01*
X359233Y641461D01*
X358851Y641382D01*
X358477Y641269D01*
X358115Y641125D01*
X357766Y640949D01*
X357434Y640744D01*
X357122Y640511D01*
X356830Y640251D01*
X356563Y639967D01*
X356321Y639661D01*
X356107Y639335D01*
X355922Y638991D01*
X355768Y638632D01*
X355646Y638262D01*
X355556Y637882D01*
X355500Y637496D01*
X355500Y621996D01*
X210500Y681496D02*
X210513Y681108D01*
X210559Y680723D01*
X210639Y680343D01*
X210751Y679971D01*
X210896Y679611D01*
X211071Y679264D01*
X211276Y678935D01*
X211509Y678624D01*
X211768Y678335D01*
X212051Y678069D01*
X212357Y677829D01*
X212682Y677617D01*
X213024Y677434D01*
X213381Y677281D01*
X213750Y677161D01*
X214128Y677072D01*
X214512Y677017D01*
X214900Y676996D01*
X215297Y677009D01*
X215691Y677056D01*
X216079Y677138D01*
X216459Y677253D01*
X216828Y677401D01*
X217182Y677581D01*
X217519Y677790D01*
X217836Y678028D01*
X218132Y678293D01*
X218403Y678583D01*
X218648Y678895D01*
X218865Y679228D01*
X219053Y679578D01*
X219209Y679943D01*
X219332Y680320D01*
X219422Y680707D01*
X219478Y681100D01*
X219500Y681496D01*
X219500Y695996D01*
X219522Y696394D01*
X219509Y696793D01*
X219461Y697189D01*
X219380Y697579D01*
X219264Y697961D01*
X219115Y698331D01*
X218935Y698687D01*
X218725Y699026D01*
X218486Y699345D01*
X218219Y699642D01*
X217928Y699915D01*
X217615Y700161D01*
X217281Y700380D01*
X216929Y700568D01*
X216562Y700725D01*
X216183Y700849D01*
X215795Y700939D01*
X215400Y700996D01*
X215010Y701018D01*
X214620Y701007D01*
X214233Y700961D01*
X213851Y700882D01*
X213477Y700769D01*
X213115Y700625D01*
X212766Y700449D01*
X212434Y700244D01*
X212122Y700011D01*
X211830Y699751D01*
X211563Y699467D01*
X211321Y699161D01*
X211107Y698835D01*
X210922Y698491D01*
X210768Y698132D01*
X210646Y697762D01*
X210556Y697382D01*
X210500Y696996D01*
X210500Y681496D01*
X80000Y700650D02*
X80013Y700345D01*
X80053Y700042D01*
X80119Y699744D01*
X80211Y699453D01*
X80328Y699171D01*
X80469Y698900D01*
X80633Y698642D01*
X80819Y698400D01*
X81025Y698175D01*
X81250Y697969D01*
X81492Y697783D01*
X81750Y697619D01*
X82021Y697478D01*
X82303Y697361D01*
X82594Y697269D01*
X82892Y697203D01*
X83195Y697163D01*
X83500Y697150D01*
X83805Y697163D01*
X84108Y697203D01*
X84406Y697269D01*
X84697Y697361D01*
X84979Y697478D01*
X85250Y697619D01*
X85508Y697783D01*
X85750Y697969D01*
X85975Y698175D01*
X86181Y698400D01*
X86367Y698642D01*
X86531Y698900D01*
X86672Y699171D01*
X86789Y699453D01*
X86881Y699744D01*
X86947Y700042D01*
X86987Y700345D01*
X87000Y700650D01*
X87000Y713650D01*
X86987Y713955D01*
X86947Y714258D01*
X86881Y714556D01*
X86789Y714847D01*
X86672Y715129D01*
X86531Y715400D01*
X86367Y715658D01*
X86181Y715900D01*
X85975Y716125D01*
X85750Y716331D01*
X85508Y716517D01*
X85250Y716681D01*
X84979Y716822D01*
X84697Y716939D01*
X84406Y717031D01*
X84108Y717097D01*
X83805Y717137D01*
X83500Y717150D01*
X83195Y717137D01*
X82892Y717097D01*
X82594Y717031D01*
X82303Y716939D01*
X82021Y716822D01*
X81750Y716681D01*
X81492Y716517D01*
X81250Y716331D01*
X81025Y716125D01*
X80819Y715900D01*
X80633Y715658D01*
X80469Y715400D01*
X80328Y715129D01*
X80211Y714847D01*
X80119Y714556D01*
X80053Y714258D01*
X80013Y713955D01*
X80000Y713650D01*
X80000Y700650D01*
X166400Y700650D02*
X166413Y700345D01*
X166453Y700042D01*
X166519Y699744D01*
X166611Y699453D01*
X166728Y699171D01*
X166869Y698900D01*
X167033Y698642D01*
X167219Y698400D01*
X167425Y698175D01*
X167650Y697969D01*
X167892Y697783D01*
X168150Y697619D01*
X168421Y697478D01*
X168703Y697361D01*
X168994Y697269D01*
X169292Y697203D01*
X169595Y697163D01*
X169900Y697150D01*
X170205Y697163D01*
X170508Y697203D01*
X170806Y697269D01*
X171097Y697361D01*
X171379Y697478D01*
X171650Y697619D01*
X171908Y697783D01*
X172150Y697969D01*
X172375Y698175D01*
X172581Y698400D01*
X172767Y698642D01*
X172931Y698900D01*
X173072Y699171D01*
X173189Y699453D01*
X173281Y699744D01*
X173347Y700042D01*
X173387Y700345D01*
X173400Y700650D01*
X173400Y713650D01*
X173387Y713955D01*
X173347Y714258D01*
X173281Y714556D01*
X173189Y714847D01*
X173072Y715129D01*
X172931Y715400D01*
X172767Y715658D01*
X172581Y715900D01*
X172375Y716125D01*
X172150Y716331D01*
X171908Y716517D01*
X171650Y716681D01*
X171379Y716822D01*
X171097Y716939D01*
X170806Y717031D01*
X170508Y717097D01*
X170205Y717137D01*
X169900Y717150D01*
X169595Y717137D01*
X169292Y717097D01*
X168994Y717031D01*
X168703Y716939D01*
X168421Y716822D01*
X168150Y716681D01*
X167892Y716517D01*
X167650Y716331D01*
X167425Y716125D01*
X167219Y715900D01*
X167033Y715658D01*
X166869Y715400D01*
X166728Y715129D01*
X166611Y714847D01*
X166519Y714556D01*
X166453Y714258D01*
X166413Y713955D01*
X166400Y713650D01*
X166400Y700650D01*
X160400Y662650D02*
X160413Y662345D01*
X160453Y662042D01*
X160519Y661744D01*
X160611Y661453D01*
X160728Y661171D01*
X160869Y660900D01*
X161033Y660642D01*
X161219Y660400D01*
X161425Y660175D01*
X161650Y659969D01*
X161892Y659783D01*
X162150Y659619D01*
X162421Y659478D01*
X162703Y659361D01*
X162994Y659269D01*
X163292Y659203D01*
X163595Y659163D01*
X163900Y659150D01*
X166900Y659150D01*
X166900Y650150D01*
X166911Y649889D01*
X166946Y649629D01*
X167002Y649374D01*
X167081Y649124D01*
X167181Y648882D01*
X167302Y648650D01*
X167443Y648429D01*
X167602Y648222D01*
X167779Y648029D01*
X167972Y647852D01*
X168179Y647693D01*
X168400Y647552D01*
X168632Y647431D01*
X168874Y647331D01*
X169124Y647252D01*
X169379Y647196D01*
X169639Y647161D01*
X169900Y647150D01*
X170161Y647161D01*
X170421Y647196D01*
X170676Y647252D01*
X170926Y647331D01*
X171168Y647431D01*
X171400Y647552D01*
X171621Y647693D01*
X171828Y647852D01*
X172021Y648029D01*
X172198Y648222D01*
X172357Y648429D01*
X172498Y648650D01*
X172619Y648882D01*
X172719Y649124D01*
X172798Y649374D01*
X172854Y649629D01*
X172889Y649889D01*
X172900Y650150D01*
X172900Y662650D01*
X172887Y662955D01*
X172847Y663258D01*
X172781Y663556D01*
X172689Y663847D01*
X172572Y664129D01*
X172431Y664400D01*
X172267Y664658D01*
X172081Y664900D01*
X171875Y665125D01*
X171650Y665331D01*
X171408Y665517D01*
X171150Y665681D01*
X170879Y665822D01*
X170597Y665939D01*
X170306Y666031D01*
X170008Y666097D01*
X169705Y666137D01*
X169400Y666150D01*
X163900Y666150D01*
X163595Y666137D01*
X163292Y666097D01*
X162994Y666031D01*
X162703Y665939D01*
X162421Y665822D01*
X162150Y665681D01*
X161892Y665517D01*
X161650Y665331D01*
X161425Y665125D01*
X161219Y664900D01*
X161033Y664658D01*
X160869Y664400D01*
X160728Y664129D01*
X160611Y663847D01*
X160519Y663556D01*
X160453Y663258D01*
X160413Y662955D01*
X160400Y662650D01*
X80500Y650150D02*
X80511Y649889D01*
X80546Y649629D01*
X80602Y649374D01*
X80681Y649124D01*
X80781Y648882D01*
X80902Y648650D01*
X81043Y648429D01*
X81202Y648222D01*
X81379Y648029D01*
X81572Y647852D01*
X81779Y647693D01*
X82000Y647552D01*
X82232Y647431D01*
X82474Y647331D01*
X82724Y647252D01*
X82979Y647196D01*
X83239Y647161D01*
X83500Y647150D01*
X83761Y647161D01*
X84021Y647196D01*
X84276Y647252D01*
X84526Y647331D01*
X84768Y647431D01*
X85000Y647552D01*
X85221Y647693D01*
X85428Y647852D01*
X85621Y648029D01*
X85798Y648222D01*
X85957Y648429D01*
X86098Y648650D01*
X86219Y648882D01*
X86319Y649124D01*
X86398Y649374D01*
X86454Y649629D01*
X86489Y649889D01*
X86500Y650150D01*
X86500Y659150D01*
X89500Y659150D01*
X89805Y659163D01*
X90108Y659203D01*
X90406Y659269D01*
X90697Y659361D01*
X90979Y659478D01*
X91250Y659619D01*
X91508Y659783D01*
X91750Y659969D01*
X91975Y660175D01*
X92181Y660400D01*
X92367Y660642D01*
X92531Y660900D01*
X92672Y661171D01*
X92789Y661453D01*
X92881Y661744D01*
X92947Y662042D01*
X92987Y662345D01*
X93000Y662650D01*
X92987Y662955D01*
X92947Y663258D01*
X92881Y663556D01*
X92789Y663847D01*
X92672Y664129D01*
X92531Y664400D01*
X92367Y664658D01*
X92181Y664900D01*
X91975Y665125D01*
X91750Y665331D01*
X91508Y665517D01*
X91250Y665681D01*
X90979Y665822D01*
X90697Y665939D01*
X90406Y666031D01*
X90108Y666097D01*
X89805Y666137D01*
X89500Y666150D01*
X84000Y666150D01*
X83695Y666137D01*
X83392Y666097D01*
X83094Y666031D01*
X82803Y665939D01*
X82521Y665822D01*
X82250Y665681D01*
X81992Y665517D01*
X81750Y665331D01*
X81525Y665125D01*
X81319Y664900D01*
X81133Y664658D01*
X80969Y664400D01*
X80828Y664129D01*
X80711Y663847D01*
X80619Y663556D01*
X80553Y663258D01*
X80513Y662955D01*
X80500Y662650D01*
X80500Y650150D01*
X210500Y621996D02*
X210513Y621608D01*
X210559Y621223D01*
X210639Y620843D01*
X210751Y620471D01*
X210896Y620111D01*
X211071Y619764D01*
X211276Y619435D01*
X211509Y619124D01*
X211768Y618835D01*
X212051Y618569D01*
X212357Y618329D01*
X212682Y618117D01*
X213024Y617934D01*
X213381Y617781D01*
X213750Y617661D01*
X214128Y617572D01*
X214512Y617517D01*
X214900Y617496D01*
X215297Y617509D01*
X215691Y617556D01*
X216079Y617638D01*
X216459Y617753D01*
X216828Y617901D01*
X217182Y618081D01*
X217519Y618290D01*
X217836Y618528D01*
X218132Y618793D01*
X218403Y619083D01*
X218648Y619395D01*
X218865Y619728D01*
X219053Y620078D01*
X219209Y620443D01*
X219332Y620820D01*
X219422Y621207D01*
X219478Y621600D01*
X219500Y621996D01*
X219500Y636496D01*
X219522Y636894D01*
X219509Y637293D01*
X219461Y637689D01*
X219380Y638079D01*
X219264Y638461D01*
X219115Y638831D01*
X218935Y639187D01*
X218725Y639526D01*
X218486Y639845D01*
X218219Y640142D01*
X217928Y640415D01*
X217615Y640661D01*
X217281Y640880D01*
X216929Y641068D01*
X216562Y641225D01*
X216183Y641349D01*
X215795Y641439D01*
X215400Y641496D01*
X215010Y641518D01*
X214620Y641507D01*
X214233Y641461D01*
X213851Y641382D01*
X213477Y641269D01*
X213115Y641125D01*
X212766Y640949D01*
X212434Y640744D01*
X212122Y640511D01*
X211830Y640251D01*
X211563Y639967D01*
X211321Y639661D01*
X211107Y639335D01*
X210922Y638991D01*
X210768Y638632D01*
X210646Y638262D01*
X210556Y637882D01*
X210500Y637496D01*
X210500Y621996D01*
X355500Y681496D02*
X355513Y681108D01*
X355559Y680723D01*
X355639Y680343D01*
X355751Y679971D01*
X355896Y679611D01*
X356071Y679264D01*
X356276Y678935D01*
X356509Y678624D01*
X356768Y678335D01*
X357051Y678069D01*
X357357Y677829D01*
X357682Y677617D01*
X358024Y677434D01*
X358381Y677281D01*
X358750Y677161D01*
X359128Y677072D01*
X359512Y677017D01*
X359900Y676996D01*
X360297Y677009D01*
X360691Y677056D01*
X361079Y677138D01*
X361459Y677253D01*
X361828Y677401D01*
X362182Y677581D01*
X362519Y677790D01*
X362836Y678028D01*
X363132Y678293D01*
X363403Y678583D01*
X363648Y678895D01*
X363865Y679228D01*
X364053Y679578D01*
X364209Y679943D01*
X364332Y680320D01*
X364422Y680707D01*
X364478Y681100D01*
X364500Y681496D01*
X364500Y695996D01*
X364522Y696394D01*
X364509Y696793D01*
X364461Y697189D01*
X364380Y697579D01*
X364264Y697961D01*
X364115Y698331D01*
X363935Y698687D01*
X363725Y699026D01*
X363486Y699345D01*
X363219Y699642D01*
X362928Y699915D01*
X362615Y700161D01*
X362281Y700380D01*
X361929Y700568D01*
X361562Y700725D01*
X361183Y700849D01*
X360795Y700939D01*
X360400Y700996D01*
X360010Y701018D01*
X359620Y701007D01*
X359233Y700961D01*
X358851Y700882D01*
X358477Y700769D01*
X358115Y700625D01*
X357766Y700449D01*
X357434Y700244D01*
X357122Y700011D01*
X356830Y699751D01*
X356563Y699467D01*
X356321Y699161D01*
X356107Y698835D01*
X355922Y698491D01*
X355768Y698132D01*
X355646Y697762D01*
X355556Y697382D01*
X355500Y696996D01*
X355500Y681496D01*
X405426Y588350D02*
X406274Y588276D01*
X407112Y588128D01*
X407935Y587908D01*
X408735Y587616D01*
X409506Y587257D01*
X410244Y586831D01*
X410941Y586343D01*
X411593Y585795D01*
X412195Y585193D01*
X412743Y584541D01*
X413231Y583844D01*
X413657Y583106D01*
X414016Y582335D01*
X414308Y581535D01*
X414528Y580712D01*
X414676Y579874D01*
X414750Y579026D01*
X414750Y578174D01*
X414676Y577326D01*
X414528Y576488D01*
X414308Y575665D01*
X414016Y574865D01*
X413657Y574094D01*
X413231Y573356D01*
X412743Y572659D01*
X412195Y572007D01*
X411593Y571405D01*
X410941Y570857D01*
X410244Y570369D01*
X409506Y569943D01*
X408735Y569584D01*
X407935Y569292D01*
X407112Y569072D01*
X406274Y568924D01*
X405426Y568850D01*
X404574Y568850D01*
X403726Y568924D01*
X402888Y569072D01*
X402065Y569292D01*
X401265Y569584D01*
X400494Y569943D01*
X399756Y570369D01*
X399059Y570857D01*
X398407Y571405D01*
X397805Y572007D01*
X397257Y572659D01*
X396769Y573356D01*
X396343Y574094D01*
X395984Y574865D01*
X395692Y575665D01*
X395472Y576488D01*
X395324Y577326D01*
X395250Y578174D01*
X395250Y579026D01*
X395324Y579874D01*
X395472Y580712D01*
X395692Y581535D01*
X395984Y582335D01*
X396343Y583106D01*
X396769Y583844D01*
X397257Y584541D01*
X397805Y585193D01*
X398407Y585795D01*
X399059Y586343D01*
X399756Y586831D01*
X400494Y587257D01*
X401265Y587616D01*
X402065Y587908D01*
X402888Y588128D01*
X403726Y588276D01*
X404574Y588350D01*
X405426Y588350D01*
X405426Y131150D02*
X406274Y131076D01*
X407112Y130928D01*
X407935Y130708D01*
X408735Y130416D01*
X409506Y130057D01*
X410244Y129631D01*
X410941Y129143D01*
X411593Y128595D01*
X412195Y127993D01*
X412743Y127341D01*
X413231Y126644D01*
X413657Y125906D01*
X414016Y125135D01*
X414308Y124335D01*
X414528Y123512D01*
X414676Y122674D01*
X414750Y121826D01*
X414750Y120974D01*
X414676Y120126D01*
X414528Y119288D01*
X414308Y118465D01*
X414016Y117665D01*
X413657Y116894D01*
X413231Y116156D01*
X412743Y115459D01*
X412195Y114807D01*
X411593Y114205D01*
X410941Y113657D01*
X410244Y113169D01*
X409506Y112743D01*
X408735Y112384D01*
X407935Y112092D01*
X407112Y111872D01*
X406274Y111724D01*
X405426Y111650D01*
X404574Y111650D01*
X403726Y111724D01*
X402888Y111872D01*
X402065Y112092D01*
X401265Y112384D01*
X400494Y112743D01*
X399756Y113169D01*
X399059Y113657D01*
X398407Y114205D01*
X397805Y114807D01*
X397257Y115459D01*
X396769Y116156D01*
X396343Y116894D01*
X395984Y117665D01*
X395692Y118465D01*
X395472Y119288D01*
X395324Y120126D01*
X395250Y120974D01*
X395250Y121826D01*
X395324Y122674D01*
X395472Y123512D01*
X395692Y124335D01*
X395984Y125135D01*
X396343Y125906D01*
X396769Y126644D01*
X397257Y127341D01*
X397805Y127993D01*
X398407Y128595D01*
X399059Y129143D01*
X399756Y129631D01*
X400494Y130057D01*
X401265Y130416D01*
X402065Y130708D01*
X402888Y130928D01*
X403726Y131076D01*
X404574Y131150D01*
X405426Y131150D01*
X49826Y131150D02*
X50674Y131076D01*
X51512Y130928D01*
X52335Y130708D01*
X53135Y130416D01*
X53906Y130057D01*
X54644Y129631D01*
X55341Y129143D01*
X55993Y128595D01*
X56595Y127993D01*
X57143Y127341D01*
X57631Y126644D01*
X58057Y125906D01*
X58416Y125135D01*
X58708Y124335D01*
X58928Y123512D01*
X59076Y122674D01*
X59150Y121826D01*
X59150Y120974D01*
X59076Y120126D01*
X58928Y119288D01*
X58708Y118465D01*
X58416Y117665D01*
X58057Y116894D01*
X57631Y116156D01*
X57143Y115459D01*
X56595Y114807D01*
X55993Y114205D01*
X55341Y113657D01*
X54644Y113169D01*
X53906Y112743D01*
X53135Y112384D01*
X52335Y112092D01*
X51512Y111872D01*
X50674Y111724D01*
X49826Y111650D01*
X48974Y111650D01*
X48126Y111724D01*
X47288Y111872D01*
X46465Y112092D01*
X45665Y112384D01*
X44894Y112743D01*
X44156Y113169D01*
X43459Y113657D01*
X42807Y114205D01*
X42205Y114807D01*
X41657Y115459D01*
X41169Y116156D01*
X40743Y116894D01*
X40384Y117665D01*
X40092Y118465D01*
X39872Y119288D01*
X39724Y120126D01*
X39650Y120974D01*
X39650Y121826D01*
X39724Y122674D01*
X39872Y123512D01*
X40092Y124335D01*
X40384Y125135D01*
X40743Y125906D01*
X41169Y126644D01*
X41657Y127341D01*
X42205Y127993D01*
X42807Y128595D01*
X43459Y129143D01*
X44156Y129631D01*
X44894Y130057D01*
X45665Y130416D01*
X46465Y130708D01*
X47288Y130928D01*
X48126Y131076D01*
X48974Y131150D01*
X49826Y131150D01*
X49826Y588350D02*
X50674Y588276D01*
X51512Y588128D01*
X52335Y587908D01*
X53135Y587616D01*
X53906Y587257D01*
X54644Y586831D01*
X55341Y586343D01*
X55993Y585795D01*
X56595Y585193D01*
X57143Y584541D01*
X57631Y583844D01*
X58057Y583106D01*
X58416Y582335D01*
X58708Y581535D01*
X58928Y580712D01*
X59076Y579874D01*
X59150Y579026D01*
X59150Y578174D01*
X59076Y577326D01*
X58928Y576488D01*
X58708Y575665D01*
X58416Y574865D01*
X58057Y574094D01*
X57631Y573356D01*
X57143Y572659D01*
X56595Y572007D01*
X55993Y571405D01*
X55341Y570857D01*
X54644Y570369D01*
X53906Y569943D01*
X53135Y569584D01*
X52335Y569292D01*
X51512Y569072D01*
X50674Y568924D01*
X49826Y568850D01*
X48974Y568850D01*
X48126Y568924D01*
X47288Y569072D01*
X46465Y569292D01*
X45665Y569584D01*
X44894Y569943D01*
X44156Y570369D01*
X43459Y570857D01*
X42807Y571405D01*
X42205Y572007D01*
X41657Y572659D01*
X41169Y573356D01*
X40743Y574094D01*
X40384Y574865D01*
X40092Y575665D01*
X39872Y576488D01*
X39724Y577326D01*
X39650Y578174D01*
X39650Y579026D01*
X39724Y579874D01*
X39872Y580712D01*
X40092Y581535D01*
X40384Y582335D01*
X40743Y583106D01*
X41169Y583844D01*
X41657Y584541D01*
X42205Y585193D01*
X42807Y585795D01*
X43459Y586343D01*
X44156Y586831D01*
X44894Y587257D01*
X45665Y587616D01*
X46465Y587908D01*
X47288Y588128D01*
X48126Y588276D01*
X48974Y588350D01*
X49826Y588350D01*
X355500Y622291D02*
X355577Y622876D01*
X355730Y623446D01*
X355955Y623991D01*
X356250Y624501D01*
X356609Y624969D01*
X357027Y625387D01*
X357495Y625746D01*
X358005Y626041D01*
X358550Y626266D01*
X359120Y626419D01*
X359705Y626496D01*
X360295Y626496D01*
X360880Y626419D01*
X361450Y626266D01*
X361995Y626041D01*
X362505Y625746D01*
X362973Y625387D01*
X363391Y624969D01*
X363750Y624501D01*
X364045Y623991D01*
X364270Y623446D01*
X364423Y622876D01*
X364500Y622291D01*
X364500Y621701D01*
X364423Y621116D01*
X364270Y620546D01*
X364045Y620001D01*
X363750Y619491D01*
X363391Y619023D01*
X362973Y618605D01*
X362505Y618246D01*
X361995Y617951D01*
X361450Y617726D01*
X360880Y617573D01*
X360295Y617496D01*
X359705Y617496D01*
X359120Y617573D01*
X358550Y617726D01*
X358005Y617951D01*
X357495Y618246D01*
X357027Y618605D01*
X356609Y619023D01*
X356250Y619491D01*
X355955Y620001D01*
X355730Y620546D01*
X355577Y621116D01*
X355500Y621701D01*
X355500Y622291D01*
X355500Y637291D02*
X355577Y637876D01*
X355730Y638446D01*
X355955Y638991D01*
X356250Y639501D01*
X356609Y639969D01*
X357027Y640387D01*
X357495Y640746D01*
X358005Y641041D01*
X358550Y641266D01*
X359120Y641419D01*
X359705Y641496D01*
X360295Y641496D01*
X360880Y641419D01*
X361450Y641266D01*
X361995Y641041D01*
X362505Y640746D01*
X362973Y640387D01*
X363391Y639969D01*
X363750Y639501D01*
X364045Y638991D01*
X364270Y638446D01*
X364423Y637876D01*
X364500Y637291D01*
X364500Y636701D01*
X364423Y636116D01*
X364270Y635546D01*
X364045Y635001D01*
X363750Y634491D01*
X363391Y634023D01*
X362973Y633605D01*
X362505Y633246D01*
X361995Y632951D01*
X361450Y632726D01*
X360880Y632573D01*
X360295Y632496D01*
X359705Y632496D01*
X359120Y632573D01*
X358550Y632726D01*
X358005Y632951D01*
X357495Y633246D01*
X357027Y633605D01*
X356609Y634023D01*
X356250Y634491D01*
X355955Y635001D01*
X355730Y635546D01*
X355577Y636116D01*
X355500Y636701D01*
X355500Y637291D01*
X355500Y626791D02*
X355577Y627376D01*
X355730Y627946D01*
X355955Y628491D01*
X356250Y629001D01*
X356609Y629469D01*
X357027Y629887D01*
X357495Y630246D01*
X358005Y630541D01*
X358550Y630766D01*
X359120Y630919D01*
X359705Y630996D01*
X360295Y630996D01*
X360880Y630919D01*
X361450Y630766D01*
X361995Y630541D01*
X362505Y630246D01*
X362973Y629887D01*
X363391Y629469D01*
X363750Y629001D01*
X364045Y628491D01*
X364270Y627946D01*
X364423Y627376D01*
X364500Y626791D01*
X364500Y626201D01*
X364423Y625616D01*
X364270Y625046D01*
X364045Y624501D01*
X363750Y623991D01*
X363391Y623523D01*
X362973Y623105D01*
X362505Y622746D01*
X361995Y622451D01*
X361450Y622226D01*
X360880Y622073D01*
X360295Y621996D01*
X359705Y621996D01*
X359120Y622073D01*
X358550Y622226D01*
X358005Y622451D01*
X357495Y622746D01*
X357027Y623105D01*
X356609Y623523D01*
X356250Y623991D01*
X355955Y624501D01*
X355730Y625046D01*
X355577Y625616D01*
X355500Y626201D01*
X355500Y626791D01*
X355500Y632791D02*
X355577Y633376D01*
X355730Y633946D01*
X355955Y634491D01*
X356250Y635001D01*
X356609Y635469D01*
X357027Y635887D01*
X357495Y636246D01*
X358005Y636541D01*
X358550Y636766D01*
X359120Y636919D01*
X359705Y636996D01*
X360295Y636996D01*
X360880Y636919D01*
X361450Y636766D01*
X361995Y636541D01*
X362505Y636246D01*
X362973Y635887D01*
X363391Y635469D01*
X363750Y635001D01*
X364045Y634491D01*
X364270Y633946D01*
X364423Y633376D01*
X364500Y632791D01*
X364500Y632201D01*
X364423Y631616D01*
X364270Y631046D01*
X364045Y630501D01*
X363750Y629991D01*
X363391Y629523D01*
X362973Y629105D01*
X362505Y628746D01*
X361995Y628451D01*
X361450Y628226D01*
X360880Y628073D01*
X360295Y627996D01*
X359705Y627996D01*
X359120Y628073D01*
X358550Y628226D01*
X358005Y628451D01*
X357495Y628746D01*
X357027Y629105D01*
X356609Y629523D01*
X356250Y629991D01*
X355955Y630501D01*
X355730Y631046D01*
X355577Y631616D01*
X355500Y632201D01*
X355500Y632791D01*
X355500Y681791D02*
X355577Y682376D01*
X355730Y682946D01*
X355955Y683491D01*
X356250Y684001D01*
X356609Y684469D01*
X357027Y684887D01*
X357495Y685246D01*
X358005Y685541D01*
X358550Y685766D01*
X359120Y685919D01*
X359705Y685996D01*
X360295Y685996D01*
X360880Y685919D01*
X361450Y685766D01*
X361995Y685541D01*
X362505Y685246D01*
X362973Y684887D01*
X363391Y684469D01*
X363750Y684001D01*
X364045Y683491D01*
X364270Y682946D01*
X364423Y682376D01*
X364500Y681791D01*
X364500Y681201D01*
X364423Y680616D01*
X364270Y680046D01*
X364045Y679501D01*
X363750Y678991D01*
X363391Y678523D01*
X362973Y678105D01*
X362505Y677746D01*
X361995Y677451D01*
X361450Y677226D01*
X360880Y677073D01*
X360295Y676996D01*
X359705Y676996D01*
X359120Y677073D01*
X358550Y677226D01*
X358005Y677451D01*
X357495Y677746D01*
X357027Y678105D01*
X356609Y678523D01*
X356250Y678991D01*
X355955Y679501D01*
X355730Y680046D01*
X355577Y680616D01*
X355500Y681201D01*
X355500Y681791D01*
X355500Y696791D02*
X355577Y697376D01*
X355730Y697946D01*
X355955Y698491D01*
X356250Y699001D01*
X356609Y699469D01*
X357027Y699887D01*
X357495Y700246D01*
X358005Y700541D01*
X358550Y700766D01*
X359120Y700919D01*
X359705Y700996D01*
X360295Y700996D01*
X360880Y700919D01*
X361450Y700766D01*
X361995Y700541D01*
X362505Y700246D01*
X362973Y699887D01*
X363391Y699469D01*
X363750Y699001D01*
X364045Y698491D01*
X364270Y697946D01*
X364423Y697376D01*
X364500Y696791D01*
X364500Y696201D01*
X364423Y695616D01*
X364270Y695046D01*
X364045Y694501D01*
X363750Y693991D01*
X363391Y693523D01*
X362973Y693105D01*
X362505Y692746D01*
X361995Y692451D01*
X361450Y692226D01*
X360880Y692073D01*
X360295Y691996D01*
X359705Y691996D01*
X359120Y692073D01*
X358550Y692226D01*
X358005Y692451D01*
X357495Y692746D01*
X357027Y693105D01*
X356609Y693523D01*
X356250Y693991D01*
X355955Y694501D01*
X355730Y695046D01*
X355577Y695616D01*
X355500Y696201D01*
X355500Y696791D01*
X355500Y686291D02*
X355577Y686876D01*
X355730Y687446D01*
X355955Y687991D01*
X356250Y688501D01*
X356609Y688969D01*
X357027Y689387D01*
X357495Y689746D01*
X358005Y690041D01*
X358550Y690266D01*
X359120Y690419D01*
X359705Y690496D01*
X360295Y690496D01*
X360880Y690419D01*
X361450Y690266D01*
X361995Y690041D01*
X362505Y689746D01*
X362973Y689387D01*
X363391Y688969D01*
X363750Y688501D01*
X364045Y687991D01*
X364270Y687446D01*
X364423Y686876D01*
X364500Y686291D01*
X364500Y685701D01*
X364423Y685116D01*
X364270Y684546D01*
X364045Y684001D01*
X363750Y683491D01*
X363391Y683023D01*
X362973Y682605D01*
X362505Y682246D01*
X361995Y681951D01*
X361450Y681726D01*
X360880Y681573D01*
X360295Y681496D01*
X359705Y681496D01*
X359120Y681573D01*
X358550Y681726D01*
X358005Y681951D01*
X357495Y682246D01*
X357027Y682605D01*
X356609Y683023D01*
X356250Y683491D01*
X355955Y684001D01*
X355730Y684546D01*
X355577Y685116D01*
X355500Y685701D01*
X355500Y686291D01*
X355500Y692291D02*
X355577Y692876D01*
X355730Y693446D01*
X355955Y693991D01*
X356250Y694501D01*
X356609Y694969D01*
X357027Y695387D01*
X357495Y695746D01*
X358005Y696041D01*
X358550Y696266D01*
X359120Y696419D01*
X359705Y696496D01*
X360295Y696496D01*
X360880Y696419D01*
X361450Y696266D01*
X361995Y696041D01*
X362505Y695746D01*
X362973Y695387D01*
X363391Y694969D01*
X363750Y694501D01*
X364045Y693991D01*
X364270Y693446D01*
X364423Y692876D01*
X364500Y692291D01*
X364500Y691701D01*
X364423Y691116D01*
X364270Y690546D01*
X364045Y690001D01*
X363750Y689491D01*
X363391Y689023D01*
X362973Y688605D01*
X362505Y688246D01*
X361995Y687951D01*
X361450Y687726D01*
X360880Y687573D01*
X360295Y687496D01*
X359705Y687496D01*
X359120Y687573D01*
X358550Y687726D01*
X358005Y687951D01*
X357495Y688246D01*
X357027Y688605D01*
X356609Y689023D01*
X356250Y689491D01*
X355955Y690001D01*
X355730Y690546D01*
X355577Y691116D01*
X355500Y691701D01*
X355500Y692291D01*
X210500Y622291D02*
X210577Y622876D01*
X210730Y623446D01*
X210955Y623991D01*
X211250Y624501D01*
X211609Y624969D01*
X212027Y625387D01*
X212495Y625746D01*
X213005Y626041D01*
X213550Y626266D01*
X214120Y626419D01*
X214705Y626496D01*
X215295Y626496D01*
X215880Y626419D01*
X216450Y626266D01*
X216995Y626041D01*
X217505Y625746D01*
X217973Y625387D01*
X218391Y624969D01*
X218750Y624501D01*
X219045Y623991D01*
X219270Y623446D01*
X219423Y622876D01*
X219500Y622291D01*
X219500Y621701D01*
X219423Y621116D01*
X219270Y620546D01*
X219045Y620001D01*
X218750Y619491D01*
X218391Y619023D01*
X217973Y618605D01*
X217505Y618246D01*
X216995Y617951D01*
X216450Y617726D01*
X215880Y617573D01*
X215295Y617496D01*
X214705Y617496D01*
X214120Y617573D01*
X213550Y617726D01*
X213005Y617951D01*
X212495Y618246D01*
X212027Y618605D01*
X211609Y619023D01*
X211250Y619491D01*
X210955Y620001D01*
X210730Y620546D01*
X210577Y621116D01*
X210500Y621701D01*
X210500Y622291D01*
X210500Y637291D02*
X210577Y637876D01*
X210730Y638446D01*
X210955Y638991D01*
X211250Y639501D01*
X211609Y639969D01*
X212027Y640387D01*
X212495Y640746D01*
X213005Y641041D01*
X213550Y641266D01*
X214120Y641419D01*
X214705Y641496D01*
X215295Y641496D01*
X215880Y641419D01*
X216450Y641266D01*
X216995Y641041D01*
X217505Y640746D01*
X217973Y640387D01*
X218391Y639969D01*
X218750Y639501D01*
X219045Y638991D01*
X219270Y638446D01*
X219423Y637876D01*
X219500Y637291D01*
X219500Y636701D01*
X219423Y636116D01*
X219270Y635546D01*
X219045Y635001D01*
X218750Y634491D01*
X218391Y634023D01*
X217973Y633605D01*
X217505Y633246D01*
X216995Y632951D01*
X216450Y632726D01*
X215880Y632573D01*
X215295Y632496D01*
X214705Y632496D01*
X214120Y632573D01*
X213550Y632726D01*
X213005Y632951D01*
X212495Y633246D01*
X212027Y633605D01*
X211609Y634023D01*
X211250Y634491D01*
X210955Y635001D01*
X210730Y635546D01*
X210577Y636116D01*
X210500Y636701D01*
X210500Y637291D01*
X210500Y626791D02*
X210577Y627376D01*
X210730Y627946D01*
X210955Y628491D01*
X211250Y629001D01*
X211609Y629469D01*
X212027Y629887D01*
X212495Y630246D01*
X213005Y630541D01*
X213550Y630766D01*
X214120Y630919D01*
X214705Y630996D01*
X215295Y630996D01*
X215880Y630919D01*
X216450Y630766D01*
X216995Y630541D01*
X217505Y630246D01*
X217973Y629887D01*
X218391Y629469D01*
X218750Y629001D01*
X219045Y628491D01*
X219270Y627946D01*
X219423Y627376D01*
X219500Y626791D01*
X219500Y626201D01*
X219423Y625616D01*
X219270Y625046D01*
X219045Y624501D01*
X218750Y623991D01*
X218391Y623523D01*
X217973Y623105D01*
X217505Y622746D01*
X216995Y622451D01*
X216450Y622226D01*
X215880Y622073D01*
X215295Y621996D01*
X214705Y621996D01*
X214120Y622073D01*
X213550Y622226D01*
X213005Y622451D01*
X212495Y622746D01*
X212027Y623105D01*
X211609Y623523D01*
X211250Y623991D01*
X210955Y624501D01*
X210730Y625046D01*
X210577Y625616D01*
X210500Y626201D01*
X210500Y626791D01*
X210500Y632791D02*
X210577Y633376D01*
X210730Y633946D01*
X210955Y634491D01*
X211250Y635001D01*
X211609Y635469D01*
X212027Y635887D01*
X212495Y636246D01*
X213005Y636541D01*
X213550Y636766D01*
X214120Y636919D01*
X214705Y636996D01*
X215295Y636996D01*
X215880Y636919D01*
X216450Y636766D01*
X216995Y636541D01*
X217505Y636246D01*
X217973Y635887D01*
X218391Y635469D01*
X218750Y635001D01*
X219045Y634491D01*
X219270Y633946D01*
X219423Y633376D01*
X219500Y632791D01*
X219500Y632201D01*
X219423Y631616D01*
X219270Y631046D01*
X219045Y630501D01*
X218750Y629991D01*
X218391Y629523D01*
X217973Y629105D01*
X217505Y628746D01*
X216995Y628451D01*
X216450Y628226D01*
X215880Y628073D01*
X215295Y627996D01*
X214705Y627996D01*
X214120Y628073D01*
X213550Y628226D01*
X213005Y628451D01*
X212495Y628746D01*
X212027Y629105D01*
X211609Y629523D01*
X211250Y629991D01*
X210955Y630501D01*
X210730Y631046D01*
X210577Y631616D01*
X210500Y632201D01*
X210500Y632791D01*
X210500Y681791D02*
X210577Y682376D01*
X210730Y682946D01*
X210955Y683491D01*
X211250Y684001D01*
X211609Y684469D01*
X212027Y684887D01*
X212495Y685246D01*
X213005Y685541D01*
X213550Y685766D01*
X214120Y685919D01*
X214705Y685996D01*
X215295Y685996D01*
X215880Y685919D01*
X216450Y685766D01*
X216995Y685541D01*
X217505Y685246D01*
X217973Y684887D01*
X218391Y684469D01*
X218750Y684001D01*
X219045Y683491D01*
X219270Y682946D01*
X219423Y682376D01*
X219500Y681791D01*
X219500Y681201D01*
X219423Y680616D01*
X219270Y680046D01*
X219045Y679501D01*
X218750Y678991D01*
X218391Y678523D01*
X217973Y678105D01*
X217505Y677746D01*
X216995Y677451D01*
X216450Y677226D01*
X215880Y677073D01*
X215295Y676996D01*
X214705Y676996D01*
X214120Y677073D01*
X213550Y677226D01*
X213005Y677451D01*
X212495Y677746D01*
X212027Y678105D01*
X211609Y678523D01*
X211250Y678991D01*
X210955Y679501D01*
X210730Y680046D01*
X210577Y680616D01*
X210500Y681201D01*
X210500Y681791D01*
X210500Y686291D02*
X210577Y686876D01*
X210730Y687446D01*
X210955Y687991D01*
X211250Y688501D01*
X211609Y688969D01*
X212027Y689387D01*
X212495Y689746D01*
X213005Y690041D01*
X213550Y690266D01*
X214120Y690419D01*
X214705Y690496D01*
X215295Y690496D01*
X215880Y690419D01*
X216450Y690266D01*
X216995Y690041D01*
X217505Y689746D01*
X217973Y689387D01*
X218391Y688969D01*
X218750Y688501D01*
X219045Y687991D01*
X219270Y687446D01*
X219423Y686876D01*
X219500Y686291D01*
X219500Y685701D01*
X219423Y685116D01*
X219270Y684546D01*
X219045Y684001D01*
X218750Y683491D01*
X218391Y683023D01*
X217973Y682605D01*
X217505Y682246D01*
X216995Y681951D01*
X216450Y681726D01*
X215880Y681573D01*
X215295Y681496D01*
X214705Y681496D01*
X214120Y681573D01*
X213550Y681726D01*
X213005Y681951D01*
X212495Y682246D01*
X212027Y682605D01*
X211609Y683023D01*
X211250Y683491D01*
X210955Y684001D01*
X210730Y684546D01*
X210577Y685116D01*
X210500Y685701D01*
X210500Y686291D01*
X210500Y696791D02*
X210577Y697376D01*
X210730Y697946D01*
X210955Y698491D01*
X211250Y699001D01*
X211609Y699469D01*
X212027Y699887D01*
X212495Y700246D01*
X213005Y700541D01*
X213550Y700766D01*
X214120Y700919D01*
X214705Y700996D01*
X215295Y700996D01*
X215880Y700919D01*
X216450Y700766D01*
X216995Y700541D01*
X217505Y700246D01*
X217973Y699887D01*
X218391Y699469D01*
X218750Y699001D01*
X219045Y698491D01*
X219270Y697946D01*
X219423Y697376D01*
X219500Y696791D01*
X219500Y696201D01*
X219423Y695616D01*
X219270Y695046D01*
X219045Y694501D01*
X218750Y693991D01*
X218391Y693523D01*
X217973Y693105D01*
X217505Y692746D01*
X216995Y692451D01*
X216450Y692226D01*
X215880Y692073D01*
X215295Y691996D01*
X214705Y691996D01*
X214120Y692073D01*
X213550Y692226D01*
X213005Y692451D01*
X212495Y692746D01*
X212027Y693105D01*
X211609Y693523D01*
X211250Y693991D01*
X210955Y694501D01*
X210730Y695046D01*
X210577Y695616D01*
X210500Y696201D01*
X210500Y696791D01*
X210500Y692291D02*
X210577Y692876D01*
X210730Y693446D01*
X210955Y693991D01*
X211250Y694501D01*
X211609Y694969D01*
X212027Y695387D01*
X212495Y695746D01*
X213005Y696041D01*
X213550Y696266D01*
X214120Y696419D01*
X214705Y696496D01*
X215295Y696496D01*
X215880Y696419D01*
X216450Y696266D01*
X216995Y696041D01*
X217505Y695746D01*
X217973Y695387D01*
X218391Y694969D01*
X218750Y694501D01*
X219045Y693991D01*
X219270Y693446D01*
X219423Y692876D01*
X219500Y692291D01*
X219500Y691701D01*
X219423Y691116D01*
X219270Y690546D01*
X219045Y690001D01*
X218750Y689491D01*
X218391Y689023D01*
X217973Y688605D01*
X217505Y688246D01*
X216995Y687951D01*
X216450Y687726D01*
X215880Y687573D01*
X215295Y687496D01*
X214705Y687496D01*
X214120Y687573D01*
X213550Y687726D01*
X213005Y687951D01*
X212495Y688246D01*
X212027Y688605D01*
X211609Y689023D01*
X211250Y689491D01*
X210955Y690001D01*
X210730Y690546D01*
X210577Y691116D01*
X210500Y691701D01*
X210500Y692291D01*
X86200Y676295D02*
X86277Y676880D01*
X86430Y677450D01*
X86655Y677995D01*
X86950Y678505D01*
X87309Y678973D01*
X87727Y679391D01*
X88195Y679750D01*
X88705Y680045D01*
X89250Y680270D01*
X89820Y680423D01*
X90405Y680500D01*
X90995Y680500D01*
X91580Y680423D01*
X92150Y680270D01*
X92695Y680045D01*
X93205Y679750D01*
X93673Y679391D01*
X94091Y678973D01*
X94450Y678505D01*
X94745Y677995D01*
X94970Y677450D01*
X95123Y676880D01*
X95200Y676295D01*
X95200Y675705D01*
X95123Y675120D01*
X94970Y674550D01*
X94745Y674005D01*
X94450Y673495D01*
X94091Y673027D01*
X93673Y672609D01*
X93205Y672250D01*
X92695Y671955D01*
X92150Y671730D01*
X91580Y671577D01*
X90995Y671500D01*
X90405Y671500D01*
X89820Y671577D01*
X89250Y671730D01*
X88705Y671955D01*
X88195Y672250D01*
X87727Y672609D01*
X87309Y673027D01*
X86950Y673495D01*
X86655Y674005D01*
X86430Y674550D01*
X86277Y675120D01*
X86200Y675705D01*
X86200Y676295D01*
X159700Y676886D02*
X159774Y677353D01*
X159920Y677802D01*
X160134Y678222D01*
X160412Y678604D01*
X160746Y678938D01*
X161128Y679216D01*
X161548Y679430D01*
X161998Y679576D01*
X162464Y679650D01*
X162936Y679650D01*
X163403Y679576D01*
X163852Y679430D01*
X164272Y679216D01*
X164654Y678938D01*
X164988Y678604D01*
X165266Y678222D01*
X165480Y677802D01*
X165626Y677353D01*
X165700Y676886D01*
X165700Y676414D01*
X165626Y675948D01*
X165480Y675498D01*
X165266Y675078D01*
X164988Y674696D01*
X164654Y674362D01*
X164272Y674084D01*
X163852Y673870D01*
X163403Y673724D01*
X162936Y673650D01*
X162464Y673650D01*
X161998Y673724D01*
X161548Y673870D01*
X161128Y674084D01*
X160746Y674362D01*
X160412Y674696D01*
X160134Y675078D01*
X159920Y675498D01*
X159774Y675948D01*
X159700Y676414D01*
X159700Y676886D01*
X549930Y50375D02*
X549853Y49790D01*
X549700Y49220D01*
X549475Y48675D01*
X549180Y48165D01*
X548821Y47697D01*
X548403Y47279D01*
X547935Y46920D01*
X547425Y46625D01*
X546880Y46400D01*
X546310Y46247D01*
X545725Y46170D01*
X545135Y46170D01*
X544550Y46247D01*
X543980Y46400D01*
X543435Y46625D01*
X542925Y46920D01*
X542457Y47279D01*
X542039Y47697D01*
X541680Y48165D01*
X541385Y48675D01*
X541160Y49220D01*
X541007Y49790D01*
X540930Y50375D01*
X540930Y50965D01*
X541007Y51550D01*
X541160Y52120D01*
X541385Y52665D01*
X541680Y53175D01*
X542039Y53643D01*
X542457Y54061D01*
X542925Y54420D01*
X543435Y54715D01*
X543980Y54940D01*
X544550Y55093D01*
X545135Y55170D01*
X545725Y55170D01*
X546310Y55093D01*
X546880Y54940D01*
X547425Y54715D01*
X547935Y54420D01*
X548403Y54061D01*
X548821Y53643D01*
X549180Y53175D01*
X549475Y52665D01*
X549700Y52120D01*
X549853Y51550D01*
X549930Y50965D01*
X549930Y50375D01*
X476430Y49784D02*
X476356Y49318D01*
X476210Y48868D01*
X475996Y48448D01*
X475718Y48066D01*
X475384Y47732D01*
X475002Y47454D01*
X474582Y47240D01*
X474133Y47094D01*
X473666Y47020D01*
X473194Y47020D01*
X472728Y47094D01*
X472278Y47240D01*
X471858Y47454D01*
X471476Y47732D01*
X471142Y48066D01*
X470864Y48448D01*
X470650Y48868D01*
X470504Y49318D01*
X470430Y49784D01*
X470430Y50256D01*
X470504Y50723D01*
X470650Y51172D01*
X470864Y51592D01*
X471142Y51974D01*
X471476Y52308D01*
X471858Y52586D01*
X472278Y52800D01*
X472728Y52946D01*
X473194Y53020D01*
X473666Y53020D01*
X474133Y52946D01*
X474582Y52800D01*
X475002Y52586D01*
X475384Y52308D01*
X475718Y51974D01*
X475996Y51592D01*
X476210Y51172D01*
X476356Y50723D01*
X476430Y50256D01*
X476430Y49784D01*
X633152Y617204D02*
X633083Y616159D01*
X632947Y615120D01*
X632742Y614092D01*
X632471Y613080D01*
X632134Y612088D01*
X631733Y611120D01*
X631270Y610181D01*
X630746Y609273D01*
X630164Y608402D01*
X629526Y607571D01*
X628836Y606783D01*
X628095Y606042D01*
X627307Y605352D01*
X626476Y604714D01*
X625605Y604132D01*
X624697Y603608D01*
X623758Y603145D01*
X622790Y602744D01*
X621798Y602407D01*
X620786Y602136D01*
X619758Y601931D01*
X618719Y601795D01*
X617674Y601726D01*
X616626Y601726D01*
X615581Y601795D01*
X614542Y601931D01*
X613514Y602136D01*
X612502Y602407D01*
X611510Y602744D01*
X610542Y603145D01*
X609603Y603608D01*
X608695Y604132D01*
X607824Y604714D01*
X606993Y605352D01*
X606205Y606042D01*
X605464Y606783D01*
X604774Y607571D01*
X604136Y608402D01*
X603554Y609273D01*
X603030Y610181D01*
X602567Y611120D01*
X602166Y612088D01*
X601829Y613080D01*
X601558Y614092D01*
X601353Y615120D01*
X601217Y616159D01*
X601148Y617204D01*
X601148Y618252D01*
X601217Y619297D01*
X601353Y620336D01*
X601558Y621364D01*
X601829Y622376D01*
X602166Y623368D01*
X602567Y624336D01*
X603030Y625275D01*
X603554Y626183D01*
X604136Y627054D01*
X604774Y627885D01*
X605464Y628673D01*
X606205Y629414D01*
X606993Y630104D01*
X607824Y630742D01*
X608695Y631324D01*
X609603Y631848D01*
X610542Y632311D01*
X611510Y632712D01*
X612502Y633049D01*
X613514Y633320D01*
X614542Y633525D01*
X615581Y633661D01*
X616626Y633730D01*
X617674Y633730D01*
X618719Y633661D01*
X619758Y633525D01*
X620786Y633320D01*
X621798Y633049D01*
X622790Y632712D01*
X623758Y632311D01*
X624697Y631848D01*
X625605Y631324D01*
X626476Y630742D01*
X627307Y630104D01*
X628095Y629414D01*
X628836Y628673D01*
X629526Y627885D01*
X630164Y627054D01*
X630746Y626183D01*
X631270Y625275D01*
X631733Y624336D01*
X632134Y623368D01*
X632471Y622376D01*
X632742Y621364D01*
X632947Y620336D01*
X633083Y619297D01*
X633152Y618252D01*
X633152Y617204D01*
X518852Y617204D02*
X518783Y616159D01*
X518647Y615120D01*
X518442Y614092D01*
X518171Y613080D01*
X517834Y612088D01*
X517433Y611120D01*
X516970Y610181D01*
X516446Y609273D01*
X515864Y608402D01*
X515226Y607571D01*
X514536Y606783D01*
X513795Y606042D01*
X513007Y605352D01*
X512176Y604714D01*
X511305Y604132D01*
X510397Y603608D01*
X509458Y603145D01*
X508490Y602744D01*
X507498Y602407D01*
X506486Y602136D01*
X505458Y601931D01*
X504419Y601795D01*
X503374Y601726D01*
X502326Y601726D01*
X501281Y601795D01*
X500242Y601931D01*
X499214Y602136D01*
X498202Y602407D01*
X497210Y602744D01*
X496242Y603145D01*
X495303Y603608D01*
X494395Y604132D01*
X493524Y604714D01*
X492693Y605352D01*
X491905Y606042D01*
X491164Y606783D01*
X490474Y607571D01*
X489836Y608402D01*
X489254Y609273D01*
X488730Y610181D01*
X488267Y611120D01*
X487866Y612088D01*
X487529Y613080D01*
X487258Y614092D01*
X487053Y615120D01*
X486917Y616159D01*
X486848Y617204D01*
X486848Y618252D01*
X486917Y619297D01*
X487053Y620336D01*
X487258Y621364D01*
X487529Y622376D01*
X487866Y623368D01*
X488267Y624336D01*
X488730Y625275D01*
X489254Y626183D01*
X489836Y627054D01*
X490474Y627885D01*
X491164Y628673D01*
X491905Y629414D01*
X492693Y630104D01*
X493524Y630742D01*
X494395Y631324D01*
X495303Y631848D01*
X496242Y632311D01*
X497210Y632712D01*
X498202Y633049D01*
X499214Y633320D01*
X500242Y633525D01*
X501281Y633661D01*
X502326Y633730D01*
X503374Y633730D01*
X504419Y633661D01*
X505458Y633525D01*
X506486Y633320D01*
X507498Y633049D01*
X508490Y632712D01*
X509458Y632311D01*
X510397Y631848D01*
X511305Y631324D01*
X512176Y630742D01*
X513007Y630104D01*
X513795Y629414D01*
X514536Y628673D01*
X515226Y627885D01*
X515864Y627054D01*
X516446Y626183D01*
X516970Y625275D01*
X517433Y624336D01*
X517834Y623368D01*
X518171Y622376D01*
X518442Y621364D01*
X518647Y620336D01*
X518783Y619297D01*
X518852Y618252D01*
X518852Y617204D01*
M02*
