G04 EAGLE Gerber RS-274X export*
G75*
%MOMM*%
%FSLAX34Y34*%
%LPD*%
%INSilkscreen Top*%
%IPPOS*%
%AMOC8*
5,1,8,0,0,1.08239X$1,22.5*%
G01*
%ADD10C,0.300000*%
%ADD11C,0.101600*%
%ADD12C,0.200000*%
%ADD13C,0.076200*%
%ADD14C,0.050800*%
%ADD15C,0.038100*%
%ADD16C,0.152400*%
%ADD17C,0.254000*%
%ADD18C,0.250000*%
%ADD19C,0.100000*%
%ADD20C,0.203200*%
%ADD21C,0.127000*%
%ADD22C,0.406400*%
%ADD23R,0.200000X0.200000*%
%ADD24C,0.558800*%
%ADD25C,0.050000*%


D10*
X241000Y600800D02*
X241002Y600877D01*
X241008Y600954D01*
X241018Y601031D01*
X241032Y601107D01*
X241049Y601182D01*
X241071Y601256D01*
X241096Y601329D01*
X241126Y601401D01*
X241158Y601471D01*
X241195Y601539D01*
X241234Y601605D01*
X241277Y601669D01*
X241324Y601731D01*
X241373Y601790D01*
X241426Y601847D01*
X241481Y601901D01*
X241539Y601952D01*
X241600Y602000D01*
X241663Y602045D01*
X241728Y602086D01*
X241795Y602124D01*
X241864Y602159D01*
X241935Y602189D01*
X242007Y602217D01*
X242081Y602240D01*
X242155Y602260D01*
X242231Y602276D01*
X242307Y602288D01*
X242384Y602296D01*
X242461Y602300D01*
X242539Y602300D01*
X242616Y602296D01*
X242693Y602288D01*
X242769Y602276D01*
X242845Y602260D01*
X242919Y602240D01*
X242993Y602217D01*
X243065Y602189D01*
X243136Y602159D01*
X243205Y602124D01*
X243272Y602086D01*
X243337Y602045D01*
X243400Y602000D01*
X243461Y601952D01*
X243519Y601901D01*
X243574Y601847D01*
X243627Y601790D01*
X243676Y601731D01*
X243723Y601669D01*
X243766Y601605D01*
X243805Y601539D01*
X243842Y601471D01*
X243874Y601401D01*
X243904Y601329D01*
X243929Y601256D01*
X243951Y601182D01*
X243968Y601107D01*
X243982Y601031D01*
X243992Y600954D01*
X243998Y600877D01*
X244000Y600800D01*
X243998Y600723D01*
X243992Y600646D01*
X243982Y600569D01*
X243968Y600493D01*
X243951Y600418D01*
X243929Y600344D01*
X243904Y600271D01*
X243874Y600199D01*
X243842Y600129D01*
X243805Y600061D01*
X243766Y599995D01*
X243723Y599931D01*
X243676Y599869D01*
X243627Y599810D01*
X243574Y599753D01*
X243519Y599699D01*
X243461Y599648D01*
X243400Y599600D01*
X243337Y599555D01*
X243272Y599514D01*
X243205Y599476D01*
X243136Y599441D01*
X243065Y599411D01*
X242993Y599383D01*
X242919Y599360D01*
X242845Y599340D01*
X242769Y599324D01*
X242693Y599312D01*
X242616Y599304D01*
X242539Y599300D01*
X242461Y599300D01*
X242384Y599304D01*
X242307Y599312D01*
X242231Y599324D01*
X242155Y599340D01*
X242081Y599360D01*
X242007Y599383D01*
X241935Y599411D01*
X241864Y599441D01*
X241795Y599476D01*
X241728Y599514D01*
X241663Y599555D01*
X241600Y599600D01*
X241539Y599648D01*
X241481Y599699D01*
X241426Y599753D01*
X241373Y599810D01*
X241324Y599869D01*
X241277Y599931D01*
X241234Y599995D01*
X241195Y600061D01*
X241158Y600129D01*
X241126Y600199D01*
X241096Y600271D01*
X241071Y600344D01*
X241049Y600418D01*
X241032Y600493D01*
X241018Y600569D01*
X241008Y600646D01*
X241002Y600723D01*
X241000Y600800D01*
D11*
X404308Y612594D02*
X405494Y611408D01*
X406681Y611408D01*
X407867Y612594D01*
X407867Y618526D01*
X406681Y618526D02*
X409053Y618526D01*
X411792Y616153D02*
X414165Y618526D01*
X414165Y611408D01*
X411792Y611408D02*
X416538Y611408D01*
D10*
X145000Y329800D02*
X145002Y329877D01*
X145008Y329954D01*
X145018Y330031D01*
X145032Y330107D01*
X145049Y330182D01*
X145071Y330256D01*
X145096Y330329D01*
X145126Y330401D01*
X145158Y330471D01*
X145195Y330539D01*
X145234Y330605D01*
X145277Y330669D01*
X145324Y330731D01*
X145373Y330790D01*
X145426Y330847D01*
X145481Y330901D01*
X145539Y330952D01*
X145600Y331000D01*
X145663Y331045D01*
X145728Y331086D01*
X145795Y331124D01*
X145864Y331159D01*
X145935Y331189D01*
X146007Y331217D01*
X146081Y331240D01*
X146155Y331260D01*
X146231Y331276D01*
X146307Y331288D01*
X146384Y331296D01*
X146461Y331300D01*
X146539Y331300D01*
X146616Y331296D01*
X146693Y331288D01*
X146769Y331276D01*
X146845Y331260D01*
X146919Y331240D01*
X146993Y331217D01*
X147065Y331189D01*
X147136Y331159D01*
X147205Y331124D01*
X147272Y331086D01*
X147337Y331045D01*
X147400Y331000D01*
X147461Y330952D01*
X147519Y330901D01*
X147574Y330847D01*
X147627Y330790D01*
X147676Y330731D01*
X147723Y330669D01*
X147766Y330605D01*
X147805Y330539D01*
X147842Y330471D01*
X147874Y330401D01*
X147904Y330329D01*
X147929Y330256D01*
X147951Y330182D01*
X147968Y330107D01*
X147982Y330031D01*
X147992Y329954D01*
X147998Y329877D01*
X148000Y329800D01*
X147998Y329723D01*
X147992Y329646D01*
X147982Y329569D01*
X147968Y329493D01*
X147951Y329418D01*
X147929Y329344D01*
X147904Y329271D01*
X147874Y329199D01*
X147842Y329129D01*
X147805Y329061D01*
X147766Y328995D01*
X147723Y328931D01*
X147676Y328869D01*
X147627Y328810D01*
X147574Y328753D01*
X147519Y328699D01*
X147461Y328648D01*
X147400Y328600D01*
X147337Y328555D01*
X147272Y328514D01*
X147205Y328476D01*
X147136Y328441D01*
X147065Y328411D01*
X146993Y328383D01*
X146919Y328360D01*
X146845Y328340D01*
X146769Y328324D01*
X146693Y328312D01*
X146616Y328304D01*
X146539Y328300D01*
X146461Y328300D01*
X146384Y328304D01*
X146307Y328312D01*
X146231Y328324D01*
X146155Y328340D01*
X146081Y328360D01*
X146007Y328383D01*
X145935Y328411D01*
X145864Y328441D01*
X145795Y328476D01*
X145728Y328514D01*
X145663Y328555D01*
X145600Y328600D01*
X145539Y328648D01*
X145481Y328699D01*
X145426Y328753D01*
X145373Y328810D01*
X145324Y328869D01*
X145277Y328931D01*
X145234Y328995D01*
X145195Y329061D01*
X145158Y329129D01*
X145126Y329199D01*
X145096Y329271D01*
X145071Y329344D01*
X145049Y329418D01*
X145032Y329493D01*
X145018Y329569D01*
X145008Y329646D01*
X145002Y329723D01*
X145000Y329800D01*
X114000Y233800D02*
X114002Y233877D01*
X114008Y233954D01*
X114018Y234031D01*
X114032Y234107D01*
X114049Y234182D01*
X114071Y234256D01*
X114096Y234329D01*
X114126Y234401D01*
X114158Y234471D01*
X114195Y234539D01*
X114234Y234605D01*
X114277Y234669D01*
X114324Y234731D01*
X114373Y234790D01*
X114426Y234847D01*
X114481Y234901D01*
X114539Y234952D01*
X114600Y235000D01*
X114663Y235045D01*
X114728Y235086D01*
X114795Y235124D01*
X114864Y235159D01*
X114935Y235189D01*
X115007Y235217D01*
X115081Y235240D01*
X115155Y235260D01*
X115231Y235276D01*
X115307Y235288D01*
X115384Y235296D01*
X115461Y235300D01*
X115539Y235300D01*
X115616Y235296D01*
X115693Y235288D01*
X115769Y235276D01*
X115845Y235260D01*
X115919Y235240D01*
X115993Y235217D01*
X116065Y235189D01*
X116136Y235159D01*
X116205Y235124D01*
X116272Y235086D01*
X116337Y235045D01*
X116400Y235000D01*
X116461Y234952D01*
X116519Y234901D01*
X116574Y234847D01*
X116627Y234790D01*
X116676Y234731D01*
X116723Y234669D01*
X116766Y234605D01*
X116805Y234539D01*
X116842Y234471D01*
X116874Y234401D01*
X116904Y234329D01*
X116929Y234256D01*
X116951Y234182D01*
X116968Y234107D01*
X116982Y234031D01*
X116992Y233954D01*
X116998Y233877D01*
X117000Y233800D01*
X116998Y233723D01*
X116992Y233646D01*
X116982Y233569D01*
X116968Y233493D01*
X116951Y233418D01*
X116929Y233344D01*
X116904Y233271D01*
X116874Y233199D01*
X116842Y233129D01*
X116805Y233061D01*
X116766Y232995D01*
X116723Y232931D01*
X116676Y232869D01*
X116627Y232810D01*
X116574Y232753D01*
X116519Y232699D01*
X116461Y232648D01*
X116400Y232600D01*
X116337Y232555D01*
X116272Y232514D01*
X116205Y232476D01*
X116136Y232441D01*
X116065Y232411D01*
X115993Y232383D01*
X115919Y232360D01*
X115845Y232340D01*
X115769Y232324D01*
X115693Y232312D01*
X115616Y232304D01*
X115539Y232300D01*
X115461Y232300D01*
X115384Y232304D01*
X115307Y232312D01*
X115231Y232324D01*
X115155Y232340D01*
X115081Y232360D01*
X115007Y232383D01*
X114935Y232411D01*
X114864Y232441D01*
X114795Y232476D01*
X114728Y232514D01*
X114663Y232555D01*
X114600Y232600D01*
X114539Y232648D01*
X114481Y232699D01*
X114426Y232753D01*
X114373Y232810D01*
X114324Y232869D01*
X114277Y232931D01*
X114234Y232995D01*
X114195Y233061D01*
X114158Y233129D01*
X114126Y233199D01*
X114096Y233271D01*
X114071Y233344D01*
X114049Y233418D01*
X114032Y233493D01*
X114018Y233569D01*
X114008Y233646D01*
X114002Y233723D01*
X114000Y233800D01*
X107000Y10800D02*
X107002Y10877D01*
X107008Y10954D01*
X107018Y11031D01*
X107032Y11107D01*
X107049Y11182D01*
X107071Y11256D01*
X107096Y11329D01*
X107126Y11401D01*
X107158Y11471D01*
X107195Y11539D01*
X107234Y11605D01*
X107277Y11669D01*
X107324Y11731D01*
X107373Y11790D01*
X107426Y11847D01*
X107481Y11901D01*
X107539Y11952D01*
X107600Y12000D01*
X107663Y12045D01*
X107728Y12086D01*
X107795Y12124D01*
X107864Y12159D01*
X107935Y12189D01*
X108007Y12217D01*
X108081Y12240D01*
X108155Y12260D01*
X108231Y12276D01*
X108307Y12288D01*
X108384Y12296D01*
X108461Y12300D01*
X108539Y12300D01*
X108616Y12296D01*
X108693Y12288D01*
X108769Y12276D01*
X108845Y12260D01*
X108919Y12240D01*
X108993Y12217D01*
X109065Y12189D01*
X109136Y12159D01*
X109205Y12124D01*
X109272Y12086D01*
X109337Y12045D01*
X109400Y12000D01*
X109461Y11952D01*
X109519Y11901D01*
X109574Y11847D01*
X109627Y11790D01*
X109676Y11731D01*
X109723Y11669D01*
X109766Y11605D01*
X109805Y11539D01*
X109842Y11471D01*
X109874Y11401D01*
X109904Y11329D01*
X109929Y11256D01*
X109951Y11182D01*
X109968Y11107D01*
X109982Y11031D01*
X109992Y10954D01*
X109998Y10877D01*
X110000Y10800D01*
X109998Y10723D01*
X109992Y10646D01*
X109982Y10569D01*
X109968Y10493D01*
X109951Y10418D01*
X109929Y10344D01*
X109904Y10271D01*
X109874Y10199D01*
X109842Y10129D01*
X109805Y10061D01*
X109766Y9995D01*
X109723Y9931D01*
X109676Y9869D01*
X109627Y9810D01*
X109574Y9753D01*
X109519Y9699D01*
X109461Y9648D01*
X109400Y9600D01*
X109337Y9555D01*
X109272Y9514D01*
X109205Y9476D01*
X109136Y9441D01*
X109065Y9411D01*
X108993Y9383D01*
X108919Y9360D01*
X108845Y9340D01*
X108769Y9324D01*
X108693Y9312D01*
X108616Y9304D01*
X108539Y9300D01*
X108461Y9300D01*
X108384Y9304D01*
X108307Y9312D01*
X108231Y9324D01*
X108155Y9340D01*
X108081Y9360D01*
X108007Y9383D01*
X107935Y9411D01*
X107864Y9441D01*
X107795Y9476D01*
X107728Y9514D01*
X107663Y9555D01*
X107600Y9600D01*
X107539Y9648D01*
X107481Y9699D01*
X107426Y9753D01*
X107373Y9810D01*
X107324Y9869D01*
X107277Y9931D01*
X107234Y9995D01*
X107195Y10061D01*
X107158Y10129D01*
X107126Y10199D01*
X107096Y10271D01*
X107071Y10344D01*
X107049Y10418D01*
X107032Y10493D01*
X107018Y10569D01*
X107008Y10646D01*
X107002Y10723D01*
X107000Y10800D01*
D12*
X262500Y136800D02*
X262502Y136863D01*
X262508Y136925D01*
X262518Y136987D01*
X262531Y137049D01*
X262549Y137109D01*
X262570Y137168D01*
X262595Y137226D01*
X262624Y137282D01*
X262656Y137336D01*
X262691Y137388D01*
X262729Y137437D01*
X262771Y137485D01*
X262815Y137529D01*
X262863Y137571D01*
X262912Y137609D01*
X262964Y137644D01*
X263018Y137676D01*
X263074Y137705D01*
X263132Y137730D01*
X263191Y137751D01*
X263251Y137769D01*
X263313Y137782D01*
X263375Y137792D01*
X263437Y137798D01*
X263500Y137800D01*
X263563Y137798D01*
X263625Y137792D01*
X263687Y137782D01*
X263749Y137769D01*
X263809Y137751D01*
X263868Y137730D01*
X263926Y137705D01*
X263982Y137676D01*
X264036Y137644D01*
X264088Y137609D01*
X264137Y137571D01*
X264185Y137529D01*
X264229Y137485D01*
X264271Y137437D01*
X264309Y137388D01*
X264344Y137336D01*
X264376Y137282D01*
X264405Y137226D01*
X264430Y137168D01*
X264451Y137109D01*
X264469Y137049D01*
X264482Y136987D01*
X264492Y136925D01*
X264498Y136863D01*
X264500Y136800D01*
X264498Y136737D01*
X264492Y136675D01*
X264482Y136613D01*
X264469Y136551D01*
X264451Y136491D01*
X264430Y136432D01*
X264405Y136374D01*
X264376Y136318D01*
X264344Y136264D01*
X264309Y136212D01*
X264271Y136163D01*
X264229Y136115D01*
X264185Y136071D01*
X264137Y136029D01*
X264088Y135991D01*
X264036Y135956D01*
X263982Y135924D01*
X263926Y135895D01*
X263868Y135870D01*
X263809Y135849D01*
X263749Y135831D01*
X263687Y135818D01*
X263625Y135808D01*
X263563Y135802D01*
X263500Y135800D01*
X263437Y135802D01*
X263375Y135808D01*
X263313Y135818D01*
X263251Y135831D01*
X263191Y135849D01*
X263132Y135870D01*
X263074Y135895D01*
X263018Y135924D01*
X262964Y135956D01*
X262912Y135991D01*
X262863Y136029D01*
X262815Y136071D01*
X262771Y136115D01*
X262729Y136163D01*
X262691Y136212D01*
X262656Y136264D01*
X262624Y136318D01*
X262595Y136374D01*
X262570Y136432D01*
X262549Y136491D01*
X262531Y136551D01*
X262518Y136613D01*
X262508Y136675D01*
X262502Y136737D01*
X262500Y136800D01*
D10*
X287000Y24800D02*
X287002Y24877D01*
X287008Y24954D01*
X287018Y25031D01*
X287032Y25107D01*
X287049Y25182D01*
X287071Y25256D01*
X287096Y25329D01*
X287126Y25401D01*
X287158Y25471D01*
X287195Y25539D01*
X287234Y25605D01*
X287277Y25669D01*
X287324Y25731D01*
X287373Y25790D01*
X287426Y25847D01*
X287481Y25901D01*
X287539Y25952D01*
X287600Y26000D01*
X287663Y26045D01*
X287728Y26086D01*
X287795Y26124D01*
X287864Y26159D01*
X287935Y26189D01*
X288007Y26217D01*
X288081Y26240D01*
X288155Y26260D01*
X288231Y26276D01*
X288307Y26288D01*
X288384Y26296D01*
X288461Y26300D01*
X288539Y26300D01*
X288616Y26296D01*
X288693Y26288D01*
X288769Y26276D01*
X288845Y26260D01*
X288919Y26240D01*
X288993Y26217D01*
X289065Y26189D01*
X289136Y26159D01*
X289205Y26124D01*
X289272Y26086D01*
X289337Y26045D01*
X289400Y26000D01*
X289461Y25952D01*
X289519Y25901D01*
X289574Y25847D01*
X289627Y25790D01*
X289676Y25731D01*
X289723Y25669D01*
X289766Y25605D01*
X289805Y25539D01*
X289842Y25471D01*
X289874Y25401D01*
X289904Y25329D01*
X289929Y25256D01*
X289951Y25182D01*
X289968Y25107D01*
X289982Y25031D01*
X289992Y24954D01*
X289998Y24877D01*
X290000Y24800D01*
X289998Y24723D01*
X289992Y24646D01*
X289982Y24569D01*
X289968Y24493D01*
X289951Y24418D01*
X289929Y24344D01*
X289904Y24271D01*
X289874Y24199D01*
X289842Y24129D01*
X289805Y24061D01*
X289766Y23995D01*
X289723Y23931D01*
X289676Y23869D01*
X289627Y23810D01*
X289574Y23753D01*
X289519Y23699D01*
X289461Y23648D01*
X289400Y23600D01*
X289337Y23555D01*
X289272Y23514D01*
X289205Y23476D01*
X289136Y23441D01*
X289065Y23411D01*
X288993Y23383D01*
X288919Y23360D01*
X288845Y23340D01*
X288769Y23324D01*
X288693Y23312D01*
X288616Y23304D01*
X288539Y23300D01*
X288461Y23300D01*
X288384Y23304D01*
X288307Y23312D01*
X288231Y23324D01*
X288155Y23340D01*
X288081Y23360D01*
X288007Y23383D01*
X287935Y23411D01*
X287864Y23441D01*
X287795Y23476D01*
X287728Y23514D01*
X287663Y23555D01*
X287600Y23600D01*
X287539Y23648D01*
X287481Y23699D01*
X287426Y23753D01*
X287373Y23810D01*
X287324Y23869D01*
X287277Y23931D01*
X287234Y23995D01*
X287195Y24061D01*
X287158Y24129D01*
X287126Y24199D01*
X287096Y24271D01*
X287071Y24344D01*
X287049Y24418D01*
X287032Y24493D01*
X287018Y24569D01*
X287008Y24646D01*
X287002Y24723D01*
X287000Y24800D01*
D12*
X325500Y186800D02*
X325502Y186863D01*
X325508Y186925D01*
X325518Y186987D01*
X325531Y187049D01*
X325549Y187109D01*
X325570Y187168D01*
X325595Y187226D01*
X325624Y187282D01*
X325656Y187336D01*
X325691Y187388D01*
X325729Y187437D01*
X325771Y187485D01*
X325815Y187529D01*
X325863Y187571D01*
X325912Y187609D01*
X325964Y187644D01*
X326018Y187676D01*
X326074Y187705D01*
X326132Y187730D01*
X326191Y187751D01*
X326251Y187769D01*
X326313Y187782D01*
X326375Y187792D01*
X326437Y187798D01*
X326500Y187800D01*
X326563Y187798D01*
X326625Y187792D01*
X326687Y187782D01*
X326749Y187769D01*
X326809Y187751D01*
X326868Y187730D01*
X326926Y187705D01*
X326982Y187676D01*
X327036Y187644D01*
X327088Y187609D01*
X327137Y187571D01*
X327185Y187529D01*
X327229Y187485D01*
X327271Y187437D01*
X327309Y187388D01*
X327344Y187336D01*
X327376Y187282D01*
X327405Y187226D01*
X327430Y187168D01*
X327451Y187109D01*
X327469Y187049D01*
X327482Y186987D01*
X327492Y186925D01*
X327498Y186863D01*
X327500Y186800D01*
X327498Y186737D01*
X327492Y186675D01*
X327482Y186613D01*
X327469Y186551D01*
X327451Y186491D01*
X327430Y186432D01*
X327405Y186374D01*
X327376Y186318D01*
X327344Y186264D01*
X327309Y186212D01*
X327271Y186163D01*
X327229Y186115D01*
X327185Y186071D01*
X327137Y186029D01*
X327088Y185991D01*
X327036Y185956D01*
X326982Y185924D01*
X326926Y185895D01*
X326868Y185870D01*
X326809Y185849D01*
X326749Y185831D01*
X326687Y185818D01*
X326625Y185808D01*
X326563Y185802D01*
X326500Y185800D01*
X326437Y185802D01*
X326375Y185808D01*
X326313Y185818D01*
X326251Y185831D01*
X326191Y185849D01*
X326132Y185870D01*
X326074Y185895D01*
X326018Y185924D01*
X325964Y185956D01*
X325912Y185991D01*
X325863Y186029D01*
X325815Y186071D01*
X325771Y186115D01*
X325729Y186163D01*
X325691Y186212D01*
X325656Y186264D01*
X325624Y186318D01*
X325595Y186374D01*
X325570Y186432D01*
X325549Y186491D01*
X325531Y186551D01*
X325518Y186613D01*
X325508Y186675D01*
X325502Y186737D01*
X325500Y186800D01*
D10*
X630000Y189800D02*
X630002Y189877D01*
X630008Y189954D01*
X630018Y190031D01*
X630032Y190107D01*
X630049Y190182D01*
X630071Y190256D01*
X630096Y190329D01*
X630126Y190401D01*
X630158Y190471D01*
X630195Y190539D01*
X630234Y190605D01*
X630277Y190669D01*
X630324Y190731D01*
X630373Y190790D01*
X630426Y190847D01*
X630481Y190901D01*
X630539Y190952D01*
X630600Y191000D01*
X630663Y191045D01*
X630728Y191086D01*
X630795Y191124D01*
X630864Y191159D01*
X630935Y191189D01*
X631007Y191217D01*
X631081Y191240D01*
X631155Y191260D01*
X631231Y191276D01*
X631307Y191288D01*
X631384Y191296D01*
X631461Y191300D01*
X631539Y191300D01*
X631616Y191296D01*
X631693Y191288D01*
X631769Y191276D01*
X631845Y191260D01*
X631919Y191240D01*
X631993Y191217D01*
X632065Y191189D01*
X632136Y191159D01*
X632205Y191124D01*
X632272Y191086D01*
X632337Y191045D01*
X632400Y191000D01*
X632461Y190952D01*
X632519Y190901D01*
X632574Y190847D01*
X632627Y190790D01*
X632676Y190731D01*
X632723Y190669D01*
X632766Y190605D01*
X632805Y190539D01*
X632842Y190471D01*
X632874Y190401D01*
X632904Y190329D01*
X632929Y190256D01*
X632951Y190182D01*
X632968Y190107D01*
X632982Y190031D01*
X632992Y189954D01*
X632998Y189877D01*
X633000Y189800D01*
X632998Y189723D01*
X632992Y189646D01*
X632982Y189569D01*
X632968Y189493D01*
X632951Y189418D01*
X632929Y189344D01*
X632904Y189271D01*
X632874Y189199D01*
X632842Y189129D01*
X632805Y189061D01*
X632766Y188995D01*
X632723Y188931D01*
X632676Y188869D01*
X632627Y188810D01*
X632574Y188753D01*
X632519Y188699D01*
X632461Y188648D01*
X632400Y188600D01*
X632337Y188555D01*
X632272Y188514D01*
X632205Y188476D01*
X632136Y188441D01*
X632065Y188411D01*
X631993Y188383D01*
X631919Y188360D01*
X631845Y188340D01*
X631769Y188324D01*
X631693Y188312D01*
X631616Y188304D01*
X631539Y188300D01*
X631461Y188300D01*
X631384Y188304D01*
X631307Y188312D01*
X631231Y188324D01*
X631155Y188340D01*
X631081Y188360D01*
X631007Y188383D01*
X630935Y188411D01*
X630864Y188441D01*
X630795Y188476D01*
X630728Y188514D01*
X630663Y188555D01*
X630600Y188600D01*
X630539Y188648D01*
X630481Y188699D01*
X630426Y188753D01*
X630373Y188810D01*
X630324Y188869D01*
X630277Y188931D01*
X630234Y188995D01*
X630195Y189061D01*
X630158Y189129D01*
X630126Y189199D01*
X630096Y189271D01*
X630071Y189344D01*
X630049Y189418D01*
X630032Y189493D01*
X630018Y189569D01*
X630008Y189646D01*
X630002Y189723D01*
X630000Y189800D01*
X454000Y464800D02*
X454002Y464877D01*
X454008Y464954D01*
X454018Y465031D01*
X454032Y465107D01*
X454049Y465182D01*
X454071Y465256D01*
X454096Y465329D01*
X454126Y465401D01*
X454158Y465471D01*
X454195Y465539D01*
X454234Y465605D01*
X454277Y465669D01*
X454324Y465731D01*
X454373Y465790D01*
X454426Y465847D01*
X454481Y465901D01*
X454539Y465952D01*
X454600Y466000D01*
X454663Y466045D01*
X454728Y466086D01*
X454795Y466124D01*
X454864Y466159D01*
X454935Y466189D01*
X455007Y466217D01*
X455081Y466240D01*
X455155Y466260D01*
X455231Y466276D01*
X455307Y466288D01*
X455384Y466296D01*
X455461Y466300D01*
X455539Y466300D01*
X455616Y466296D01*
X455693Y466288D01*
X455769Y466276D01*
X455845Y466260D01*
X455919Y466240D01*
X455993Y466217D01*
X456065Y466189D01*
X456136Y466159D01*
X456205Y466124D01*
X456272Y466086D01*
X456337Y466045D01*
X456400Y466000D01*
X456461Y465952D01*
X456519Y465901D01*
X456574Y465847D01*
X456627Y465790D01*
X456676Y465731D01*
X456723Y465669D01*
X456766Y465605D01*
X456805Y465539D01*
X456842Y465471D01*
X456874Y465401D01*
X456904Y465329D01*
X456929Y465256D01*
X456951Y465182D01*
X456968Y465107D01*
X456982Y465031D01*
X456992Y464954D01*
X456998Y464877D01*
X457000Y464800D01*
X456998Y464723D01*
X456992Y464646D01*
X456982Y464569D01*
X456968Y464493D01*
X456951Y464418D01*
X456929Y464344D01*
X456904Y464271D01*
X456874Y464199D01*
X456842Y464129D01*
X456805Y464061D01*
X456766Y463995D01*
X456723Y463931D01*
X456676Y463869D01*
X456627Y463810D01*
X456574Y463753D01*
X456519Y463699D01*
X456461Y463648D01*
X456400Y463600D01*
X456337Y463555D01*
X456272Y463514D01*
X456205Y463476D01*
X456136Y463441D01*
X456065Y463411D01*
X455993Y463383D01*
X455919Y463360D01*
X455845Y463340D01*
X455769Y463324D01*
X455693Y463312D01*
X455616Y463304D01*
X455539Y463300D01*
X455461Y463300D01*
X455384Y463304D01*
X455307Y463312D01*
X455231Y463324D01*
X455155Y463340D01*
X455081Y463360D01*
X455007Y463383D01*
X454935Y463411D01*
X454864Y463441D01*
X454795Y463476D01*
X454728Y463514D01*
X454663Y463555D01*
X454600Y463600D01*
X454539Y463648D01*
X454481Y463699D01*
X454426Y463753D01*
X454373Y463810D01*
X454324Y463869D01*
X454277Y463931D01*
X454234Y463995D01*
X454195Y464061D01*
X454158Y464129D01*
X454126Y464199D01*
X454096Y464271D01*
X454071Y464344D01*
X454049Y464418D01*
X454032Y464493D01*
X454018Y464569D01*
X454008Y464646D01*
X454002Y464723D01*
X454000Y464800D01*
D12*
X354450Y287490D02*
X354452Y287553D01*
X354458Y287615D01*
X354468Y287677D01*
X354481Y287739D01*
X354499Y287799D01*
X354520Y287858D01*
X354545Y287916D01*
X354574Y287972D01*
X354606Y288026D01*
X354641Y288078D01*
X354679Y288127D01*
X354721Y288175D01*
X354765Y288219D01*
X354813Y288261D01*
X354862Y288299D01*
X354914Y288334D01*
X354968Y288366D01*
X355024Y288395D01*
X355082Y288420D01*
X355141Y288441D01*
X355201Y288459D01*
X355263Y288472D01*
X355325Y288482D01*
X355387Y288488D01*
X355450Y288490D01*
X355513Y288488D01*
X355575Y288482D01*
X355637Y288472D01*
X355699Y288459D01*
X355759Y288441D01*
X355818Y288420D01*
X355876Y288395D01*
X355932Y288366D01*
X355986Y288334D01*
X356038Y288299D01*
X356087Y288261D01*
X356135Y288219D01*
X356179Y288175D01*
X356221Y288127D01*
X356259Y288078D01*
X356294Y288026D01*
X356326Y287972D01*
X356355Y287916D01*
X356380Y287858D01*
X356401Y287799D01*
X356419Y287739D01*
X356432Y287677D01*
X356442Y287615D01*
X356448Y287553D01*
X356450Y287490D01*
X356448Y287427D01*
X356442Y287365D01*
X356432Y287303D01*
X356419Y287241D01*
X356401Y287181D01*
X356380Y287122D01*
X356355Y287064D01*
X356326Y287008D01*
X356294Y286954D01*
X356259Y286902D01*
X356221Y286853D01*
X356179Y286805D01*
X356135Y286761D01*
X356087Y286719D01*
X356038Y286681D01*
X355986Y286646D01*
X355932Y286614D01*
X355876Y286585D01*
X355818Y286560D01*
X355759Y286539D01*
X355699Y286521D01*
X355637Y286508D01*
X355575Y286498D01*
X355513Y286492D01*
X355450Y286490D01*
X355387Y286492D01*
X355325Y286498D01*
X355263Y286508D01*
X355201Y286521D01*
X355141Y286539D01*
X355082Y286560D01*
X355024Y286585D01*
X354968Y286614D01*
X354914Y286646D01*
X354862Y286681D01*
X354813Y286719D01*
X354765Y286761D01*
X354721Y286805D01*
X354679Y286853D01*
X354641Y286902D01*
X354606Y286954D01*
X354574Y287008D01*
X354545Y287064D01*
X354520Y287122D01*
X354499Y287181D01*
X354481Y287241D01*
X354468Y287303D01*
X354458Y287365D01*
X354452Y287427D01*
X354450Y287490D01*
D13*
X490638Y179853D02*
X490638Y172481D01*
X488181Y179853D02*
X493096Y179853D01*
X495665Y179853D02*
X495665Y172481D01*
X495665Y179853D02*
X499351Y179853D01*
X500580Y178625D01*
X500580Y176167D01*
X499351Y174938D01*
X495665Y174938D01*
X506835Y172481D02*
X506835Y179853D01*
X503149Y176167D01*
X508064Y176167D01*
X490438Y169153D02*
X490438Y161781D01*
X487981Y169153D02*
X492896Y169153D01*
X495465Y169153D02*
X495465Y161781D01*
X495465Y169153D02*
X499151Y169153D01*
X500380Y167925D01*
X500380Y165467D01*
X499151Y164238D01*
X495465Y164238D01*
X502949Y169153D02*
X507864Y169153D01*
X507864Y167925D01*
X502949Y163010D01*
X502949Y161781D01*
X511747Y173638D02*
X519119Y173638D01*
X511747Y171181D02*
X511747Y176096D01*
X511747Y178665D02*
X519119Y178665D01*
X511747Y178665D02*
X511747Y182351D01*
X512975Y183580D01*
X515433Y183580D01*
X516662Y182351D01*
X516662Y178665D01*
X519119Y186149D02*
X519119Y191064D01*
X519119Y186149D02*
X514204Y191064D01*
X512975Y191064D01*
X511747Y189835D01*
X511747Y187378D01*
X512975Y186149D01*
X609887Y165918D02*
X617259Y165918D01*
X609887Y163461D02*
X609887Y168376D01*
X609887Y170945D02*
X617259Y170945D01*
X609887Y170945D02*
X609887Y174631D01*
X611115Y175860D01*
X613573Y175860D01*
X614802Y174631D01*
X614802Y170945D01*
X612344Y178429D02*
X609887Y180887D01*
X617259Y180887D01*
X617259Y183344D02*
X617259Y178429D01*
X617259Y185913D02*
X617259Y190828D01*
X617259Y185913D02*
X612344Y190828D01*
X611115Y190828D01*
X609887Y189600D01*
X609887Y187142D01*
X611115Y185913D01*
X609548Y152033D02*
X609548Y144661D01*
X607091Y152033D02*
X612006Y152033D01*
X614575Y152033D02*
X614575Y144661D01*
X614575Y152033D02*
X618261Y152033D01*
X619490Y150805D01*
X619490Y148347D01*
X618261Y147118D01*
X614575Y147118D01*
X622059Y149576D02*
X624517Y152033D01*
X624517Y144661D01*
X626974Y144661D02*
X622059Y144661D01*
X629543Y149576D02*
X632001Y152033D01*
X632001Y144661D01*
X634458Y144661D02*
X629543Y144661D01*
X602038Y122253D02*
X602038Y114881D01*
X599581Y122253D02*
X604496Y122253D01*
X607065Y122253D02*
X607065Y114881D01*
X607065Y122253D02*
X610751Y122253D01*
X611980Y121025D01*
X611980Y118567D01*
X610751Y117338D01*
X607065Y117338D01*
X614549Y119796D02*
X617007Y122253D01*
X617007Y114881D01*
X619464Y114881D02*
X614549Y114881D01*
X622033Y116110D02*
X622033Y121025D01*
X623262Y122253D01*
X625720Y122253D01*
X626948Y121025D01*
X626948Y116110D01*
X625720Y114881D01*
X623262Y114881D01*
X622033Y116110D01*
X626948Y121025D01*
X601638Y111153D02*
X601638Y103781D01*
X599181Y111153D02*
X604096Y111153D01*
X606665Y111153D02*
X606665Y103781D01*
X606665Y111153D02*
X610351Y111153D01*
X611580Y109925D01*
X611580Y107467D01*
X610351Y106238D01*
X606665Y106238D01*
X614149Y105010D02*
X615378Y103781D01*
X617835Y103781D01*
X619064Y105010D01*
X619064Y109925D01*
X617835Y111153D01*
X615378Y111153D01*
X614149Y109925D01*
X614149Y108696D01*
X615378Y107467D01*
X619064Y107467D01*
X601938Y100453D02*
X601938Y93081D01*
X599481Y100453D02*
X604396Y100453D01*
X606965Y100453D02*
X606965Y93081D01*
X606965Y100453D02*
X610651Y100453D01*
X611880Y99225D01*
X611880Y96767D01*
X610651Y95538D01*
X606965Y95538D01*
X614449Y99225D02*
X615678Y100453D01*
X618135Y100453D01*
X619364Y99225D01*
X619364Y97996D01*
X618135Y96767D01*
X619364Y95538D01*
X619364Y94310D01*
X618135Y93081D01*
X615678Y93081D01*
X614449Y94310D01*
X614449Y95538D01*
X615678Y96767D01*
X614449Y97996D01*
X614449Y99225D01*
X615678Y96767D02*
X618135Y96767D01*
X507538Y108081D02*
X507538Y115453D01*
X505081Y115453D02*
X509996Y115453D01*
X512565Y115453D02*
X512565Y108081D01*
X512565Y115453D02*
X516251Y115453D01*
X517480Y114225D01*
X517480Y111767D01*
X516251Y110538D01*
X512565Y110538D01*
X520049Y115453D02*
X524964Y115453D01*
X520049Y115453D02*
X520049Y111767D01*
X522507Y112996D01*
X523735Y112996D01*
X524964Y111767D01*
X524964Y109310D01*
X523735Y108081D01*
X521278Y108081D01*
X520049Y109310D01*
X507338Y103953D02*
X507338Y96581D01*
X504881Y103953D02*
X509796Y103953D01*
X512365Y103953D02*
X512365Y96581D01*
X512365Y103953D02*
X516051Y103953D01*
X517280Y102725D01*
X517280Y100267D01*
X516051Y99038D01*
X512365Y99038D01*
X522307Y102725D02*
X524764Y103953D01*
X522307Y102725D02*
X519849Y100267D01*
X519849Y97810D01*
X521078Y96581D01*
X523535Y96581D01*
X524764Y97810D01*
X524764Y99038D01*
X523535Y100267D01*
X519849Y100267D01*
X644627Y89851D02*
X651999Y89851D01*
X644627Y89851D02*
X644627Y93537D01*
X645855Y94766D01*
X648313Y94766D01*
X649542Y93537D01*
X649542Y89851D01*
X651999Y97335D02*
X644627Y97335D01*
X649542Y99793D02*
X651999Y97335D01*
X649542Y99793D02*
X651999Y102250D01*
X644627Y102250D01*
X644627Y104819D02*
X651999Y104819D01*
X644627Y104819D02*
X644627Y108505D01*
X645855Y109734D01*
X648313Y109734D01*
X649542Y108505D01*
X649542Y104819D01*
X649542Y107277D02*
X651999Y109734D01*
D14*
X654553Y251714D02*
X659214Y251714D01*
X660146Y252646D01*
X660146Y254510D01*
X659214Y255443D01*
X654553Y255443D01*
X656418Y257327D02*
X660146Y257327D01*
X656418Y257327D02*
X654553Y259191D01*
X656418Y261056D01*
X660146Y261056D01*
X657350Y261056D02*
X657350Y257327D01*
X660146Y262940D02*
X654553Y262940D01*
X654553Y265737D01*
X655485Y266669D01*
X657350Y266669D01*
X658282Y265737D01*
X658282Y262940D01*
X658282Y264804D02*
X660146Y266669D01*
X660146Y270418D02*
X654553Y270418D01*
X654553Y272282D02*
X654553Y268553D01*
X656418Y274166D02*
X654553Y276031D01*
X660146Y276031D01*
X660146Y277895D02*
X660146Y274166D01*
X657350Y279779D02*
X657350Y283508D01*
X660146Y287257D02*
X654553Y287257D01*
X654553Y285393D02*
X654553Y289121D01*
X654553Y291006D02*
X660146Y294734D01*
X660146Y291006D02*
X654553Y294734D01*
X702813Y279654D02*
X707474Y279654D01*
X708406Y280586D01*
X708406Y282450D01*
X707474Y283383D01*
X702813Y283383D01*
X704678Y285267D02*
X708406Y285267D01*
X704678Y285267D02*
X702813Y287131D01*
X704678Y288996D01*
X708406Y288996D01*
X705610Y288996D02*
X705610Y285267D01*
X708406Y290880D02*
X702813Y290880D01*
X702813Y293677D01*
X703745Y294609D01*
X705610Y294609D01*
X706542Y293677D01*
X706542Y290880D01*
X706542Y292744D02*
X708406Y294609D01*
X708406Y298358D02*
X702813Y298358D01*
X702813Y300222D02*
X702813Y296493D01*
X704678Y302106D02*
X702813Y303971D01*
X708406Y303971D01*
X708406Y305835D02*
X708406Y302106D01*
X705610Y307719D02*
X705610Y311448D01*
X708406Y313333D02*
X702813Y313333D01*
X702813Y316129D01*
X703745Y317061D01*
X705610Y317061D01*
X706542Y316129D01*
X706542Y313333D01*
X706542Y315197D02*
X708406Y317061D01*
X708406Y322674D02*
X702813Y318946D01*
X702813Y322674D02*
X708406Y318946D01*
D13*
X632909Y206961D02*
X625537Y206961D01*
X625537Y211876D01*
X629223Y209418D02*
X629223Y206961D01*
X625537Y214445D02*
X625537Y219360D01*
X625537Y214445D02*
X632909Y214445D01*
X632909Y219360D01*
X629223Y216903D02*
X629223Y214445D01*
X625537Y221929D02*
X632909Y221929D01*
X632909Y226844D01*
X662381Y93253D02*
X662381Y85881D01*
X662381Y93253D02*
X666067Y93253D01*
X667296Y92025D01*
X667296Y89567D01*
X666067Y88338D01*
X662381Y88338D01*
X718067Y92253D02*
X719296Y91025D01*
X718067Y92253D02*
X715610Y92253D01*
X714381Y91025D01*
X714381Y86110D01*
X715610Y84881D01*
X718067Y84881D01*
X719296Y86110D01*
X719296Y88567D01*
X716838Y88567D01*
D11*
X471791Y93721D02*
X470604Y94907D01*
X468232Y94907D01*
X467045Y93721D01*
X467045Y88976D01*
X468232Y87789D01*
X470604Y87789D01*
X471791Y88976D01*
X474529Y94907D02*
X479275Y94907D01*
X479275Y93721D01*
X474529Y88976D01*
X474529Y87789D01*
D15*
X460840Y87119D02*
X460840Y116583D01*
X460840Y87119D02*
X448648Y87119D01*
X448648Y116583D01*
X460840Y116583D01*
D11*
X450001Y69083D02*
X448814Y67897D01*
X448814Y65524D01*
X450001Y64338D01*
X454746Y64338D01*
X455933Y65524D01*
X455933Y67897D01*
X454746Y69083D01*
X451187Y71822D02*
X448814Y74194D01*
X455933Y74194D01*
X455933Y71822D02*
X455933Y76567D01*
X454746Y79306D02*
X450001Y79306D01*
X448814Y80492D01*
X448814Y82865D01*
X450001Y84051D01*
X454746Y84051D01*
X455933Y82865D01*
X455933Y80492D01*
X454746Y79306D01*
X450001Y84051D01*
D15*
X134788Y353490D02*
X105324Y353490D01*
X105324Y365682D01*
X134788Y365682D01*
X134788Y353490D01*
D11*
X105722Y367840D02*
X105722Y374958D01*
X109281Y374958D01*
X110467Y373772D01*
X110467Y371399D01*
X109281Y370213D01*
X105722Y370213D01*
X108095Y370213D02*
X110467Y367840D01*
X113206Y372585D02*
X115579Y374958D01*
X115579Y367840D01*
X113206Y367840D02*
X117952Y367840D01*
X120690Y367840D02*
X125436Y367840D01*
X125436Y372585D02*
X120690Y367840D01*
X125436Y372585D02*
X125436Y373772D01*
X124249Y374958D01*
X121877Y374958D01*
X120690Y373772D01*
D16*
X103286Y400968D02*
X103288Y401068D01*
X103294Y401169D01*
X103304Y401268D01*
X103318Y401368D01*
X103335Y401467D01*
X103357Y401565D01*
X103383Y401662D01*
X103412Y401758D01*
X103445Y401852D01*
X103482Y401946D01*
X103522Y402038D01*
X103566Y402128D01*
X103614Y402216D01*
X103665Y402303D01*
X103719Y402387D01*
X103777Y402469D01*
X103838Y402549D01*
X103902Y402626D01*
X103969Y402701D01*
X104039Y402773D01*
X104112Y402842D01*
X104187Y402908D01*
X104265Y402972D01*
X104345Y403032D01*
X104428Y403089D01*
X104513Y403142D01*
X104600Y403192D01*
X104689Y403239D01*
X104779Y403282D01*
X104871Y403322D01*
X104965Y403358D01*
X105060Y403390D01*
X105156Y403418D01*
X105254Y403443D01*
X105352Y403463D01*
X105451Y403480D01*
X105551Y403493D01*
X105650Y403502D01*
X105751Y403507D01*
X105851Y403508D01*
X105951Y403505D01*
X106052Y403498D01*
X106151Y403487D01*
X106251Y403472D01*
X106349Y403454D01*
X106447Y403431D01*
X106544Y403404D01*
X106639Y403374D01*
X106734Y403340D01*
X106827Y403302D01*
X106918Y403261D01*
X107008Y403216D01*
X107096Y403168D01*
X107182Y403116D01*
X107266Y403061D01*
X107347Y403002D01*
X107426Y402940D01*
X107503Y402876D01*
X107577Y402808D01*
X107648Y402737D01*
X107717Y402664D01*
X107782Y402588D01*
X107845Y402509D01*
X107904Y402428D01*
X107960Y402345D01*
X108013Y402260D01*
X108062Y402172D01*
X108108Y402083D01*
X108150Y401992D01*
X108189Y401899D01*
X108224Y401805D01*
X108255Y401710D01*
X108283Y401613D01*
X108306Y401516D01*
X108326Y401417D01*
X108342Y401318D01*
X108354Y401219D01*
X108362Y401118D01*
X108366Y401018D01*
X108366Y400918D01*
X108362Y400818D01*
X108354Y400717D01*
X108342Y400618D01*
X108326Y400519D01*
X108306Y400420D01*
X108283Y400323D01*
X108255Y400226D01*
X108224Y400131D01*
X108189Y400037D01*
X108150Y399944D01*
X108108Y399853D01*
X108062Y399764D01*
X108013Y399676D01*
X107960Y399591D01*
X107904Y399508D01*
X107845Y399427D01*
X107782Y399348D01*
X107717Y399272D01*
X107648Y399199D01*
X107577Y399128D01*
X107503Y399060D01*
X107426Y398996D01*
X107347Y398934D01*
X107266Y398875D01*
X107182Y398820D01*
X107096Y398768D01*
X107008Y398720D01*
X106918Y398675D01*
X106827Y398634D01*
X106734Y398596D01*
X106639Y398562D01*
X106544Y398532D01*
X106447Y398505D01*
X106349Y398482D01*
X106251Y398464D01*
X106151Y398449D01*
X106052Y398438D01*
X105951Y398431D01*
X105851Y398428D01*
X105751Y398429D01*
X105650Y398434D01*
X105551Y398443D01*
X105451Y398456D01*
X105352Y398473D01*
X105254Y398493D01*
X105156Y398518D01*
X105060Y398546D01*
X104965Y398578D01*
X104871Y398614D01*
X104779Y398654D01*
X104689Y398697D01*
X104600Y398744D01*
X104513Y398794D01*
X104428Y398847D01*
X104345Y398904D01*
X104265Y398964D01*
X104187Y399028D01*
X104112Y399094D01*
X104039Y399163D01*
X103969Y399235D01*
X103902Y399310D01*
X103838Y399387D01*
X103777Y399467D01*
X103719Y399549D01*
X103665Y399633D01*
X103614Y399720D01*
X103566Y399808D01*
X103522Y399898D01*
X103482Y399990D01*
X103445Y400084D01*
X103412Y400178D01*
X103383Y400274D01*
X103357Y400371D01*
X103335Y400469D01*
X103318Y400568D01*
X103304Y400668D01*
X103294Y400767D01*
X103288Y400868D01*
X103286Y400968D01*
D17*
X136498Y412794D02*
X136498Y448862D01*
X99414Y448862D02*
X99414Y412794D01*
D11*
X114070Y400802D02*
X114070Y394870D01*
X115256Y393684D01*
X117629Y393684D01*
X118815Y394870D01*
X118815Y400802D01*
X121554Y399616D02*
X122741Y400802D01*
X125113Y400802D01*
X126300Y399616D01*
X126300Y398429D01*
X125113Y397243D01*
X123927Y397243D01*
X125113Y397243D02*
X126300Y396057D01*
X126300Y394870D01*
X125113Y393684D01*
X122741Y393684D01*
X121554Y394870D01*
D16*
X18920Y99810D02*
X18920Y94730D01*
X72260Y94730D01*
X77340Y94730D01*
X77340Y99810D01*
X375790Y99810D02*
X375790Y94730D01*
X429130Y94730D01*
X434210Y94730D01*
X434210Y99810D01*
X79880Y598920D02*
X79880Y604000D01*
X26540Y604000D01*
X21460Y604000D01*
X21460Y598920D01*
X434210Y598920D02*
X434210Y604000D01*
X380870Y604000D01*
X375790Y604000D01*
X375790Y598920D01*
D18*
X313806Y378996D02*
X313808Y379066D01*
X313814Y379136D01*
X313824Y379205D01*
X313837Y379274D01*
X313855Y379342D01*
X313876Y379409D01*
X313901Y379474D01*
X313930Y379538D01*
X313962Y379601D01*
X313998Y379661D01*
X314037Y379719D01*
X314079Y379775D01*
X314124Y379829D01*
X314172Y379880D01*
X314223Y379928D01*
X314277Y379973D01*
X314333Y380015D01*
X314391Y380054D01*
X314451Y380090D01*
X314514Y380122D01*
X314578Y380151D01*
X314643Y380176D01*
X314710Y380197D01*
X314778Y380215D01*
X314847Y380228D01*
X314916Y380238D01*
X314986Y380244D01*
X315056Y380246D01*
X315126Y380244D01*
X315196Y380238D01*
X315265Y380228D01*
X315334Y380215D01*
X315402Y380197D01*
X315469Y380176D01*
X315534Y380151D01*
X315598Y380122D01*
X315661Y380090D01*
X315721Y380054D01*
X315779Y380015D01*
X315835Y379973D01*
X315889Y379928D01*
X315940Y379880D01*
X315988Y379829D01*
X316033Y379775D01*
X316075Y379719D01*
X316114Y379661D01*
X316150Y379601D01*
X316182Y379538D01*
X316211Y379474D01*
X316236Y379409D01*
X316257Y379342D01*
X316275Y379274D01*
X316288Y379205D01*
X316298Y379136D01*
X316304Y379066D01*
X316306Y378996D01*
X316304Y378926D01*
X316298Y378856D01*
X316288Y378787D01*
X316275Y378718D01*
X316257Y378650D01*
X316236Y378583D01*
X316211Y378518D01*
X316182Y378454D01*
X316150Y378391D01*
X316114Y378331D01*
X316075Y378273D01*
X316033Y378217D01*
X315988Y378163D01*
X315940Y378112D01*
X315889Y378064D01*
X315835Y378019D01*
X315779Y377977D01*
X315721Y377938D01*
X315661Y377902D01*
X315598Y377870D01*
X315534Y377841D01*
X315469Y377816D01*
X315402Y377795D01*
X315334Y377777D01*
X315265Y377764D01*
X315196Y377754D01*
X315126Y377748D01*
X315056Y377746D01*
X314986Y377748D01*
X314916Y377754D01*
X314847Y377764D01*
X314778Y377777D01*
X314710Y377795D01*
X314643Y377816D01*
X314578Y377841D01*
X314514Y377870D01*
X314451Y377902D01*
X314391Y377938D01*
X314333Y377977D01*
X314277Y378019D01*
X314223Y378064D01*
X314172Y378112D01*
X314124Y378163D01*
X314079Y378217D01*
X314037Y378273D01*
X313998Y378331D01*
X313962Y378391D01*
X313930Y378454D01*
X313901Y378518D01*
X313876Y378583D01*
X313855Y378650D01*
X313837Y378718D01*
X313824Y378787D01*
X313814Y378856D01*
X313808Y378926D01*
X313806Y378996D01*
D12*
X209556Y481496D02*
X204556Y481496D01*
X308556Y382496D02*
X308556Y377496D01*
X308556Y476496D02*
X308556Y481496D01*
X204556Y481496D02*
X204556Y476496D01*
X204556Y382496D02*
X204556Y377496D01*
X209556Y377496D01*
X303556Y377496D02*
X308556Y377496D01*
X308556Y481496D02*
X303556Y481496D01*
D11*
X201952Y487768D02*
X201952Y493700D01*
X201952Y487768D02*
X203138Y486582D01*
X205511Y486582D01*
X206697Y487768D01*
X206697Y493700D01*
X212995Y493700D02*
X212995Y486582D01*
X209436Y490141D02*
X212995Y493700D01*
X214182Y490141D02*
X209436Y490141D01*
D17*
X179166Y302406D02*
X179166Y300406D01*
X196166Y274406D02*
X196166Y340406D01*
X196166Y274406D02*
X152166Y274406D01*
X152166Y340406D02*
X196166Y340406D01*
X152166Y340406D02*
X152166Y274406D01*
X179166Y302406D02*
X169166Y312406D01*
X169166Y314406D01*
D11*
X140204Y300932D02*
X139018Y300932D01*
X140204Y300932D02*
X142577Y303305D01*
X140204Y305677D01*
X139018Y305677D01*
X142577Y303305D02*
X146136Y303305D01*
X141391Y308416D02*
X139018Y310789D01*
X146136Y310789D01*
X146136Y308416D02*
X146136Y313162D01*
D19*
X181166Y355156D02*
X189916Y355156D01*
X181166Y355156D02*
X172416Y355156D01*
X181166Y345656D02*
X189916Y345656D01*
X181166Y345656D02*
X172416Y345656D01*
X172416Y355156D01*
X189916Y355156D02*
X189916Y345656D01*
D11*
X178407Y364894D02*
X177221Y366080D01*
X174848Y366080D01*
X173662Y364894D01*
X173662Y360148D01*
X174848Y358962D01*
X177221Y358962D01*
X178407Y360148D01*
X181146Y358962D02*
X185892Y358962D01*
X185892Y363707D02*
X181146Y358962D01*
X185892Y363707D02*
X185892Y364894D01*
X184705Y366080D01*
X182333Y366080D01*
X181146Y364894D01*
X191003Y364894D02*
X193376Y366080D01*
X191003Y364894D02*
X188630Y362521D01*
X188630Y360148D01*
X189817Y358962D01*
X192189Y358962D01*
X193376Y360148D01*
X193376Y361335D01*
X192189Y362521D01*
X188630Y362521D01*
D19*
X167166Y259656D02*
X158416Y259656D01*
X167166Y259656D02*
X175916Y259656D01*
X167166Y269156D02*
X158416Y269156D01*
X167166Y269156D02*
X175916Y269156D01*
X175916Y259656D01*
X158416Y259656D02*
X158416Y269156D01*
D11*
X186261Y271380D02*
X187447Y270194D01*
X186261Y271380D02*
X183888Y271380D01*
X182702Y270194D01*
X182702Y265448D01*
X183888Y264262D01*
X186261Y264262D01*
X187447Y265448D01*
X190186Y264262D02*
X194932Y264262D01*
X194932Y269007D02*
X190186Y264262D01*
X194932Y269007D02*
X194932Y270194D01*
X193745Y271380D01*
X191373Y271380D01*
X190186Y270194D01*
X197670Y271380D02*
X202416Y271380D01*
X202416Y270194D01*
X197670Y265448D01*
X197670Y264262D01*
D12*
X253594Y299166D02*
X257594Y299166D01*
X257594Y306166D02*
X253594Y306166D01*
D11*
X249242Y293160D02*
X249242Y286042D01*
X249242Y293160D02*
X252801Y293160D01*
X253987Y291974D01*
X253987Y289601D01*
X252801Y288415D01*
X249242Y288415D01*
X251615Y288415D02*
X253987Y286042D01*
X256726Y291974D02*
X257913Y293160D01*
X260285Y293160D01*
X261472Y291974D01*
X261472Y290787D01*
X260285Y289601D01*
X261472Y288415D01*
X261472Y287228D01*
X260285Y286042D01*
X257913Y286042D01*
X256726Y287228D01*
X256726Y288415D01*
X257913Y289601D01*
X256726Y290787D01*
X256726Y291974D01*
X257913Y289601D02*
X260285Y289601D01*
D12*
X126556Y312996D02*
X126556Y316996D01*
X133556Y316996D02*
X133556Y312996D01*
D11*
X121258Y313164D02*
X114140Y313164D01*
X114140Y316723D01*
X115326Y317909D01*
X117699Y317909D01*
X118885Y316723D01*
X118885Y313164D01*
X118885Y315537D02*
X121258Y317909D01*
X120072Y320648D02*
X121258Y321835D01*
X121258Y324207D01*
X120072Y325394D01*
X115326Y325394D01*
X114140Y324207D01*
X114140Y321835D01*
X115326Y320648D01*
X116513Y320648D01*
X117699Y321835D01*
X117699Y325394D01*
D12*
X133556Y281996D02*
X133556Y277996D01*
X126556Y277996D02*
X126556Y281996D01*
D11*
X139528Y271602D02*
X146646Y271602D01*
X139528Y271602D02*
X139528Y275161D01*
X140714Y276347D01*
X143087Y276347D01*
X144273Y275161D01*
X144273Y271602D01*
X144273Y273975D02*
X146646Y276347D01*
X141901Y279086D02*
X139528Y281459D01*
X146646Y281459D01*
X146646Y279086D02*
X146646Y283832D01*
X146646Y290129D02*
X139528Y290129D01*
X143087Y286570D01*
X143087Y291316D01*
D12*
X345806Y381406D02*
X345806Y385406D01*
X338806Y385406D02*
X338806Y381406D01*
D11*
X333188Y374494D02*
X326070Y374494D01*
X326070Y378053D01*
X327256Y379239D01*
X329629Y379239D01*
X330815Y378053D01*
X330815Y374494D01*
X330815Y376867D02*
X333188Y379239D01*
X328443Y381978D02*
X326070Y384351D01*
X333188Y384351D01*
X333188Y381978D02*
X333188Y386724D01*
X326070Y389462D02*
X326070Y394208D01*
X326070Y389462D02*
X329629Y389462D01*
X328443Y391835D01*
X328443Y393021D01*
X329629Y394208D01*
X332002Y394208D01*
X333188Y393021D01*
X333188Y390649D01*
X332002Y389462D01*
D19*
X350556Y392156D02*
X350556Y383406D01*
X350556Y374656D01*
X360056Y383406D02*
X360056Y392156D01*
X360056Y383406D02*
X360056Y374656D01*
X350556Y374656D01*
X350556Y392156D02*
X360056Y392156D01*
D11*
X351904Y362257D02*
X350718Y361071D01*
X350718Y358698D01*
X351904Y357512D01*
X356650Y357512D01*
X357836Y358698D01*
X357836Y361071D01*
X356650Y362257D01*
X351904Y367369D02*
X350718Y369742D01*
X351904Y367369D02*
X354277Y364996D01*
X356650Y364996D01*
X357836Y366183D01*
X357836Y368555D01*
X356650Y369742D01*
X355463Y369742D01*
X354277Y368555D01*
X354277Y364996D01*
D12*
X164806Y479406D02*
X164806Y483406D01*
X157806Y483406D02*
X157806Y479406D01*
D11*
X151658Y471174D02*
X144540Y471174D01*
X144540Y474733D01*
X145726Y475919D01*
X148099Y475919D01*
X149285Y474733D01*
X149285Y471174D01*
X149285Y473547D02*
X151658Y475919D01*
X146913Y478658D02*
X144540Y481031D01*
X151658Y481031D01*
X151658Y478658D02*
X151658Y483404D01*
X145726Y488515D02*
X144540Y490888D01*
X145726Y488515D02*
X148099Y486142D01*
X150472Y486142D01*
X151658Y487329D01*
X151658Y489701D01*
X150472Y490888D01*
X149285Y490888D01*
X148099Y489701D01*
X148099Y486142D01*
D12*
X164056Y451996D02*
X164056Y447996D01*
X157056Y447996D02*
X157056Y451996D01*
D11*
X151088Y441024D02*
X143970Y441024D01*
X143970Y444583D01*
X145156Y445769D01*
X147529Y445769D01*
X148715Y444583D01*
X148715Y441024D01*
X148715Y443397D02*
X151088Y445769D01*
X146343Y448508D02*
X143970Y450881D01*
X151088Y450881D01*
X151088Y448508D02*
X151088Y453254D01*
X143970Y455992D02*
X143970Y460738D01*
X145156Y460738D01*
X149902Y455992D01*
X151088Y455992D01*
D12*
X155286Y420996D02*
X155286Y416996D01*
X162286Y416996D02*
X162286Y420996D01*
D11*
X149088Y409494D02*
X141970Y409494D01*
X141970Y413053D01*
X143156Y414239D01*
X145529Y414239D01*
X146715Y413053D01*
X146715Y409494D01*
X146715Y411867D02*
X149088Y414239D01*
X144343Y416978D02*
X141970Y419351D01*
X149088Y419351D01*
X149088Y416978D02*
X149088Y421724D01*
X143156Y424462D02*
X141970Y425649D01*
X141970Y428021D01*
X143156Y429208D01*
X144343Y429208D01*
X145529Y428021D01*
X146715Y429208D01*
X147902Y429208D01*
X149088Y428021D01*
X149088Y425649D01*
X147902Y424462D01*
X146715Y424462D01*
X145529Y425649D01*
X144343Y424462D01*
X143156Y424462D01*
X145529Y425649D02*
X145529Y428021D01*
D12*
X162016Y392996D02*
X162016Y388996D01*
X155016Y388996D02*
X155016Y392996D01*
D11*
X149148Y381534D02*
X142030Y381534D01*
X142030Y385093D01*
X143216Y386279D01*
X145589Y386279D01*
X146775Y385093D01*
X146775Y381534D01*
X146775Y383907D02*
X149148Y386279D01*
X144403Y389018D02*
X142030Y391391D01*
X149148Y391391D01*
X149148Y389018D02*
X149148Y393764D01*
X147962Y396502D02*
X149148Y397689D01*
X149148Y400061D01*
X147962Y401248D01*
X143216Y401248D01*
X142030Y400061D01*
X142030Y397689D01*
X143216Y396502D01*
X144403Y396502D01*
X145589Y397689D01*
X145589Y401248D01*
D12*
X224166Y310906D02*
X228166Y310906D01*
X228166Y317906D02*
X224166Y317906D01*
D11*
X241002Y319180D02*
X241002Y312062D01*
X241002Y319180D02*
X244561Y319180D01*
X245747Y317994D01*
X245747Y315621D01*
X244561Y314435D01*
X241002Y314435D01*
X243375Y314435D02*
X245747Y312062D01*
X248486Y312062D02*
X253232Y312062D01*
X253232Y316807D02*
X248486Y312062D01*
X253232Y316807D02*
X253232Y317994D01*
X252045Y319180D01*
X249673Y319180D01*
X248486Y317994D01*
X255970Y317994D02*
X255970Y313248D01*
X255970Y317994D02*
X257157Y319180D01*
X259529Y319180D01*
X260716Y317994D01*
X260716Y313248D01*
X259529Y312062D01*
X257157Y312062D01*
X255970Y313248D01*
X260716Y317994D01*
D12*
X228166Y296906D02*
X224166Y296906D01*
X224166Y303906D02*
X228166Y303906D01*
D11*
X217582Y290640D02*
X217582Y283522D01*
X217582Y290640D02*
X221141Y290640D01*
X222327Y289454D01*
X222327Y287081D01*
X221141Y285895D01*
X217582Y285895D01*
X219955Y285895D02*
X222327Y283522D01*
X225066Y283522D02*
X229812Y283522D01*
X229812Y288267D02*
X225066Y283522D01*
X229812Y288267D02*
X229812Y289454D01*
X228625Y290640D01*
X226253Y290640D01*
X225066Y289454D01*
X232550Y288267D02*
X234923Y290640D01*
X234923Y283522D01*
X232550Y283522D02*
X237296Y283522D01*
D19*
X340056Y399156D02*
X348806Y399156D01*
X357556Y399156D01*
X348806Y408656D02*
X340056Y408656D01*
X348806Y408656D02*
X357556Y408656D01*
X357556Y399156D01*
X340056Y399156D02*
X340056Y408656D01*
D11*
X320597Y408144D02*
X319411Y409330D01*
X317038Y409330D01*
X315852Y408144D01*
X315852Y403398D01*
X317038Y402212D01*
X319411Y402212D01*
X320597Y403398D01*
X323336Y406957D02*
X325709Y409330D01*
X325709Y402212D01*
X323336Y402212D02*
X328082Y402212D01*
X330820Y409330D02*
X335566Y409330D01*
X335566Y408144D01*
X330820Y403398D01*
X330820Y402212D01*
D19*
X312056Y504246D02*
X303306Y504246D01*
X312056Y504246D02*
X320806Y504246D01*
X312056Y513746D02*
X303306Y513746D01*
X312056Y513746D02*
X320806Y513746D01*
X320806Y504246D01*
X303306Y504246D02*
X303306Y513746D01*
D11*
X308417Y522514D02*
X307231Y523700D01*
X304858Y523700D01*
X303672Y522514D01*
X303672Y517768D01*
X304858Y516582D01*
X307231Y516582D01*
X308417Y517768D01*
X311156Y521327D02*
X313529Y523700D01*
X313529Y516582D01*
X311156Y516582D02*
X315902Y516582D01*
X318640Y522514D02*
X319827Y523700D01*
X322199Y523700D01*
X323386Y522514D01*
X323386Y521327D01*
X322199Y520141D01*
X323386Y518955D01*
X323386Y517768D01*
X322199Y516582D01*
X319827Y516582D01*
X318640Y517768D01*
X318640Y518955D01*
X319827Y520141D01*
X318640Y521327D01*
X318640Y522514D01*
X319827Y520141D02*
X322199Y520141D01*
D19*
X170556Y490156D02*
X170556Y481406D01*
X170556Y472656D01*
X180056Y481406D02*
X180056Y490156D01*
X180056Y481406D02*
X180056Y472656D01*
X170556Y472656D01*
X170556Y490156D02*
X180056Y490156D01*
D11*
X185136Y475899D02*
X183950Y474713D01*
X183950Y472340D01*
X185136Y471154D01*
X189882Y471154D01*
X191068Y472340D01*
X191068Y474713D01*
X189882Y475899D01*
X186323Y478638D02*
X183950Y481011D01*
X191068Y481011D01*
X191068Y478638D02*
X191068Y483384D01*
X189882Y486122D02*
X191068Y487309D01*
X191068Y489681D01*
X189882Y490868D01*
X185136Y490868D01*
X183950Y489681D01*
X183950Y487309D01*
X185136Y486122D01*
X186323Y486122D01*
X187509Y487309D01*
X187509Y490868D01*
D19*
X177996Y451266D02*
X177996Y442516D01*
X177996Y451266D02*
X177996Y460016D01*
X168496Y451266D02*
X168496Y442516D01*
X168496Y451266D02*
X168496Y460016D01*
X177996Y460016D01*
X177996Y442516D02*
X168496Y442516D01*
D11*
X182000Y444173D02*
X183186Y445359D01*
X182000Y444173D02*
X182000Y441800D01*
X183186Y440614D01*
X187932Y440614D01*
X189118Y441800D01*
X189118Y444173D01*
X187932Y445359D01*
X189118Y448098D02*
X189118Y452844D01*
X184373Y452844D02*
X189118Y448098D01*
X184373Y452844D02*
X183186Y452844D01*
X182000Y451657D01*
X182000Y449285D01*
X183186Y448098D01*
X183186Y455582D02*
X187932Y455582D01*
X183186Y455582D02*
X182000Y456769D01*
X182000Y459141D01*
X183186Y460328D01*
X187932Y460328D01*
X189118Y459141D01*
X189118Y456769D01*
X187932Y455582D01*
X183186Y460328D01*
D19*
X171306Y399746D02*
X171306Y390996D01*
X171306Y382246D01*
X180806Y390996D02*
X180806Y399746D01*
X180806Y390996D02*
X180806Y382246D01*
X171306Y382246D01*
X171306Y399746D02*
X180806Y399746D01*
D11*
X185946Y387569D02*
X184760Y386383D01*
X184760Y384010D01*
X185946Y382824D01*
X190692Y382824D01*
X191878Y384010D01*
X191878Y386383D01*
X190692Y387569D01*
X191878Y390308D02*
X191878Y395054D01*
X187133Y395054D02*
X191878Y390308D01*
X187133Y395054D02*
X185946Y395054D01*
X184760Y393867D01*
X184760Y391495D01*
X185946Y390308D01*
X187133Y397792D02*
X184760Y400165D01*
X191878Y400165D01*
X191878Y397792D02*
X191878Y402538D01*
D19*
X179806Y410246D02*
X179806Y418996D01*
X179806Y427746D01*
X170306Y418996D02*
X170306Y410246D01*
X170306Y418996D02*
X170306Y427746D01*
X179806Y427746D01*
X179806Y410246D02*
X170306Y410246D01*
D11*
X183430Y412293D02*
X184616Y413479D01*
X183430Y412293D02*
X183430Y409920D01*
X184616Y408734D01*
X189362Y408734D01*
X190548Y409920D01*
X190548Y412293D01*
X189362Y413479D01*
X190548Y416218D02*
X190548Y420964D01*
X185803Y420964D02*
X190548Y416218D01*
X185803Y420964D02*
X184616Y420964D01*
X183430Y419777D01*
X183430Y417405D01*
X184616Y416218D01*
X190548Y423702D02*
X190548Y428448D01*
X185803Y428448D02*
X190548Y423702D01*
X185803Y428448D02*
X184616Y428448D01*
X183430Y427261D01*
X183430Y424889D01*
X184616Y423702D01*
D19*
X109754Y258306D02*
X109754Y249556D01*
X109754Y240806D01*
X119254Y249556D02*
X119254Y258306D01*
X119254Y249556D02*
X119254Y240806D01*
X109754Y240806D01*
X109754Y258306D02*
X119254Y258306D01*
D11*
X101306Y246447D02*
X100120Y245261D01*
X100120Y242888D01*
X101306Y241702D01*
X106052Y241702D01*
X107238Y242888D01*
X107238Y245261D01*
X106052Y246447D01*
X107238Y249186D02*
X107238Y253932D01*
X102493Y253932D02*
X107238Y249186D01*
X102493Y253932D02*
X101306Y253932D01*
X100120Y252745D01*
X100120Y250373D01*
X101306Y249186D01*
X101306Y256670D02*
X100120Y257857D01*
X100120Y260229D01*
X101306Y261416D01*
X102493Y261416D01*
X103679Y260229D01*
X103679Y259043D01*
X103679Y260229D02*
X104865Y261416D01*
X106052Y261416D01*
X107238Y260229D01*
X107238Y257857D01*
X106052Y256670D01*
D19*
X272306Y504246D02*
X281056Y504246D01*
X289806Y504246D01*
X281056Y513746D02*
X272306Y513746D01*
X281056Y513746D02*
X289806Y513746D01*
X289806Y504246D01*
X272306Y504246D02*
X272306Y513746D01*
D11*
X276527Y522174D02*
X275341Y523360D01*
X272968Y523360D01*
X271782Y522174D01*
X271782Y517428D01*
X272968Y516242D01*
X275341Y516242D01*
X276527Y517428D01*
X279266Y516242D02*
X284012Y516242D01*
X284012Y520987D02*
X279266Y516242D01*
X284012Y520987D02*
X284012Y522174D01*
X282825Y523360D01*
X280453Y523360D01*
X279266Y522174D01*
X290309Y523360D02*
X290309Y516242D01*
X286750Y519801D02*
X290309Y523360D01*
X291496Y519801D02*
X286750Y519801D01*
D19*
X219806Y526746D02*
X211056Y526746D01*
X202306Y526746D01*
X211056Y517246D02*
X219806Y517246D01*
X211056Y517246D02*
X202306Y517246D01*
X202306Y526746D01*
X219806Y526746D02*
X219806Y517246D01*
D11*
X229447Y526194D02*
X228261Y527380D01*
X225888Y527380D01*
X224702Y526194D01*
X224702Y521448D01*
X225888Y520262D01*
X228261Y520262D01*
X229447Y521448D01*
X232186Y520262D02*
X236932Y520262D01*
X236932Y525007D02*
X232186Y520262D01*
X236932Y525007D02*
X236932Y526194D01*
X235745Y527380D01*
X233373Y527380D01*
X232186Y526194D01*
X239670Y527380D02*
X244416Y527380D01*
X239670Y527380D02*
X239670Y523821D01*
X242043Y525007D01*
X243229Y525007D01*
X244416Y523821D01*
X244416Y521448D01*
X243229Y520262D01*
X240857Y520262D01*
X239670Y521448D01*
D19*
X123754Y258306D02*
X123754Y249556D01*
X123754Y240806D01*
X133254Y249556D02*
X133254Y258306D01*
X133254Y249556D02*
X133254Y240806D01*
X123754Y240806D01*
X123754Y258306D02*
X133254Y258306D01*
D11*
X116806Y268697D02*
X115620Y267511D01*
X115620Y265138D01*
X116806Y263952D01*
X121552Y263952D01*
X122738Y265138D01*
X122738Y267511D01*
X121552Y268697D01*
X122738Y271436D02*
X122738Y276182D01*
X117993Y276182D02*
X122738Y271436D01*
X117993Y276182D02*
X116806Y276182D01*
X115620Y274995D01*
X115620Y272623D01*
X116806Y271436D01*
X116806Y278920D02*
X115620Y280107D01*
X115620Y282479D01*
X116806Y283666D01*
X117993Y283666D01*
X119179Y282479D01*
X120365Y283666D01*
X121552Y283666D01*
X122738Y282479D01*
X122738Y280107D01*
X121552Y278920D01*
X120365Y278920D01*
X119179Y280107D01*
X117993Y278920D01*
X116806Y278920D01*
X119179Y280107D02*
X119179Y282479D01*
D19*
X340556Y414656D02*
X349306Y414656D01*
X358056Y414656D01*
X349306Y424156D02*
X340556Y424156D01*
X349306Y424156D02*
X358056Y424156D01*
X358056Y414656D01*
X340556Y414656D02*
X340556Y424156D01*
D11*
X320747Y424644D02*
X319561Y425830D01*
X317188Y425830D01*
X316002Y424644D01*
X316002Y419898D01*
X317188Y418712D01*
X319561Y418712D01*
X320747Y419898D01*
X323486Y418712D02*
X328232Y418712D01*
X328232Y423457D02*
X323486Y418712D01*
X328232Y423457D02*
X328232Y424644D01*
X327045Y425830D01*
X324673Y425830D01*
X323486Y424644D01*
X330970Y419898D02*
X332157Y418712D01*
X334529Y418712D01*
X335716Y419898D01*
X335716Y424644D01*
X334529Y425830D01*
X332157Y425830D01*
X330970Y424644D01*
X330970Y423457D01*
X332157Y422271D01*
X335716Y422271D01*
D19*
X219806Y507746D02*
X211056Y507746D01*
X202306Y507746D01*
X211056Y498246D02*
X219806Y498246D01*
X211056Y498246D02*
X202306Y498246D01*
X202306Y507746D01*
X219806Y507746D02*
X219806Y498246D01*
D11*
X228261Y506880D02*
X229447Y505694D01*
X228261Y506880D02*
X225888Y506880D01*
X224702Y505694D01*
X224702Y500948D01*
X225888Y499762D01*
X228261Y499762D01*
X229447Y500948D01*
X232186Y505694D02*
X233373Y506880D01*
X235745Y506880D01*
X236932Y505694D01*
X236932Y504507D01*
X235745Y503321D01*
X234559Y503321D01*
X235745Y503321D02*
X236932Y502135D01*
X236932Y500948D01*
X235745Y499762D01*
X233373Y499762D01*
X232186Y500948D01*
X239670Y500948D02*
X239670Y505694D01*
X240857Y506880D01*
X243229Y506880D01*
X244416Y505694D01*
X244416Y500948D01*
X243229Y499762D01*
X240857Y499762D01*
X239670Y500948D01*
X244416Y505694D01*
D19*
X193806Y214746D02*
X185056Y214746D01*
X176306Y214746D01*
X185056Y205246D02*
X193806Y205246D01*
X185056Y205246D02*
X176306Y205246D01*
X176306Y214746D01*
X193806Y214746D02*
X193806Y205246D01*
D11*
X205461Y216570D02*
X206647Y215384D01*
X205461Y216570D02*
X203088Y216570D01*
X201902Y215384D01*
X201902Y210638D01*
X203088Y209452D01*
X205461Y209452D01*
X206647Y210638D01*
X209386Y215384D02*
X210573Y216570D01*
X212945Y216570D01*
X214132Y215384D01*
X214132Y214197D01*
X212945Y213011D01*
X211759Y213011D01*
X212945Y213011D02*
X214132Y211825D01*
X214132Y210638D01*
X212945Y209452D01*
X210573Y209452D01*
X209386Y210638D01*
X216870Y214197D02*
X219243Y216570D01*
X219243Y209452D01*
X216870Y209452D02*
X221616Y209452D01*
D19*
X226166Y352156D02*
X234916Y352156D01*
X226166Y352156D02*
X217416Y352156D01*
X226166Y342656D02*
X234916Y342656D01*
X226166Y342656D02*
X217416Y342656D01*
X217416Y352156D01*
X234916Y352156D02*
X234916Y342656D01*
D11*
X221687Y361976D02*
X220501Y363162D01*
X218128Y363162D01*
X216942Y361976D01*
X216942Y357230D01*
X218128Y356044D01*
X220501Y356044D01*
X221687Y357230D01*
X224426Y361976D02*
X225613Y363162D01*
X227985Y363162D01*
X229172Y361976D01*
X229172Y360789D01*
X227985Y359603D01*
X226799Y359603D01*
X227985Y359603D02*
X229172Y358417D01*
X229172Y357230D01*
X227985Y356044D01*
X225613Y356044D01*
X224426Y357230D01*
X231910Y356044D02*
X236656Y356044D01*
X236656Y360789D02*
X231910Y356044D01*
X236656Y360789D02*
X236656Y361976D01*
X235469Y363162D01*
X233097Y363162D01*
X231910Y361976D01*
D19*
X234806Y338146D02*
X226056Y338146D01*
X217306Y338146D01*
X226056Y328646D02*
X234806Y328646D01*
X226056Y328646D02*
X217306Y328646D01*
X217306Y338146D01*
X234806Y338146D02*
X234806Y328646D01*
D11*
X205324Y330767D02*
X204138Y329581D01*
X204138Y327208D01*
X205324Y326022D01*
X210070Y326022D01*
X211256Y327208D01*
X211256Y329581D01*
X210070Y330767D01*
X205324Y333506D02*
X204138Y334693D01*
X204138Y337065D01*
X205324Y338252D01*
X206511Y338252D01*
X207697Y337065D01*
X207697Y335879D01*
X207697Y337065D02*
X208883Y338252D01*
X210070Y338252D01*
X211256Y337065D01*
X211256Y334693D01*
X210070Y333506D01*
X205324Y340990D02*
X204138Y342177D01*
X204138Y344549D01*
X205324Y345736D01*
X206511Y345736D01*
X207697Y344549D01*
X207697Y343363D01*
X207697Y344549D02*
X208883Y345736D01*
X210070Y345736D01*
X211256Y344549D01*
X211256Y342177D01*
X210070Y340990D01*
D19*
X271416Y342656D02*
X280166Y342656D01*
X288916Y342656D01*
X280166Y352156D02*
X271416Y352156D01*
X280166Y352156D02*
X288916Y352156D01*
X288916Y342656D01*
X271416Y342656D02*
X271416Y352156D01*
D11*
X275697Y361444D02*
X274511Y362630D01*
X272138Y362630D01*
X270952Y361444D01*
X270952Y356698D01*
X272138Y355512D01*
X274511Y355512D01*
X275697Y356698D01*
X278436Y361444D02*
X279623Y362630D01*
X281995Y362630D01*
X283182Y361444D01*
X283182Y360257D01*
X281995Y359071D01*
X280809Y359071D01*
X281995Y359071D02*
X283182Y357885D01*
X283182Y356698D01*
X281995Y355512D01*
X279623Y355512D01*
X278436Y356698D01*
X289479Y355512D02*
X289479Y362630D01*
X285920Y359071D01*
X290666Y359071D01*
D19*
X253166Y342656D02*
X244416Y342656D01*
X253166Y342656D02*
X261916Y342656D01*
X253166Y352156D02*
X244416Y352156D01*
X253166Y352156D02*
X261916Y352156D01*
X261916Y342656D01*
X244416Y342656D02*
X244416Y352156D01*
D11*
X248517Y361624D02*
X247331Y362810D01*
X244958Y362810D01*
X243772Y361624D01*
X243772Y356878D01*
X244958Y355692D01*
X247331Y355692D01*
X248517Y356878D01*
X251256Y361624D02*
X252443Y362810D01*
X254815Y362810D01*
X256002Y361624D01*
X256002Y360437D01*
X254815Y359251D01*
X253629Y359251D01*
X254815Y359251D02*
X256002Y358065D01*
X256002Y356878D01*
X254815Y355692D01*
X252443Y355692D01*
X251256Y356878D01*
X258740Y362810D02*
X263486Y362810D01*
X258740Y362810D02*
X258740Y359251D01*
X261113Y360437D01*
X262299Y360437D01*
X263486Y359251D01*
X263486Y356878D01*
X262299Y355692D01*
X259927Y355692D01*
X258740Y356878D01*
D19*
X253166Y328656D02*
X244416Y328656D01*
X253166Y328656D02*
X261916Y328656D01*
X253166Y338156D02*
X244416Y338156D01*
X253166Y338156D02*
X261916Y338156D01*
X261916Y328656D01*
X244416Y328656D02*
X244416Y338156D01*
D11*
X271871Y336420D02*
X273057Y335234D01*
X271871Y336420D02*
X269498Y336420D01*
X268312Y335234D01*
X268312Y330488D01*
X269498Y329302D01*
X271871Y329302D01*
X273057Y330488D01*
X275796Y335234D02*
X276983Y336420D01*
X279355Y336420D01*
X280542Y335234D01*
X280542Y334047D01*
X279355Y332861D01*
X278169Y332861D01*
X279355Y332861D02*
X280542Y331675D01*
X280542Y330488D01*
X279355Y329302D01*
X276983Y329302D01*
X275796Y330488D01*
X285653Y335234D02*
X288026Y336420D01*
X285653Y335234D02*
X283280Y332861D01*
X283280Y330488D01*
X284467Y329302D01*
X286839Y329302D01*
X288026Y330488D01*
X288026Y331675D01*
X286839Y332861D01*
X283280Y332861D01*
D19*
X298416Y342656D02*
X307166Y342656D01*
X315916Y342656D01*
X307166Y352156D02*
X298416Y352156D01*
X307166Y352156D02*
X315916Y352156D01*
X315916Y342656D01*
X298416Y342656D02*
X298416Y352156D01*
D11*
X304597Y361334D02*
X303411Y362520D01*
X301038Y362520D01*
X299852Y361334D01*
X299852Y356588D01*
X301038Y355402D01*
X303411Y355402D01*
X304597Y356588D01*
X307336Y361334D02*
X308523Y362520D01*
X310895Y362520D01*
X312082Y361334D01*
X312082Y360147D01*
X310895Y358961D01*
X309709Y358961D01*
X310895Y358961D02*
X312082Y357775D01*
X312082Y356588D01*
X310895Y355402D01*
X308523Y355402D01*
X307336Y356588D01*
X314820Y362520D02*
X319566Y362520D01*
X319566Y361334D01*
X314820Y356588D01*
X314820Y355402D01*
D19*
X305666Y329056D02*
X296916Y329056D01*
X305666Y329056D02*
X314416Y329056D01*
X305666Y338556D02*
X296916Y338556D01*
X305666Y338556D02*
X314416Y338556D01*
X314416Y329056D01*
X296916Y329056D02*
X296916Y338556D01*
D11*
X297683Y324750D02*
X298869Y323564D01*
X297683Y324750D02*
X295310Y324750D01*
X294124Y323564D01*
X294124Y318818D01*
X295310Y317632D01*
X297683Y317632D01*
X298869Y318818D01*
X301608Y323564D02*
X302795Y324750D01*
X305167Y324750D01*
X306354Y323564D01*
X306354Y322377D01*
X305167Y321191D01*
X303981Y321191D01*
X305167Y321191D02*
X306354Y320005D01*
X306354Y318818D01*
X305167Y317632D01*
X302795Y317632D01*
X301608Y318818D01*
X309092Y323564D02*
X310279Y324750D01*
X312651Y324750D01*
X313838Y323564D01*
X313838Y322377D01*
X312651Y321191D01*
X313838Y320005D01*
X313838Y318818D01*
X312651Y317632D01*
X310279Y317632D01*
X309092Y318818D01*
X309092Y320005D01*
X310279Y321191D01*
X309092Y322377D01*
X309092Y323564D01*
X310279Y321191D02*
X312651Y321191D01*
D16*
X148356Y261522D02*
X148356Y237628D01*
X136680Y237628D01*
X136680Y261522D02*
X148356Y261522D01*
X136680Y261522D02*
X136680Y237628D01*
D11*
X150440Y242922D02*
X157558Y242922D01*
X157558Y247667D01*
X157558Y250406D02*
X157558Y255152D01*
X152813Y255152D02*
X157558Y250406D01*
X152813Y255152D02*
X151626Y255152D01*
X150440Y253965D01*
X150440Y251593D01*
X151626Y250406D01*
D16*
X173128Y219144D02*
X197022Y219144D01*
X173128Y219144D02*
X173128Y230820D01*
X197022Y230820D02*
X197022Y219144D01*
X197022Y230820D02*
X173128Y230820D01*
D11*
X168652Y232892D02*
X168652Y240010D01*
X168652Y232892D02*
X173397Y232892D01*
X176136Y238824D02*
X177323Y240010D01*
X179695Y240010D01*
X180882Y238824D01*
X180882Y237637D01*
X179695Y236451D01*
X178509Y236451D01*
X179695Y236451D02*
X180882Y235265D01*
X180882Y234078D01*
X179695Y232892D01*
X177323Y232892D01*
X176136Y234078D01*
D20*
X141184Y202264D02*
X125056Y202264D01*
X125056Y231496D02*
X141184Y231496D01*
X141184Y221496D02*
X141184Y212424D01*
D11*
X126452Y197380D02*
X126452Y191448D01*
X127638Y190262D01*
X130011Y190262D01*
X131197Y191448D01*
X131197Y197380D01*
X133936Y197380D02*
X138682Y197380D01*
X133936Y197380D02*
X133936Y193821D01*
X136309Y195007D01*
X137495Y195007D01*
X138682Y193821D01*
X138682Y191448D01*
X137495Y190262D01*
X135123Y190262D01*
X133936Y191448D01*
D12*
X465946Y268516D02*
X491946Y268516D01*
X491946Y314516D02*
X491946Y341516D01*
X487446Y341516D01*
X465946Y341516D02*
X465946Y314516D01*
X470446Y341516D02*
X487446Y341516D01*
X470446Y341516D02*
X465946Y341516D01*
X465946Y295516D02*
X465946Y268516D01*
X491946Y268516D02*
X491946Y273016D01*
X491946Y295516D01*
D16*
X490946Y271016D02*
X466946Y271016D01*
X466946Y273016D02*
X468946Y273016D01*
X488946Y273016D02*
X491946Y273016D01*
D11*
X474776Y345404D02*
X474776Y352522D01*
X474776Y345404D02*
X478335Y345404D01*
X479521Y346590D01*
X479521Y351336D01*
X478335Y352522D01*
X474776Y352522D01*
X485819Y352522D02*
X485819Y345404D01*
X482260Y348963D02*
X485819Y352522D01*
X487006Y348963D02*
X482260Y348963D01*
D19*
X155306Y226746D02*
X155306Y217996D01*
X155306Y209246D01*
X164806Y217996D02*
X164806Y226746D01*
X164806Y217996D02*
X164806Y209246D01*
X155306Y209246D01*
X155306Y226746D02*
X164806Y226746D01*
D11*
X159353Y201600D02*
X160539Y200414D01*
X159353Y201600D02*
X156980Y201600D01*
X155794Y200414D01*
X155794Y195668D01*
X156980Y194482D01*
X159353Y194482D01*
X160539Y195668D01*
X163278Y200414D02*
X164465Y201600D01*
X166837Y201600D01*
X168024Y200414D01*
X168024Y199227D01*
X166837Y198041D01*
X165651Y198041D01*
X166837Y198041D02*
X168024Y196855D01*
X168024Y195668D01*
X166837Y194482D01*
X164465Y194482D01*
X163278Y195668D01*
X170762Y195668D02*
X171949Y194482D01*
X174321Y194482D01*
X175508Y195668D01*
X175508Y200414D01*
X174321Y201600D01*
X171949Y201600D01*
X170762Y200414D01*
X170762Y199227D01*
X171949Y198041D01*
X175508Y198041D01*
D19*
X100306Y222996D02*
X100306Y231746D01*
X100306Y222996D02*
X100306Y214246D01*
X109806Y222996D02*
X109806Y231746D01*
X109806Y222996D02*
X109806Y214246D01*
X100306Y214246D01*
X100306Y231746D02*
X109806Y231746D01*
D11*
X102116Y191249D02*
X100930Y190063D01*
X100930Y187690D01*
X102116Y186504D01*
X106862Y186504D01*
X108048Y187690D01*
X108048Y190063D01*
X106862Y191249D01*
X108048Y197547D02*
X100930Y197547D01*
X104489Y193988D01*
X104489Y198734D01*
X106862Y201472D02*
X102116Y201472D01*
X100930Y202659D01*
X100930Y205031D01*
X102116Y206218D01*
X106862Y206218D01*
X108048Y205031D01*
X108048Y202659D01*
X106862Y201472D01*
X102116Y206218D01*
D16*
X450652Y265840D02*
X450652Y289734D01*
X462328Y289734D01*
X462328Y265840D02*
X450652Y265840D01*
X462328Y265840D02*
X462328Y289734D01*
D11*
X455002Y261330D02*
X455002Y254212D01*
X459747Y254212D01*
X466045Y254212D02*
X466045Y261330D01*
X462486Y257771D01*
X467232Y257771D01*
D19*
X497696Y315984D02*
X497696Y324734D01*
X497696Y315984D02*
X497696Y307234D01*
X507196Y315984D02*
X507196Y324734D01*
X507196Y315984D02*
X507196Y307234D01*
X497696Y307234D01*
X497696Y324734D02*
X507196Y324734D01*
D11*
X499860Y333891D02*
X501046Y335077D01*
X499860Y333891D02*
X499860Y331518D01*
X501046Y330332D01*
X505792Y330332D01*
X506978Y331518D01*
X506978Y333891D01*
X505792Y335077D01*
X506978Y341375D02*
X499860Y341375D01*
X503419Y337816D01*
X503419Y342562D01*
X502233Y345300D02*
X499860Y347673D01*
X506978Y347673D01*
X506978Y345300D02*
X506978Y350046D01*
D19*
X512086Y324734D02*
X512086Y315984D01*
X512086Y307234D01*
X521586Y315984D02*
X521586Y324734D01*
X521586Y315984D02*
X521586Y307234D01*
X512086Y307234D01*
X512086Y324734D02*
X521586Y324734D01*
D11*
X513540Y334091D02*
X514726Y335277D01*
X513540Y334091D02*
X513540Y331718D01*
X514726Y330532D01*
X519472Y330532D01*
X520658Y331718D01*
X520658Y334091D01*
X519472Y335277D01*
X520658Y341575D02*
X513540Y341575D01*
X517099Y338016D01*
X517099Y342762D01*
X520658Y345500D02*
X520658Y350246D01*
X515913Y350246D02*
X520658Y345500D01*
X515913Y350246D02*
X514726Y350246D01*
X513540Y349059D01*
X513540Y346687D01*
X514726Y345500D01*
D18*
X210036Y543966D02*
X210038Y544035D01*
X210044Y544104D01*
X210054Y544172D01*
X210068Y544240D01*
X210085Y544307D01*
X210107Y544373D01*
X210132Y544437D01*
X210161Y544500D01*
X210194Y544561D01*
X210230Y544620D01*
X210269Y544677D01*
X210312Y544731D01*
X210357Y544783D01*
X210406Y544833D01*
X210457Y544879D01*
X210511Y544922D01*
X210568Y544963D01*
X210626Y544999D01*
X210687Y545033D01*
X210749Y545063D01*
X210813Y545089D01*
X210878Y545111D01*
X210945Y545130D01*
X211013Y545145D01*
X211081Y545156D01*
X211150Y545163D01*
X211219Y545166D01*
X211288Y545165D01*
X211357Y545160D01*
X211425Y545151D01*
X211493Y545138D01*
X211560Y545121D01*
X211627Y545101D01*
X211691Y545076D01*
X211754Y545048D01*
X211816Y545017D01*
X211875Y544981D01*
X211933Y544943D01*
X211988Y544901D01*
X212041Y544856D01*
X212091Y544808D01*
X212138Y544758D01*
X212182Y544704D01*
X212223Y544649D01*
X212261Y544591D01*
X212295Y544531D01*
X212326Y544469D01*
X212353Y544405D01*
X212376Y544340D01*
X212396Y544274D01*
X212412Y544206D01*
X212424Y544138D01*
X212432Y544070D01*
X212436Y544001D01*
X212436Y543931D01*
X212432Y543862D01*
X212424Y543794D01*
X212412Y543726D01*
X212396Y543658D01*
X212376Y543592D01*
X212353Y543527D01*
X212326Y543463D01*
X212295Y543401D01*
X212261Y543341D01*
X212223Y543283D01*
X212182Y543228D01*
X212138Y543174D01*
X212091Y543124D01*
X212041Y543076D01*
X211988Y543031D01*
X211933Y542989D01*
X211875Y542951D01*
X211816Y542915D01*
X211754Y542884D01*
X211691Y542856D01*
X211627Y542831D01*
X211560Y542811D01*
X211493Y542794D01*
X211425Y542781D01*
X211357Y542772D01*
X211288Y542767D01*
X211219Y542766D01*
X211150Y542769D01*
X211081Y542776D01*
X211013Y542787D01*
X210945Y542802D01*
X210878Y542821D01*
X210813Y542843D01*
X210749Y542869D01*
X210687Y542899D01*
X210626Y542933D01*
X210568Y542969D01*
X210511Y543010D01*
X210457Y543053D01*
X210406Y543099D01*
X210357Y543149D01*
X210312Y543201D01*
X210269Y543255D01*
X210230Y543312D01*
X210194Y543371D01*
X210161Y543432D01*
X210132Y543495D01*
X210107Y543559D01*
X210085Y543625D01*
X210068Y543692D01*
X210054Y543760D01*
X210044Y543828D01*
X210038Y543897D01*
X210036Y543966D01*
D12*
X214056Y553496D02*
X212056Y555496D01*
X212056Y557496D02*
X216056Y553496D01*
X218056Y553496D02*
X212056Y559496D01*
X212056Y563496D02*
X242056Y563496D01*
X220056Y553496D02*
X212056Y561496D01*
X212056Y563496D02*
X222056Y553496D01*
X212056Y553496D02*
X212056Y563496D01*
X242056Y563496D02*
X242056Y553496D01*
X212056Y553496D01*
D11*
X206548Y553504D02*
X199430Y553504D01*
X206548Y553504D02*
X206548Y557063D01*
X205362Y558249D01*
X200616Y558249D01*
X199430Y557063D01*
X199430Y553504D01*
X201803Y560988D02*
X199430Y563361D01*
X206548Y563361D01*
X206548Y560988D02*
X206548Y565734D01*
D18*
X255036Y543966D02*
X255038Y544035D01*
X255044Y544104D01*
X255054Y544172D01*
X255068Y544240D01*
X255085Y544307D01*
X255107Y544373D01*
X255132Y544437D01*
X255161Y544500D01*
X255194Y544561D01*
X255230Y544620D01*
X255269Y544677D01*
X255312Y544731D01*
X255357Y544783D01*
X255406Y544833D01*
X255457Y544879D01*
X255511Y544922D01*
X255568Y544963D01*
X255626Y544999D01*
X255687Y545033D01*
X255749Y545063D01*
X255813Y545089D01*
X255878Y545111D01*
X255945Y545130D01*
X256013Y545145D01*
X256081Y545156D01*
X256150Y545163D01*
X256219Y545166D01*
X256288Y545165D01*
X256357Y545160D01*
X256425Y545151D01*
X256493Y545138D01*
X256560Y545121D01*
X256627Y545101D01*
X256691Y545076D01*
X256754Y545048D01*
X256816Y545017D01*
X256875Y544981D01*
X256933Y544943D01*
X256988Y544901D01*
X257041Y544856D01*
X257091Y544808D01*
X257138Y544758D01*
X257182Y544704D01*
X257223Y544649D01*
X257261Y544591D01*
X257295Y544531D01*
X257326Y544469D01*
X257353Y544405D01*
X257376Y544340D01*
X257396Y544274D01*
X257412Y544206D01*
X257424Y544138D01*
X257432Y544070D01*
X257436Y544001D01*
X257436Y543931D01*
X257432Y543862D01*
X257424Y543794D01*
X257412Y543726D01*
X257396Y543658D01*
X257376Y543592D01*
X257353Y543527D01*
X257326Y543463D01*
X257295Y543401D01*
X257261Y543341D01*
X257223Y543283D01*
X257182Y543228D01*
X257138Y543174D01*
X257091Y543124D01*
X257041Y543076D01*
X256988Y543031D01*
X256933Y542989D01*
X256875Y542951D01*
X256816Y542915D01*
X256754Y542884D01*
X256691Y542856D01*
X256627Y542831D01*
X256560Y542811D01*
X256493Y542794D01*
X256425Y542781D01*
X256357Y542772D01*
X256288Y542767D01*
X256219Y542766D01*
X256150Y542769D01*
X256081Y542776D01*
X256013Y542787D01*
X255945Y542802D01*
X255878Y542821D01*
X255813Y542843D01*
X255749Y542869D01*
X255687Y542899D01*
X255626Y542933D01*
X255568Y542969D01*
X255511Y543010D01*
X255457Y543053D01*
X255406Y543099D01*
X255357Y543149D01*
X255312Y543201D01*
X255269Y543255D01*
X255230Y543312D01*
X255194Y543371D01*
X255161Y543432D01*
X255132Y543495D01*
X255107Y543559D01*
X255085Y543625D01*
X255068Y543692D01*
X255054Y543760D01*
X255044Y543828D01*
X255038Y543897D01*
X255036Y543966D01*
D12*
X259056Y553496D02*
X257056Y555496D01*
X257056Y557496D02*
X261056Y553496D01*
X263056Y553496D02*
X257056Y559496D01*
X257056Y563496D02*
X287056Y563496D01*
X265056Y553496D02*
X257056Y561496D01*
X257056Y563496D02*
X267056Y553496D01*
X257056Y553496D02*
X257056Y563496D01*
X287056Y563496D02*
X287056Y553496D01*
X257056Y553496D01*
D11*
X252548Y552504D02*
X245430Y552504D01*
X252548Y552504D02*
X252548Y556063D01*
X251362Y557249D01*
X246616Y557249D01*
X245430Y556063D01*
X245430Y552504D01*
X252548Y559988D02*
X252548Y564734D01*
X247803Y564734D02*
X252548Y559988D01*
X247803Y564734D02*
X246616Y564734D01*
X245430Y563547D01*
X245430Y561175D01*
X246616Y559988D01*
D18*
X300036Y543966D02*
X300038Y544035D01*
X300044Y544104D01*
X300054Y544172D01*
X300068Y544240D01*
X300085Y544307D01*
X300107Y544373D01*
X300132Y544437D01*
X300161Y544500D01*
X300194Y544561D01*
X300230Y544620D01*
X300269Y544677D01*
X300312Y544731D01*
X300357Y544783D01*
X300406Y544833D01*
X300457Y544879D01*
X300511Y544922D01*
X300568Y544963D01*
X300626Y544999D01*
X300687Y545033D01*
X300749Y545063D01*
X300813Y545089D01*
X300878Y545111D01*
X300945Y545130D01*
X301013Y545145D01*
X301081Y545156D01*
X301150Y545163D01*
X301219Y545166D01*
X301288Y545165D01*
X301357Y545160D01*
X301425Y545151D01*
X301493Y545138D01*
X301560Y545121D01*
X301627Y545101D01*
X301691Y545076D01*
X301754Y545048D01*
X301816Y545017D01*
X301875Y544981D01*
X301933Y544943D01*
X301988Y544901D01*
X302041Y544856D01*
X302091Y544808D01*
X302138Y544758D01*
X302182Y544704D01*
X302223Y544649D01*
X302261Y544591D01*
X302295Y544531D01*
X302326Y544469D01*
X302353Y544405D01*
X302376Y544340D01*
X302396Y544274D01*
X302412Y544206D01*
X302424Y544138D01*
X302432Y544070D01*
X302436Y544001D01*
X302436Y543931D01*
X302432Y543862D01*
X302424Y543794D01*
X302412Y543726D01*
X302396Y543658D01*
X302376Y543592D01*
X302353Y543527D01*
X302326Y543463D01*
X302295Y543401D01*
X302261Y543341D01*
X302223Y543283D01*
X302182Y543228D01*
X302138Y543174D01*
X302091Y543124D01*
X302041Y543076D01*
X301988Y543031D01*
X301933Y542989D01*
X301875Y542951D01*
X301816Y542915D01*
X301754Y542884D01*
X301691Y542856D01*
X301627Y542831D01*
X301560Y542811D01*
X301493Y542794D01*
X301425Y542781D01*
X301357Y542772D01*
X301288Y542767D01*
X301219Y542766D01*
X301150Y542769D01*
X301081Y542776D01*
X301013Y542787D01*
X300945Y542802D01*
X300878Y542821D01*
X300813Y542843D01*
X300749Y542869D01*
X300687Y542899D01*
X300626Y542933D01*
X300568Y542969D01*
X300511Y543010D01*
X300457Y543053D01*
X300406Y543099D01*
X300357Y543149D01*
X300312Y543201D01*
X300269Y543255D01*
X300230Y543312D01*
X300194Y543371D01*
X300161Y543432D01*
X300132Y543495D01*
X300107Y543559D01*
X300085Y543625D01*
X300068Y543692D01*
X300054Y543760D01*
X300044Y543828D01*
X300038Y543897D01*
X300036Y543966D01*
D12*
X304056Y553496D02*
X302056Y555496D01*
X302056Y557496D02*
X306056Y553496D01*
X308056Y553496D02*
X302056Y559496D01*
X302056Y563496D02*
X332056Y563496D01*
X310056Y553496D02*
X302056Y561496D01*
X302056Y563496D02*
X312056Y553496D01*
X302056Y553496D02*
X302056Y563496D01*
X332056Y563496D02*
X332056Y553496D01*
X302056Y553496D01*
D11*
X297548Y553504D02*
X290430Y553504D01*
X297548Y553504D02*
X297548Y557063D01*
X296362Y558249D01*
X291616Y558249D01*
X290430Y557063D01*
X290430Y553504D01*
X291616Y560988D02*
X290430Y562175D01*
X290430Y564547D01*
X291616Y565734D01*
X292803Y565734D01*
X293989Y564547D01*
X293989Y563361D01*
X293989Y564547D02*
X295175Y565734D01*
X296362Y565734D01*
X297548Y564547D01*
X297548Y562175D01*
X296362Y560988D01*
D12*
X362500Y703496D02*
X362500Y724996D01*
X362500Y673996D02*
X362500Y649996D01*
X362500Y724996D02*
X212500Y724996D01*
X337000Y613496D02*
X350500Y613496D01*
X337000Y613496D02*
X337000Y605996D01*
X212500Y703496D02*
X212500Y724996D01*
X212500Y673996D02*
X212500Y649996D01*
X238000Y605996D02*
X337000Y605996D01*
X238000Y605996D02*
X238000Y613496D01*
X224500Y613496D01*
D11*
X341698Y600888D02*
X342884Y599702D01*
X344071Y599702D01*
X345257Y600888D01*
X345257Y606820D01*
X344071Y606820D02*
X346443Y606820D01*
X349182Y605634D02*
X350369Y606820D01*
X352741Y606820D01*
X353928Y605634D01*
X353928Y604447D01*
X352741Y603261D01*
X353928Y602075D01*
X353928Y600888D01*
X352741Y599702D01*
X350369Y599702D01*
X349182Y600888D01*
X349182Y602075D01*
X350369Y603261D01*
X349182Y604447D01*
X349182Y605634D01*
X350369Y603261D02*
X352741Y603261D01*
D12*
X349556Y564996D02*
X349556Y560996D01*
X342556Y560996D02*
X342556Y564996D01*
D11*
X335992Y578084D02*
X335992Y585202D01*
X339551Y585202D01*
X340737Y584016D01*
X340737Y581643D01*
X339551Y580457D01*
X335992Y580457D01*
X338365Y580457D02*
X340737Y578084D01*
X343476Y578084D02*
X348222Y578084D01*
X348222Y582829D02*
X343476Y578084D01*
X348222Y582829D02*
X348222Y584016D01*
X347035Y585202D01*
X344663Y585202D01*
X343476Y584016D01*
X350960Y578084D02*
X355706Y578084D01*
X355706Y582829D02*
X350960Y578084D01*
X355706Y582829D02*
X355706Y584016D01*
X354519Y585202D01*
X352147Y585202D01*
X350960Y584016D01*
D20*
X265100Y131000D02*
X189100Y131000D01*
X189100Y79000D01*
X265100Y79000D01*
D21*
X265100Y79250D02*
X265350Y79250D01*
D20*
X265100Y79250D02*
X265100Y131000D01*
X253988Y122780D02*
X253990Y122899D01*
X253996Y123019D01*
X254006Y123138D01*
X254020Y123256D01*
X254038Y123374D01*
X254059Y123492D01*
X254085Y123608D01*
X254114Y123724D01*
X254148Y123839D01*
X254185Y123952D01*
X254226Y124064D01*
X254270Y124175D01*
X254318Y124285D01*
X254370Y124392D01*
X254425Y124498D01*
X254484Y124602D01*
X254547Y124704D01*
X254612Y124803D01*
X254681Y124901D01*
X254753Y124996D01*
X254828Y125089D01*
X254907Y125179D01*
X254988Y125267D01*
X255072Y125351D01*
X255159Y125433D01*
X255248Y125512D01*
X255340Y125588D01*
X255435Y125661D01*
X255532Y125731D01*
X255631Y125797D01*
X255733Y125860D01*
X255836Y125920D01*
X255941Y125976D01*
X256048Y126029D01*
X256157Y126078D01*
X256268Y126124D01*
X256380Y126165D01*
X256493Y126203D01*
X256607Y126238D01*
X256723Y126268D01*
X256839Y126295D01*
X256956Y126317D01*
X257074Y126336D01*
X257193Y126351D01*
X257312Y126362D01*
X257431Y126369D01*
X257550Y126372D01*
X257670Y126371D01*
X257789Y126366D01*
X257908Y126357D01*
X258027Y126344D01*
X258145Y126327D01*
X258262Y126307D01*
X258379Y126282D01*
X258495Y126253D01*
X258610Y126221D01*
X258724Y126185D01*
X258837Y126145D01*
X258948Y126101D01*
X259057Y126054D01*
X259165Y126003D01*
X259272Y125949D01*
X259376Y125891D01*
X259478Y125829D01*
X259579Y125765D01*
X259677Y125696D01*
X259773Y125625D01*
X259866Y125551D01*
X259957Y125473D01*
X260045Y125393D01*
X260130Y125309D01*
X260213Y125223D01*
X260293Y125134D01*
X260370Y125043D01*
X260443Y124949D01*
X260514Y124852D01*
X260581Y124754D01*
X260645Y124653D01*
X260706Y124550D01*
X260763Y124445D01*
X260816Y124339D01*
X260866Y124230D01*
X260913Y124120D01*
X260955Y124009D01*
X260994Y123896D01*
X261030Y123782D01*
X261061Y123666D01*
X261088Y123550D01*
X261112Y123433D01*
X261132Y123315D01*
X261148Y123197D01*
X261160Y123078D01*
X261168Y122959D01*
X261172Y122840D01*
X261172Y122720D01*
X261168Y122601D01*
X261160Y122482D01*
X261148Y122363D01*
X261132Y122245D01*
X261112Y122127D01*
X261088Y122010D01*
X261061Y121894D01*
X261030Y121778D01*
X260994Y121664D01*
X260955Y121551D01*
X260913Y121440D01*
X260866Y121330D01*
X260816Y121221D01*
X260763Y121115D01*
X260706Y121010D01*
X260645Y120907D01*
X260581Y120806D01*
X260514Y120708D01*
X260443Y120611D01*
X260370Y120517D01*
X260293Y120426D01*
X260213Y120337D01*
X260130Y120251D01*
X260045Y120167D01*
X259957Y120087D01*
X259866Y120009D01*
X259773Y119935D01*
X259677Y119864D01*
X259579Y119795D01*
X259478Y119731D01*
X259376Y119669D01*
X259272Y119611D01*
X259165Y119557D01*
X259057Y119506D01*
X258948Y119459D01*
X258837Y119415D01*
X258724Y119375D01*
X258610Y119339D01*
X258495Y119307D01*
X258379Y119278D01*
X258262Y119253D01*
X258145Y119233D01*
X258027Y119216D01*
X257908Y119203D01*
X257789Y119194D01*
X257670Y119189D01*
X257550Y119188D01*
X257431Y119191D01*
X257312Y119198D01*
X257193Y119209D01*
X257074Y119224D01*
X256956Y119243D01*
X256839Y119265D01*
X256723Y119292D01*
X256607Y119322D01*
X256493Y119357D01*
X256380Y119395D01*
X256268Y119436D01*
X256157Y119482D01*
X256048Y119531D01*
X255941Y119584D01*
X255836Y119640D01*
X255733Y119700D01*
X255631Y119763D01*
X255532Y119829D01*
X255435Y119899D01*
X255340Y119972D01*
X255248Y120048D01*
X255159Y120127D01*
X255072Y120209D01*
X254988Y120293D01*
X254907Y120381D01*
X254828Y120471D01*
X254753Y120564D01*
X254681Y120659D01*
X254612Y120757D01*
X254547Y120856D01*
X254484Y120958D01*
X254425Y121062D01*
X254370Y121168D01*
X254318Y121275D01*
X254270Y121385D01*
X254226Y121496D01*
X254185Y121608D01*
X254148Y121721D01*
X254114Y121836D01*
X254085Y121952D01*
X254059Y122068D01*
X254038Y122186D01*
X254020Y122304D01*
X254006Y122422D01*
X253996Y122541D01*
X253990Y122661D01*
X253988Y122780D01*
D11*
X221018Y55406D02*
X221018Y49474D01*
X222204Y48288D01*
X224577Y48288D01*
X225763Y49474D01*
X225763Y55406D01*
X228502Y55406D02*
X233248Y55406D01*
X233248Y54220D01*
X228502Y49474D01*
X228502Y48288D01*
D22*
X229450Y166445D02*
X229450Y167055D01*
D11*
X223022Y159376D02*
X224208Y158190D01*
X223022Y159376D02*
X220649Y159376D01*
X219463Y158190D01*
X219463Y153444D01*
X220649Y152258D01*
X223022Y152258D01*
X224208Y153444D01*
X226947Y159376D02*
X231693Y159376D01*
X226947Y159376D02*
X226947Y155817D01*
X229320Y157003D01*
X230506Y157003D01*
X231693Y155817D01*
X231693Y153444D01*
X230506Y152258D01*
X228134Y152258D01*
X226947Y153444D01*
X234431Y153444D02*
X234431Y158190D01*
X235618Y159376D01*
X237990Y159376D01*
X239177Y158190D01*
X239177Y153444D01*
X237990Y152258D01*
X235618Y152258D01*
X234431Y153444D01*
X239177Y158190D01*
D22*
X253550Y166445D02*
X253550Y167055D01*
D11*
X249292Y158666D02*
X250478Y157480D01*
X249292Y158666D02*
X246919Y158666D01*
X245733Y157480D01*
X245733Y152734D01*
X246919Y151548D01*
X249292Y151548D01*
X250478Y152734D01*
X253217Y158666D02*
X257963Y158666D01*
X253217Y158666D02*
X253217Y155107D01*
X255590Y156293D01*
X256776Y156293D01*
X257963Y155107D01*
X257963Y152734D01*
X256776Y151548D01*
X254404Y151548D01*
X253217Y152734D01*
X260701Y151548D02*
X265447Y151548D01*
X265447Y156293D02*
X260701Y151548D01*
X265447Y156293D02*
X265447Y157480D01*
X264260Y158666D01*
X261888Y158666D01*
X260701Y157480D01*
D21*
X112900Y65500D02*
X112900Y17500D01*
X188900Y17500D02*
X188900Y65500D01*
X117295Y36500D02*
X117297Y36620D01*
X117303Y36740D01*
X117313Y36859D01*
X117327Y36978D01*
X117345Y37096D01*
X117366Y37214D01*
X117392Y37331D01*
X117422Y37448D01*
X117455Y37563D01*
X117492Y37677D01*
X117533Y37789D01*
X117578Y37900D01*
X117626Y38010D01*
X117678Y38118D01*
X117734Y38224D01*
X117793Y38328D01*
X117856Y38431D01*
X117921Y38531D01*
X117991Y38629D01*
X118063Y38724D01*
X118138Y38817D01*
X118217Y38908D01*
X118298Y38996D01*
X118383Y39081D01*
X118470Y39163D01*
X118560Y39242D01*
X118652Y39319D01*
X118747Y39392D01*
X118845Y39462D01*
X118944Y39528D01*
X119046Y39592D01*
X119150Y39652D01*
X119255Y39708D01*
X119363Y39761D01*
X119472Y39810D01*
X119583Y39856D01*
X119695Y39898D01*
X119809Y39936D01*
X119924Y39970D01*
X120040Y40001D01*
X120156Y40027D01*
X120274Y40050D01*
X120392Y40069D01*
X120511Y40084D01*
X120631Y40095D01*
X120750Y40102D01*
X120870Y40105D01*
X120990Y40104D01*
X121110Y40099D01*
X121229Y40090D01*
X121348Y40077D01*
X121467Y40060D01*
X121585Y40039D01*
X121702Y40015D01*
X121819Y39986D01*
X121934Y39954D01*
X122048Y39917D01*
X122161Y39877D01*
X122273Y39833D01*
X122383Y39786D01*
X122491Y39735D01*
X122598Y39680D01*
X122702Y39622D01*
X122805Y39560D01*
X122906Y39495D01*
X123004Y39427D01*
X123101Y39355D01*
X123194Y39281D01*
X123285Y39203D01*
X123374Y39122D01*
X123460Y39039D01*
X123543Y38952D01*
X123623Y38863D01*
X123700Y38771D01*
X123774Y38677D01*
X123844Y38580D01*
X123912Y38481D01*
X123976Y38380D01*
X124037Y38276D01*
X124094Y38171D01*
X124148Y38064D01*
X124198Y37955D01*
X124245Y37845D01*
X124288Y37733D01*
X124327Y37620D01*
X124362Y37505D01*
X124394Y37390D01*
X124421Y37273D01*
X124445Y37155D01*
X124465Y37037D01*
X124481Y36919D01*
X124493Y36799D01*
X124501Y36680D01*
X124505Y36560D01*
X124505Y36440D01*
X124501Y36320D01*
X124493Y36201D01*
X124481Y36081D01*
X124465Y35963D01*
X124445Y35845D01*
X124421Y35727D01*
X124394Y35610D01*
X124362Y35495D01*
X124327Y35380D01*
X124288Y35267D01*
X124245Y35155D01*
X124198Y35045D01*
X124148Y34936D01*
X124094Y34829D01*
X124037Y34724D01*
X123976Y34620D01*
X123912Y34519D01*
X123844Y34420D01*
X123774Y34323D01*
X123700Y34229D01*
X123623Y34137D01*
X123543Y34048D01*
X123460Y33961D01*
X123374Y33878D01*
X123285Y33797D01*
X123194Y33719D01*
X123101Y33645D01*
X123004Y33573D01*
X122906Y33505D01*
X122805Y33440D01*
X122703Y33378D01*
X122598Y33320D01*
X122491Y33265D01*
X122383Y33214D01*
X122273Y33167D01*
X122161Y33123D01*
X122048Y33083D01*
X121934Y33046D01*
X121819Y33014D01*
X121702Y32985D01*
X121585Y32961D01*
X121467Y32940D01*
X121348Y32923D01*
X121229Y32910D01*
X121110Y32901D01*
X120990Y32896D01*
X120870Y32895D01*
X120750Y32898D01*
X120631Y32905D01*
X120511Y32916D01*
X120392Y32931D01*
X120274Y32950D01*
X120156Y32973D01*
X120040Y32999D01*
X119924Y33030D01*
X119809Y33064D01*
X119695Y33102D01*
X119583Y33144D01*
X119472Y33190D01*
X119363Y33239D01*
X119255Y33292D01*
X119150Y33348D01*
X119046Y33408D01*
X118944Y33472D01*
X118845Y33538D01*
X118747Y33608D01*
X118652Y33681D01*
X118560Y33758D01*
X118470Y33837D01*
X118383Y33919D01*
X118298Y34004D01*
X118217Y34092D01*
X118138Y34183D01*
X118063Y34276D01*
X117991Y34371D01*
X117921Y34469D01*
X117856Y34569D01*
X117793Y34672D01*
X117734Y34776D01*
X117678Y34882D01*
X117626Y34990D01*
X117578Y35100D01*
X117533Y35211D01*
X117492Y35323D01*
X117455Y35437D01*
X117422Y35552D01*
X117392Y35669D01*
X117366Y35786D01*
X117345Y35904D01*
X117327Y36022D01*
X117313Y36141D01*
X117303Y36260D01*
X117297Y36380D01*
X117295Y36500D01*
D11*
X149808Y83120D02*
X149808Y84306D01*
X149808Y83120D02*
X152181Y80747D01*
X154553Y83120D01*
X154553Y84306D01*
X152181Y80747D02*
X152181Y77188D01*
X157292Y77188D02*
X162038Y77188D01*
X162038Y81933D02*
X157292Y77188D01*
X162038Y81933D02*
X162038Y83120D01*
X160851Y84306D01*
X158479Y84306D01*
X157292Y83120D01*
D19*
X152200Y638650D02*
X152202Y638694D01*
X152208Y638738D01*
X152218Y638781D01*
X152231Y638823D01*
X152248Y638864D01*
X152269Y638903D01*
X152293Y638940D01*
X152320Y638975D01*
X152350Y639007D01*
X152383Y639037D01*
X152419Y639063D01*
X152456Y639087D01*
X152496Y639106D01*
X152537Y639123D01*
X152580Y639135D01*
X152623Y639144D01*
X152667Y639149D01*
X152711Y639150D01*
X152755Y639147D01*
X152799Y639140D01*
X152842Y639129D01*
X152884Y639115D01*
X152924Y639097D01*
X152963Y639075D01*
X152999Y639051D01*
X153033Y639023D01*
X153065Y638992D01*
X153094Y638958D01*
X153120Y638922D01*
X153142Y638884D01*
X153161Y638844D01*
X153176Y638802D01*
X153188Y638760D01*
X153196Y638716D01*
X153200Y638672D01*
X153200Y638628D01*
X153196Y638584D01*
X153188Y638540D01*
X153176Y638498D01*
X153161Y638456D01*
X153142Y638416D01*
X153120Y638378D01*
X153094Y638342D01*
X153065Y638308D01*
X153033Y638277D01*
X152999Y638249D01*
X152963Y638225D01*
X152924Y638203D01*
X152884Y638185D01*
X152842Y638171D01*
X152799Y638160D01*
X152755Y638153D01*
X152711Y638150D01*
X152667Y638151D01*
X152623Y638156D01*
X152580Y638165D01*
X152537Y638177D01*
X152496Y638194D01*
X152456Y638213D01*
X152419Y638237D01*
X152383Y638263D01*
X152350Y638293D01*
X152320Y638325D01*
X152293Y638360D01*
X152269Y638397D01*
X152248Y638436D01*
X152231Y638477D01*
X152218Y638519D01*
X152208Y638562D01*
X152202Y638606D01*
X152200Y638650D01*
D21*
X176700Y725150D02*
X76700Y725150D01*
X171400Y691650D02*
X171400Y669650D01*
X82000Y669650D02*
X82000Y691650D01*
X82000Y643450D02*
X171400Y643450D01*
D11*
X128764Y630588D02*
X127578Y631774D01*
X128764Y630588D02*
X129951Y630588D01*
X131137Y631774D01*
X131137Y637706D01*
X129951Y637706D02*
X132323Y637706D01*
X135062Y636520D02*
X136249Y637706D01*
X138621Y637706D01*
X139808Y636520D01*
X139808Y635333D01*
X138621Y634147D01*
X137435Y634147D01*
X138621Y634147D02*
X139808Y632961D01*
X139808Y631774D01*
X138621Y630588D01*
X136249Y630588D01*
X135062Y631774D01*
D19*
X482930Y88020D02*
X482932Y88064D01*
X482938Y88108D01*
X482948Y88151D01*
X482961Y88193D01*
X482978Y88234D01*
X482999Y88273D01*
X483023Y88310D01*
X483050Y88345D01*
X483080Y88377D01*
X483113Y88407D01*
X483149Y88433D01*
X483186Y88457D01*
X483226Y88476D01*
X483267Y88493D01*
X483310Y88505D01*
X483353Y88514D01*
X483397Y88519D01*
X483441Y88520D01*
X483485Y88517D01*
X483529Y88510D01*
X483572Y88499D01*
X483614Y88485D01*
X483654Y88467D01*
X483693Y88445D01*
X483729Y88421D01*
X483763Y88393D01*
X483795Y88362D01*
X483824Y88328D01*
X483850Y88292D01*
X483872Y88254D01*
X483891Y88214D01*
X483906Y88172D01*
X483918Y88130D01*
X483926Y88086D01*
X483930Y88042D01*
X483930Y87998D01*
X483926Y87954D01*
X483918Y87910D01*
X483906Y87868D01*
X483891Y87826D01*
X483872Y87786D01*
X483850Y87748D01*
X483824Y87712D01*
X483795Y87678D01*
X483763Y87647D01*
X483729Y87619D01*
X483693Y87595D01*
X483654Y87573D01*
X483614Y87555D01*
X483572Y87541D01*
X483529Y87530D01*
X483485Y87523D01*
X483441Y87520D01*
X483397Y87521D01*
X483353Y87526D01*
X483310Y87535D01*
X483267Y87547D01*
X483226Y87564D01*
X483186Y87583D01*
X483149Y87607D01*
X483113Y87633D01*
X483080Y87663D01*
X483050Y87695D01*
X483023Y87730D01*
X482999Y87767D01*
X482978Y87806D01*
X482961Y87847D01*
X482948Y87889D01*
X482938Y87932D01*
X482932Y87976D01*
X482930Y88020D01*
D21*
X459430Y1520D02*
X559430Y1520D01*
X464730Y35020D02*
X464730Y57020D01*
X554130Y57020D02*
X554130Y35020D01*
X554130Y83220D02*
X464730Y83220D01*
D11*
X564838Y18364D02*
X566024Y17178D01*
X567211Y17178D01*
X568397Y18364D01*
X568397Y24296D01*
X567211Y24296D02*
X569583Y24296D01*
X575881Y24296D02*
X575881Y17178D01*
X572322Y20737D02*
X575881Y24296D01*
X577068Y20737D02*
X572322Y20737D01*
X199968Y18786D02*
X199968Y11668D01*
X199968Y18786D02*
X203527Y18786D01*
X204713Y17600D01*
X204713Y15227D01*
X203527Y14041D01*
X199968Y14041D01*
X202341Y14041D02*
X204713Y11668D01*
X207452Y17600D02*
X208639Y18786D01*
X211011Y18786D01*
X212198Y17600D01*
X212198Y16413D01*
X211011Y15227D01*
X209825Y15227D01*
X211011Y15227D02*
X212198Y14041D01*
X212198Y12854D01*
X211011Y11668D01*
X208639Y11668D01*
X207452Y12854D01*
X214936Y12854D02*
X216123Y11668D01*
X218495Y11668D01*
X219682Y12854D01*
X219682Y17600D01*
X218495Y18786D01*
X216123Y18786D01*
X214936Y17600D01*
X214936Y16413D01*
X216123Y15227D01*
X219682Y15227D01*
D23*
X265000Y15600D03*
D11*
X200364Y30712D02*
X200364Y37830D01*
X203923Y37830D01*
X205109Y36644D01*
X205109Y34271D01*
X203923Y33085D01*
X200364Y33085D01*
X202737Y33085D02*
X205109Y30712D01*
X211407Y30712D02*
X211407Y37830D01*
X207848Y34271D01*
X212594Y34271D01*
X215332Y31898D02*
X215332Y36644D01*
X216519Y37830D01*
X218891Y37830D01*
X220078Y36644D01*
X220078Y31898D01*
X218891Y30712D01*
X216519Y30712D01*
X215332Y31898D01*
X220078Y36644D01*
D23*
X265000Y35100D03*
D11*
X342874Y126387D02*
X344060Y127573D01*
X342874Y126387D02*
X342874Y124014D01*
X344060Y122828D01*
X348806Y122828D01*
X349992Y124014D01*
X349992Y126387D01*
X348806Y127573D01*
X344060Y132685D02*
X342874Y135058D01*
X344060Y132685D02*
X346433Y130312D01*
X348806Y130312D01*
X349992Y131499D01*
X349992Y133871D01*
X348806Y135058D01*
X347619Y135058D01*
X346433Y133871D01*
X346433Y130312D01*
X348806Y137796D02*
X344060Y137796D01*
X342874Y138983D01*
X342874Y141355D01*
X344060Y142542D01*
X348806Y142542D01*
X349992Y141355D01*
X349992Y138983D01*
X348806Y137796D01*
X344060Y142542D01*
X319637Y116556D02*
X320823Y115370D01*
X319637Y116556D02*
X317264Y116556D01*
X316078Y115370D01*
X316078Y110624D01*
X317264Y109438D01*
X319637Y109438D01*
X320823Y110624D01*
X325935Y115370D02*
X328308Y116556D01*
X325935Y115370D02*
X323562Y112997D01*
X323562Y110624D01*
X324749Y109438D01*
X327121Y109438D01*
X328308Y110624D01*
X328308Y111811D01*
X327121Y112997D01*
X323562Y112997D01*
X331046Y114183D02*
X333419Y116556D01*
X333419Y109438D01*
X331046Y109438D02*
X335792Y109438D01*
D16*
X356746Y33272D02*
X306454Y33272D01*
X356746Y33272D02*
X356746Y78928D01*
X306454Y78928D01*
X306454Y33272D01*
D14*
X308740Y35558D02*
X354460Y35558D01*
X354460Y76642D01*
X308740Y76642D01*
X308740Y35558D01*
D16*
X310772Y43908D02*
X310774Y44043D01*
X310780Y44178D01*
X310790Y44312D01*
X310804Y44446D01*
X310822Y44580D01*
X310843Y44713D01*
X310869Y44845D01*
X310899Y44977D01*
X310932Y45108D01*
X310969Y45237D01*
X311011Y45366D01*
X311055Y45493D01*
X311104Y45619D01*
X311156Y45743D01*
X311212Y45866D01*
X311272Y45987D01*
X311335Y46106D01*
X311401Y46223D01*
X311471Y46338D01*
X311545Y46452D01*
X311622Y46563D01*
X311701Y46671D01*
X311785Y46777D01*
X311871Y46881D01*
X311960Y46982D01*
X312052Y47081D01*
X312147Y47176D01*
X312245Y47269D01*
X312345Y47359D01*
X312448Y47446D01*
X312554Y47530D01*
X312662Y47611D01*
X312772Y47688D01*
X312885Y47762D01*
X313000Y47833D01*
X313117Y47901D01*
X313235Y47965D01*
X313356Y48025D01*
X313478Y48082D01*
X313602Y48135D01*
X313728Y48185D01*
X313854Y48231D01*
X313983Y48273D01*
X314112Y48311D01*
X314242Y48345D01*
X314374Y48376D01*
X314506Y48403D01*
X314639Y48425D01*
X314772Y48444D01*
X314906Y48459D01*
X315041Y48470D01*
X315175Y48477D01*
X315310Y48480D01*
X315445Y48479D01*
X315580Y48474D01*
X315714Y48465D01*
X315849Y48452D01*
X315983Y48435D01*
X316116Y48414D01*
X316248Y48390D01*
X316380Y48361D01*
X316511Y48329D01*
X316641Y48292D01*
X316770Y48252D01*
X316897Y48208D01*
X317023Y48160D01*
X317148Y48109D01*
X317271Y48054D01*
X317393Y47995D01*
X317512Y47933D01*
X317630Y47867D01*
X317746Y47798D01*
X317859Y47726D01*
X317971Y47650D01*
X318080Y47571D01*
X318187Y47489D01*
X318291Y47403D01*
X318393Y47315D01*
X318492Y47223D01*
X318589Y47129D01*
X318682Y47032D01*
X318773Y46932D01*
X318861Y46830D01*
X318945Y46725D01*
X319027Y46617D01*
X319105Y46507D01*
X319180Y46395D01*
X319252Y46281D01*
X319320Y46165D01*
X319385Y46046D01*
X319446Y45926D01*
X319504Y45804D01*
X319558Y45681D01*
X319609Y45556D01*
X319655Y45429D01*
X319698Y45302D01*
X319738Y45173D01*
X319773Y45042D01*
X319805Y44911D01*
X319832Y44779D01*
X319856Y44647D01*
X319876Y44513D01*
X319892Y44379D01*
X319904Y44245D01*
X319912Y44110D01*
X319916Y43975D01*
X319916Y43841D01*
X319912Y43706D01*
X319904Y43571D01*
X319892Y43437D01*
X319876Y43303D01*
X319856Y43169D01*
X319832Y43037D01*
X319805Y42905D01*
X319773Y42774D01*
X319738Y42643D01*
X319698Y42514D01*
X319655Y42387D01*
X319609Y42260D01*
X319558Y42135D01*
X319504Y42012D01*
X319446Y41890D01*
X319385Y41770D01*
X319320Y41651D01*
X319252Y41535D01*
X319180Y41421D01*
X319105Y41309D01*
X319027Y41199D01*
X318945Y41091D01*
X318861Y40986D01*
X318773Y40884D01*
X318682Y40784D01*
X318589Y40687D01*
X318492Y40593D01*
X318393Y40501D01*
X318291Y40413D01*
X318187Y40327D01*
X318080Y40245D01*
X317971Y40166D01*
X317859Y40090D01*
X317746Y40018D01*
X317630Y39949D01*
X317512Y39883D01*
X317393Y39821D01*
X317271Y39762D01*
X317148Y39707D01*
X317023Y39656D01*
X316897Y39608D01*
X316770Y39564D01*
X316641Y39524D01*
X316511Y39487D01*
X316380Y39455D01*
X316248Y39426D01*
X316116Y39402D01*
X315983Y39381D01*
X315849Y39364D01*
X315714Y39351D01*
X315580Y39342D01*
X315445Y39337D01*
X315310Y39336D01*
X315175Y39339D01*
X315041Y39346D01*
X314906Y39357D01*
X314772Y39372D01*
X314639Y39391D01*
X314506Y39413D01*
X314374Y39440D01*
X314242Y39471D01*
X314112Y39505D01*
X313983Y39543D01*
X313854Y39585D01*
X313728Y39631D01*
X313602Y39681D01*
X313478Y39734D01*
X313356Y39791D01*
X313235Y39851D01*
X313117Y39915D01*
X313000Y39983D01*
X312885Y40054D01*
X312772Y40128D01*
X312662Y40205D01*
X312554Y40286D01*
X312448Y40370D01*
X312345Y40457D01*
X312245Y40547D01*
X312147Y40640D01*
X312052Y40735D01*
X311960Y40834D01*
X311871Y40935D01*
X311785Y41039D01*
X311701Y41145D01*
X311622Y41253D01*
X311545Y41364D01*
X311471Y41478D01*
X311401Y41593D01*
X311335Y41710D01*
X311272Y41829D01*
X311212Y41950D01*
X311156Y42073D01*
X311104Y42197D01*
X311055Y42323D01*
X311011Y42450D01*
X310969Y42579D01*
X310932Y42708D01*
X310899Y42839D01*
X310869Y42971D01*
X310843Y43103D01*
X310822Y43236D01*
X310804Y43370D01*
X310790Y43504D01*
X310780Y43638D01*
X310774Y43773D01*
X310772Y43908D01*
D11*
X322276Y16540D02*
X322276Y10608D01*
X323462Y9422D01*
X325835Y9422D01*
X327021Y10608D01*
X327021Y16540D01*
X329760Y16540D02*
X329760Y9422D01*
X334506Y9422D02*
X329760Y16540D01*
X334506Y16540D02*
X334506Y9422D01*
X337244Y10608D02*
X337244Y15354D01*
X338431Y16540D01*
X340803Y16540D01*
X341990Y15354D01*
X341990Y10608D01*
X340803Y9422D01*
X338431Y9422D01*
X337244Y10608D01*
X341990Y15354D01*
X308042Y89738D02*
X300924Y89738D01*
X300924Y93297D01*
X302110Y94483D01*
X304483Y94483D01*
X305669Y93297D01*
X305669Y89738D01*
X305669Y92111D02*
X308042Y94483D01*
X308042Y100781D02*
X300924Y100781D01*
X304483Y97222D01*
X304483Y101968D01*
X300924Y104706D02*
X300924Y109452D01*
X300924Y104706D02*
X304483Y104706D01*
X303297Y107079D01*
X303297Y108265D01*
X304483Y109452D01*
X306856Y109452D01*
X308042Y108265D01*
X308042Y105893D01*
X306856Y104706D01*
X363328Y56796D02*
X363328Y49678D01*
X363328Y56796D02*
X366887Y56796D01*
X368073Y55610D01*
X368073Y53237D01*
X366887Y52051D01*
X363328Y52051D01*
X365701Y52051D02*
X368073Y49678D01*
X374371Y49678D02*
X374371Y56796D01*
X370812Y53237D01*
X375558Y53237D01*
X380669Y55610D02*
X383042Y56796D01*
X380669Y55610D02*
X378296Y53237D01*
X378296Y50864D01*
X379483Y49678D01*
X381855Y49678D01*
X383042Y50864D01*
X383042Y52051D01*
X381855Y53237D01*
X378296Y53237D01*
X387884Y68118D02*
X395002Y68118D01*
X387884Y68118D02*
X387884Y71677D01*
X389070Y72863D01*
X391443Y72863D01*
X392629Y71677D01*
X392629Y68118D01*
X392629Y70491D02*
X395002Y72863D01*
X395002Y79161D02*
X387884Y79161D01*
X391443Y75602D01*
X391443Y80348D01*
X387884Y83086D02*
X387884Y87832D01*
X389070Y87832D01*
X393816Y83086D01*
X395002Y83086D01*
X366437Y20001D02*
X367623Y18815D01*
X366437Y20001D02*
X364064Y20001D01*
X362878Y18815D01*
X362878Y14069D01*
X364064Y12883D01*
X366437Y12883D01*
X367623Y14069D01*
X372735Y18815D02*
X375108Y20001D01*
X372735Y18815D02*
X370362Y16442D01*
X370362Y14069D01*
X371549Y12883D01*
X373921Y12883D01*
X375108Y14069D01*
X375108Y15256D01*
X373921Y16442D01*
X370362Y16442D01*
X377846Y12883D02*
X382592Y12883D01*
X382592Y17628D02*
X377846Y12883D01*
X382592Y17628D02*
X382592Y18815D01*
X381405Y20001D01*
X379033Y20001D01*
X377846Y18815D01*
X399214Y71072D02*
X400400Y72258D01*
X399214Y71072D02*
X399214Y68699D01*
X400400Y67513D01*
X405146Y67513D01*
X406332Y68699D01*
X406332Y71072D01*
X405146Y72258D01*
X400400Y77370D02*
X399214Y79743D01*
X400400Y77370D02*
X402773Y74997D01*
X405146Y74997D01*
X406332Y76184D01*
X406332Y78556D01*
X405146Y79743D01*
X403959Y79743D01*
X402773Y78556D01*
X402773Y74997D01*
X400400Y82481D02*
X399214Y83668D01*
X399214Y86040D01*
X400400Y87227D01*
X401587Y87227D01*
X402773Y86040D01*
X402773Y84854D01*
X402773Y86040D02*
X403959Y87227D01*
X405146Y87227D01*
X406332Y86040D01*
X406332Y83668D01*
X405146Y82481D01*
D12*
X173250Y130590D02*
X169250Y130590D01*
X169250Y123590D02*
X173250Y123590D01*
D11*
X136918Y123358D02*
X136918Y130476D01*
X140477Y130476D01*
X141663Y129290D01*
X141663Y126917D01*
X140477Y125731D01*
X136918Y125731D01*
X139291Y125731D02*
X141663Y123358D01*
X147961Y123358D02*
X147961Y130476D01*
X144402Y126917D01*
X149148Y126917D01*
X151886Y129290D02*
X153073Y130476D01*
X155445Y130476D01*
X156632Y129290D01*
X156632Y128103D01*
X155445Y126917D01*
X156632Y125731D01*
X156632Y124544D01*
X155445Y123358D01*
X153073Y123358D01*
X151886Y124544D01*
X151886Y125731D01*
X153073Y126917D01*
X151886Y128103D01*
X151886Y129290D01*
X153073Y126917D02*
X155445Y126917D01*
D12*
X169760Y114560D02*
X173760Y114560D01*
X173760Y107560D02*
X169760Y107560D01*
D11*
X137328Y106758D02*
X137328Y113876D01*
X140887Y113876D01*
X142073Y112690D01*
X142073Y110317D01*
X140887Y109131D01*
X137328Y109131D01*
X139701Y109131D02*
X142073Y106758D01*
X148371Y106758D02*
X148371Y113876D01*
X144812Y110317D01*
X149558Y110317D01*
X152296Y107944D02*
X153483Y106758D01*
X155855Y106758D01*
X157042Y107944D01*
X157042Y112690D01*
X155855Y113876D01*
X153483Y113876D01*
X152296Y112690D01*
X152296Y111503D01*
X153483Y110317D01*
X157042Y110317D01*
D12*
X284210Y122680D02*
X288210Y122680D01*
X288210Y129680D02*
X284210Y129680D01*
D11*
X300708Y131566D02*
X300708Y124448D01*
X300708Y131566D02*
X304267Y131566D01*
X305453Y130380D01*
X305453Y128007D01*
X304267Y126821D01*
X300708Y126821D01*
X303081Y126821D02*
X305453Y124448D01*
X308192Y131566D02*
X312938Y131566D01*
X308192Y131566D02*
X308192Y128007D01*
X310565Y129193D01*
X311751Y129193D01*
X312938Y128007D01*
X312938Y125634D01*
X311751Y124448D01*
X309379Y124448D01*
X308192Y125634D01*
X315676Y125634D02*
X315676Y130380D01*
X316863Y131566D01*
X319235Y131566D01*
X320422Y130380D01*
X320422Y125634D01*
X319235Y124448D01*
X316863Y124448D01*
X315676Y125634D01*
X320422Y130380D01*
D12*
X287990Y164180D02*
X283990Y164180D01*
X283990Y171180D02*
X287990Y171180D01*
D11*
X300088Y173656D02*
X300088Y166538D01*
X300088Y173656D02*
X303647Y173656D01*
X304833Y172470D01*
X304833Y170097D01*
X303647Y168911D01*
X300088Y168911D01*
X302461Y168911D02*
X304833Y166538D01*
X307572Y173656D02*
X312318Y173656D01*
X307572Y173656D02*
X307572Y170097D01*
X309945Y171283D01*
X311131Y171283D01*
X312318Y170097D01*
X312318Y167724D01*
X311131Y166538D01*
X308759Y166538D01*
X307572Y167724D01*
X315056Y171283D02*
X317429Y173656D01*
X317429Y166538D01*
X315056Y166538D02*
X319802Y166538D01*
D22*
X454695Y143000D02*
X455305Y143000D01*
D11*
X469327Y157251D02*
X470513Y156065D01*
X469327Y157251D02*
X466954Y157251D01*
X465768Y156065D01*
X465768Y151319D01*
X466954Y150133D01*
X469327Y150133D01*
X470513Y151319D01*
X475625Y156065D02*
X477998Y157251D01*
X475625Y156065D02*
X473252Y153692D01*
X473252Y151319D01*
X474439Y150133D01*
X476811Y150133D01*
X477998Y151319D01*
X477998Y152506D01*
X476811Y153692D01*
X473252Y153692D01*
X484295Y150133D02*
X484295Y157251D01*
X480736Y153692D01*
X485482Y153692D01*
D22*
X455305Y178000D02*
X454695Y178000D01*
D11*
X463679Y173877D02*
X464865Y175063D01*
X463679Y173877D02*
X463679Y171504D01*
X464865Y170318D01*
X469611Y170318D01*
X470797Y171504D01*
X470797Y173877D01*
X469611Y175063D01*
X464865Y180175D02*
X463679Y182548D01*
X464865Y180175D02*
X467238Y177802D01*
X469611Y177802D01*
X470797Y178989D01*
X470797Y181361D01*
X469611Y182548D01*
X468424Y182548D01*
X467238Y181361D01*
X467238Y177802D01*
X463679Y185286D02*
X463679Y190032D01*
X463679Y185286D02*
X467238Y185286D01*
X466052Y187659D01*
X466052Y188845D01*
X467238Y190032D01*
X469611Y190032D01*
X470797Y188845D01*
X470797Y186473D01*
X469611Y185286D01*
D22*
X285450Y154225D02*
X285450Y153615D01*
D11*
X302732Y159936D02*
X303918Y158750D01*
X302732Y159936D02*
X300359Y159936D01*
X299173Y158750D01*
X299173Y154004D01*
X300359Y152818D01*
X302732Y152818D01*
X303918Y154004D01*
X309030Y158750D02*
X311403Y159936D01*
X309030Y158750D02*
X306657Y156377D01*
X306657Y154004D01*
X307844Y152818D01*
X310216Y152818D01*
X311403Y154004D01*
X311403Y155191D01*
X310216Y156377D01*
X306657Y156377D01*
X316514Y158750D02*
X318887Y159936D01*
X316514Y158750D02*
X314141Y156377D01*
X314141Y154004D01*
X315328Y152818D01*
X317700Y152818D01*
X318887Y154004D01*
X318887Y155191D01*
X317700Y156377D01*
X314141Y156377D01*
D22*
X285330Y140265D02*
X285330Y139655D01*
D11*
X302982Y145636D02*
X304168Y144450D01*
X302982Y145636D02*
X300609Y145636D01*
X299423Y144450D01*
X299423Y139704D01*
X300609Y138518D01*
X302982Y138518D01*
X304168Y139704D01*
X309280Y144450D02*
X311653Y145636D01*
X309280Y144450D02*
X306907Y142077D01*
X306907Y139704D01*
X308094Y138518D01*
X310466Y138518D01*
X311653Y139704D01*
X311653Y140891D01*
X310466Y142077D01*
X306907Y142077D01*
X314391Y145636D02*
X319137Y145636D01*
X319137Y144450D01*
X314391Y139704D01*
X314391Y138518D01*
D16*
X128852Y146572D02*
X128852Y170466D01*
X128852Y146572D02*
X117176Y146572D01*
X117176Y170466D02*
X128852Y170466D01*
X117176Y170466D02*
X117176Y146572D01*
D11*
X133126Y157234D02*
X133126Y164352D01*
X133126Y157234D02*
X137871Y157234D01*
X142983Y163166D02*
X145355Y164352D01*
X142983Y163166D02*
X140610Y160793D01*
X140610Y158420D01*
X141796Y157234D01*
X144169Y157234D01*
X145355Y158420D01*
X145355Y159607D01*
X144169Y160793D01*
X140610Y160793D01*
D20*
X698650Y91780D02*
X711350Y91780D01*
X698650Y91780D02*
X692300Y98130D01*
X692300Y110830D02*
X698650Y117180D01*
X692300Y98130D02*
X685950Y91780D01*
X673250Y91780D01*
X666900Y98130D01*
X666900Y110830D02*
X673250Y117180D01*
X685950Y117180D01*
X692300Y110830D01*
X717700Y110830D02*
X717700Y98130D01*
X711350Y91780D01*
X717700Y110830D02*
X711350Y117180D01*
X698650Y117180D01*
X666900Y110830D02*
X666900Y98130D01*
D11*
X662972Y100394D02*
X661786Y99208D01*
X662972Y100394D02*
X662972Y101581D01*
X661786Y102767D01*
X655854Y102767D01*
X655854Y101581D02*
X655854Y103953D01*
X655854Y106692D02*
X655854Y111438D01*
X655854Y106692D02*
X659413Y106692D01*
X658227Y109065D01*
X658227Y110251D01*
X659413Y111438D01*
X661786Y111438D01*
X662972Y110251D01*
X662972Y107879D01*
X661786Y106692D01*
D12*
X176200Y167900D02*
X176200Y171900D01*
X183200Y171900D02*
X183200Y167900D01*
D11*
X172212Y162008D02*
X165094Y162008D01*
X165094Y165567D01*
X166280Y166753D01*
X168653Y166753D01*
X169839Y165567D01*
X169839Y162008D01*
X169839Y164381D02*
X172212Y166753D01*
X166280Y169492D02*
X165094Y170679D01*
X165094Y173051D01*
X166280Y174238D01*
X167467Y174238D01*
X168653Y173051D01*
X168653Y171865D01*
X168653Y173051D02*
X169839Y174238D01*
X171026Y174238D01*
X172212Y173051D01*
X172212Y170679D01*
X171026Y169492D01*
X166280Y176976D02*
X165094Y178163D01*
X165094Y180535D01*
X166280Y181722D01*
X167467Y181722D01*
X168653Y180535D01*
X169839Y181722D01*
X171026Y181722D01*
X172212Y180535D01*
X172212Y178163D01*
X171026Y176976D01*
X169839Y176976D01*
X168653Y178163D01*
X167467Y176976D01*
X166280Y176976D01*
X168653Y178163D02*
X168653Y180535D01*
D12*
X201050Y171900D02*
X201050Y167900D01*
X194050Y167900D02*
X194050Y171900D01*
D11*
X185098Y184258D02*
X185098Y191376D01*
X188657Y191376D01*
X189843Y190190D01*
X189843Y187817D01*
X188657Y186631D01*
X185098Y186631D01*
X187471Y186631D02*
X189843Y184258D01*
X192582Y191376D02*
X197328Y191376D01*
X192582Y191376D02*
X192582Y187817D01*
X194955Y189003D01*
X196141Y189003D01*
X197328Y187817D01*
X197328Y185444D01*
X196141Y184258D01*
X193769Y184258D01*
X192582Y185444D01*
X200066Y184258D02*
X204812Y184258D01*
X204812Y189003D02*
X200066Y184258D01*
X204812Y189003D02*
X204812Y190190D01*
X203625Y191376D01*
X201253Y191376D01*
X200066Y190190D01*
X215201Y196728D02*
X216387Y195542D01*
X215201Y196728D02*
X212828Y196728D01*
X211642Y195542D01*
X211642Y190796D01*
X212828Y189610D01*
X215201Y189610D01*
X216387Y190796D01*
X222685Y189610D02*
X222685Y196728D01*
X219126Y193169D01*
X223871Y193169D01*
X226610Y190796D02*
X227796Y189610D01*
X230169Y189610D01*
X231355Y190796D01*
X231355Y195542D01*
X230169Y196728D01*
X227796Y196728D01*
X226610Y195542D01*
X226610Y194355D01*
X227796Y193169D01*
X231355Y193169D01*
X248441Y197298D02*
X249627Y196112D01*
X248441Y197298D02*
X246068Y197298D01*
X244882Y196112D01*
X244882Y191366D01*
X246068Y190180D01*
X248441Y190180D01*
X249627Y191366D01*
X252366Y197298D02*
X257111Y197298D01*
X252366Y197298D02*
X252366Y193739D01*
X254739Y194925D01*
X255925Y194925D01*
X257111Y193739D01*
X257111Y191366D01*
X255925Y190180D01*
X253552Y190180D01*
X252366Y191366D01*
X259850Y194925D02*
X262223Y197298D01*
X262223Y190180D01*
X264595Y190180D02*
X259850Y190180D01*
D21*
X650000Y227460D02*
X650000Y244460D01*
X710000Y244460D01*
X710000Y227460D01*
X650000Y201460D02*
X650000Y184460D01*
X710000Y184460D01*
X710000Y201460D01*
D11*
X639600Y191933D02*
X638414Y190747D01*
X638414Y188374D01*
X639600Y187188D01*
X640787Y187188D01*
X641973Y188374D01*
X641973Y190747D01*
X643159Y191933D01*
X644346Y191933D01*
X645532Y190747D01*
X645532Y188374D01*
X644346Y187188D01*
X640787Y194672D02*
X638414Y197045D01*
X645532Y197045D01*
X645532Y194672D02*
X645532Y199418D01*
D21*
X650000Y180340D02*
X650000Y163340D01*
X650000Y180340D02*
X710000Y180340D01*
X710000Y163340D01*
X650000Y137340D02*
X650000Y120340D01*
X710000Y120340D01*
X710000Y137340D01*
D11*
X639930Y171383D02*
X638744Y170197D01*
X638744Y167824D01*
X639930Y166638D01*
X641117Y166638D01*
X642303Y167824D01*
X642303Y170197D01*
X643489Y171383D01*
X644676Y171383D01*
X645862Y170197D01*
X645862Y167824D01*
X644676Y166638D01*
X645862Y174122D02*
X645862Y178868D01*
X641117Y178868D02*
X645862Y174122D01*
X641117Y178868D02*
X639930Y178868D01*
X638744Y177681D01*
X638744Y175309D01*
X639930Y174122D01*
D21*
X598610Y191690D02*
X598610Y121690D01*
X528610Y121690D01*
X528610Y191690D01*
X598610Y191690D01*
D12*
X588110Y200190D02*
X588112Y200253D01*
X588118Y200315D01*
X588128Y200377D01*
X588141Y200439D01*
X588159Y200499D01*
X588180Y200558D01*
X588205Y200616D01*
X588234Y200672D01*
X588266Y200726D01*
X588301Y200778D01*
X588339Y200827D01*
X588381Y200875D01*
X588425Y200919D01*
X588473Y200961D01*
X588522Y200999D01*
X588574Y201034D01*
X588628Y201066D01*
X588684Y201095D01*
X588742Y201120D01*
X588801Y201141D01*
X588861Y201159D01*
X588923Y201172D01*
X588985Y201182D01*
X589047Y201188D01*
X589110Y201190D01*
X589173Y201188D01*
X589235Y201182D01*
X589297Y201172D01*
X589359Y201159D01*
X589419Y201141D01*
X589478Y201120D01*
X589536Y201095D01*
X589592Y201066D01*
X589646Y201034D01*
X589698Y200999D01*
X589747Y200961D01*
X589795Y200919D01*
X589839Y200875D01*
X589881Y200827D01*
X589919Y200778D01*
X589954Y200726D01*
X589986Y200672D01*
X590015Y200616D01*
X590040Y200558D01*
X590061Y200499D01*
X590079Y200439D01*
X590092Y200377D01*
X590102Y200315D01*
X590108Y200253D01*
X590110Y200190D01*
X590108Y200127D01*
X590102Y200065D01*
X590092Y200003D01*
X590079Y199941D01*
X590061Y199881D01*
X590040Y199822D01*
X590015Y199764D01*
X589986Y199708D01*
X589954Y199654D01*
X589919Y199602D01*
X589881Y199553D01*
X589839Y199505D01*
X589795Y199461D01*
X589747Y199419D01*
X589698Y199381D01*
X589646Y199346D01*
X589592Y199314D01*
X589536Y199285D01*
X589478Y199260D01*
X589419Y199239D01*
X589359Y199221D01*
X589297Y199208D01*
X589235Y199198D01*
X589173Y199192D01*
X589110Y199190D01*
X589047Y199192D01*
X588985Y199198D01*
X588923Y199208D01*
X588861Y199221D01*
X588801Y199239D01*
X588742Y199260D01*
X588684Y199285D01*
X588628Y199314D01*
X588574Y199346D01*
X588522Y199381D01*
X588473Y199419D01*
X588425Y199461D01*
X588381Y199505D01*
X588339Y199553D01*
X588301Y199602D01*
X588266Y199654D01*
X588234Y199708D01*
X588205Y199764D01*
X588180Y199822D01*
X588159Y199881D01*
X588141Y199941D01*
X588128Y200003D01*
X588118Y200065D01*
X588112Y200127D01*
X588110Y200190D01*
D13*
X553581Y116183D02*
X553581Y110040D01*
X554810Y108811D01*
X557267Y108811D01*
X558496Y110040D01*
X558496Y116183D01*
X561065Y114955D02*
X562294Y116183D01*
X564751Y116183D01*
X565980Y114955D01*
X565980Y113726D01*
X564751Y112497D01*
X565980Y111268D01*
X565980Y110040D01*
X564751Y108811D01*
X562294Y108811D01*
X561065Y110040D01*
X561065Y111268D01*
X562294Y112497D01*
X561065Y113726D01*
X561065Y114955D01*
X562294Y112497D02*
X564751Y112497D01*
D21*
X170240Y559660D02*
X140240Y559660D01*
X140240Y589660D01*
X170240Y589660D01*
X170240Y559660D01*
D10*
X162740Y601160D02*
X162742Y601223D01*
X162748Y601285D01*
X162758Y601347D01*
X162771Y601409D01*
X162789Y601469D01*
X162810Y601528D01*
X162835Y601586D01*
X162864Y601642D01*
X162896Y601696D01*
X162931Y601748D01*
X162969Y601797D01*
X163011Y601845D01*
X163055Y601889D01*
X163103Y601931D01*
X163152Y601969D01*
X163204Y602004D01*
X163258Y602036D01*
X163314Y602065D01*
X163372Y602090D01*
X163431Y602111D01*
X163491Y602129D01*
X163553Y602142D01*
X163615Y602152D01*
X163677Y602158D01*
X163740Y602160D01*
X163803Y602158D01*
X163865Y602152D01*
X163927Y602142D01*
X163989Y602129D01*
X164049Y602111D01*
X164108Y602090D01*
X164166Y602065D01*
X164222Y602036D01*
X164276Y602004D01*
X164328Y601969D01*
X164377Y601931D01*
X164425Y601889D01*
X164469Y601845D01*
X164511Y601797D01*
X164549Y601748D01*
X164584Y601696D01*
X164616Y601642D01*
X164645Y601586D01*
X164670Y601528D01*
X164691Y601469D01*
X164709Y601409D01*
X164722Y601347D01*
X164732Y601285D01*
X164738Y601223D01*
X164740Y601160D01*
X164738Y601097D01*
X164732Y601035D01*
X164722Y600973D01*
X164709Y600911D01*
X164691Y600851D01*
X164670Y600792D01*
X164645Y600734D01*
X164616Y600678D01*
X164584Y600624D01*
X164549Y600572D01*
X164511Y600523D01*
X164469Y600475D01*
X164425Y600431D01*
X164377Y600389D01*
X164328Y600351D01*
X164276Y600316D01*
X164222Y600284D01*
X164166Y600255D01*
X164108Y600230D01*
X164049Y600209D01*
X163989Y600191D01*
X163927Y600178D01*
X163865Y600168D01*
X163803Y600162D01*
X163740Y600160D01*
X163677Y600162D01*
X163615Y600168D01*
X163553Y600178D01*
X163491Y600191D01*
X163431Y600209D01*
X163372Y600230D01*
X163314Y600255D01*
X163258Y600284D01*
X163204Y600316D01*
X163152Y600351D01*
X163103Y600389D01*
X163055Y600431D01*
X163011Y600475D01*
X162969Y600523D01*
X162931Y600572D01*
X162896Y600624D01*
X162864Y600678D01*
X162835Y600734D01*
X162810Y600792D01*
X162789Y600851D01*
X162771Y600911D01*
X162758Y600973D01*
X162748Y601035D01*
X162742Y601097D01*
X162740Y601160D01*
D13*
X148143Y545195D02*
X148143Y539052D01*
X149371Y537823D01*
X151829Y537823D01*
X153058Y539052D01*
X153058Y545195D01*
X155627Y542738D02*
X158084Y545195D01*
X158084Y537823D01*
X155627Y537823D02*
X160542Y537823D01*
D21*
X402120Y57130D02*
X402120Y27130D01*
X402120Y57130D02*
X432120Y57130D01*
X432120Y27130D01*
X402120Y27130D01*
D10*
X442620Y33630D02*
X442622Y33693D01*
X442628Y33755D01*
X442638Y33817D01*
X442651Y33879D01*
X442669Y33939D01*
X442690Y33998D01*
X442715Y34056D01*
X442744Y34112D01*
X442776Y34166D01*
X442811Y34218D01*
X442849Y34267D01*
X442891Y34315D01*
X442935Y34359D01*
X442983Y34401D01*
X443032Y34439D01*
X443084Y34474D01*
X443138Y34506D01*
X443194Y34535D01*
X443252Y34560D01*
X443311Y34581D01*
X443371Y34599D01*
X443433Y34612D01*
X443495Y34622D01*
X443557Y34628D01*
X443620Y34630D01*
X443683Y34628D01*
X443745Y34622D01*
X443807Y34612D01*
X443869Y34599D01*
X443929Y34581D01*
X443988Y34560D01*
X444046Y34535D01*
X444102Y34506D01*
X444156Y34474D01*
X444208Y34439D01*
X444257Y34401D01*
X444305Y34359D01*
X444349Y34315D01*
X444391Y34267D01*
X444429Y34218D01*
X444464Y34166D01*
X444496Y34112D01*
X444525Y34056D01*
X444550Y33998D01*
X444571Y33939D01*
X444589Y33879D01*
X444602Y33817D01*
X444612Y33755D01*
X444618Y33693D01*
X444620Y33630D01*
X444618Y33567D01*
X444612Y33505D01*
X444602Y33443D01*
X444589Y33381D01*
X444571Y33321D01*
X444550Y33262D01*
X444525Y33204D01*
X444496Y33148D01*
X444464Y33094D01*
X444429Y33042D01*
X444391Y32993D01*
X444349Y32945D01*
X444305Y32901D01*
X444257Y32859D01*
X444208Y32821D01*
X444156Y32786D01*
X444102Y32754D01*
X444046Y32725D01*
X443988Y32700D01*
X443929Y32679D01*
X443869Y32661D01*
X443807Y32648D01*
X443745Y32638D01*
X443683Y32632D01*
X443620Y32630D01*
X443557Y32632D01*
X443495Y32638D01*
X443433Y32648D01*
X443371Y32661D01*
X443311Y32679D01*
X443252Y32700D01*
X443194Y32725D01*
X443138Y32754D01*
X443084Y32786D01*
X443032Y32821D01*
X442983Y32859D01*
X442935Y32901D01*
X442891Y32945D01*
X442849Y32993D01*
X442811Y33042D01*
X442776Y33094D01*
X442744Y33148D01*
X442715Y33204D01*
X442690Y33262D01*
X442669Y33321D01*
X442651Y33381D01*
X442638Y33443D01*
X442628Y33505D01*
X442622Y33567D01*
X442620Y33630D01*
D13*
X411751Y19603D02*
X411751Y13460D01*
X412980Y12231D01*
X415437Y12231D01*
X416666Y13460D01*
X416666Y19603D01*
X419235Y12231D02*
X424150Y12231D01*
X419235Y12231D02*
X424150Y17146D01*
X424150Y18375D01*
X422921Y19603D01*
X420464Y19603D01*
X419235Y18375D01*
X572797Y206411D02*
X580169Y206411D01*
X572797Y206411D02*
X572797Y210097D01*
X574025Y211326D01*
X576483Y211326D01*
X577712Y210097D01*
X577712Y206411D01*
X577712Y208868D02*
X580169Y211326D01*
X580169Y217581D02*
X572797Y217581D01*
X576483Y213895D01*
X576483Y218810D01*
X573049Y243261D02*
X565677Y243261D01*
X565677Y246947D01*
X566905Y248176D01*
X569363Y248176D01*
X570592Y246947D01*
X570592Y243261D01*
X570592Y245718D02*
X573049Y248176D01*
X565677Y250745D02*
X565677Y255660D01*
X565677Y250745D02*
X569363Y250745D01*
X568134Y253203D01*
X568134Y254431D01*
X569363Y255660D01*
X571820Y255660D01*
X573049Y254431D01*
X573049Y251974D01*
X571820Y250745D01*
X552119Y207201D02*
X544747Y207201D01*
X544747Y210887D01*
X545975Y212116D01*
X548433Y212116D01*
X549662Y210887D01*
X549662Y207201D01*
X549662Y209658D02*
X552119Y212116D01*
X544747Y214685D02*
X544747Y219600D01*
X545975Y219600D01*
X550890Y214685D01*
X552119Y214685D01*
X554297Y241841D02*
X561669Y241841D01*
X554297Y241841D02*
X554297Y245527D01*
X555525Y246756D01*
X557983Y246756D01*
X559212Y245527D01*
X559212Y241841D01*
X559212Y244298D02*
X561669Y246756D01*
X556754Y249325D02*
X554297Y251783D01*
X561669Y251783D01*
X561669Y254240D02*
X561669Y249325D01*
X560440Y256809D02*
X555525Y256809D01*
X554297Y258038D01*
X554297Y260495D01*
X555525Y261724D01*
X560440Y261724D01*
X561669Y260495D01*
X561669Y258038D01*
X560440Y256809D01*
X555525Y261724D01*
X573407Y89869D02*
X580779Y89869D01*
X573407Y89869D02*
X573407Y93555D01*
X574635Y94784D01*
X577093Y94784D01*
X578322Y93555D01*
X578322Y89869D01*
X578322Y92326D02*
X580779Y94784D01*
X575864Y97353D02*
X573407Y99811D01*
X580779Y99811D01*
X580779Y102268D02*
X580779Y97353D01*
X575864Y104837D02*
X573407Y107295D01*
X580779Y107295D01*
X580779Y109752D02*
X580779Y104837D01*
X585345Y89291D02*
X592717Y89291D01*
X585345Y89291D02*
X585345Y92977D01*
X586573Y94206D01*
X589031Y94206D01*
X590260Y92977D01*
X590260Y89291D01*
X590260Y91748D02*
X592717Y94206D01*
X587802Y96775D02*
X585345Y99233D01*
X592717Y99233D01*
X592717Y101690D02*
X592717Y96775D01*
X586573Y104259D02*
X585345Y105488D01*
X585345Y107945D01*
X586573Y109174D01*
X587802Y109174D01*
X589031Y107945D01*
X589031Y106717D01*
X589031Y107945D02*
X590260Y109174D01*
X591488Y109174D01*
X592717Y107945D01*
X592717Y105488D01*
X591488Y104259D01*
X519719Y205451D02*
X512347Y205451D01*
X512347Y209137D01*
X513575Y210366D01*
X516033Y210366D01*
X517262Y209137D01*
X517262Y205451D01*
X517262Y207908D02*
X519719Y210366D01*
X519719Y212935D02*
X519719Y217850D01*
X519719Y212935D02*
X514804Y217850D01*
X513575Y217850D01*
X512347Y216621D01*
X512347Y214164D01*
X513575Y212935D01*
X513575Y220419D02*
X512347Y221648D01*
X512347Y224105D01*
X513575Y225334D01*
X514804Y225334D01*
X516033Y224105D01*
X516033Y222877D01*
X516033Y224105D02*
X517262Y225334D01*
X518490Y225334D01*
X519719Y224105D01*
X519719Y221648D01*
X518490Y220419D01*
D24*
X155375Y617290D02*
X154765Y617290D01*
D13*
X166322Y611367D02*
X167550Y612596D01*
X166322Y611367D02*
X166322Y608910D01*
X167550Y607681D01*
X172465Y607681D01*
X173694Y608910D01*
X173694Y611367D01*
X172465Y612596D01*
X166322Y615165D02*
X166322Y620080D01*
X167550Y620080D01*
X172465Y615165D01*
X173694Y615165D01*
X173694Y626335D02*
X166322Y626335D01*
X170008Y622649D01*
X170008Y627564D01*
D24*
X109715Y574870D02*
X109105Y574870D01*
D13*
X104912Y598047D02*
X106140Y599276D01*
X104912Y598047D02*
X104912Y595590D01*
X106140Y594361D01*
X111055Y594361D01*
X112284Y595590D01*
X112284Y598047D01*
X111055Y599276D01*
X104912Y601845D02*
X104912Y606760D01*
X106140Y606760D01*
X111055Y601845D01*
X112284Y601845D01*
X104912Y609329D02*
X104912Y614244D01*
X104912Y609329D02*
X108598Y609329D01*
X107369Y611787D01*
X107369Y613015D01*
X108598Y614244D01*
X111055Y614244D01*
X112284Y613015D01*
X112284Y610558D01*
X111055Y609329D01*
X119057Y583481D02*
X126429Y583481D01*
X119057Y583481D02*
X119057Y587167D01*
X120285Y588396D01*
X122743Y588396D01*
X123972Y587167D01*
X123972Y583481D01*
X123972Y585938D02*
X126429Y588396D01*
X126429Y590965D02*
X126429Y595880D01*
X126429Y590965D02*
X121514Y595880D01*
X120285Y595880D01*
X119057Y594651D01*
X119057Y592194D01*
X120285Y590965D01*
X120285Y598449D02*
X119057Y599678D01*
X119057Y602135D01*
X120285Y603364D01*
X121514Y603364D01*
X122743Y602135D01*
X123972Y603364D01*
X125200Y603364D01*
X126429Y602135D01*
X126429Y599678D01*
X125200Y598449D01*
X123972Y598449D01*
X122743Y599678D01*
X121514Y598449D01*
X120285Y598449D01*
X122743Y599678D02*
X122743Y602135D01*
D16*
X635750Y346410D02*
X635750Y340410D01*
X647750Y340410D02*
X647750Y346410D01*
D13*
X638382Y363827D02*
X639610Y365056D01*
X638382Y363827D02*
X638382Y361370D01*
X639610Y360141D01*
X644525Y360141D01*
X645754Y361370D01*
X645754Y363827D01*
X644525Y365056D01*
X638382Y367625D02*
X638382Y372540D01*
X639610Y372540D01*
X644525Y367625D01*
X645754Y367625D01*
X639610Y375109D02*
X638382Y376338D01*
X638382Y378795D01*
X639610Y380024D01*
X640839Y380024D01*
X642068Y378795D01*
X642068Y377567D01*
X642068Y378795D02*
X643297Y380024D01*
X644525Y380024D01*
X645754Y378795D01*
X645754Y376338D01*
X644525Y375109D01*
D16*
X352160Y279750D02*
X352160Y240250D01*
X303160Y240250D01*
X303160Y279750D01*
X352160Y279750D01*
D12*
X346160Y301500D02*
X346162Y301563D01*
X346168Y301625D01*
X346178Y301687D01*
X346191Y301749D01*
X346209Y301809D01*
X346230Y301868D01*
X346255Y301926D01*
X346284Y301982D01*
X346316Y302036D01*
X346351Y302088D01*
X346389Y302137D01*
X346431Y302185D01*
X346475Y302229D01*
X346523Y302271D01*
X346572Y302309D01*
X346624Y302344D01*
X346678Y302376D01*
X346734Y302405D01*
X346792Y302430D01*
X346851Y302451D01*
X346911Y302469D01*
X346973Y302482D01*
X347035Y302492D01*
X347097Y302498D01*
X347160Y302500D01*
X347223Y302498D01*
X347285Y302492D01*
X347347Y302482D01*
X347409Y302469D01*
X347469Y302451D01*
X347528Y302430D01*
X347586Y302405D01*
X347642Y302376D01*
X347696Y302344D01*
X347748Y302309D01*
X347797Y302271D01*
X347845Y302229D01*
X347889Y302185D01*
X347931Y302137D01*
X347969Y302088D01*
X348004Y302036D01*
X348036Y301982D01*
X348065Y301926D01*
X348090Y301868D01*
X348111Y301809D01*
X348129Y301749D01*
X348142Y301687D01*
X348152Y301625D01*
X348158Y301563D01*
X348160Y301500D01*
X348158Y301437D01*
X348152Y301375D01*
X348142Y301313D01*
X348129Y301251D01*
X348111Y301191D01*
X348090Y301132D01*
X348065Y301074D01*
X348036Y301018D01*
X348004Y300964D01*
X347969Y300912D01*
X347931Y300863D01*
X347889Y300815D01*
X347845Y300771D01*
X347797Y300729D01*
X347748Y300691D01*
X347696Y300656D01*
X347642Y300624D01*
X347586Y300595D01*
X347528Y300570D01*
X347469Y300549D01*
X347409Y300531D01*
X347347Y300518D01*
X347285Y300508D01*
X347223Y300502D01*
X347160Y300500D01*
X347097Y300502D01*
X347035Y300508D01*
X346973Y300518D01*
X346911Y300531D01*
X346851Y300549D01*
X346792Y300570D01*
X346734Y300595D01*
X346678Y300624D01*
X346624Y300656D01*
X346572Y300691D01*
X346523Y300729D01*
X346475Y300771D01*
X346431Y300815D01*
X346389Y300863D01*
X346351Y300912D01*
X346316Y300964D01*
X346284Y301018D01*
X346255Y301074D01*
X346230Y301132D01*
X346209Y301191D01*
X346191Y301251D01*
X346178Y301313D01*
X346168Y301375D01*
X346162Y301437D01*
X346160Y301500D01*
D13*
X287401Y249973D02*
X287401Y243830D01*
X288630Y242601D01*
X291087Y242601D01*
X292316Y243830D01*
X292316Y249973D01*
X294885Y243830D02*
X296114Y242601D01*
X298571Y242601D01*
X299800Y243830D01*
X299800Y248745D01*
X298571Y249973D01*
X296114Y249973D01*
X294885Y248745D01*
X294885Y247516D01*
X296114Y246287D01*
X299800Y246287D01*
X281489Y290151D02*
X274117Y290151D01*
X274117Y293837D01*
X275345Y295066D01*
X277803Y295066D01*
X279032Y293837D01*
X279032Y290151D01*
X279032Y292608D02*
X281489Y295066D01*
X275345Y297635D02*
X274117Y298864D01*
X274117Y301321D01*
X275345Y302550D01*
X276574Y302550D01*
X277803Y301321D01*
X277803Y300093D01*
X277803Y301321D02*
X279032Y302550D01*
X280260Y302550D01*
X281489Y301321D01*
X281489Y298864D01*
X280260Y297635D01*
X280260Y305119D02*
X275345Y305119D01*
X274117Y306348D01*
X274117Y308805D01*
X275345Y310034D01*
X280260Y310034D01*
X281489Y308805D01*
X281489Y306348D01*
X280260Y305119D01*
X275345Y310034D01*
X285037Y290341D02*
X292409Y290341D01*
X285037Y290341D02*
X285037Y294027D01*
X286265Y295256D01*
X288723Y295256D01*
X289952Y294027D01*
X289952Y290341D01*
X289952Y292798D02*
X292409Y295256D01*
X286265Y297825D02*
X285037Y299054D01*
X285037Y301511D01*
X286265Y302740D01*
X287494Y302740D01*
X288723Y301511D01*
X288723Y300283D01*
X288723Y301511D02*
X289952Y302740D01*
X291180Y302740D01*
X292409Y301511D01*
X292409Y299054D01*
X291180Y297825D01*
X287494Y305309D02*
X285037Y307767D01*
X292409Y307767D01*
X292409Y310224D02*
X292409Y305309D01*
X296227Y290151D02*
X303599Y290151D01*
X296227Y290151D02*
X296227Y293837D01*
X297455Y295066D01*
X299913Y295066D01*
X301142Y293837D01*
X301142Y290151D01*
X301142Y292608D02*
X303599Y295066D01*
X297455Y297635D02*
X296227Y298864D01*
X296227Y301321D01*
X297455Y302550D01*
X298684Y302550D01*
X299913Y301321D01*
X299913Y300093D01*
X299913Y301321D02*
X301142Y302550D01*
X302370Y302550D01*
X303599Y301321D01*
X303599Y298864D01*
X302370Y297635D01*
X303599Y305119D02*
X303599Y310034D01*
X303599Y305119D02*
X298684Y310034D01*
X297455Y310034D01*
X296227Y308805D01*
X296227Y306348D01*
X297455Y305119D01*
X330317Y185401D02*
X337689Y185401D01*
X330317Y185401D02*
X330317Y189087D01*
X331545Y190316D01*
X334003Y190316D01*
X335232Y189087D01*
X335232Y185401D01*
X335232Y187858D02*
X337689Y190316D01*
X331545Y192885D02*
X330317Y194114D01*
X330317Y196571D01*
X331545Y197800D01*
X332774Y197800D01*
X334003Y196571D01*
X334003Y195343D01*
X334003Y196571D02*
X335232Y197800D01*
X336460Y197800D01*
X337689Y196571D01*
X337689Y194114D01*
X336460Y192885D01*
X331545Y200369D02*
X330317Y201598D01*
X330317Y204055D01*
X331545Y205284D01*
X332774Y205284D01*
X334003Y204055D01*
X334003Y202827D01*
X334003Y204055D02*
X335232Y205284D01*
X336460Y205284D01*
X337689Y204055D01*
X337689Y201598D01*
X336460Y200369D01*
D22*
X346405Y209400D02*
X347015Y209400D01*
D11*
X343770Y180293D02*
X342584Y179107D01*
X342584Y176734D01*
X343770Y175548D01*
X348516Y175548D01*
X349702Y176734D01*
X349702Y179107D01*
X348516Y180293D01*
X342584Y183032D02*
X342584Y187778D01*
X342584Y183032D02*
X346143Y183032D01*
X344957Y185405D01*
X344957Y186591D01*
X346143Y187778D01*
X348516Y187778D01*
X349702Y186591D01*
X349702Y184219D01*
X348516Y183032D01*
X343770Y190516D02*
X342584Y191703D01*
X342584Y194075D01*
X343770Y195262D01*
X344957Y195262D01*
X346143Y194075D01*
X346143Y192889D01*
X346143Y194075D02*
X347329Y195262D01*
X348516Y195262D01*
X349702Y194075D01*
X349702Y191703D01*
X348516Y190516D01*
D13*
X492193Y94571D02*
X499565Y94571D01*
X492193Y94571D02*
X492193Y98257D01*
X493421Y99486D01*
X495879Y99486D01*
X497108Y98257D01*
X497108Y94571D01*
X497108Y97028D02*
X499565Y99486D01*
X493421Y102055D02*
X492193Y103284D01*
X492193Y105741D01*
X493421Y106970D01*
X494650Y106970D01*
X495879Y105741D01*
X495879Y104513D01*
X495879Y105741D02*
X497108Y106970D01*
X498336Y106970D01*
X499565Y105741D01*
X499565Y103284D01*
X498336Y102055D01*
X499565Y113225D02*
X492193Y113225D01*
X495879Y109539D01*
X495879Y114454D01*
D12*
X262350Y48570D02*
X258350Y48570D01*
X258350Y55570D02*
X262350Y55570D01*
D11*
X273758Y58076D02*
X273758Y50958D01*
X273758Y58076D02*
X277317Y58076D01*
X278503Y56890D01*
X278503Y54517D01*
X277317Y53331D01*
X273758Y53331D01*
X276131Y53331D02*
X278503Y50958D01*
X281242Y56890D02*
X282429Y58076D01*
X284801Y58076D01*
X285988Y56890D01*
X285988Y55703D01*
X284801Y54517D01*
X283615Y54517D01*
X284801Y54517D02*
X285988Y53331D01*
X285988Y52144D01*
X284801Y50958D01*
X282429Y50958D01*
X281242Y52144D01*
X291099Y56890D02*
X293472Y58076D01*
X291099Y56890D02*
X288726Y54517D01*
X288726Y52144D01*
X289913Y50958D01*
X292285Y50958D01*
X293472Y52144D01*
X293472Y53331D01*
X292285Y54517D01*
X288726Y54517D01*
D16*
X158016Y173218D02*
X134122Y173218D01*
X134122Y184894D01*
X158016Y184894D02*
X158016Y173218D01*
X158016Y184894D02*
X134122Y184894D01*
D11*
X119888Y182886D02*
X119888Y175768D01*
X124633Y175768D01*
X127372Y182886D02*
X132118Y182886D01*
X127372Y182886D02*
X127372Y179327D01*
X129745Y180513D01*
X130931Y180513D01*
X132118Y179327D01*
X132118Y176954D01*
X130931Y175768D01*
X128559Y175768D01*
X127372Y176954D01*
D13*
X645477Y307727D02*
X646705Y308956D01*
X645477Y307727D02*
X645477Y305270D01*
X646705Y304041D01*
X651620Y304041D01*
X652849Y305270D01*
X652849Y307727D01*
X651620Y308956D01*
X652849Y315211D02*
X645477Y315211D01*
X649163Y311525D01*
X649163Y316440D01*
X645477Y319009D02*
X645477Y323924D01*
X646705Y323924D01*
X651620Y319009D01*
X652849Y319009D01*
X702087Y417827D02*
X703315Y419056D01*
X702087Y417827D02*
X702087Y415370D01*
X703315Y414141D01*
X708230Y414141D01*
X709459Y415370D01*
X709459Y417827D01*
X708230Y419056D01*
X709459Y425311D02*
X702087Y425311D01*
X705773Y421625D01*
X705773Y426540D01*
X703315Y429109D02*
X702087Y430338D01*
X702087Y432795D01*
X703315Y434024D01*
X704544Y434024D01*
X705773Y432795D01*
X707002Y434024D01*
X708230Y434024D01*
X709459Y432795D01*
X709459Y430338D01*
X708230Y429109D01*
X707002Y429109D01*
X705773Y430338D01*
X704544Y429109D01*
X703315Y429109D01*
X705773Y430338D02*
X705773Y432795D01*
D16*
X650820Y401460D02*
X650820Y395460D01*
X638820Y395460D02*
X638820Y401460D01*
D13*
X642192Y418407D02*
X643420Y419636D01*
X642192Y418407D02*
X642192Y415950D01*
X643420Y414721D01*
X648335Y414721D01*
X649564Y415950D01*
X649564Y418407D01*
X648335Y419636D01*
X642192Y422205D02*
X642192Y427120D01*
X642192Y422205D02*
X645878Y422205D01*
X644649Y424663D01*
X644649Y425891D01*
X645878Y427120D01*
X648335Y427120D01*
X649564Y425891D01*
X649564Y423434D01*
X648335Y422205D01*
X642192Y429689D02*
X642192Y434604D01*
X643420Y434604D01*
X648335Y429689D01*
X649564Y429689D01*
D16*
X632340Y401780D02*
X632340Y395780D01*
X620340Y395780D02*
X620340Y401780D01*
D13*
X631462Y418087D02*
X632690Y419316D01*
X631462Y418087D02*
X631462Y415630D01*
X632690Y414401D01*
X637605Y414401D01*
X638834Y415630D01*
X638834Y418087D01*
X637605Y419316D01*
X631462Y421885D02*
X631462Y426800D01*
X631462Y421885D02*
X635148Y421885D01*
X633919Y424343D01*
X633919Y425571D01*
X635148Y426800D01*
X637605Y426800D01*
X638834Y425571D01*
X638834Y423114D01*
X637605Y421885D01*
X632690Y429369D02*
X631462Y430598D01*
X631462Y433055D01*
X632690Y434284D01*
X633919Y434284D01*
X635148Y433055D01*
X636377Y434284D01*
X637605Y434284D01*
X638834Y433055D01*
X638834Y430598D01*
X637605Y429369D01*
X636377Y429369D01*
X635148Y430598D01*
X633919Y429369D01*
X632690Y429369D01*
X635148Y430598D02*
X635148Y433055D01*
X605825Y383155D02*
X607053Y381927D01*
X605825Y383155D02*
X603367Y383155D01*
X602139Y381927D01*
X602139Y377012D01*
X603367Y375783D01*
X605825Y375783D01*
X607053Y377012D01*
X609623Y383155D02*
X614538Y383155D01*
X614538Y381927D01*
X609623Y377012D01*
X609623Y375783D01*
X617107Y377012D02*
X617107Y381927D01*
X618336Y383155D01*
X620793Y383155D01*
X622022Y381927D01*
X622022Y377012D01*
X620793Y375783D01*
X618336Y375783D01*
X617107Y377012D01*
X622022Y381927D01*
X615989Y430447D02*
X608617Y430447D01*
X608617Y434133D01*
X609845Y435362D01*
X612303Y435362D01*
X613532Y434133D01*
X613532Y430447D01*
X613532Y432904D02*
X615989Y435362D01*
X615989Y437931D02*
X615989Y442846D01*
X615989Y437931D02*
X611074Y442846D01*
X609845Y442846D01*
X608617Y441617D01*
X608617Y439160D01*
X609845Y437931D01*
X608617Y445415D02*
X608617Y450330D01*
X608617Y445415D02*
X612303Y445415D01*
X611074Y447873D01*
X611074Y449101D01*
X612303Y450330D01*
X614760Y450330D01*
X615989Y449101D01*
X615989Y446644D01*
X614760Y445415D01*
D21*
X596040Y383220D02*
X566040Y383220D01*
X566040Y413220D01*
X596040Y413220D01*
X596040Y383220D01*
D25*
X602040Y390220D02*
X602042Y390283D01*
X602048Y390345D01*
X602058Y390407D01*
X602071Y390469D01*
X602089Y390529D01*
X602110Y390588D01*
X602135Y390646D01*
X602164Y390702D01*
X602196Y390756D01*
X602231Y390808D01*
X602269Y390857D01*
X602311Y390905D01*
X602355Y390949D01*
X602403Y390991D01*
X602452Y391029D01*
X602504Y391064D01*
X602558Y391096D01*
X602614Y391125D01*
X602672Y391150D01*
X602731Y391171D01*
X602791Y391189D01*
X602853Y391202D01*
X602915Y391212D01*
X602977Y391218D01*
X603040Y391220D01*
X603103Y391218D01*
X603165Y391212D01*
X603227Y391202D01*
X603289Y391189D01*
X603349Y391171D01*
X603408Y391150D01*
X603466Y391125D01*
X603522Y391096D01*
X603576Y391064D01*
X603628Y391029D01*
X603677Y390991D01*
X603725Y390949D01*
X603769Y390905D01*
X603811Y390857D01*
X603849Y390808D01*
X603884Y390756D01*
X603916Y390702D01*
X603945Y390646D01*
X603970Y390588D01*
X603991Y390529D01*
X604009Y390469D01*
X604022Y390407D01*
X604032Y390345D01*
X604038Y390283D01*
X604040Y390220D01*
X604038Y390157D01*
X604032Y390095D01*
X604022Y390033D01*
X604009Y389971D01*
X603991Y389911D01*
X603970Y389852D01*
X603945Y389794D01*
X603916Y389738D01*
X603884Y389684D01*
X603849Y389632D01*
X603811Y389583D01*
X603769Y389535D01*
X603725Y389491D01*
X603677Y389449D01*
X603628Y389411D01*
X603576Y389376D01*
X603522Y389344D01*
X603466Y389315D01*
X603408Y389290D01*
X603349Y389269D01*
X603289Y389251D01*
X603227Y389238D01*
X603165Y389228D01*
X603103Y389222D01*
X603040Y389220D01*
X602977Y389222D01*
X602915Y389228D01*
X602853Y389238D01*
X602791Y389251D01*
X602731Y389269D01*
X602672Y389290D01*
X602614Y389315D01*
X602558Y389344D01*
X602504Y389376D01*
X602452Y389411D01*
X602403Y389449D01*
X602355Y389491D01*
X602311Y389535D01*
X602269Y389583D01*
X602231Y389632D01*
X602196Y389684D01*
X602164Y389738D01*
X602135Y389794D01*
X602110Y389852D01*
X602089Y389911D01*
X602071Y389971D01*
X602058Y390033D01*
X602048Y390095D01*
X602042Y390157D01*
X602040Y390220D01*
D13*
X567828Y416273D02*
X561685Y416273D01*
X567828Y416273D02*
X569057Y417501D01*
X569057Y419959D01*
X567828Y421188D01*
X561685Y421188D01*
X562913Y426214D02*
X561685Y428672D01*
X562913Y426214D02*
X565371Y423757D01*
X567828Y423757D01*
X569057Y424986D01*
X569057Y427443D01*
X567828Y428672D01*
X566600Y428672D01*
X565371Y427443D01*
X565371Y423757D01*
D16*
X546460Y426960D02*
X540460Y426960D01*
X540460Y414960D02*
X546460Y414960D01*
D13*
X511926Y425580D02*
X510697Y426808D01*
X508240Y426808D01*
X507011Y425580D01*
X507011Y420665D01*
X508240Y419436D01*
X510697Y419436D01*
X511926Y420665D01*
X514495Y426808D02*
X519410Y426808D01*
X514495Y426808D02*
X514495Y423122D01*
X516953Y424351D01*
X518181Y424351D01*
X519410Y423122D01*
X519410Y420665D01*
X518181Y419436D01*
X515724Y419436D01*
X514495Y420665D01*
X521979Y420665D02*
X523208Y419436D01*
X525665Y419436D01*
X526894Y420665D01*
X526894Y425580D01*
X525665Y426808D01*
X523208Y426808D01*
X521979Y425580D01*
X521979Y424351D01*
X523208Y423122D01*
X526894Y423122D01*
D16*
X583980Y434010D02*
X583980Y440010D01*
X571980Y440010D02*
X571980Y434010D01*
D13*
X574412Y457327D02*
X575640Y458556D01*
X574412Y457327D02*
X574412Y454870D01*
X575640Y453641D01*
X580555Y453641D01*
X581784Y454870D01*
X581784Y457327D01*
X580555Y458556D01*
X574412Y461125D02*
X574412Y466040D01*
X575640Y466040D01*
X580555Y461125D01*
X581784Y461125D01*
X576869Y468609D02*
X574412Y471067D01*
X581784Y471067D01*
X581784Y473524D02*
X581784Y468609D01*
X591357Y453541D02*
X598729Y453541D01*
X591357Y453541D02*
X591357Y457227D01*
X592585Y458456D01*
X595043Y458456D01*
X596272Y457227D01*
X596272Y453541D01*
X596272Y455998D02*
X598729Y458456D01*
X598729Y461025D02*
X598729Y465940D01*
X598729Y461025D02*
X593814Y465940D01*
X592585Y465940D01*
X591357Y464711D01*
X591357Y462254D01*
X592585Y461025D01*
X592585Y470967D02*
X591357Y473424D01*
X592585Y470967D02*
X595043Y468509D01*
X597500Y468509D01*
X598729Y469738D01*
X598729Y472195D01*
X597500Y473424D01*
X596272Y473424D01*
X595043Y472195D01*
X595043Y468509D01*
D16*
X556630Y399490D02*
X556630Y393490D01*
X544630Y393490D02*
X544630Y399490D01*
D13*
X481748Y388223D02*
X480520Y386995D01*
X480520Y384537D01*
X481748Y383309D01*
X486663Y383309D01*
X487892Y384537D01*
X487892Y386995D01*
X486663Y388223D01*
X480520Y390793D02*
X480520Y395708D01*
X481748Y395708D01*
X486663Y390793D01*
X487892Y390793D01*
X487892Y398277D02*
X487892Y403192D01*
X487892Y398277D02*
X482977Y403192D01*
X481748Y403192D01*
X480520Y401963D01*
X480520Y399506D01*
X481748Y398277D01*
D16*
X538850Y399880D02*
X538850Y393880D01*
X526850Y393880D02*
X526850Y399880D01*
D13*
X472858Y388613D02*
X471630Y387385D01*
X471630Y384927D01*
X472858Y383699D01*
X477773Y383699D01*
X479002Y384927D01*
X479002Y387385D01*
X477773Y388613D01*
X471630Y391183D02*
X471630Y396098D01*
X472858Y396098D01*
X477773Y391183D01*
X479002Y391183D01*
X472858Y398667D02*
X471630Y399896D01*
X471630Y402353D01*
X472858Y403582D01*
X474087Y403582D01*
X475316Y402353D01*
X476545Y403582D01*
X477773Y403582D01*
X479002Y402353D01*
X479002Y399896D01*
X477773Y398667D01*
X476545Y398667D01*
X475316Y399896D01*
X474087Y398667D01*
X472858Y398667D01*
X475316Y399896D02*
X475316Y402353D01*
D16*
X503570Y399740D02*
X503570Y393740D01*
X491570Y393740D02*
X491570Y399740D01*
D13*
X454088Y388473D02*
X452860Y387245D01*
X452860Y384787D01*
X454088Y383559D01*
X459003Y383559D01*
X460232Y384787D01*
X460232Y387245D01*
X459003Y388473D01*
X452860Y391043D02*
X452860Y395958D01*
X454088Y395958D01*
X459003Y391043D01*
X460232Y391043D01*
X459003Y398527D02*
X460232Y399756D01*
X460232Y402213D01*
X459003Y403442D01*
X454088Y403442D01*
X452860Y402213D01*
X452860Y399756D01*
X454088Y398527D01*
X455317Y398527D01*
X456546Y399756D01*
X456546Y403442D01*
D16*
X521050Y399660D02*
X521050Y393660D01*
X509050Y393660D02*
X509050Y399660D01*
D13*
X463948Y388393D02*
X462720Y387165D01*
X462720Y384707D01*
X463948Y383479D01*
X468863Y383479D01*
X470092Y384707D01*
X470092Y387165D01*
X468863Y388393D01*
X463948Y390963D02*
X462720Y392191D01*
X462720Y394649D01*
X463948Y395878D01*
X465177Y395878D01*
X466406Y394649D01*
X467635Y395878D01*
X468863Y395878D01*
X470092Y394649D01*
X470092Y392191D01*
X468863Y390963D01*
X467635Y390963D01*
X466406Y392191D01*
X465177Y390963D01*
X463948Y390963D01*
X466406Y392191D02*
X466406Y394649D01*
X468863Y398447D02*
X463948Y398447D01*
X462720Y399676D01*
X462720Y402133D01*
X463948Y403362D01*
X468863Y403362D01*
X470092Y402133D01*
X470092Y399676D01*
X468863Y398447D01*
X463948Y403362D01*
X607823Y372207D02*
X609051Y370979D01*
X607823Y372207D02*
X605365Y372207D01*
X604137Y370979D01*
X604137Y366064D01*
X605365Y364835D01*
X607823Y364835D01*
X609051Y366064D01*
X611621Y370979D02*
X612849Y372207D01*
X615307Y372207D01*
X616536Y370979D01*
X616536Y369750D01*
X615307Y368521D01*
X616536Y367292D01*
X616536Y366064D01*
X615307Y364835D01*
X612849Y364835D01*
X611621Y366064D01*
X611621Y367292D01*
X612849Y368521D01*
X611621Y369750D01*
X611621Y370979D01*
X612849Y368521D02*
X615307Y368521D01*
X619105Y369750D02*
X621562Y372207D01*
X621562Y364835D01*
X619105Y364835D02*
X624020Y364835D01*
X539416Y370215D02*
X538187Y371443D01*
X535730Y371443D01*
X534501Y370215D01*
X534501Y365300D01*
X535730Y364071D01*
X538187Y364071D01*
X539416Y365300D01*
X541985Y370215D02*
X543214Y371443D01*
X545671Y371443D01*
X546900Y370215D01*
X546900Y368986D01*
X545671Y367757D01*
X546900Y366528D01*
X546900Y365300D01*
X545671Y364071D01*
X543214Y364071D01*
X541985Y365300D01*
X541985Y366528D01*
X543214Y367757D01*
X541985Y368986D01*
X541985Y370215D01*
X543214Y367757D02*
X545671Y367757D01*
X549469Y364071D02*
X554384Y364071D01*
X549469Y364071D02*
X554384Y368986D01*
X554384Y370215D01*
X553155Y371443D01*
X550698Y371443D01*
X549469Y370215D01*
D25*
X636050Y316520D02*
X636052Y316583D01*
X636058Y316645D01*
X636068Y316707D01*
X636081Y316769D01*
X636099Y316829D01*
X636120Y316888D01*
X636145Y316946D01*
X636174Y317002D01*
X636206Y317056D01*
X636241Y317108D01*
X636279Y317157D01*
X636321Y317205D01*
X636365Y317249D01*
X636413Y317291D01*
X636462Y317329D01*
X636514Y317364D01*
X636568Y317396D01*
X636624Y317425D01*
X636682Y317450D01*
X636741Y317471D01*
X636801Y317489D01*
X636863Y317502D01*
X636925Y317512D01*
X636987Y317518D01*
X637050Y317520D01*
X637113Y317518D01*
X637175Y317512D01*
X637237Y317502D01*
X637299Y317489D01*
X637359Y317471D01*
X637418Y317450D01*
X637476Y317425D01*
X637532Y317396D01*
X637586Y317364D01*
X637638Y317329D01*
X637687Y317291D01*
X637735Y317249D01*
X637779Y317205D01*
X637821Y317157D01*
X637859Y317108D01*
X637894Y317056D01*
X637926Y317002D01*
X637955Y316946D01*
X637980Y316888D01*
X638001Y316829D01*
X638019Y316769D01*
X638032Y316707D01*
X638042Y316645D01*
X638048Y316583D01*
X638050Y316520D01*
X638048Y316457D01*
X638042Y316395D01*
X638032Y316333D01*
X638019Y316271D01*
X638001Y316211D01*
X637980Y316152D01*
X637955Y316094D01*
X637926Y316038D01*
X637894Y315984D01*
X637859Y315932D01*
X637821Y315883D01*
X637779Y315835D01*
X637735Y315791D01*
X637687Y315749D01*
X637638Y315711D01*
X637586Y315676D01*
X637532Y315644D01*
X637476Y315615D01*
X637418Y315590D01*
X637359Y315569D01*
X637299Y315551D01*
X637237Y315538D01*
X637175Y315528D01*
X637113Y315522D01*
X637050Y315520D01*
X636987Y315522D01*
X636925Y315528D01*
X636863Y315538D01*
X636801Y315551D01*
X636741Y315569D01*
X636682Y315590D01*
X636624Y315615D01*
X636568Y315644D01*
X636514Y315676D01*
X636462Y315711D01*
X636413Y315749D01*
X636365Y315791D01*
X636321Y315835D01*
X636279Y315883D01*
X636241Y315932D01*
X636206Y315984D01*
X636174Y316038D01*
X636145Y316094D01*
X636120Y316152D01*
X636099Y316211D01*
X636081Y316271D01*
X636068Y316333D01*
X636058Y316395D01*
X636052Y316457D01*
X636050Y316520D01*
D21*
X622350Y273020D02*
X541350Y273020D01*
X541350Y351020D01*
X622350Y351020D01*
X622350Y273020D01*
D13*
X581121Y266973D02*
X581121Y259601D01*
X586036Y259601D01*
X588605Y264516D02*
X591063Y266973D01*
X591063Y259601D01*
X593520Y259601D02*
X588605Y259601D01*
D21*
X640010Y725678D02*
X479990Y725678D01*
X640010Y725678D02*
X640010Y509778D01*
X479990Y509778D01*
X479990Y725678D01*
D13*
X552181Y499638D02*
X553410Y498409D01*
X554638Y498409D01*
X555867Y499638D01*
X555867Y505781D01*
X554638Y505781D02*
X557096Y505781D01*
X559665Y498409D02*
X564580Y498409D01*
X559665Y498409D02*
X564580Y503324D01*
X564580Y504553D01*
X563351Y505781D01*
X560894Y505781D01*
X559665Y504553D01*
D20*
X698650Y249800D02*
X711350Y249800D01*
X698650Y249800D02*
X692300Y256150D01*
X692300Y268850D02*
X698650Y275200D01*
X692300Y256150D02*
X685950Y249800D01*
X673250Y249800D01*
X666900Y256150D01*
X666900Y268850D02*
X673250Y275200D01*
X685950Y275200D01*
X692300Y268850D01*
X717700Y268850D02*
X717700Y256150D01*
X711350Y249800D01*
X717700Y268850D02*
X711350Y275200D01*
X698650Y275200D01*
X666900Y268850D02*
X666900Y256150D01*
D13*
X648217Y248411D02*
X646988Y247183D01*
X648217Y248411D02*
X648217Y249640D01*
X646988Y250869D01*
X640845Y250869D01*
X640845Y249640D02*
X640845Y252098D01*
X642073Y257124D02*
X640845Y259582D01*
X642073Y257124D02*
X644531Y254667D01*
X646988Y254667D01*
X648217Y255896D01*
X648217Y258353D01*
X646988Y259582D01*
X645760Y259582D01*
X644531Y258353D01*
X644531Y254667D01*
M02*
