G04 EAGLE Gerber RS-274X export*
G75*
%MOMM*%
%FSLAX34Y34*%
%LPD*%
%INSoldermask Bottom*%
%IPPOS*%
%AMOC8*
5,1,8,0,0,1.08239X$1,22.5*%
G01*
%ADD10C,2.153200*%
%ADD11C,1.701800*%
%ADD12C,1.103200*%
%ADD13C,1.203200*%
%ADD14R,0.838200X1.473200*%
%ADD15C,0.803200*%
%ADD16R,1.603200X1.803200*%
%ADD17R,0.903200X1.103200*%
%ADD18C,2.082800*%
%ADD19R,0.503200X0.653200*%
%ADD20R,1.803200X1.203200*%
%ADD21R,1.203200X1.303200*%
%ADD22R,1.303200X1.203200*%
%ADD23R,1.403200X1.003200*%
%ADD24R,1.003200X1.403200*%
%ADD25R,0.803200X0.903200*%
%ADD26R,1.103200X0.903200*%
%ADD27R,1.983200X1.223200*%
%ADD28R,1.727200X1.727200*%
%ADD29C,1.727200*%
%ADD30C,2.679700*%
%ADD31C,3.403600*%
%ADD32R,1.703200X0.753200*%
%ADD33R,0.753200X1.703200*%
%ADD34C,0.312766*%
%ADD35C,6.203200*%
%ADD36C,0.609600*%

G36*
X290020Y396242D02*
X290020Y396242D01*
X290039Y396240D01*
X290141Y396262D01*
X290243Y396279D01*
X290260Y396288D01*
X290280Y396292D01*
X290369Y396345D01*
X290460Y396394D01*
X290474Y396408D01*
X290491Y396418D01*
X290558Y396497D01*
X290630Y396572D01*
X290638Y396590D01*
X290651Y396605D01*
X290690Y396701D01*
X290733Y396795D01*
X290735Y396815D01*
X290743Y396833D01*
X290761Y397000D01*
X290761Y463000D01*
X290758Y463020D01*
X290760Y463039D01*
X290738Y463141D01*
X290722Y463243D01*
X290712Y463260D01*
X290708Y463280D01*
X290655Y463369D01*
X290606Y463460D01*
X290592Y463474D01*
X290582Y463491D01*
X290503Y463558D01*
X290428Y463630D01*
X290410Y463638D01*
X290395Y463651D01*
X290299Y463690D01*
X290205Y463733D01*
X290185Y463735D01*
X290167Y463743D01*
X290000Y463761D01*
X223000Y463761D01*
X222980Y463758D01*
X222961Y463760D01*
X222859Y463738D01*
X222757Y463722D01*
X222740Y463712D01*
X222720Y463708D01*
X222631Y463655D01*
X222540Y463606D01*
X222526Y463592D01*
X222509Y463582D01*
X222442Y463503D01*
X222371Y463428D01*
X222362Y463410D01*
X222349Y463395D01*
X222310Y463299D01*
X222267Y463205D01*
X222265Y463185D01*
X222257Y463167D01*
X222239Y463000D01*
X222239Y397000D01*
X222242Y396980D01*
X222240Y396961D01*
X222262Y396859D01*
X222279Y396757D01*
X222288Y396740D01*
X222292Y396720D01*
X222345Y396631D01*
X222394Y396540D01*
X222408Y396526D01*
X222418Y396509D01*
X222497Y396442D01*
X222572Y396371D01*
X222590Y396362D01*
X222605Y396349D01*
X222701Y396310D01*
X222795Y396267D01*
X222815Y396265D01*
X222833Y396257D01*
X223000Y396239D01*
X290000Y396239D01*
X290020Y396242D01*
G37*
G36*
X587020Y131242D02*
X587020Y131242D01*
X587039Y131240D01*
X587141Y131262D01*
X587243Y131279D01*
X587260Y131288D01*
X587280Y131292D01*
X587369Y131345D01*
X587460Y131394D01*
X587474Y131408D01*
X587491Y131418D01*
X587558Y131497D01*
X587630Y131572D01*
X587638Y131590D01*
X587651Y131605D01*
X587690Y131701D01*
X587733Y131795D01*
X587735Y131815D01*
X587743Y131833D01*
X587761Y132000D01*
X587761Y161000D01*
X587758Y161020D01*
X587760Y161039D01*
X587738Y161141D01*
X587722Y161243D01*
X587712Y161260D01*
X587708Y161280D01*
X587655Y161369D01*
X587606Y161460D01*
X587592Y161474D01*
X587582Y161491D01*
X587503Y161558D01*
X587428Y161630D01*
X587410Y161638D01*
X587395Y161651D01*
X587299Y161690D01*
X587205Y161733D01*
X587185Y161735D01*
X587167Y161743D01*
X587000Y161761D01*
X538000Y161761D01*
X537980Y161758D01*
X537961Y161760D01*
X537859Y161738D01*
X537757Y161722D01*
X537740Y161712D01*
X537720Y161708D01*
X537631Y161655D01*
X537540Y161606D01*
X537526Y161592D01*
X537509Y161582D01*
X537442Y161503D01*
X537371Y161428D01*
X537362Y161410D01*
X537349Y161395D01*
X537310Y161299D01*
X537267Y161205D01*
X537265Y161185D01*
X537257Y161167D01*
X537239Y161000D01*
X537239Y145610D01*
X537254Y145520D01*
X537261Y145429D01*
X537273Y145399D01*
X537279Y145367D01*
X537321Y145287D01*
X537357Y145203D01*
X537383Y145171D01*
X537394Y145150D01*
X537417Y145128D01*
X537462Y145072D01*
X551072Y131462D01*
X551146Y131409D01*
X551215Y131349D01*
X551245Y131337D01*
X551271Y131318D01*
X551358Y131291D01*
X551443Y131257D01*
X551484Y131253D01*
X551507Y131246D01*
X551539Y131247D01*
X551610Y131239D01*
X587000Y131239D01*
X587020Y131242D01*
G37*
G36*
X472233Y58073D02*
X472233Y58073D01*
X472235Y58071D01*
X473308Y58177D01*
X473313Y58182D01*
X473317Y58179D01*
X474349Y58492D01*
X474353Y58497D01*
X474358Y58495D01*
X475309Y59003D01*
X475312Y59010D01*
X475317Y59009D01*
X476150Y59693D01*
X476152Y59700D01*
X476157Y59700D01*
X476841Y60533D01*
X476841Y60540D01*
X476847Y60541D01*
X477355Y61492D01*
X477354Y61499D01*
X477358Y61501D01*
X477671Y62533D01*
X477670Y62537D01*
X477672Y62539D01*
X477671Y62541D01*
X477673Y62542D01*
X477779Y63615D01*
X477775Y63621D01*
X477779Y63625D01*
X477673Y64698D01*
X477668Y64703D01*
X477671Y64707D01*
X477358Y65739D01*
X477353Y65743D01*
X477355Y65748D01*
X476847Y66699D01*
X476840Y66702D01*
X476841Y66707D01*
X476157Y67540D01*
X476150Y67542D01*
X476150Y67547D01*
X475317Y68231D01*
X475310Y68231D01*
X475309Y68237D01*
X474358Y68745D01*
X474351Y68744D01*
X474349Y68748D01*
X473317Y69061D01*
X473311Y69059D01*
X473308Y69063D01*
X472279Y69165D01*
X472279Y75520D01*
X472277Y75523D01*
X472279Y75525D01*
X472164Y76695D01*
X472159Y76701D01*
X472162Y76705D01*
X471820Y77830D01*
X471815Y77835D01*
X471817Y77839D01*
X471262Y78877D01*
X471256Y78880D01*
X471257Y78885D01*
X470511Y79794D01*
X470504Y79796D01*
X470504Y79801D01*
X469595Y80547D01*
X469587Y80547D01*
X469587Y80552D01*
X468549Y81107D01*
X468542Y81106D01*
X468540Y81110D01*
X467415Y81452D01*
X467408Y81449D01*
X467405Y81454D01*
X466235Y81569D01*
X466233Y81568D01*
X466233Y81569D01*
X466227Y81569D01*
X466226Y81568D01*
X466225Y81569D01*
X465055Y81454D01*
X465049Y81449D01*
X465045Y81452D01*
X463920Y81110D01*
X463915Y81105D01*
X463911Y81107D01*
X462873Y80552D01*
X462870Y80546D01*
X462865Y80547D01*
X461956Y79801D01*
X461954Y79794D01*
X461949Y79794D01*
X461203Y78885D01*
X461203Y78877D01*
X461198Y78877D01*
X460643Y77839D01*
X460644Y77832D01*
X460640Y77830D01*
X460598Y77692D01*
X460597Y77692D01*
X460403Y77051D01*
X460298Y76705D01*
X460301Y76698D01*
X460296Y76695D01*
X460181Y75525D01*
X460183Y75522D01*
X460181Y75520D01*
X460181Y64520D01*
X460183Y64517D01*
X460181Y64515D01*
X460296Y63345D01*
X460301Y63339D01*
X460298Y63335D01*
X460640Y62210D01*
X460645Y62205D01*
X460643Y62201D01*
X461198Y61163D01*
X461204Y61160D01*
X461203Y61155D01*
X461949Y60246D01*
X461956Y60244D01*
X461956Y60239D01*
X462865Y59493D01*
X462873Y59493D01*
X462873Y59488D01*
X463407Y59202D01*
X463643Y59009D01*
X463650Y59009D01*
X463651Y59003D01*
X464602Y58495D01*
X464609Y58496D01*
X464611Y58492D01*
X465643Y58179D01*
X465650Y58181D01*
X465652Y58177D01*
X466725Y58071D01*
X466728Y58073D01*
X466730Y58071D01*
X472230Y58071D01*
X472233Y58073D01*
G37*
G36*
X552133Y58073D02*
X552133Y58073D01*
X552135Y58071D01*
X553208Y58177D01*
X553213Y58182D01*
X553217Y58179D01*
X554249Y58492D01*
X554253Y58497D01*
X554258Y58495D01*
X555209Y59003D01*
X555212Y59010D01*
X555217Y59009D01*
X555453Y59202D01*
X555987Y59488D01*
X555990Y59494D01*
X555995Y59493D01*
X556904Y60239D01*
X556906Y60246D01*
X556911Y60246D01*
X557657Y61155D01*
X557657Y61163D01*
X557662Y61163D01*
X558217Y62201D01*
X558216Y62208D01*
X558220Y62210D01*
X558337Y62594D01*
X558531Y63235D01*
X558562Y63335D01*
X558559Y63342D01*
X558564Y63345D01*
X558679Y64515D01*
X558677Y64518D01*
X558679Y64520D01*
X558679Y75520D01*
X558677Y75523D01*
X558679Y75525D01*
X558564Y76695D01*
X558559Y76701D01*
X558562Y76705D01*
X558220Y77830D01*
X558215Y77835D01*
X558217Y77839D01*
X557662Y78877D01*
X557656Y78880D01*
X557657Y78885D01*
X556911Y79794D01*
X556904Y79796D01*
X556904Y79801D01*
X555995Y80547D01*
X555987Y80547D01*
X555987Y80552D01*
X554949Y81107D01*
X554942Y81106D01*
X554940Y81110D01*
X553815Y81452D01*
X553808Y81449D01*
X553805Y81454D01*
X552635Y81569D01*
X552633Y81568D01*
X552633Y81569D01*
X552627Y81569D01*
X552626Y81568D01*
X552625Y81569D01*
X551455Y81454D01*
X551449Y81449D01*
X551445Y81452D01*
X550320Y81110D01*
X550315Y81105D01*
X550311Y81107D01*
X549273Y80552D01*
X549270Y80546D01*
X549265Y80547D01*
X548356Y79801D01*
X548354Y79794D01*
X548349Y79794D01*
X547603Y78885D01*
X547603Y78877D01*
X547598Y78877D01*
X547043Y77839D01*
X547044Y77832D01*
X547040Y77830D01*
X546998Y77692D01*
X546997Y77692D01*
X546803Y77051D01*
X546698Y76705D01*
X546701Y76698D01*
X546696Y76695D01*
X546581Y75525D01*
X546583Y75522D01*
X546581Y75520D01*
X546581Y69165D01*
X545552Y69063D01*
X545547Y69058D01*
X545543Y69061D01*
X544511Y68748D01*
X544507Y68743D01*
X544502Y68745D01*
X543551Y68237D01*
X543548Y68230D01*
X543543Y68231D01*
X542710Y67547D01*
X542708Y67540D01*
X542703Y67540D01*
X542019Y66707D01*
X542019Y66700D01*
X542013Y66699D01*
X541505Y65748D01*
X541506Y65741D01*
X541502Y65739D01*
X541189Y64707D01*
X541191Y64701D01*
X541187Y64698D01*
X541081Y63625D01*
X541085Y63619D01*
X541081Y63615D01*
X541187Y62542D01*
X541192Y62537D01*
X541189Y62533D01*
X541502Y61501D01*
X541507Y61497D01*
X541505Y61492D01*
X542013Y60541D01*
X542020Y60538D01*
X542019Y60533D01*
X542703Y59700D01*
X542710Y59698D01*
X542710Y59693D01*
X543543Y59009D01*
X543550Y59009D01*
X543551Y59003D01*
X544502Y58495D01*
X544509Y58496D01*
X544511Y58492D01*
X545543Y58179D01*
X545550Y58181D01*
X545552Y58177D01*
X546625Y58071D01*
X546628Y58073D01*
X546630Y58071D01*
X552130Y58071D01*
X552133Y58073D01*
G37*
G36*
X84675Y645216D02*
X84675Y645216D01*
X84681Y645221D01*
X84685Y645218D01*
X85810Y645560D01*
X85815Y645565D01*
X85819Y645563D01*
X86857Y646118D01*
X86860Y646124D01*
X86865Y646123D01*
X87774Y646869D01*
X87776Y646876D01*
X87781Y646876D01*
X88527Y647785D01*
X88527Y647793D01*
X88532Y647793D01*
X89087Y648831D01*
X89086Y648838D01*
X89090Y648840D01*
X89207Y649224D01*
X89401Y649865D01*
X89432Y649965D01*
X89429Y649972D01*
X89434Y649975D01*
X89549Y651145D01*
X89547Y651148D01*
X89549Y651150D01*
X89549Y657505D01*
X90578Y657607D01*
X90583Y657612D01*
X90587Y657609D01*
X91619Y657922D01*
X91623Y657927D01*
X91628Y657925D01*
X92579Y658433D01*
X92582Y658440D01*
X92587Y658439D01*
X93420Y659123D01*
X93422Y659130D01*
X93427Y659130D01*
X94111Y659963D01*
X94111Y659970D01*
X94117Y659971D01*
X94625Y660922D01*
X94624Y660929D01*
X94628Y660931D01*
X94941Y661963D01*
X94940Y661967D01*
X94942Y661969D01*
X94941Y661971D01*
X94943Y661972D01*
X95049Y663045D01*
X95045Y663051D01*
X95049Y663055D01*
X94943Y664128D01*
X94938Y664133D01*
X94941Y664137D01*
X94628Y665169D01*
X94623Y665173D01*
X94625Y665178D01*
X94117Y666129D01*
X94110Y666132D01*
X94111Y666137D01*
X93427Y666970D01*
X93420Y666972D01*
X93420Y666977D01*
X92587Y667661D01*
X92580Y667661D01*
X92579Y667667D01*
X91628Y668175D01*
X91621Y668174D01*
X91619Y668178D01*
X90587Y668491D01*
X90581Y668489D01*
X90578Y668493D01*
X89505Y668599D01*
X89502Y668597D01*
X89500Y668599D01*
X84000Y668599D01*
X83997Y668597D01*
X83995Y668599D01*
X82922Y668493D01*
X82917Y668488D01*
X82913Y668491D01*
X81881Y668178D01*
X81877Y668173D01*
X81872Y668175D01*
X80921Y667667D01*
X80918Y667660D01*
X80913Y667661D01*
X80677Y667468D01*
X80143Y667182D01*
X80140Y667176D01*
X80135Y667177D01*
X79226Y666431D01*
X79224Y666424D01*
X79219Y666424D01*
X78473Y665515D01*
X78473Y665507D01*
X78468Y665507D01*
X77913Y664469D01*
X77914Y664462D01*
X77910Y664460D01*
X77868Y664322D01*
X77867Y664322D01*
X77673Y663681D01*
X77568Y663335D01*
X77571Y663328D01*
X77566Y663325D01*
X77451Y662155D01*
X77453Y662152D01*
X77451Y662150D01*
X77451Y651150D01*
X77453Y651147D01*
X77451Y651145D01*
X77566Y649975D01*
X77571Y649969D01*
X77568Y649965D01*
X77910Y648840D01*
X77915Y648835D01*
X77913Y648831D01*
X78468Y647793D01*
X78474Y647790D01*
X78473Y647785D01*
X79219Y646876D01*
X79226Y646874D01*
X79226Y646869D01*
X80135Y646123D01*
X80143Y646123D01*
X80143Y646118D01*
X81181Y645563D01*
X81188Y645564D01*
X81190Y645560D01*
X82315Y645218D01*
X82322Y645221D01*
X82325Y645216D01*
X83495Y645101D01*
X83501Y645105D01*
X83505Y645101D01*
X84675Y645216D01*
G37*
G36*
X171075Y645216D02*
X171075Y645216D01*
X171081Y645221D01*
X171085Y645218D01*
X172210Y645560D01*
X172215Y645565D01*
X172219Y645563D01*
X173257Y646118D01*
X173260Y646124D01*
X173265Y646123D01*
X174174Y646869D01*
X174176Y646876D01*
X174181Y646876D01*
X174927Y647785D01*
X174927Y647793D01*
X174932Y647793D01*
X175487Y648831D01*
X175486Y648838D01*
X175490Y648840D01*
X175607Y649224D01*
X175801Y649865D01*
X175832Y649965D01*
X175829Y649972D01*
X175834Y649975D01*
X175949Y651145D01*
X175947Y651148D01*
X175949Y651150D01*
X175949Y662150D01*
X175947Y662153D01*
X175949Y662155D01*
X175834Y663325D01*
X175829Y663331D01*
X175832Y663335D01*
X175490Y664460D01*
X175485Y664465D01*
X175487Y664469D01*
X174932Y665507D01*
X174926Y665510D01*
X174927Y665515D01*
X174181Y666424D01*
X174174Y666426D01*
X174174Y666431D01*
X173265Y667177D01*
X173257Y667177D01*
X173257Y667182D01*
X172723Y667468D01*
X172487Y667661D01*
X172480Y667661D01*
X172479Y667667D01*
X171528Y668175D01*
X171521Y668174D01*
X171519Y668178D01*
X170487Y668491D01*
X170481Y668489D01*
X170478Y668493D01*
X169405Y668599D01*
X169402Y668597D01*
X169400Y668599D01*
X163900Y668599D01*
X163897Y668597D01*
X163895Y668599D01*
X162822Y668493D01*
X162817Y668488D01*
X162813Y668491D01*
X161781Y668178D01*
X161777Y668173D01*
X161772Y668175D01*
X160821Y667667D01*
X160818Y667660D01*
X160813Y667661D01*
X159980Y666977D01*
X159978Y666970D01*
X159973Y666970D01*
X159289Y666137D01*
X159289Y666130D01*
X159283Y666129D01*
X158775Y665178D01*
X158776Y665171D01*
X158772Y665169D01*
X158459Y664137D01*
X158461Y664131D01*
X158457Y664128D01*
X158351Y663055D01*
X158355Y663049D01*
X158351Y663045D01*
X158457Y661972D01*
X158462Y661967D01*
X158459Y661963D01*
X158772Y660931D01*
X158777Y660927D01*
X158775Y660922D01*
X159283Y659971D01*
X159290Y659968D01*
X159289Y659963D01*
X159973Y659130D01*
X159980Y659128D01*
X159980Y659123D01*
X160813Y658439D01*
X160820Y658439D01*
X160821Y658433D01*
X161772Y657925D01*
X161779Y657926D01*
X161781Y657922D01*
X162813Y657609D01*
X162820Y657611D01*
X162822Y657607D01*
X163851Y657505D01*
X163851Y651150D01*
X163853Y651147D01*
X163851Y651145D01*
X163966Y649975D01*
X163971Y649969D01*
X163968Y649965D01*
X164310Y648840D01*
X164315Y648835D01*
X164313Y648831D01*
X164868Y647793D01*
X164874Y647790D01*
X164873Y647785D01*
X165619Y646876D01*
X165626Y646874D01*
X165626Y646869D01*
X166535Y646123D01*
X166543Y646123D01*
X166543Y646118D01*
X167581Y645563D01*
X167588Y645564D01*
X167590Y645560D01*
X168715Y645218D01*
X168722Y645221D01*
X168725Y645216D01*
X169895Y645101D01*
X169901Y645105D01*
X169905Y645101D01*
X171075Y645216D01*
G37*
G36*
X425020Y34242D02*
X425020Y34242D01*
X425039Y34240D01*
X425141Y34262D01*
X425243Y34279D01*
X425260Y34288D01*
X425280Y34292D01*
X425369Y34345D01*
X425460Y34394D01*
X425474Y34408D01*
X425491Y34418D01*
X425558Y34497D01*
X425630Y34572D01*
X425638Y34590D01*
X425651Y34605D01*
X425690Y34701D01*
X425733Y34795D01*
X425735Y34815D01*
X425743Y34833D01*
X425761Y35000D01*
X425761Y50000D01*
X425758Y50020D01*
X425760Y50039D01*
X425738Y50141D01*
X425722Y50243D01*
X425712Y50260D01*
X425708Y50280D01*
X425655Y50369D01*
X425606Y50460D01*
X425592Y50474D01*
X425582Y50491D01*
X425503Y50558D01*
X425428Y50630D01*
X425410Y50638D01*
X425395Y50651D01*
X425299Y50690D01*
X425205Y50733D01*
X425185Y50735D01*
X425167Y50743D01*
X425000Y50761D01*
X408000Y50761D01*
X407980Y50758D01*
X407961Y50760D01*
X407859Y50738D01*
X407757Y50722D01*
X407740Y50712D01*
X407720Y50708D01*
X407631Y50655D01*
X407540Y50606D01*
X407526Y50592D01*
X407509Y50582D01*
X407442Y50503D01*
X407371Y50428D01*
X407362Y50410D01*
X407349Y50395D01*
X407310Y50299D01*
X407267Y50205D01*
X407265Y50185D01*
X407257Y50167D01*
X407239Y50000D01*
X407239Y35000D01*
X407242Y34980D01*
X407240Y34961D01*
X407262Y34859D01*
X407279Y34757D01*
X407288Y34740D01*
X407292Y34720D01*
X407345Y34631D01*
X407394Y34540D01*
X407408Y34526D01*
X407418Y34509D01*
X407497Y34442D01*
X407572Y34371D01*
X407590Y34362D01*
X407605Y34349D01*
X407701Y34310D01*
X407795Y34267D01*
X407815Y34265D01*
X407833Y34257D01*
X408000Y34239D01*
X425000Y34239D01*
X425020Y34242D01*
G37*
G36*
X84773Y694226D02*
X84773Y694226D01*
X84778Y694231D01*
X84782Y694228D01*
X86002Y694598D01*
X86006Y694604D01*
X86011Y694601D01*
X87134Y695202D01*
X87137Y695209D01*
X87142Y695207D01*
X88127Y696016D01*
X88129Y696023D01*
X88134Y696023D01*
X88943Y697008D01*
X88943Y697015D01*
X88948Y697016D01*
X89549Y698139D01*
X89548Y698147D01*
X89552Y698148D01*
X89922Y699368D01*
X89920Y699374D01*
X89924Y699377D01*
X90049Y700645D01*
X90047Y700648D01*
X90049Y700650D01*
X90049Y713650D01*
X90047Y713653D01*
X90049Y713655D01*
X89924Y714923D01*
X89919Y714928D01*
X89922Y714932D01*
X89552Y716152D01*
X89547Y716156D01*
X89549Y716161D01*
X88948Y717284D01*
X88941Y717287D01*
X88943Y717292D01*
X88134Y718277D01*
X88127Y718279D01*
X88127Y718284D01*
X87142Y719093D01*
X87135Y719093D01*
X87134Y719098D01*
X86011Y719699D01*
X86004Y719698D01*
X86002Y719702D01*
X84782Y720072D01*
X84776Y720070D01*
X84773Y720074D01*
X83505Y720199D01*
X83499Y720195D01*
X83495Y720199D01*
X82227Y720074D01*
X82222Y720069D01*
X82218Y720072D01*
X80998Y719702D01*
X80994Y719697D01*
X80989Y719699D01*
X79866Y719098D01*
X79863Y719091D01*
X79858Y719093D01*
X78873Y718284D01*
X78871Y718277D01*
X78866Y718277D01*
X78057Y717292D01*
X78057Y717285D01*
X78052Y717284D01*
X77451Y716161D01*
X77452Y716154D01*
X77448Y716152D01*
X77078Y714932D01*
X77080Y714926D01*
X77076Y714923D01*
X76951Y713655D01*
X76953Y713652D01*
X76951Y713650D01*
X76951Y700650D01*
X76953Y700647D01*
X76951Y700645D01*
X77076Y699377D01*
X77081Y699372D01*
X77078Y699368D01*
X77448Y698148D01*
X77454Y698144D01*
X77451Y698139D01*
X78052Y697016D01*
X78059Y697013D01*
X78057Y697008D01*
X78866Y696023D01*
X78873Y696021D01*
X78873Y696016D01*
X79858Y695207D01*
X79865Y695207D01*
X79866Y695202D01*
X80989Y694601D01*
X80997Y694602D01*
X80998Y694598D01*
X82218Y694228D01*
X82224Y694230D01*
X82227Y694226D01*
X83495Y694101D01*
X83501Y694105D01*
X83505Y694101D01*
X84773Y694226D01*
G37*
G36*
X171173Y694226D02*
X171173Y694226D01*
X171178Y694231D01*
X171182Y694228D01*
X172402Y694598D01*
X172406Y694604D01*
X172411Y694601D01*
X173534Y695202D01*
X173537Y695209D01*
X173542Y695207D01*
X174527Y696016D01*
X174529Y696023D01*
X174534Y696023D01*
X175343Y697008D01*
X175343Y697015D01*
X175348Y697016D01*
X175949Y698139D01*
X175948Y698147D01*
X175952Y698148D01*
X176322Y699368D01*
X176320Y699374D01*
X176324Y699377D01*
X176449Y700645D01*
X176447Y700648D01*
X176449Y700650D01*
X176449Y713650D01*
X176447Y713653D01*
X176449Y713655D01*
X176324Y714923D01*
X176319Y714928D01*
X176322Y714932D01*
X175952Y716152D01*
X175947Y716156D01*
X175949Y716161D01*
X175348Y717284D01*
X175341Y717287D01*
X175343Y717292D01*
X174534Y718277D01*
X174527Y718279D01*
X174527Y718284D01*
X173542Y719093D01*
X173535Y719093D01*
X173534Y719098D01*
X172411Y719699D01*
X172404Y719698D01*
X172402Y719702D01*
X171182Y720072D01*
X171176Y720070D01*
X171173Y720074D01*
X169905Y720199D01*
X169899Y720195D01*
X169895Y720199D01*
X168627Y720074D01*
X168622Y720069D01*
X168618Y720072D01*
X167398Y719702D01*
X167394Y719697D01*
X167389Y719699D01*
X166266Y719098D01*
X166263Y719091D01*
X166258Y719093D01*
X165273Y718284D01*
X165271Y718277D01*
X165266Y718277D01*
X164457Y717292D01*
X164457Y717285D01*
X164452Y717284D01*
X163851Y716161D01*
X163852Y716154D01*
X163848Y716152D01*
X163478Y714932D01*
X163480Y714926D01*
X163476Y714923D01*
X163351Y713655D01*
X163353Y713652D01*
X163351Y713650D01*
X163351Y700650D01*
X163353Y700647D01*
X163351Y700645D01*
X163476Y699377D01*
X163481Y699372D01*
X163478Y699368D01*
X163848Y698148D01*
X163854Y698144D01*
X163851Y698139D01*
X164452Y697016D01*
X164459Y697013D01*
X164457Y697008D01*
X165266Y696023D01*
X165273Y696021D01*
X165273Y696016D01*
X166258Y695207D01*
X166265Y695207D01*
X166266Y695202D01*
X167389Y694601D01*
X167397Y694602D01*
X167398Y694598D01*
X168618Y694228D01*
X168624Y694230D01*
X168627Y694226D01*
X169895Y694101D01*
X169901Y694105D01*
X169905Y694101D01*
X171173Y694226D01*
G37*
G36*
X467503Y6596D02*
X467503Y6596D01*
X467508Y6601D01*
X467512Y6598D01*
X468732Y6968D01*
X468736Y6974D01*
X468741Y6971D01*
X469864Y7572D01*
X469867Y7579D01*
X469872Y7577D01*
X470857Y8386D01*
X470859Y8393D01*
X470864Y8393D01*
X471673Y9378D01*
X471673Y9385D01*
X471678Y9386D01*
X472279Y10509D01*
X472278Y10517D01*
X472282Y10518D01*
X472652Y11738D01*
X472650Y11744D01*
X472654Y11747D01*
X472779Y13015D01*
X472777Y13018D01*
X472779Y13020D01*
X472779Y26020D01*
X472777Y26023D01*
X472779Y26025D01*
X472654Y27293D01*
X472649Y27298D01*
X472652Y27302D01*
X472282Y28522D01*
X472277Y28526D01*
X472279Y28531D01*
X471678Y29654D01*
X471671Y29657D01*
X471673Y29662D01*
X470864Y30647D01*
X470857Y30649D01*
X470857Y30654D01*
X469872Y31463D01*
X469865Y31463D01*
X469864Y31468D01*
X468741Y32069D01*
X468734Y32068D01*
X468732Y32072D01*
X467512Y32442D01*
X467506Y32440D01*
X467503Y32444D01*
X466235Y32569D01*
X466229Y32565D01*
X466225Y32569D01*
X464957Y32444D01*
X464952Y32439D01*
X464948Y32442D01*
X463728Y32072D01*
X463724Y32067D01*
X463719Y32069D01*
X462596Y31468D01*
X462593Y31461D01*
X462588Y31463D01*
X461603Y30654D01*
X461601Y30647D01*
X461596Y30647D01*
X460787Y29662D01*
X460787Y29655D01*
X460782Y29654D01*
X460181Y28531D01*
X460182Y28524D01*
X460178Y28522D01*
X459808Y27302D01*
X459810Y27296D01*
X459806Y27293D01*
X459681Y26025D01*
X459683Y26022D01*
X459681Y26020D01*
X459681Y13020D01*
X459683Y13017D01*
X459681Y13015D01*
X459806Y11747D01*
X459811Y11742D01*
X459808Y11738D01*
X460178Y10518D01*
X460184Y10514D01*
X460181Y10509D01*
X460782Y9386D01*
X460789Y9383D01*
X460787Y9378D01*
X461596Y8393D01*
X461603Y8391D01*
X461603Y8386D01*
X462588Y7577D01*
X462595Y7577D01*
X462596Y7572D01*
X463719Y6971D01*
X463727Y6972D01*
X463728Y6968D01*
X464948Y6598D01*
X464954Y6600D01*
X464957Y6596D01*
X466225Y6471D01*
X466231Y6475D01*
X466235Y6471D01*
X467503Y6596D01*
G37*
G36*
X553903Y6596D02*
X553903Y6596D01*
X553908Y6601D01*
X553912Y6598D01*
X555132Y6968D01*
X555136Y6974D01*
X555141Y6971D01*
X556264Y7572D01*
X556267Y7579D01*
X556272Y7577D01*
X557257Y8386D01*
X557259Y8393D01*
X557264Y8393D01*
X558073Y9378D01*
X558073Y9385D01*
X558078Y9386D01*
X558679Y10509D01*
X558678Y10517D01*
X558682Y10518D01*
X559052Y11738D01*
X559050Y11744D01*
X559054Y11747D01*
X559179Y13015D01*
X559177Y13018D01*
X559179Y13020D01*
X559179Y26020D01*
X559177Y26023D01*
X559179Y26025D01*
X559054Y27293D01*
X559049Y27298D01*
X559052Y27302D01*
X558682Y28522D01*
X558677Y28526D01*
X558679Y28531D01*
X558078Y29654D01*
X558071Y29657D01*
X558073Y29662D01*
X557264Y30647D01*
X557257Y30649D01*
X557257Y30654D01*
X556272Y31463D01*
X556265Y31463D01*
X556264Y31468D01*
X555141Y32069D01*
X555134Y32068D01*
X555132Y32072D01*
X553912Y32442D01*
X553906Y32440D01*
X553903Y32444D01*
X552635Y32569D01*
X552629Y32565D01*
X552625Y32569D01*
X551357Y32444D01*
X551352Y32439D01*
X551348Y32442D01*
X550128Y32072D01*
X550124Y32067D01*
X550119Y32069D01*
X548996Y31468D01*
X548993Y31461D01*
X548988Y31463D01*
X548003Y30654D01*
X548001Y30647D01*
X547996Y30647D01*
X547187Y29662D01*
X547187Y29655D01*
X547182Y29654D01*
X546581Y28531D01*
X546582Y28524D01*
X546578Y28522D01*
X546208Y27302D01*
X546210Y27296D01*
X546206Y27293D01*
X546081Y26025D01*
X546083Y26022D01*
X546081Y26020D01*
X546081Y13020D01*
X546083Y13017D01*
X546081Y13015D01*
X546206Y11747D01*
X546211Y11742D01*
X546208Y11738D01*
X546578Y10518D01*
X546584Y10514D01*
X546581Y10509D01*
X547182Y9386D01*
X547189Y9383D01*
X547187Y9378D01*
X547996Y8393D01*
X548003Y8391D01*
X548003Y8386D01*
X548988Y7577D01*
X548995Y7577D01*
X548996Y7572D01*
X550119Y6971D01*
X550127Y6972D01*
X550128Y6968D01*
X551348Y6598D01*
X551354Y6600D01*
X551357Y6596D01*
X552625Y6471D01*
X552631Y6475D01*
X552635Y6471D01*
X553903Y6596D01*
G37*
G36*
X157090Y566254D02*
X157090Y566254D01*
X157181Y566261D01*
X157211Y566273D01*
X157243Y566279D01*
X157323Y566321D01*
X157407Y566357D01*
X157439Y566383D01*
X157460Y566394D01*
X157482Y566417D01*
X157538Y566462D01*
X162538Y571462D01*
X162591Y571536D01*
X162651Y571605D01*
X162663Y571635D01*
X162682Y571661D01*
X162709Y571748D01*
X162743Y571833D01*
X162747Y571874D01*
X162754Y571897D01*
X162753Y571929D01*
X162761Y572000D01*
X162761Y583000D01*
X162759Y583014D01*
X162760Y583026D01*
X162759Y583030D01*
X162760Y583039D01*
X162738Y583141D01*
X162722Y583243D01*
X162712Y583260D01*
X162708Y583280D01*
X162655Y583369D01*
X162606Y583460D01*
X162592Y583474D01*
X162582Y583491D01*
X162503Y583558D01*
X162428Y583630D01*
X162410Y583638D01*
X162395Y583651D01*
X162299Y583690D01*
X162205Y583733D01*
X162185Y583735D01*
X162167Y583743D01*
X162000Y583761D01*
X148000Y583761D01*
X147980Y583758D01*
X147961Y583760D01*
X147859Y583738D01*
X147757Y583722D01*
X147740Y583712D01*
X147720Y583708D01*
X147631Y583655D01*
X147540Y583606D01*
X147526Y583592D01*
X147509Y583582D01*
X147442Y583503D01*
X147371Y583428D01*
X147362Y583410D01*
X147349Y583395D01*
X147310Y583299D01*
X147267Y583205D01*
X147265Y583185D01*
X147257Y583167D01*
X147239Y583000D01*
X147239Y567000D01*
X147242Y566980D01*
X147240Y566961D01*
X147262Y566859D01*
X147279Y566757D01*
X147288Y566740D01*
X147292Y566720D01*
X147345Y566631D01*
X147394Y566540D01*
X147408Y566526D01*
X147418Y566509D01*
X147497Y566442D01*
X147572Y566371D01*
X147590Y566362D01*
X147605Y566349D01*
X147701Y566310D01*
X147795Y566267D01*
X147815Y566265D01*
X147833Y566257D01*
X148000Y566239D01*
X157000Y566239D01*
X157090Y566254D01*
G37*
D10*
X405000Y578600D03*
X405000Y121400D03*
X49400Y121400D03*
X49400Y578600D03*
D11*
X360000Y681603D02*
X360000Y696589D01*
X215000Y696589D02*
X215000Y681603D01*
X215000Y636989D02*
X215000Y622003D01*
X360000Y622003D02*
X360000Y636989D01*
D12*
X360000Y621996D03*
X360000Y636996D03*
X360000Y626496D03*
X360000Y632496D03*
X360000Y681496D03*
X360000Y696496D03*
X360000Y685996D03*
X360000Y691996D03*
X215000Y621996D03*
X215000Y636996D03*
X215000Y626496D03*
X215000Y632496D03*
X215000Y681496D03*
X215000Y685996D03*
X215000Y696496D03*
X215000Y691996D03*
D13*
X203376Y235621D03*
D14*
X224560Y105000D03*
X214400Y105000D03*
D12*
X90700Y676000D03*
D15*
X162700Y676650D03*
D12*
X545430Y50670D03*
D15*
X473430Y50020D03*
D14*
X336920Y159320D03*
X347080Y159320D03*
X336629Y134061D03*
X346789Y134061D03*
X272372Y110500D03*
X280500Y110500D03*
X288628Y110500D03*
X256128Y110500D03*
X248000Y110500D03*
X239872Y110500D03*
D16*
X99360Y130880D03*
X127360Y130880D03*
D17*
X215620Y74390D03*
X202620Y74390D03*
D18*
X706778Y104480D03*
X677822Y104480D03*
D19*
X118440Y630920D03*
X118440Y611420D03*
X124940Y630920D03*
X131440Y630920D03*
X124940Y611420D03*
X131440Y611420D03*
D20*
X124940Y621170D03*
D17*
X148850Y649310D03*
X135850Y649310D03*
X98620Y649860D03*
X111620Y649860D03*
D19*
X521260Y97140D03*
X521260Y116640D03*
X514760Y97140D03*
X508260Y97140D03*
X514760Y116640D03*
X508260Y116640D03*
D20*
X514760Y106890D03*
D17*
X535600Y76990D03*
X522600Y76990D03*
X484860Y77920D03*
X497860Y77920D03*
D21*
X557410Y227280D03*
X557410Y210280D03*
D22*
X582730Y121670D03*
X565730Y121670D03*
D23*
X599460Y109380D03*
X599460Y127380D03*
X526950Y160670D03*
X526950Y142670D03*
D21*
X570280Y226930D03*
X570280Y209930D03*
D24*
X625000Y204670D03*
X607000Y204670D03*
D23*
X539750Y231690D03*
X539750Y213690D03*
D21*
X521850Y213560D03*
X521850Y230560D03*
D22*
X585670Y219200D03*
X602670Y219200D03*
D21*
X595690Y140970D03*
X595690Y157970D03*
X616380Y102560D03*
X616380Y119560D03*
X497294Y120216D03*
X497294Y137216D03*
X497420Y184510D03*
X497420Y167510D03*
X406160Y89910D03*
X406160Y72910D03*
D25*
X416050Y57560D03*
X406050Y57560D03*
D21*
X433060Y29910D03*
X433060Y46910D03*
D13*
X629180Y82830D03*
D25*
X682700Y141340D03*
X692700Y141340D03*
D17*
X680940Y152870D03*
X693940Y152870D03*
D26*
X220670Y168930D03*
X220670Y155930D03*
D16*
X122750Y175080D03*
X150750Y175080D03*
D22*
X482250Y387500D03*
X465250Y387500D03*
X517812Y323377D03*
X534812Y323377D03*
D21*
X512742Y482730D03*
X512742Y499730D03*
D22*
X561122Y482730D03*
X561122Y499730D03*
X544610Y482730D03*
X544610Y499730D03*
X594580Y482730D03*
X594580Y499730D03*
X577830Y482730D03*
X577830Y499730D03*
D21*
X626840Y482520D03*
X626840Y499520D03*
D27*
X490958Y482044D03*
X490958Y499844D03*
D21*
X482050Y419620D03*
X465050Y419620D03*
X482250Y439860D03*
X465250Y439860D03*
D28*
X604450Y554228D03*
D29*
X591750Y528828D03*
X579050Y554228D03*
X566350Y528828D03*
X553650Y554228D03*
X540950Y528828D03*
X528250Y554228D03*
X515550Y528828D03*
D30*
X640010Y585978D03*
X479990Y585978D03*
D29*
X493960Y666750D03*
X519360Y666750D03*
X626040Y666750D03*
X600640Y666750D03*
D31*
X617150Y617728D03*
X502850Y617728D03*
D22*
X563260Y512990D03*
X580260Y512990D03*
D32*
X614732Y401648D03*
X614732Y409648D03*
X614732Y417648D03*
X614732Y425648D03*
X614732Y433648D03*
X614732Y441648D03*
X614732Y361648D03*
X614732Y369648D03*
X614732Y377648D03*
X614732Y385648D03*
X614732Y393648D03*
X500732Y401648D03*
X500732Y409648D03*
X500732Y417648D03*
X500732Y377648D03*
X500732Y393648D03*
X500732Y385648D03*
X500732Y369648D03*
X500732Y361648D03*
X500732Y441648D03*
X500732Y433648D03*
X500732Y425648D03*
D33*
X557732Y458648D03*
X565732Y458648D03*
X573732Y458648D03*
X581732Y458648D03*
X589732Y458648D03*
X597732Y458648D03*
X517732Y458648D03*
X525732Y458648D03*
X533732Y458648D03*
X541732Y458648D03*
X549732Y458648D03*
X557732Y344648D03*
X565732Y344648D03*
X573732Y344648D03*
X581732Y344648D03*
X589732Y344648D03*
X597732Y344648D03*
X517732Y344648D03*
X525732Y344648D03*
X549732Y344648D03*
X541732Y344648D03*
X533732Y344648D03*
D16*
X553715Y318995D03*
X553715Y288995D03*
D21*
X482250Y456048D03*
X465250Y456048D03*
D22*
X464420Y310560D03*
X481420Y310560D03*
X482250Y368660D03*
X465250Y368660D03*
D21*
X528380Y482730D03*
X528380Y499730D03*
D22*
X611290Y499520D03*
X611290Y482520D03*
D21*
X556590Y598580D03*
X556590Y581580D03*
X575380Y598580D03*
X575380Y581580D03*
X649970Y435080D03*
X632970Y435080D03*
D34*
X469702Y334052D02*
X469702Y322148D01*
X459798Y322148D01*
X459798Y334052D01*
X469702Y334052D01*
X469702Y325120D02*
X459798Y325120D01*
X459798Y328092D02*
X469702Y328092D01*
X469702Y331064D02*
X459798Y331064D01*
X459798Y334036D02*
X469702Y334036D01*
X469702Y345148D02*
X469702Y357052D01*
X469702Y345148D02*
X459798Y345148D01*
X459798Y357052D01*
X469702Y357052D01*
X469702Y348120D02*
X459798Y348120D01*
X459798Y351092D02*
X469702Y351092D01*
X469702Y354064D02*
X459798Y354064D01*
X459798Y357036D02*
X469702Y357036D01*
X487702Y357052D02*
X487702Y345148D01*
X477798Y345148D01*
X477798Y357052D01*
X487702Y357052D01*
X487702Y348120D02*
X477798Y348120D01*
X477798Y351092D02*
X487702Y351092D01*
X487702Y354064D02*
X477798Y354064D01*
X477798Y357036D02*
X487702Y357036D01*
X487702Y334052D02*
X487702Y322148D01*
X477798Y322148D01*
X477798Y334052D01*
X487702Y334052D01*
X487702Y325120D02*
X477798Y325120D01*
X477798Y328092D02*
X487702Y328092D01*
X487702Y331064D02*
X477798Y331064D01*
X477798Y334036D02*
X487702Y334036D01*
D21*
X573560Y320000D03*
X590560Y320000D03*
D18*
X706778Y262500D03*
X677822Y262500D03*
D35*
X45000Y670000D03*
X680000Y55000D03*
X45000Y55000D03*
X680000Y670000D03*
D36*
X522236Y68554D03*
M02*
