M48
;GenerationSoftware,Autodesk,EAGLE,9.5.2*%
;CreationDate,2022-10-11T13:25:19Z*%
FMAT,2
ICI,OFF
METRIC,TZ,000.000
T13C0.203
T12C0.300
T11C0.305
T10C0.350
T9C0.600
T8C0.700
T7C0.813
T6C0.900
T5C1.016
T4C1.651
T3C1.950
T2C3.000
T1C3.200
%
G90
M71
T1
X50285Y61773
X61715Y61773
T2
X4500Y67000
X68000Y5500
X4500Y5500
X68000Y67000
T3
X40500Y12140
X40500Y57860
X4940Y12140
X4940Y57860
T4
X64001Y58598
X47999Y58598
T5
X70678Y26250
X67782Y26250
X67782Y10448
X70678Y10448
T6
X36000Y63700
X36000Y62650
X36000Y63250
X36000Y68150
X36000Y69650
X36000Y68600
X21500Y62200
X21500Y63700
X21500Y62650
X21500Y63250
X21500Y68150
X21500Y68600
X21500Y69650
X21500Y69200
X9070Y67600
X54543Y5067
X36000Y68910
X21500Y68910
X21500Y62950
X36000Y62950
X36000Y69200
X36000Y62200
T7
X60445Y55423
X59175Y52883
X57905Y55423
X56635Y52883
X55365Y55423
X54095Y52883
X52825Y55423
X51555Y52883
X49396Y66675
X51936Y66675
X62604Y66675
X60064Y66675
T8
X8350Y70715
X16990Y70715
X16665Y66265
X55263Y1952
X46623Y1952
X46948Y6402
X54938Y6402
X8675Y66265
T9
X46623Y7002
X55263Y7002
X47343Y5002
X16270Y67665
X16990Y65665
X8350Y65665
T10
X64700Y36950
X65250Y37800
X63000Y37800
X64100Y37800
X54237Y37413
X52332Y37286
X59689Y41714
X59435Y41079
X57657Y39809
X59000Y71000
X55000Y71000
X53221Y37921
X51443Y37921
X45847Y53975
X39585Y31095
X51000Y71000
X47000Y71000
X43000Y71000
X39000Y71000
X35000Y71000
X31000Y71000
X27000Y71000
X23000Y71000
X40426Y33332
X49711Y47113
X56493Y47150
X62550Y45850
X47667Y39767
X52832Y30861
X62000Y1000
X13543Y18897
X45704Y23211
X40400Y34082
X63500Y21463
X50987Y45028
X47350Y46600
X52500Y42608
X46482Y53340
X30072Y29202
X45189Y51996
X46355Y51562
X47800Y48900
X55654Y43442
X60870Y24160
X61730Y24130
X71500Y44000
X47266Y62665
X16149Y17963
X16179Y17186
X46217Y55426
X31115Y18034
X31115Y20828
X58918Y47190
X58199Y47190
X50345Y50000
X61849Y51054
X46950Y55650
X46500Y40550
X47700Y50650
X46500Y42950
X55023Y47190
X56953Y61371
X55730Y47190
X56244Y61371
X47600Y47900
X40640Y39715
X54881Y43288
X46950Y50300
X22890Y9580
X25600Y12130
X28130Y8430
X27686Y5207
X13326Y16374
X45440Y35160
X52600Y47150
X57350Y47200
X61404Y45550
X46550Y46650
X45850Y39950
X45550Y36900
X59050Y51400
X53423Y35596
X51188Y51100
X62611Y51054
X56800Y44213
X58000Y1000
X66000Y1000
X70000Y1000
X71500Y12000
X71500Y17000
X71500Y19000
X71500Y24000
X71500Y28000
X71500Y32000
X71500Y36000
X71500Y40000
X53950Y43139
X71500Y48000
X14310Y18890
X71500Y52000
X71500Y56000
X71500Y60000
X71500Y64000
X67000Y71000
X63000Y71000
X19000Y71000
X7000Y71000
X3000Y71000
X1000Y65000
X1000Y61000
X1000Y9000
X8000Y1000
X4000Y1000
X1000Y4000
X50050Y35400
X50250Y29850
X51700Y29900
X63350Y42200
X65300Y36150
X64200Y36150
X63000Y36100
X63600Y36950
T11
X52137Y24107
X62500Y21510
X61462Y21902
X68247Y13343
X40329Y2685
X40351Y1892
X10940Y59380
X33581Y48391
X7800Y37500
X43336Y12184
X957Y12187
X51521Y14161
X61004Y13999
X2100Y12187
X3243Y12187
X28120Y48970
X7800Y34900
X29356Y49200
X2100Y34950
X33031Y47591
X2100Y37500
X33031Y46141
X2100Y40000
X33031Y43341
X2100Y45100
X32481Y38241
X2100Y50200
X33917Y36641
X2083Y52700
X33731Y46891
X7800Y40000
X33631Y45441
X7800Y42550
X33731Y44041
X7800Y45100
X32331Y41341
X7800Y47650
X32731Y39141
X7800Y50200
X32917Y37341
X7800Y52700
X34517Y35841
X5598Y54045
X33031Y44741
X2100Y42600
X5839Y23487
X14506Y36800
X30712Y35669
X23908Y4496
X15650Y23500
X16650Y23500
X10406Y35950
X26833Y12335
X24393Y12332
X15992Y13624
X15906Y11133
X19737Y18513
X57287Y19840
X39866Y24770
X40005Y18669
X32239Y64954
X15852Y40500
X33239Y64954
X12206Y38200
X28457Y52651
X18397Y43419
X11700Y32200
X13106Y38900
X29593Y52643
X18455Y42087
X11700Y27200
X17306Y49900
X30526Y52012
X30017Y32311
X17706Y40500
X24617Y32541
X34231Y39691
X14250Y26650
X19241Y23535
X21806Y51179
X23306Y32600
X34212Y42793
X19241Y24385
X20032Y24379
X32606Y49300
X18952Y45354
X13806Y36000
X27606Y36171
X32222Y39950
X2100Y47650
X33817Y35141
X7798Y57800
X33909Y34218
X1981Y57800
X39624Y36271
X12850Y29700
X27317Y30511
X26932Y36792
X21867Y29261
X23552Y35877
X9908Y11484
X15598Y4023
X9907Y14655
X10325Y2833
X21020Y3100
X10019Y7723
X17798Y4023
X19968Y12844
X20955Y9398
X19027Y2071
X29083Y28702
X28387Y28001
X24595Y8561
X23276Y8511
X19295Y42513
X19500Y9819
X19369Y8627
X21750Y42250
X18578Y41160
X18700Y14100
X21465Y5552
X12600Y3909
X13270Y15060
X11295Y15029
X12346Y14310
X13447Y59150
X13771Y63442
X12853Y58445
X7762Y11964
X30277Y12971
X6777Y11990
X8703Y11996
X53910Y20754
X54590Y20734
X54320Y20054
X60084Y19920
X60084Y20690
X59600Y19150
X52857Y19594
X52357Y20224
X52957Y20734
X10697Y63921
X51391Y21849
X14330Y64048
X35650Y13400
X38585Y9615
X35650Y15900
X37249Y9621
X31790Y13121
X30500Y1450
X32710Y13400
X32400Y1400
X13052Y63940
X60621Y15935
X18731Y63322
X60590Y16850
X12168Y63956
X18734Y62460
X58370Y20054
X58100Y20774
X58840Y20744
X48553Y21887
X49569Y21379
X49569Y22522
X16700Y60457
X11102Y63207
X17509Y59483
X49677Y15775
X11740Y53680
X49719Y14722
X10774Y53669
X43448Y6300
X44471Y8147
X52415Y8846
X43713Y7606
X62070Y17313
X42810Y1752
X36934Y5180
X50585Y8955
X62053Y18097
X41870Y1705
X51474Y8805
X36924Y6084
X56004Y20050
X32770Y30937
X39600Y7250
X10950Y55550
X54278Y8854
X34671Y22352
X12220Y55550
X41848Y9610
X48496Y15935
X61878Y8309
X49754Y24094
X11947Y58636
X41446Y42644
X33410Y27011
X57244Y10041
X30820Y25380
X58262Y10037
X32120Y25370
X59396Y9991
X34686Y27014
X60449Y9995
X19401Y26208
X56377Y10981
X64359Y12407
X43695Y62009
X41250Y41250
X48731Y24051
X39530Y40220
X47595Y24034
X41250Y38700
X46502Y24092
X61493Y13157
X39550Y10888
X61756Y14551
X41454Y10785
X44537Y4428
X22860Y15494
X30106Y64350
X28966Y64330
X23230Y5501
X27566Y64330
X26106Y64320
X24596Y64320
X15256Y48150
X19327Y52200
X31406Y32300
X31718Y55548
X27214Y55539
X17483Y43410
X17606Y37700
X22718Y55548
X28717Y33691
X26017Y32541
X35681Y41141
X16317Y35541
X14917Y33841
X14917Y31741
X14917Y29641
X14967Y27741
X15267Y25541
X18167Y25541
X19917Y27741
X20317Y29641
X20317Y31741
X20317Y33841
X21906Y32600
X32066Y51930
X29562Y51171
X16906Y21100
X40602Y9983
X36195Y60909
X37595Y60909
X38995Y60909
X43095Y60709
X44495Y60709
X30554Y10618
X16717Y25491
X2087Y60682
X3487Y60682
X3187Y57832
X38675Y37452
X5487Y13982
X7137Y14632
X7710Y24568
X4967Y36191
X4917Y51441
X9617Y35141
X27978Y32075
X54953Y23277
X15510Y63672
X11850Y60550
X13110Y60640
X50477Y22488
X51085Y10657
X51920Y10649
X12072Y62121
X12907Y62109
X54317Y7804
X47729Y8636
X51932Y12257
X51152Y12260
X49715Y10668
X48645Y17765
X37933Y1991
X33911Y4370
X44628Y9520
X29873Y15430
X29977Y14567
X21336Y16637
X26797Y16764
X30861Y30734
X41085Y36059
X34160Y18666
X18037Y18539
T12
X22906Y40200
X26206Y43500
X25106Y43500
X24006Y43500
X24006Y44600
X25106Y44600
X26206Y44600
X27306Y44600
X28406Y40200
X24006Y45700
X28406Y45700
X22906Y45700
X27306Y40200
X26206Y40200
X24006Y40200
X25106Y40200
X27306Y45700
X26206Y45700
X57930Y23750
X25106Y45700
X28406Y41300
X28406Y42400
X28406Y43500
X28406Y44600
X22906Y41300
X22906Y42400
X22906Y43500
X22906Y44600
X27306Y41300
X26206Y41300
X25106Y41300
X24006Y41300
X27306Y42400
X26206Y42400
X25106Y42400
X24006Y42400
X27306Y43500
T13
X49065Y6886
X42163Y3734
X41233Y3716
X55266Y15723
X14190Y65799
X13598Y65869
X56374Y15707
X52224Y6855
X11874Y65811
X15063Y57934
X41233Y4656
X42136Y4628
X51550Y6822
X15063Y56934
X15930Y56949
X57540Y15719
X50045Y6753
X57501Y13500
X56351Y13500
X56982Y17064
X57828Y17083
X57814Y17991
X58672Y17997
X58683Y17069
X54047Y17946
X54050Y17056
X55750Y17056
X54890Y17956
X55730Y17956
X54902Y17063
X55251Y13500
X58501Y14642
X57501Y14650
X12962Y65888
X56351Y14650
X55251Y14650
X50606Y6752
X54151Y14650
X11290Y65749
X15956Y57940
X56968Y17983
M30