G04 EAGLE Gerber RS-274X export*
G75*
%MOMM*%
%FSLAX34Y34*%
%LPD*%
%INSolderpaste Top*%
%IPPOS*%
%AMOC8*
5,1,8,0,0,1.08239X$1,22.5*%
G01*
%ADD10R,1.800000X1.600000*%
%ADD11R,0.900000X0.700000*%
%ADD12R,0.700000X0.900000*%
%ADD13R,0.530000X1.330000*%
%ADD14R,2.790000X1.270000*%
%ADD15R,1.000000X0.200000*%
%ADD16R,0.200000X1.000000*%
%ADD17R,6.750000X6.750000*%
%ADD18R,1.200000X1.800000*%
%ADD19R,0.800000X0.900000*%
%ADD20R,0.900000X0.800000*%
%ADD21R,0.914400X0.762000*%
%ADD22R,0.762000X0.914400*%
%ADD23R,1.219200X0.558800*%
%ADD24R,1.800000X2.400000*%
%ADD25R,0.500000X1.050000*%
%ADD26R,0.300000X2.600000*%
%ADD27R,0.400000X1.500000*%
%ADD28R,1.800000X2.000000*%
%ADD29R,1.400000X2.000000*%
%ADD30R,0.270000X0.900000*%
%ADD31R,0.270000X0.800000*%
%ADD32R,1.200000X1.200000*%
%ADD33R,0.350000X1.400000*%
%ADD34R,1.100000X1.000000*%
%ADD35R,2.000000X2.000000*%
%ADD36R,0.200000X0.700000*%
%ADD37R,0.700000X0.200000*%
%ADD38R,5.500000X3.400000*%
%ADD39R,2.600000X1.750000*%
%ADD40R,2.550000X1.750000*%
%ADD41R,0.200000X0.800000*%
%ADD42R,0.800000X0.200000*%
%ADD43R,1.800000X1.800000*%
%ADD44R,0.700000X0.600000*%
%ADD45R,1.000000X1.100000*%
%ADD46R,1.200000X0.800000*%
%ADD47R,0.600000X1.970000*%
%ADD48R,2.700000X2.950000*%
%ADD49R,0.800000X0.250000*%
%ADD50R,0.250000X0.800000*%
%ADD51R,0.250000X1.200000*%
%ADD52R,0.800000X1.200000*%
%ADD53R,2.450000X3.500000*%


D10*
X471051Y106203D03*
X471051Y134203D03*
D11*
X454744Y108351D03*
X454744Y95351D03*
D12*
X126556Y359586D03*
X113556Y359586D03*
D13*
X105256Y414826D03*
X117956Y414826D03*
X130656Y414826D03*
X130656Y446830D03*
X117956Y446830D03*
X105256Y446830D03*
D14*
X433550Y108250D03*
X376450Y108250D03*
X433550Y133650D03*
X376450Y133650D03*
X433550Y159050D03*
X376450Y159050D03*
X433550Y184450D03*
X376450Y184450D03*
X433550Y209850D03*
X376450Y209850D03*
X433550Y235250D03*
X376450Y235250D03*
X433550Y260650D03*
X376450Y260650D03*
X433550Y286050D03*
X376450Y286050D03*
X433550Y311450D03*
X376450Y311450D03*
X433550Y336850D03*
X376450Y336850D03*
X433550Y362250D03*
X376450Y362250D03*
X433550Y387650D03*
X376450Y387650D03*
X433550Y413050D03*
X376450Y413050D03*
X433550Y438450D03*
X376450Y438450D03*
X433550Y463850D03*
X376450Y463850D03*
X433550Y489250D03*
X376450Y489250D03*
X433550Y514650D03*
X376450Y514650D03*
X433550Y540050D03*
X376450Y540050D03*
X433550Y565450D03*
X376450Y565450D03*
X433550Y590850D03*
X376450Y590850D03*
X77950Y108250D03*
X20850Y108250D03*
X77950Y133650D03*
X20850Y133650D03*
X77950Y159050D03*
X20850Y159050D03*
X77950Y184450D03*
X20850Y184450D03*
X77950Y209850D03*
X20850Y209850D03*
X77950Y235250D03*
X20850Y235250D03*
X77950Y260650D03*
X20850Y260650D03*
X77950Y286050D03*
X20850Y286050D03*
X77950Y311450D03*
X20850Y311450D03*
X77950Y336850D03*
X20850Y336850D03*
X77950Y362250D03*
X20850Y362250D03*
X77950Y387650D03*
X20850Y387650D03*
X77950Y413050D03*
X20850Y413050D03*
X77950Y438450D03*
X20850Y438450D03*
X77950Y463850D03*
X20850Y463850D03*
X77950Y489250D03*
X20850Y489250D03*
X77950Y514650D03*
X20850Y514650D03*
X77950Y540050D03*
X20850Y540050D03*
X77950Y565450D03*
X20850Y565450D03*
X77950Y590850D03*
X20850Y590850D03*
D15*
X306056Y387496D03*
X306056Y391496D03*
X306056Y395496D03*
X306056Y399496D03*
X306056Y403496D03*
X306056Y407496D03*
X306056Y411496D03*
X306056Y415496D03*
X306056Y419496D03*
X306056Y423496D03*
X306056Y427496D03*
X306056Y431496D03*
X306056Y435496D03*
X306056Y439496D03*
X306056Y443496D03*
X306056Y447496D03*
X306056Y451496D03*
X306056Y455496D03*
X306056Y459496D03*
X306056Y463496D03*
X306056Y467496D03*
X306056Y471496D03*
D16*
X298556Y478996D03*
X294556Y478996D03*
X290556Y478996D03*
X286556Y478996D03*
X282556Y478996D03*
X278556Y478996D03*
X274556Y478996D03*
X270556Y478996D03*
X266556Y478996D03*
X262556Y478996D03*
X258556Y478996D03*
X254556Y478996D03*
X250556Y478996D03*
X246556Y478996D03*
X242556Y478996D03*
X238556Y478996D03*
X234556Y478996D03*
X230556Y478996D03*
X226556Y478996D03*
X222556Y478996D03*
X218556Y478996D03*
X214556Y478996D03*
D15*
X207056Y471496D03*
X207056Y467496D03*
X207056Y463496D03*
X207056Y459496D03*
X207056Y455496D03*
X207056Y451496D03*
X207056Y447496D03*
X207056Y443496D03*
X207056Y439496D03*
X207056Y435496D03*
X207056Y431496D03*
X207056Y427496D03*
X207056Y423496D03*
X207056Y419496D03*
X207056Y415496D03*
X207056Y411496D03*
X207056Y407496D03*
X207056Y403496D03*
X207056Y399496D03*
X207056Y395496D03*
X207056Y391496D03*
X207056Y387496D03*
D16*
X214556Y379996D03*
X218556Y379996D03*
X222556Y379996D03*
X226556Y379996D03*
X230556Y379996D03*
X234556Y379996D03*
X238556Y379996D03*
X242556Y379996D03*
X246556Y379996D03*
X250556Y379996D03*
X254556Y379996D03*
X258556Y379996D03*
X262556Y379996D03*
X266556Y379996D03*
X270556Y379996D03*
X274556Y379996D03*
X278556Y379996D03*
X282556Y379996D03*
X286556Y379996D03*
X290556Y379996D03*
X294556Y379996D03*
X298556Y379996D03*
D17*
X256556Y429496D03*
D18*
X162166Y327406D03*
X162166Y287406D03*
X186166Y287406D03*
X186166Y327406D03*
D19*
X188166Y350406D03*
X174166Y350406D03*
X160166Y264406D03*
X174166Y264406D03*
D12*
X248094Y302666D03*
X263094Y302666D03*
D11*
X130056Y322496D03*
X130056Y307496D03*
X130056Y272496D03*
X130056Y287496D03*
X342306Y375906D03*
X342306Y390906D03*
D20*
X355306Y390406D03*
X355306Y376406D03*
D11*
X161306Y473906D03*
X161306Y488906D03*
X160556Y442496D03*
X160556Y457496D03*
X158786Y426496D03*
X158786Y411496D03*
X158516Y383496D03*
X158516Y398496D03*
D12*
X218666Y314406D03*
X233666Y314406D03*
X218666Y300406D03*
X233666Y300406D03*
D19*
X341806Y403906D03*
X355806Y403906D03*
X305056Y508996D03*
X319056Y508996D03*
D20*
X175306Y488406D03*
X175306Y474406D03*
X173246Y444266D03*
X173246Y458266D03*
X176056Y397996D03*
X176056Y383996D03*
X175056Y411996D03*
X175056Y425996D03*
X114504Y256556D03*
X114504Y242556D03*
D19*
X274056Y508996D03*
X288056Y508996D03*
X218056Y521996D03*
X204056Y521996D03*
D20*
X128504Y256556D03*
X128504Y242556D03*
D19*
X342306Y419406D03*
X356306Y419406D03*
X218056Y502996D03*
X204056Y502996D03*
X192056Y209996D03*
X178056Y209996D03*
X233166Y347406D03*
X219166Y347406D03*
X233056Y333396D03*
X219056Y333396D03*
X273166Y347406D03*
X287166Y347406D03*
X246166Y347406D03*
X260166Y347406D03*
X246166Y333406D03*
X260166Y333406D03*
X300166Y347406D03*
X314166Y347406D03*
X298666Y333806D03*
X312666Y333806D03*
D21*
X142504Y256414D03*
X142504Y242698D03*
D22*
X191914Y224996D03*
X178198Y224996D03*
D23*
X120055Y226496D03*
X120055Y216996D03*
X120055Y207344D03*
X146264Y207344D03*
X146264Y226496D03*
D24*
X478946Y284516D03*
X478946Y325516D03*
D20*
X160056Y224996D03*
X160056Y210996D03*
X105056Y229996D03*
X105056Y215996D03*
D21*
X456504Y270948D03*
X456504Y284664D03*
D20*
X502446Y322984D03*
X502446Y308984D03*
X516836Y322984D03*
X516836Y308984D03*
D25*
X217556Y544996D03*
X227056Y544996D03*
X236556Y544996D03*
X236556Y571996D03*
X227056Y571996D03*
X217556Y571996D03*
X262556Y544996D03*
X272056Y544996D03*
X281556Y544996D03*
X281556Y571996D03*
X272056Y571996D03*
X262556Y571996D03*
X307556Y544996D03*
X317056Y544996D03*
X326556Y544996D03*
X326556Y571996D03*
X317056Y571996D03*
X307556Y571996D03*
D26*
X242500Y621896D03*
X247500Y621896D03*
X252500Y621896D03*
X257500Y621896D03*
X262500Y621896D03*
X267500Y621896D03*
X272500Y621896D03*
X277500Y621896D03*
X282500Y621896D03*
X287500Y621896D03*
X292500Y621896D03*
X297500Y621896D03*
X302500Y621896D03*
X307500Y621896D03*
X312500Y621896D03*
X317500Y621896D03*
X322500Y621896D03*
X327500Y621896D03*
X332500Y621896D03*
D11*
X346056Y555496D03*
X346056Y570496D03*
D27*
X256350Y141250D03*
X249850Y141250D03*
X243350Y141250D03*
X236850Y141250D03*
X230350Y141250D03*
X223850Y141250D03*
X217350Y141250D03*
X210850Y141250D03*
X204350Y141250D03*
X197850Y141250D03*
X197850Y68750D03*
X204350Y68750D03*
X210850Y68750D03*
X217350Y68750D03*
X223850Y68750D03*
X230350Y68750D03*
X236850Y68750D03*
X243350Y68750D03*
X249850Y68750D03*
X256350Y68750D03*
D12*
X235950Y166750D03*
X222950Y166750D03*
X247050Y166750D03*
X260050Y166750D03*
D28*
X176300Y20500D03*
X176300Y62500D03*
X125500Y62500D03*
X125500Y20500D03*
D29*
X150900Y20500D03*
X150900Y62500D03*
D30*
X152950Y649650D03*
X147950Y649650D03*
X142950Y649650D03*
X137950Y649650D03*
X132950Y649650D03*
X127950Y649650D03*
X122950Y649650D03*
X117950Y649650D03*
X112950Y649650D03*
X107950Y649650D03*
X102950Y649650D03*
X97950Y649650D03*
D31*
X100450Y665650D03*
X105450Y665650D03*
X110450Y665650D03*
X115450Y665650D03*
X120450Y665650D03*
X125450Y665650D03*
X130450Y665650D03*
X135450Y665650D03*
X140450Y665650D03*
X145450Y665650D03*
X150450Y665650D03*
X155450Y665650D03*
D30*
X483180Y77020D03*
X488180Y77020D03*
X493180Y77020D03*
X498180Y77020D03*
X503180Y77020D03*
X508180Y77020D03*
X513180Y77020D03*
X518180Y77020D03*
X523180Y77020D03*
X528180Y77020D03*
X533180Y77020D03*
X538180Y77020D03*
D31*
X535680Y61020D03*
X530680Y61020D03*
X525680Y61020D03*
X520680Y61020D03*
X515680Y61020D03*
X510680Y61020D03*
X505680Y61020D03*
X500680Y61020D03*
X495680Y61020D03*
X490680Y61020D03*
X485680Y61020D03*
X480680Y61020D03*
D12*
X227500Y15600D03*
X240500Y15600D03*
D32*
X274500Y15600D03*
X253500Y15600D03*
D12*
X227500Y35100D03*
X240500Y35100D03*
D32*
X274500Y35100D03*
X253500Y35100D03*
D11*
X346670Y101000D03*
X346670Y114000D03*
D12*
X331800Y101210D03*
X318800Y101210D03*
D33*
X309375Y28350D03*
X315725Y28350D03*
X322075Y28350D03*
X328425Y28350D03*
X334775Y28350D03*
X341125Y28350D03*
X347475Y28350D03*
X353825Y28350D03*
X353825Y83850D03*
X347475Y83850D03*
X341125Y83850D03*
X334775Y83850D03*
X328425Y83850D03*
X322075Y83850D03*
X315725Y83850D03*
X309375Y83850D03*
D11*
X291500Y106300D03*
X291500Y93300D03*
X364490Y28640D03*
X364490Y41640D03*
X364370Y84460D03*
X364370Y71460D03*
X379340Y41610D03*
X379340Y28610D03*
X378490Y71160D03*
X378490Y84160D03*
D12*
X178750Y127090D03*
X163750Y127090D03*
X179260Y111060D03*
X164260Y111060D03*
X278710Y126180D03*
X293710Y126180D03*
X278490Y167680D03*
X293490Y167680D03*
D11*
X455000Y136500D03*
X455000Y149500D03*
X455000Y184500D03*
X455000Y171500D03*
D12*
X291950Y153920D03*
X278950Y153920D03*
X291830Y139960D03*
X278830Y139960D03*
D21*
X123000Y165358D03*
X123000Y151642D03*
D11*
X179700Y177400D03*
X179700Y162400D03*
X197550Y162400D03*
X197550Y177400D03*
D34*
X230250Y180350D03*
X213250Y180350D03*
X246750Y180350D03*
X263750Y180350D03*
D35*
X650000Y214460D03*
X710000Y214460D03*
X650000Y150340D03*
X710000Y150340D03*
D36*
X589610Y190190D03*
X585610Y190190D03*
X581610Y190190D03*
X577610Y190190D03*
X573610Y190190D03*
X569610Y190190D03*
X565610Y190190D03*
X561610Y190190D03*
X557610Y190190D03*
X553610Y190190D03*
X549610Y190190D03*
X545610Y190190D03*
X541610Y190190D03*
X537610Y190190D03*
D37*
X530110Y182690D03*
X530110Y178690D03*
X530110Y174690D03*
X530110Y170690D03*
X530110Y166690D03*
X530110Y162690D03*
X530110Y158690D03*
X530110Y154690D03*
X530110Y150690D03*
X530110Y146690D03*
X530110Y142690D03*
X530110Y138690D03*
X530110Y134690D03*
X530110Y130690D03*
D36*
X537610Y123190D03*
X541610Y123190D03*
X545610Y123190D03*
X549610Y123190D03*
X553610Y123190D03*
X557610Y123190D03*
X561610Y123190D03*
X565610Y123190D03*
X569610Y123190D03*
X573610Y123190D03*
X577610Y123190D03*
X581610Y123190D03*
X585610Y123190D03*
X589610Y123190D03*
D37*
X597110Y130690D03*
X597110Y134690D03*
X597110Y138690D03*
X597110Y142690D03*
X597110Y146690D03*
X597110Y150690D03*
X597110Y154690D03*
X597110Y158690D03*
X597110Y162690D03*
X597110Y166690D03*
X597110Y170690D03*
X597110Y174690D03*
X597110Y178690D03*
X597110Y182690D03*
D38*
X563610Y146190D03*
D39*
X578110Y175440D03*
D40*
X548860Y175440D03*
D41*
X163240Y559660D03*
X159240Y559660D03*
X155240Y559660D03*
X151240Y559660D03*
X147240Y559660D03*
X163240Y589660D03*
X159240Y589660D03*
X155240Y589660D03*
X151240Y589660D03*
X147240Y589660D03*
D42*
X170240Y574660D03*
X170240Y570660D03*
X170240Y566660D03*
X170240Y578660D03*
X170240Y582660D03*
X140240Y574660D03*
X140240Y570660D03*
X140240Y566660D03*
X140240Y578660D03*
X140240Y582660D03*
D43*
X155240Y574660D03*
D42*
X402120Y34130D03*
X402120Y38130D03*
X402120Y42130D03*
X402120Y46130D03*
X402120Y50130D03*
X432120Y34130D03*
X432120Y38130D03*
X432120Y42130D03*
X432120Y46130D03*
X432120Y50130D03*
D41*
X417120Y27130D03*
X413120Y27130D03*
X409120Y27130D03*
X421120Y27130D03*
X425120Y27130D03*
X417120Y57130D03*
X413120Y57130D03*
X409120Y57130D03*
X421120Y57130D03*
X425120Y57130D03*
D43*
X417120Y42130D03*
D44*
X568160Y219180D03*
X568160Y209180D03*
X568160Y237690D03*
X568160Y227690D03*
X557470Y219180D03*
X557470Y209180D03*
X557370Y237760D03*
X557370Y227760D03*
X554200Y100528D03*
X554200Y90528D03*
X563958Y100530D03*
X563958Y90530D03*
X504960Y218460D03*
X504960Y208460D03*
D45*
X155070Y625790D03*
X155070Y608790D03*
X109410Y583370D03*
X109410Y566370D03*
D44*
X122220Y576700D03*
X122220Y566700D03*
D46*
X641750Y334410D03*
X641750Y352410D03*
D47*
X346710Y284750D03*
X334010Y284750D03*
X321310Y284750D03*
X308610Y284750D03*
X308610Y235900D03*
X321310Y235900D03*
X334010Y235900D03*
X346710Y235900D03*
D44*
X321310Y299800D03*
X321310Y309800D03*
X334010Y299800D03*
X334010Y309800D03*
X346710Y299800D03*
X346710Y309800D03*
X334010Y220900D03*
X334010Y210900D03*
D11*
X346710Y202900D03*
X346710Y215900D03*
D44*
X530726Y105620D03*
X530726Y95620D03*
D12*
X252850Y52070D03*
X267850Y52070D03*
D22*
X152908Y179070D03*
X139192Y179070D03*
D48*
X677500Y363750D03*
X677500Y296250D03*
X677500Y398750D03*
X677500Y466250D03*
D46*
X644820Y407460D03*
X644820Y389460D03*
X626340Y407780D03*
X626340Y389780D03*
D11*
X610860Y390370D03*
X610860Y403370D03*
D12*
X624754Y421960D03*
X611754Y421960D03*
D49*
X595540Y390720D03*
X595540Y395720D03*
X595540Y400720D03*
X595540Y405720D03*
D50*
X588540Y412720D03*
D51*
X583540Y410720D03*
X578540Y410720D03*
D50*
X573540Y412720D03*
D49*
X566540Y405720D03*
X566540Y400720D03*
X566540Y395720D03*
X566540Y390720D03*
D50*
X573540Y383720D03*
D51*
X578540Y385720D03*
X583540Y385720D03*
D50*
X588540Y383720D03*
D52*
X534460Y420960D03*
X552460Y420960D03*
D46*
X577980Y446010D03*
X577980Y428010D03*
D34*
X595300Y428150D03*
X595300Y445150D03*
D46*
X550630Y405490D03*
X550630Y387490D03*
X532850Y405880D03*
X532850Y387880D03*
X497570Y405740D03*
X497570Y387740D03*
X515050Y405660D03*
X515050Y387660D03*
D12*
X599688Y368772D03*
X586688Y368772D03*
X560640Y368770D03*
X573640Y368770D03*
D53*
X616600Y312020D03*
X547100Y312020D03*
M02*
