G04 EAGLE Gerber RS-274X export*
G75*
%MOMM*%
%FSLAX34Y34*%
%LPD*%
%INSilkscreen Bottom*%
%IPPOS*%
%AMOC8*
5,1,8,0,0,1.08239X$1,22.5*%
G01*
%ADD10C,0.381000*%
%ADD11C,0.355600*%
%ADD12C,0.152400*%
%ADD13C,0.203200*%


D10*
X407845Y533405D02*
X407845Y548912D01*
X400091Y548912D01*
X397507Y546328D01*
X397507Y541159D01*
X400091Y538574D01*
X407845Y538574D01*
X387486Y533405D02*
X382317Y533405D01*
X379732Y535990D01*
X379732Y541159D01*
X382317Y543743D01*
X387486Y543743D01*
X390070Y541159D01*
X390070Y535990D01*
X387486Y533405D01*
X372295Y528236D02*
X372295Y543743D01*
X364542Y543743D01*
X361957Y541159D01*
X361957Y535990D01*
X364542Y533405D01*
X372295Y533405D01*
X351936Y543743D02*
X344182Y543743D01*
X351936Y543743D02*
X354520Y541159D01*
X354520Y535990D01*
X351936Y533405D01*
X344182Y533405D01*
X334161Y533405D02*
X328992Y533405D01*
X326407Y535990D01*
X326407Y541159D01*
X328992Y543743D01*
X334161Y543743D01*
X336746Y541159D01*
X336746Y535990D01*
X334161Y533405D01*
X318971Y533405D02*
X318971Y543743D01*
X318971Y538574D02*
X313802Y543743D01*
X311217Y543743D01*
X304158Y543743D02*
X304158Y533405D01*
X304158Y543743D02*
X296405Y543743D01*
X293820Y541159D01*
X293820Y533405D01*
X260855Y548912D02*
X258271Y546328D01*
X260855Y548912D02*
X266024Y548912D01*
X268609Y546328D01*
X268609Y543743D01*
X266024Y541159D01*
X260855Y541159D01*
X258271Y538574D01*
X258271Y535990D01*
X260855Y533405D01*
X266024Y533405D01*
X268609Y535990D01*
X248249Y535990D02*
X248249Y546328D01*
X248249Y535990D02*
X245665Y533405D01*
X245665Y543743D02*
X250834Y543743D01*
X236399Y533405D02*
X231230Y533405D01*
X228646Y535990D01*
X228646Y541159D01*
X231230Y543743D01*
X236399Y543743D01*
X238984Y541159D01*
X238984Y535990D01*
X236399Y533405D01*
X221209Y543743D02*
X216040Y533405D01*
X210871Y543743D01*
X200850Y533405D02*
X195681Y533405D01*
X200850Y533405D02*
X203434Y535990D01*
X203434Y541159D01*
X200850Y543743D01*
X195681Y543743D01*
X193096Y541159D01*
X193096Y538574D01*
X203434Y538574D01*
X183075Y535990D02*
X183075Y546328D01*
X183075Y535990D02*
X180490Y533405D01*
X180490Y543743D02*
X185659Y543743D01*
X171225Y533405D02*
X166056Y533405D01*
X163471Y535990D01*
X163471Y541159D01*
X166056Y543743D01*
X171225Y543743D01*
X173810Y541159D01*
X173810Y535990D01*
X171225Y533405D01*
X156035Y528236D02*
X156035Y543743D01*
X148281Y543743D01*
X145697Y541159D01*
X145697Y535990D01*
X148281Y533405D01*
X156035Y533405D01*
X120485Y543743D02*
X115316Y533405D01*
X110147Y543743D01*
X102710Y546328D02*
X102710Y535990D01*
X102710Y546328D02*
X100126Y548912D01*
X94957Y548912D01*
X92372Y546328D01*
X92372Y535990D01*
X94957Y533405D01*
X100126Y533405D01*
X102710Y535990D01*
X92372Y546328D01*
X84935Y535990D02*
X84935Y533405D01*
X84935Y535990D02*
X82351Y535990D01*
X82351Y533405D01*
X84935Y533405D01*
X76048Y535990D02*
X73463Y533405D01*
X68294Y533405D01*
X65710Y535990D01*
X65710Y546328D01*
X68294Y548912D01*
X73463Y548912D01*
X76048Y546328D01*
X76048Y543743D01*
X73463Y541159D01*
X65710Y541159D01*
D11*
X466727Y226778D02*
X471472Y226778D01*
X469099Y226778D02*
X469099Y241014D01*
X466727Y241014D02*
X471472Y241014D01*
X444186Y241014D02*
X444186Y226778D01*
X434695Y226778D01*
X425442Y241014D02*
X420696Y241014D01*
X425442Y241014D02*
X427815Y238641D01*
X427815Y229151D01*
X425442Y226778D01*
X420696Y226778D01*
X418324Y229151D01*
X418324Y238641D01*
X420696Y241014D01*
X411443Y241014D02*
X411443Y231523D01*
X406698Y226778D01*
X401952Y231523D01*
X401952Y241014D01*
X395071Y241014D02*
X385581Y241014D01*
X395071Y241014D02*
X395071Y226778D01*
X385581Y226778D01*
X390326Y233896D02*
X395071Y233896D01*
X362328Y226778D02*
X362328Y241014D01*
X355210Y241014D01*
X352838Y238641D01*
X352838Y233896D01*
X355210Y231523D01*
X362328Y231523D01*
X343584Y241014D02*
X338839Y241014D01*
X343584Y241014D02*
X345957Y238641D01*
X345957Y229151D01*
X343584Y226778D01*
X338839Y226778D01*
X336466Y229151D01*
X336466Y238641D01*
X338839Y241014D01*
X329585Y241014D02*
X329585Y226778D01*
X329585Y241014D02*
X322467Y241014D01*
X320094Y238641D01*
X320094Y233896D01*
X322467Y231523D01*
X329585Y231523D01*
X306096Y241014D02*
X303723Y238641D01*
X306096Y241014D02*
X310841Y241014D01*
X313214Y238641D01*
X313214Y229151D01*
X310841Y226778D01*
X306096Y226778D01*
X303723Y229151D01*
X294469Y241014D02*
X289724Y241014D01*
X294469Y241014D02*
X296842Y238641D01*
X296842Y229151D01*
X294469Y226778D01*
X289724Y226778D01*
X287351Y229151D01*
X287351Y238641D01*
X289724Y241014D01*
X280470Y241014D02*
X280470Y226778D01*
X280470Y241014D02*
X273352Y241014D01*
X270980Y238641D01*
X270980Y233896D01*
X273352Y231523D01*
X280470Y231523D01*
X275725Y231523D02*
X270980Y226778D01*
X264099Y226778D02*
X264099Y241014D01*
X254608Y226778D01*
X254608Y241014D01*
X247727Y229151D02*
X247727Y226778D01*
X247727Y233896D02*
X247727Y243387D01*
D12*
X403226Y521715D02*
X404666Y523155D01*
X407547Y523155D01*
X408988Y521715D01*
X408988Y520274D01*
X407547Y518834D01*
X404666Y518834D01*
X403226Y517393D01*
X403226Y515953D01*
X404666Y514512D01*
X407547Y514512D01*
X408988Y515953D01*
X398192Y514512D02*
X395311Y514512D01*
X393871Y515953D01*
X393871Y518834D01*
X395311Y520274D01*
X398192Y520274D01*
X399633Y518834D01*
X399633Y515953D01*
X398192Y514512D01*
X390278Y515953D02*
X390278Y520274D01*
X390278Y515953D02*
X388837Y514512D01*
X384515Y514512D01*
X384515Y520274D01*
X380922Y520274D02*
X380922Y514512D01*
X380922Y517393D02*
X378041Y520274D01*
X376601Y520274D01*
X371686Y520274D02*
X367364Y520274D01*
X371686Y520274D02*
X373126Y518834D01*
X373126Y515953D01*
X371686Y514512D01*
X367364Y514512D01*
X362331Y514512D02*
X359450Y514512D01*
X362331Y514512D02*
X363771Y515953D01*
X363771Y518834D01*
X362331Y520274D01*
X359450Y520274D01*
X358009Y518834D01*
X358009Y517393D01*
X363771Y517393D01*
X345061Y514512D02*
X345061Y523155D01*
X340739Y523155D01*
X339299Y521715D01*
X339299Y518834D01*
X340739Y517393D01*
X345061Y517393D01*
X334265Y520274D02*
X331384Y520274D01*
X329943Y518834D01*
X329943Y514512D01*
X334265Y514512D01*
X335706Y515953D01*
X334265Y517393D01*
X329943Y517393D01*
X326351Y514512D02*
X326351Y520274D01*
X326351Y517393D02*
X323469Y520274D01*
X322029Y520274D01*
X317114Y521715D02*
X317114Y515953D01*
X315673Y514512D01*
X315673Y520274D02*
X318555Y520274D01*
X312318Y514512D02*
X307996Y514512D01*
X306556Y515953D01*
X307996Y517393D01*
X310877Y517393D01*
X312318Y518834D01*
X310877Y520274D01*
X306556Y520274D01*
X293607Y514512D02*
X290726Y514512D01*
X292167Y514512D02*
X292167Y523155D01*
X293607Y523155D02*
X290726Y523155D01*
X287371Y520274D02*
X287371Y514512D01*
X287371Y520274D02*
X283049Y520274D01*
X281608Y518834D01*
X281608Y514512D01*
X276575Y520274D02*
X272253Y520274D01*
X276575Y520274D02*
X278015Y518834D01*
X278015Y515953D01*
X276575Y514512D01*
X272253Y514512D01*
X268660Y514512D02*
X268660Y515953D01*
X267220Y515953D01*
X267220Y514512D01*
X268660Y514512D01*
X254627Y517393D02*
X251746Y514512D01*
X254627Y517393D02*
X254627Y520274D01*
X251746Y523155D01*
X248391Y520274D02*
X245510Y523155D01*
X245510Y514512D01*
X248391Y514512D02*
X242628Y514512D01*
X239036Y514512D02*
X233273Y514512D01*
X233273Y520274D02*
X239036Y514512D01*
X233273Y520274D02*
X233273Y521715D01*
X234714Y523155D01*
X237595Y523155D01*
X239036Y521715D01*
X229680Y514512D02*
X223918Y523155D01*
X220325Y514512D02*
X214563Y514512D01*
X220325Y514512D02*
X214563Y520274D01*
X214563Y521715D01*
X216003Y523155D01*
X218885Y523155D01*
X220325Y521715D01*
X210970Y520274D02*
X208089Y523155D01*
X208089Y514512D01*
X210970Y514512D02*
X205208Y514512D01*
X201615Y514512D02*
X195853Y523155D01*
X192260Y514512D02*
X186497Y514512D01*
X186497Y520274D02*
X192260Y514512D01*
X186497Y520274D02*
X186497Y521715D01*
X187938Y523155D01*
X190819Y523155D01*
X192260Y521715D01*
X182904Y521715D02*
X182904Y515953D01*
X182904Y521715D02*
X181464Y523155D01*
X178583Y523155D01*
X177142Y521715D01*
X177142Y515953D01*
X178583Y514512D01*
X181464Y514512D01*
X182904Y515953D01*
X177142Y521715D01*
X173549Y520274D02*
X170668Y523155D01*
X170668Y514512D01*
X173549Y514512D02*
X167787Y514512D01*
X164194Y521715D02*
X162753Y523155D01*
X159872Y523155D01*
X158432Y521715D01*
X158432Y520274D01*
X159872Y518834D01*
X158432Y517393D01*
X158432Y515953D01*
X159872Y514512D01*
X162753Y514512D01*
X164194Y515953D01*
X164194Y517393D01*
X162753Y518834D01*
X164194Y520274D01*
X164194Y521715D01*
X162753Y518834D02*
X159872Y518834D01*
X154839Y514512D02*
X151958Y517393D01*
X151958Y520274D01*
X154839Y523155D01*
X408988Y506745D02*
X408988Y498102D01*
X408988Y502424D02*
X407547Y503864D01*
X404666Y503864D01*
X403226Y502424D01*
X403226Y498102D01*
X398192Y499543D02*
X398192Y505305D01*
X398192Y499543D02*
X396752Y498102D01*
X396752Y503864D02*
X399633Y503864D01*
X391955Y505305D02*
X391955Y499543D01*
X390515Y498102D01*
X390515Y503864D02*
X393396Y503864D01*
X387159Y503864D02*
X387159Y495221D01*
X387159Y503864D02*
X382838Y503864D01*
X381397Y502424D01*
X381397Y499543D01*
X382838Y498102D01*
X387159Y498102D01*
X377804Y503864D02*
X376364Y503864D01*
X376364Y502424D01*
X377804Y502424D01*
X377804Y503864D01*
X377804Y499543D02*
X376364Y499543D01*
X376364Y498102D01*
X377804Y498102D01*
X377804Y499543D01*
X373126Y498102D02*
X367364Y506745D01*
X358009Y506745D02*
X363771Y498102D01*
X354416Y498102D02*
X350094Y498102D01*
X348654Y499543D01*
X350094Y500983D01*
X352976Y500983D01*
X354416Y502424D01*
X352976Y503864D01*
X348654Y503864D01*
X343620Y498102D02*
X340739Y498102D01*
X339299Y499543D01*
X339299Y502424D01*
X340739Y503864D01*
X343620Y503864D01*
X345061Y502424D01*
X345061Y499543D01*
X343620Y498102D01*
X335706Y499543D02*
X335706Y503864D01*
X335706Y499543D02*
X334265Y498102D01*
X329943Y498102D01*
X329943Y503864D01*
X326351Y503864D02*
X326351Y498102D01*
X326351Y500983D02*
X323469Y503864D01*
X322029Y503864D01*
X317114Y503864D02*
X312792Y503864D01*
X317114Y503864D02*
X318555Y502424D01*
X318555Y499543D01*
X317114Y498102D01*
X312792Y498102D01*
X307759Y498102D02*
X304878Y498102D01*
X307759Y498102D02*
X309199Y499543D01*
X309199Y502424D01*
X307759Y503864D01*
X304878Y503864D01*
X303437Y502424D01*
X303437Y500983D01*
X309199Y500983D01*
X299844Y499543D02*
X299844Y498102D01*
X299844Y499543D02*
X298404Y499543D01*
X298404Y498102D01*
X299844Y498102D01*
X295167Y495221D02*
X295167Y503864D01*
X290845Y503864D01*
X289404Y502424D01*
X289404Y499543D01*
X290845Y498102D01*
X295167Y498102D01*
X284371Y503864D02*
X281490Y503864D01*
X280049Y502424D01*
X280049Y498102D01*
X284371Y498102D01*
X285811Y499543D01*
X284371Y500983D01*
X280049Y500983D01*
X276456Y498102D02*
X276456Y503864D01*
X276456Y500983D02*
X273575Y503864D01*
X272135Y503864D01*
X267220Y505305D02*
X267220Y499543D01*
X265779Y498102D01*
X265779Y503864D02*
X268660Y503864D01*
X262423Y498102D02*
X258102Y498102D01*
X256661Y499543D01*
X258102Y500983D01*
X260983Y500983D01*
X262423Y502424D01*
X260983Y503864D01*
X256661Y503864D01*
X408988Y491505D02*
X408988Y482862D01*
X408988Y487184D02*
X407547Y488624D01*
X404666Y488624D01*
X403226Y487184D01*
X403226Y482862D01*
X398192Y484303D02*
X398192Y490065D01*
X398192Y484303D02*
X396752Y482862D01*
X396752Y488624D02*
X399633Y488624D01*
X391955Y490065D02*
X391955Y484303D01*
X390515Y482862D01*
X390515Y488624D02*
X393396Y488624D01*
X387159Y488624D02*
X387159Y479981D01*
X387159Y488624D02*
X382838Y488624D01*
X381397Y487184D01*
X381397Y484303D01*
X382838Y482862D01*
X387159Y482862D01*
X377804Y488624D02*
X376364Y488624D01*
X376364Y487184D01*
X377804Y487184D01*
X377804Y488624D01*
X377804Y484303D02*
X376364Y484303D01*
X376364Y482862D01*
X377804Y482862D01*
X377804Y484303D01*
X373126Y482862D02*
X367364Y491505D01*
X358009Y491505D02*
X363771Y482862D01*
X354416Y479981D02*
X354416Y488624D01*
X350094Y488624D01*
X348654Y487184D01*
X348654Y484303D01*
X350094Y482862D01*
X354416Y482862D01*
X343620Y482862D02*
X340739Y482862D01*
X339299Y484303D01*
X339299Y487184D01*
X340739Y488624D01*
X343620Y488624D01*
X345061Y487184D01*
X345061Y484303D01*
X343620Y482862D01*
X335706Y479981D02*
X335706Y488624D01*
X331384Y488624D01*
X329943Y487184D01*
X329943Y484303D01*
X331384Y482862D01*
X335706Y482862D01*
X324910Y488624D02*
X320588Y488624D01*
X324910Y488624D02*
X326351Y487184D01*
X326351Y484303D01*
X324910Y482862D01*
X320588Y482862D01*
X315555Y482862D02*
X312674Y482862D01*
X311233Y484303D01*
X311233Y487184D01*
X312674Y488624D01*
X315555Y488624D01*
X316995Y487184D01*
X316995Y484303D01*
X315555Y482862D01*
X307640Y482862D02*
X307640Y488624D01*
X307640Y485743D02*
X304759Y488624D01*
X303318Y488624D01*
X299844Y488624D02*
X299844Y482862D01*
X299844Y488624D02*
X295523Y488624D01*
X294082Y487184D01*
X294082Y482862D01*
X289048Y488624D02*
X284727Y488624D01*
X289048Y488624D02*
X290489Y487184D01*
X290489Y484303D01*
X289048Y482862D01*
X284727Y482862D01*
X279693Y482862D02*
X276812Y482862D01*
X275372Y484303D01*
X275372Y487184D01*
X276812Y488624D01*
X279693Y488624D01*
X281134Y487184D01*
X281134Y484303D01*
X279693Y482862D01*
X271779Y482862D02*
X271779Y488624D01*
X270338Y488624D01*
X268898Y487184D01*
X268898Y482862D01*
X268898Y487184D02*
X267457Y488624D01*
X266016Y487184D01*
X266016Y482862D01*
X262423Y479981D02*
X262423Y488624D01*
X258102Y488624D01*
X256661Y487184D01*
X256661Y484303D01*
X258102Y482862D01*
X262423Y482862D01*
X253068Y484303D02*
X253068Y488624D01*
X253068Y484303D02*
X251628Y482862D01*
X247306Y482862D01*
X247306Y488624D01*
X242273Y490065D02*
X242273Y484303D01*
X240832Y482862D01*
X240832Y488624D02*
X243713Y488624D01*
X236036Y482862D02*
X233155Y482862D01*
X236036Y482862D02*
X237476Y484303D01*
X237476Y487184D01*
X236036Y488624D01*
X233155Y488624D01*
X231714Y487184D01*
X231714Y485743D01*
X237476Y485743D01*
X228121Y482862D02*
X228121Y488624D01*
X228121Y485743D02*
X225240Y488624D01*
X223799Y488624D01*
X220325Y484303D02*
X220325Y482862D01*
X220325Y484303D02*
X218885Y484303D01*
X218885Y482862D01*
X220325Y482862D01*
X214207Y488624D02*
X209885Y488624D01*
X214207Y488624D02*
X215648Y487184D01*
X215648Y484303D01*
X214207Y482862D01*
X209885Y482862D01*
X204852Y482862D02*
X201971Y482862D01*
X200530Y484303D01*
X200530Y487184D01*
X201971Y488624D01*
X204852Y488624D01*
X206292Y487184D01*
X206292Y484303D01*
X204852Y482862D01*
X196937Y482862D02*
X196937Y488624D01*
X195497Y488624D01*
X194056Y487184D01*
X194056Y482862D01*
X194056Y487184D02*
X192615Y488624D01*
X191175Y487184D01*
X191175Y482862D01*
D13*
X211225Y94840D02*
X227735Y94840D01*
X208685Y112620D02*
X208687Y112720D01*
X208693Y112819D01*
X208703Y112919D01*
X208716Y113017D01*
X208734Y113116D01*
X208755Y113213D01*
X208780Y113309D01*
X208809Y113405D01*
X208842Y113499D01*
X208878Y113592D01*
X208918Y113683D01*
X208962Y113773D01*
X209009Y113861D01*
X209059Y113947D01*
X209113Y114031D01*
X209170Y114113D01*
X209230Y114192D01*
X209294Y114270D01*
X209360Y114344D01*
X209429Y114416D01*
X209501Y114485D01*
X209575Y114551D01*
X209653Y114615D01*
X209732Y114675D01*
X209814Y114732D01*
X209898Y114786D01*
X209984Y114836D01*
X210072Y114883D01*
X210162Y114927D01*
X210253Y114967D01*
X210346Y115003D01*
X210440Y115036D01*
X210536Y115065D01*
X210632Y115090D01*
X210729Y115111D01*
X210828Y115129D01*
X210926Y115142D01*
X211026Y115152D01*
X211125Y115158D01*
X211225Y115160D01*
X227735Y115160D02*
X227835Y115158D01*
X227934Y115152D01*
X228034Y115142D01*
X228132Y115129D01*
X228231Y115111D01*
X228328Y115090D01*
X228424Y115065D01*
X228520Y115036D01*
X228614Y115003D01*
X228707Y114967D01*
X228798Y114927D01*
X228888Y114883D01*
X228976Y114836D01*
X229062Y114786D01*
X229146Y114732D01*
X229228Y114675D01*
X229307Y114615D01*
X229385Y114551D01*
X229459Y114485D01*
X229531Y114416D01*
X229600Y114344D01*
X229666Y114270D01*
X229730Y114192D01*
X229790Y114113D01*
X229847Y114031D01*
X229901Y113947D01*
X229951Y113861D01*
X229998Y113773D01*
X230042Y113683D01*
X230082Y113592D01*
X230118Y113499D01*
X230151Y113405D01*
X230180Y113309D01*
X230205Y113213D01*
X230226Y113116D01*
X230244Y113017D01*
X230257Y112919D01*
X230267Y112819D01*
X230273Y112720D01*
X230275Y112620D01*
X230275Y97380D02*
X230273Y97280D01*
X230267Y97181D01*
X230257Y97081D01*
X230244Y96983D01*
X230226Y96884D01*
X230205Y96787D01*
X230180Y96691D01*
X230151Y96595D01*
X230118Y96501D01*
X230082Y96408D01*
X230042Y96317D01*
X229998Y96227D01*
X229951Y96139D01*
X229901Y96053D01*
X229847Y95969D01*
X229790Y95887D01*
X229730Y95808D01*
X229666Y95730D01*
X229600Y95656D01*
X229531Y95584D01*
X229459Y95515D01*
X229385Y95449D01*
X229307Y95385D01*
X229228Y95325D01*
X229146Y95268D01*
X229062Y95214D01*
X228976Y95164D01*
X228888Y95117D01*
X228798Y95073D01*
X228707Y95033D01*
X228614Y94997D01*
X228520Y94964D01*
X228424Y94935D01*
X228328Y94910D01*
X228231Y94889D01*
X228132Y94871D01*
X228034Y94858D01*
X227934Y94848D01*
X227835Y94842D01*
X227735Y94840D01*
X211225Y94840D02*
X211125Y94842D01*
X211026Y94848D01*
X210926Y94858D01*
X210828Y94871D01*
X210729Y94889D01*
X210632Y94910D01*
X210536Y94935D01*
X210440Y94964D01*
X210346Y94997D01*
X210253Y95033D01*
X210162Y95073D01*
X210072Y95117D01*
X209984Y95164D01*
X209898Y95214D01*
X209814Y95268D01*
X209732Y95325D01*
X209653Y95385D01*
X209575Y95449D01*
X209501Y95515D01*
X209429Y95584D01*
X209360Y95656D01*
X209294Y95730D01*
X209230Y95808D01*
X209170Y95887D01*
X209113Y95969D01*
X209059Y96053D01*
X209009Y96139D01*
X208962Y96227D01*
X208918Y96317D01*
X208878Y96408D01*
X208842Y96501D01*
X208809Y96595D01*
X208780Y96691D01*
X208755Y96787D01*
X208734Y96884D01*
X208716Y96983D01*
X208703Y97081D01*
X208693Y97181D01*
X208687Y97280D01*
X208685Y97380D01*
X211225Y115160D02*
X227735Y115160D01*
X333745Y169510D02*
X350255Y169510D01*
X352795Y151730D02*
X352793Y151630D01*
X352787Y151531D01*
X352777Y151431D01*
X352764Y151333D01*
X352746Y151234D01*
X352725Y151137D01*
X352700Y151041D01*
X352671Y150945D01*
X352638Y150851D01*
X352602Y150758D01*
X352562Y150667D01*
X352518Y150577D01*
X352471Y150489D01*
X352421Y150403D01*
X352367Y150319D01*
X352310Y150237D01*
X352250Y150158D01*
X352186Y150080D01*
X352120Y150006D01*
X352051Y149934D01*
X351979Y149865D01*
X351905Y149799D01*
X351827Y149735D01*
X351748Y149675D01*
X351666Y149618D01*
X351582Y149564D01*
X351496Y149514D01*
X351408Y149467D01*
X351318Y149423D01*
X351227Y149383D01*
X351134Y149347D01*
X351040Y149314D01*
X350944Y149285D01*
X350848Y149260D01*
X350751Y149239D01*
X350652Y149221D01*
X350554Y149208D01*
X350454Y149198D01*
X350355Y149192D01*
X350255Y149190D01*
X333745Y149190D02*
X333645Y149192D01*
X333546Y149198D01*
X333446Y149208D01*
X333348Y149221D01*
X333249Y149239D01*
X333152Y149260D01*
X333056Y149285D01*
X332960Y149314D01*
X332866Y149347D01*
X332773Y149383D01*
X332682Y149423D01*
X332592Y149467D01*
X332504Y149514D01*
X332418Y149564D01*
X332334Y149618D01*
X332252Y149675D01*
X332173Y149735D01*
X332095Y149799D01*
X332021Y149865D01*
X331949Y149934D01*
X331880Y150006D01*
X331814Y150080D01*
X331750Y150158D01*
X331690Y150237D01*
X331633Y150319D01*
X331579Y150403D01*
X331529Y150489D01*
X331482Y150577D01*
X331438Y150667D01*
X331398Y150758D01*
X331362Y150851D01*
X331329Y150945D01*
X331300Y151041D01*
X331275Y151137D01*
X331254Y151234D01*
X331236Y151333D01*
X331223Y151431D01*
X331213Y151531D01*
X331207Y151630D01*
X331205Y151730D01*
X331205Y166970D02*
X331207Y167070D01*
X331213Y167169D01*
X331223Y167269D01*
X331236Y167367D01*
X331254Y167466D01*
X331275Y167563D01*
X331300Y167659D01*
X331329Y167755D01*
X331362Y167849D01*
X331398Y167942D01*
X331438Y168033D01*
X331482Y168123D01*
X331529Y168211D01*
X331579Y168297D01*
X331633Y168381D01*
X331690Y168463D01*
X331750Y168542D01*
X331814Y168620D01*
X331880Y168694D01*
X331949Y168766D01*
X332021Y168835D01*
X332095Y168901D01*
X332173Y168965D01*
X332252Y169025D01*
X332334Y169082D01*
X332418Y169136D01*
X332504Y169186D01*
X332592Y169233D01*
X332682Y169277D01*
X332773Y169317D01*
X332866Y169353D01*
X332960Y169386D01*
X333056Y169415D01*
X333152Y169440D01*
X333249Y169461D01*
X333348Y169479D01*
X333446Y169492D01*
X333546Y169502D01*
X333645Y169508D01*
X333745Y169510D01*
X350255Y169510D02*
X350355Y169508D01*
X350454Y169502D01*
X350554Y169492D01*
X350652Y169479D01*
X350751Y169461D01*
X350848Y169440D01*
X350944Y169415D01*
X351040Y169386D01*
X351134Y169353D01*
X351227Y169317D01*
X351318Y169277D01*
X351408Y169233D01*
X351496Y169186D01*
X351582Y169136D01*
X351666Y169082D01*
X351748Y169025D01*
X351827Y168965D01*
X351905Y168901D01*
X351979Y168835D01*
X352051Y168766D01*
X352120Y168694D01*
X352186Y168620D01*
X352250Y168542D01*
X352310Y168463D01*
X352367Y168381D01*
X352421Y168297D01*
X352471Y168211D01*
X352518Y168123D01*
X352562Y168033D01*
X352602Y167942D01*
X352638Y167849D01*
X352671Y167755D01*
X352700Y167659D01*
X352725Y167563D01*
X352746Y167466D01*
X352764Y167367D01*
X352777Y167269D01*
X352787Y167169D01*
X352793Y167070D01*
X352795Y166970D01*
X350255Y149190D02*
X333745Y149190D01*
X333454Y144221D02*
X349964Y144221D01*
X352504Y126441D02*
X352502Y126341D01*
X352496Y126242D01*
X352486Y126142D01*
X352473Y126044D01*
X352455Y125945D01*
X352434Y125848D01*
X352409Y125752D01*
X352380Y125656D01*
X352347Y125562D01*
X352311Y125469D01*
X352271Y125378D01*
X352227Y125288D01*
X352180Y125200D01*
X352130Y125114D01*
X352076Y125030D01*
X352019Y124948D01*
X351959Y124869D01*
X351895Y124791D01*
X351829Y124717D01*
X351760Y124645D01*
X351688Y124576D01*
X351614Y124510D01*
X351536Y124446D01*
X351457Y124386D01*
X351375Y124329D01*
X351291Y124275D01*
X351205Y124225D01*
X351117Y124178D01*
X351027Y124134D01*
X350936Y124094D01*
X350843Y124058D01*
X350749Y124025D01*
X350653Y123996D01*
X350557Y123971D01*
X350460Y123950D01*
X350361Y123932D01*
X350263Y123919D01*
X350163Y123909D01*
X350064Y123903D01*
X349964Y123901D01*
X333454Y123901D02*
X333354Y123903D01*
X333255Y123909D01*
X333155Y123919D01*
X333057Y123932D01*
X332958Y123950D01*
X332861Y123971D01*
X332765Y123996D01*
X332669Y124025D01*
X332575Y124058D01*
X332482Y124094D01*
X332391Y124134D01*
X332301Y124178D01*
X332213Y124225D01*
X332127Y124275D01*
X332043Y124329D01*
X331961Y124386D01*
X331882Y124446D01*
X331804Y124510D01*
X331730Y124576D01*
X331658Y124645D01*
X331589Y124717D01*
X331523Y124791D01*
X331459Y124869D01*
X331399Y124948D01*
X331342Y125030D01*
X331288Y125114D01*
X331238Y125200D01*
X331191Y125288D01*
X331147Y125378D01*
X331107Y125469D01*
X331071Y125562D01*
X331038Y125656D01*
X331009Y125752D01*
X330984Y125848D01*
X330963Y125945D01*
X330945Y126044D01*
X330932Y126142D01*
X330922Y126242D01*
X330916Y126341D01*
X330914Y126441D01*
X330914Y141681D02*
X330916Y141781D01*
X330922Y141880D01*
X330932Y141980D01*
X330945Y142078D01*
X330963Y142177D01*
X330984Y142274D01*
X331009Y142370D01*
X331038Y142466D01*
X331071Y142560D01*
X331107Y142653D01*
X331147Y142744D01*
X331191Y142834D01*
X331238Y142922D01*
X331288Y143008D01*
X331342Y143092D01*
X331399Y143174D01*
X331459Y143253D01*
X331523Y143331D01*
X331589Y143405D01*
X331658Y143477D01*
X331730Y143546D01*
X331804Y143612D01*
X331882Y143676D01*
X331961Y143736D01*
X332043Y143793D01*
X332127Y143847D01*
X332213Y143897D01*
X332301Y143944D01*
X332391Y143988D01*
X332482Y144028D01*
X332575Y144064D01*
X332669Y144097D01*
X332765Y144126D01*
X332861Y144151D01*
X332958Y144172D01*
X333057Y144190D01*
X333155Y144203D01*
X333255Y144213D01*
X333354Y144219D01*
X333454Y144221D01*
X349964Y144221D02*
X350064Y144219D01*
X350163Y144213D01*
X350263Y144203D01*
X350361Y144190D01*
X350460Y144172D01*
X350557Y144151D01*
X350653Y144126D01*
X350749Y144097D01*
X350843Y144064D01*
X350936Y144028D01*
X351027Y143988D01*
X351117Y143944D01*
X351205Y143897D01*
X351291Y143847D01*
X351375Y143793D01*
X351457Y143736D01*
X351536Y143676D01*
X351614Y143612D01*
X351688Y143546D01*
X351760Y143477D01*
X351829Y143405D01*
X351895Y143331D01*
X351959Y143253D01*
X352019Y143174D01*
X352076Y143092D01*
X352130Y143008D01*
X352180Y142922D01*
X352227Y142834D01*
X352271Y142744D01*
X352311Y142653D01*
X352347Y142560D01*
X352380Y142466D01*
X352409Y142370D01*
X352434Y142274D01*
X352455Y142177D01*
X352473Y142078D01*
X352486Y141980D01*
X352496Y141880D01*
X352502Y141781D01*
X352504Y141681D01*
X349964Y123901D02*
X333454Y123901D01*
D12*
X293200Y120660D02*
X267800Y120660D01*
X293200Y100340D02*
X293300Y100342D01*
X293399Y100348D01*
X293499Y100358D01*
X293597Y100371D01*
X293696Y100389D01*
X293793Y100410D01*
X293889Y100435D01*
X293985Y100464D01*
X294079Y100497D01*
X294172Y100533D01*
X294263Y100573D01*
X294353Y100617D01*
X294441Y100664D01*
X294527Y100714D01*
X294611Y100768D01*
X294693Y100825D01*
X294772Y100885D01*
X294850Y100949D01*
X294924Y101015D01*
X294996Y101084D01*
X295065Y101156D01*
X295131Y101230D01*
X295195Y101308D01*
X295255Y101387D01*
X295312Y101469D01*
X295366Y101553D01*
X295416Y101639D01*
X295463Y101727D01*
X295507Y101817D01*
X295547Y101908D01*
X295583Y102001D01*
X295616Y102095D01*
X295645Y102191D01*
X295670Y102287D01*
X295691Y102384D01*
X295709Y102483D01*
X295722Y102581D01*
X295732Y102681D01*
X295738Y102780D01*
X295740Y102880D01*
X267800Y100340D02*
X267700Y100342D01*
X267601Y100348D01*
X267501Y100358D01*
X267403Y100371D01*
X267304Y100389D01*
X267207Y100410D01*
X267111Y100435D01*
X267015Y100464D01*
X266921Y100497D01*
X266828Y100533D01*
X266737Y100573D01*
X266647Y100617D01*
X266559Y100664D01*
X266473Y100714D01*
X266389Y100768D01*
X266307Y100825D01*
X266228Y100885D01*
X266150Y100949D01*
X266076Y101015D01*
X266004Y101084D01*
X265935Y101156D01*
X265869Y101230D01*
X265805Y101308D01*
X265745Y101387D01*
X265688Y101469D01*
X265634Y101553D01*
X265584Y101639D01*
X265537Y101727D01*
X265493Y101817D01*
X265453Y101908D01*
X265417Y102001D01*
X265384Y102095D01*
X265355Y102191D01*
X265330Y102287D01*
X265309Y102384D01*
X265291Y102483D01*
X265278Y102581D01*
X265268Y102681D01*
X265262Y102780D01*
X265260Y102880D01*
X265260Y118120D02*
X265262Y118220D01*
X265268Y118319D01*
X265278Y118419D01*
X265291Y118517D01*
X265309Y118616D01*
X265330Y118713D01*
X265355Y118809D01*
X265384Y118905D01*
X265417Y118999D01*
X265453Y119092D01*
X265493Y119183D01*
X265537Y119273D01*
X265584Y119361D01*
X265634Y119447D01*
X265688Y119531D01*
X265745Y119613D01*
X265805Y119692D01*
X265869Y119770D01*
X265935Y119844D01*
X266004Y119916D01*
X266076Y119985D01*
X266150Y120051D01*
X266228Y120115D01*
X266307Y120175D01*
X266389Y120232D01*
X266473Y120286D01*
X266559Y120336D01*
X266647Y120383D01*
X266737Y120427D01*
X266828Y120467D01*
X266921Y120503D01*
X267015Y120536D01*
X267111Y120565D01*
X267207Y120590D01*
X267304Y120611D01*
X267403Y120629D01*
X267501Y120642D01*
X267601Y120652D01*
X267700Y120658D01*
X267800Y120660D01*
X293200Y120660D02*
X293300Y120658D01*
X293399Y120652D01*
X293499Y120642D01*
X293597Y120629D01*
X293696Y120611D01*
X293793Y120590D01*
X293889Y120565D01*
X293985Y120536D01*
X294079Y120503D01*
X294172Y120467D01*
X294263Y120427D01*
X294353Y120383D01*
X294441Y120336D01*
X294527Y120286D01*
X294611Y120232D01*
X294693Y120175D01*
X294772Y120115D01*
X294850Y120051D01*
X294924Y119985D01*
X294996Y119916D01*
X295065Y119844D01*
X295131Y119770D01*
X295195Y119692D01*
X295255Y119613D01*
X295312Y119531D01*
X295366Y119447D01*
X295416Y119361D01*
X295463Y119273D01*
X295507Y119183D01*
X295547Y119092D01*
X295583Y118999D01*
X295616Y118905D01*
X295645Y118809D01*
X295670Y118713D01*
X295691Y118616D01*
X295709Y118517D01*
X295722Y118419D01*
X295732Y118319D01*
X295738Y118220D01*
X295740Y118120D01*
X295740Y102880D01*
X265260Y102880D02*
X265260Y118120D01*
X267800Y100340D02*
X293200Y100340D01*
X260700Y100340D02*
X235300Y100340D01*
X232760Y118120D02*
X232762Y118220D01*
X232768Y118319D01*
X232778Y118419D01*
X232791Y118517D01*
X232809Y118616D01*
X232830Y118713D01*
X232855Y118809D01*
X232884Y118905D01*
X232917Y118999D01*
X232953Y119092D01*
X232993Y119183D01*
X233037Y119273D01*
X233084Y119361D01*
X233134Y119447D01*
X233188Y119531D01*
X233245Y119613D01*
X233305Y119692D01*
X233369Y119770D01*
X233435Y119844D01*
X233504Y119916D01*
X233576Y119985D01*
X233650Y120051D01*
X233728Y120115D01*
X233807Y120175D01*
X233889Y120232D01*
X233973Y120286D01*
X234059Y120336D01*
X234147Y120383D01*
X234237Y120427D01*
X234328Y120467D01*
X234421Y120503D01*
X234515Y120536D01*
X234611Y120565D01*
X234707Y120590D01*
X234804Y120611D01*
X234903Y120629D01*
X235001Y120642D01*
X235101Y120652D01*
X235200Y120658D01*
X235300Y120660D01*
X260700Y120660D02*
X260800Y120658D01*
X260899Y120652D01*
X260999Y120642D01*
X261097Y120629D01*
X261196Y120611D01*
X261293Y120590D01*
X261389Y120565D01*
X261485Y120536D01*
X261579Y120503D01*
X261672Y120467D01*
X261763Y120427D01*
X261853Y120383D01*
X261941Y120336D01*
X262027Y120286D01*
X262111Y120232D01*
X262193Y120175D01*
X262272Y120115D01*
X262350Y120051D01*
X262424Y119985D01*
X262496Y119916D01*
X262565Y119844D01*
X262631Y119770D01*
X262695Y119692D01*
X262755Y119613D01*
X262812Y119531D01*
X262866Y119447D01*
X262916Y119361D01*
X262963Y119273D01*
X263007Y119183D01*
X263047Y119092D01*
X263083Y118999D01*
X263116Y118905D01*
X263145Y118809D01*
X263170Y118713D01*
X263191Y118616D01*
X263209Y118517D01*
X263222Y118419D01*
X263232Y118319D01*
X263238Y118220D01*
X263240Y118120D01*
X263240Y102880D02*
X263238Y102780D01*
X263232Y102681D01*
X263222Y102581D01*
X263209Y102483D01*
X263191Y102384D01*
X263170Y102287D01*
X263145Y102191D01*
X263116Y102095D01*
X263083Y102001D01*
X263047Y101908D01*
X263007Y101817D01*
X262963Y101727D01*
X262916Y101639D01*
X262866Y101553D01*
X262812Y101469D01*
X262755Y101387D01*
X262695Y101308D01*
X262631Y101230D01*
X262565Y101156D01*
X262496Y101084D01*
X262424Y101015D01*
X262350Y100949D01*
X262272Y100885D01*
X262193Y100825D01*
X262111Y100768D01*
X262027Y100714D01*
X261941Y100664D01*
X261853Y100617D01*
X261763Y100573D01*
X261672Y100533D01*
X261579Y100497D01*
X261485Y100464D01*
X261389Y100435D01*
X261293Y100410D01*
X261196Y100389D01*
X261097Y100371D01*
X260999Y100358D01*
X260899Y100348D01*
X260800Y100342D01*
X260700Y100340D01*
X235300Y100340D02*
X235200Y100342D01*
X235101Y100348D01*
X235001Y100358D01*
X234903Y100371D01*
X234804Y100389D01*
X234707Y100410D01*
X234611Y100435D01*
X234515Y100464D01*
X234421Y100497D01*
X234328Y100533D01*
X234237Y100573D01*
X234147Y100617D01*
X234059Y100664D01*
X233973Y100714D01*
X233889Y100768D01*
X233807Y100825D01*
X233728Y100885D01*
X233650Y100949D01*
X233576Y101015D01*
X233504Y101084D01*
X233435Y101156D01*
X233369Y101230D01*
X233305Y101308D01*
X233245Y101387D01*
X233188Y101469D01*
X233134Y101553D01*
X233084Y101639D01*
X233037Y101727D01*
X232993Y101817D01*
X232953Y101908D01*
X232917Y102001D01*
X232884Y102095D01*
X232855Y102191D01*
X232830Y102287D01*
X232809Y102384D01*
X232791Y102483D01*
X232778Y102581D01*
X232768Y102681D01*
X232762Y102780D01*
X232760Y102880D01*
X232760Y118120D01*
X263240Y118120D02*
X263240Y102880D01*
X260700Y120660D02*
X235300Y120660D01*
M02*
