G04 EAGLE Gerber RS-274X export*
G75*
%MOMM*%
%FSLAX34Y34*%
%LPD*%
%INSilkscreen Top*%
%IPPOS*%
%AMOC8*
5,1,8,0,0,1.08239X$1,22.5*%
G01*
%ADD10C,0.038100*%
%ADD11C,0.152400*%
%ADD12C,0.254000*%
%ADD13R,0.300000X0.400000*%
%ADD14C,0.127000*%
%ADD15C,0.800000*%
%ADD16C,0.250000*%
%ADD17C,0.200000*%
%ADD18C,0.203200*%
%ADD19C,0.406400*%
%ADD20C,0.508000*%
%ADD21R,0.200000X0.200000*%
%ADD22C,0.500000*%
%ADD23C,0.304800*%
%ADD24C,0.050800*%

G36*
X165520Y571730D02*
X165520Y571730D01*
X165522Y571732D01*
X165523Y571731D01*
X166194Y571966D01*
X166195Y571967D01*
X166196Y571967D01*
X166798Y572345D01*
X166799Y572347D01*
X166801Y572347D01*
X167303Y572849D01*
X167303Y572851D01*
X167305Y572852D01*
X167683Y573454D01*
X167683Y573455D01*
X167684Y573456D01*
X167919Y574127D01*
X167919Y574129D01*
X167920Y574130D01*
X167999Y574836D01*
X167999Y574837D01*
X167998Y574838D01*
X167999Y574839D01*
X167920Y575545D01*
X167918Y575547D01*
X167919Y575548D01*
X167684Y576219D01*
X167683Y576220D01*
X167683Y576221D01*
X167305Y576823D01*
X167303Y576824D01*
X167303Y576826D01*
X166801Y577328D01*
X166799Y577328D01*
X166798Y577330D01*
X166196Y577708D01*
X166195Y577708D01*
X166194Y577709D01*
X165523Y577944D01*
X165521Y577944D01*
X165520Y577945D01*
X164814Y578024D01*
X164812Y578023D01*
X164811Y578024D01*
X164105Y577945D01*
X164103Y577943D01*
X164102Y577944D01*
X163431Y577709D01*
X163430Y577708D01*
X163429Y577708D01*
X162827Y577330D01*
X162826Y577328D01*
X162824Y577328D01*
X162322Y576826D01*
X162322Y576824D01*
X162320Y576823D01*
X161942Y576221D01*
X161942Y576220D01*
X161941Y576219D01*
X161706Y575548D01*
X161707Y575546D01*
X161705Y575545D01*
X161626Y574839D01*
X161627Y574837D01*
X161626Y574836D01*
X161705Y574130D01*
X161707Y574128D01*
X161706Y574127D01*
X161941Y573456D01*
X161942Y573455D01*
X161942Y573454D01*
X162320Y572852D01*
X162322Y572851D01*
X162322Y572849D01*
X162824Y572347D01*
X162826Y572347D01*
X162827Y572345D01*
X163429Y571967D01*
X163430Y571967D01*
X163431Y571966D01*
X164102Y571731D01*
X164104Y571732D01*
X164105Y571730D01*
X164811Y571651D01*
X164813Y571652D01*
X164814Y571651D01*
X165520Y571730D01*
G37*
G36*
X377895Y87055D02*
X377895Y87055D01*
X377897Y87057D01*
X377898Y87056D01*
X378569Y87291D01*
X378570Y87292D01*
X378571Y87292D01*
X379173Y87670D01*
X379174Y87672D01*
X379176Y87672D01*
X379678Y88174D01*
X379678Y88176D01*
X379680Y88177D01*
X380058Y88779D01*
X380058Y88780D01*
X380059Y88781D01*
X380294Y89452D01*
X380294Y89454D01*
X380295Y89455D01*
X380374Y90161D01*
X380374Y90162D01*
X380373Y90163D01*
X380374Y90164D01*
X380295Y90870D01*
X380293Y90872D01*
X380294Y90873D01*
X380059Y91544D01*
X380058Y91545D01*
X380058Y91546D01*
X379680Y92148D01*
X379678Y92149D01*
X379678Y92151D01*
X379176Y92653D01*
X379174Y92653D01*
X379173Y92655D01*
X378571Y93033D01*
X378570Y93033D01*
X378569Y93034D01*
X377898Y93269D01*
X377896Y93269D01*
X377895Y93270D01*
X377189Y93349D01*
X377187Y93348D01*
X377186Y93349D01*
X376480Y93270D01*
X376478Y93268D01*
X376477Y93269D01*
X375806Y93034D01*
X375805Y93033D01*
X375804Y93033D01*
X375202Y92655D01*
X375201Y92653D01*
X375199Y92653D01*
X374697Y92151D01*
X374697Y92149D01*
X374695Y92148D01*
X374317Y91546D01*
X374317Y91545D01*
X374316Y91544D01*
X374081Y90873D01*
X374082Y90871D01*
X374080Y90870D01*
X374001Y90164D01*
X374002Y90162D01*
X374001Y90161D01*
X374080Y89455D01*
X374082Y89453D01*
X374081Y89452D01*
X374316Y88781D01*
X374317Y88780D01*
X374317Y88779D01*
X374695Y88177D01*
X374697Y88176D01*
X374697Y88174D01*
X375199Y87672D01*
X375201Y87672D01*
X375202Y87670D01*
X375804Y87292D01*
X375805Y87292D01*
X375806Y87291D01*
X376477Y87056D01*
X376479Y87057D01*
X376480Y87055D01*
X377186Y86976D01*
X377188Y86977D01*
X377189Y86976D01*
X377895Y87055D01*
G37*
D10*
X460840Y116583D02*
X460840Y87119D01*
X448648Y87119D01*
X448648Y116583D01*
X460840Y116583D01*
X134788Y353490D02*
X105324Y353490D01*
X105324Y365682D01*
X134788Y365682D01*
X134788Y353490D01*
D11*
X91286Y407968D02*
X91288Y408068D01*
X91294Y408169D01*
X91304Y408268D01*
X91318Y408368D01*
X91335Y408467D01*
X91357Y408565D01*
X91383Y408662D01*
X91412Y408758D01*
X91445Y408852D01*
X91482Y408946D01*
X91522Y409038D01*
X91566Y409128D01*
X91614Y409216D01*
X91665Y409303D01*
X91719Y409387D01*
X91777Y409469D01*
X91838Y409549D01*
X91902Y409626D01*
X91969Y409701D01*
X92039Y409773D01*
X92112Y409842D01*
X92187Y409908D01*
X92265Y409972D01*
X92345Y410032D01*
X92428Y410089D01*
X92513Y410142D01*
X92600Y410192D01*
X92689Y410239D01*
X92779Y410282D01*
X92871Y410322D01*
X92965Y410358D01*
X93060Y410390D01*
X93156Y410418D01*
X93254Y410443D01*
X93352Y410463D01*
X93451Y410480D01*
X93551Y410493D01*
X93650Y410502D01*
X93751Y410507D01*
X93851Y410508D01*
X93951Y410505D01*
X94052Y410498D01*
X94151Y410487D01*
X94251Y410472D01*
X94349Y410454D01*
X94447Y410431D01*
X94544Y410404D01*
X94639Y410374D01*
X94734Y410340D01*
X94827Y410302D01*
X94918Y410261D01*
X95008Y410216D01*
X95096Y410168D01*
X95182Y410116D01*
X95266Y410061D01*
X95347Y410002D01*
X95426Y409940D01*
X95503Y409876D01*
X95577Y409808D01*
X95648Y409737D01*
X95717Y409664D01*
X95782Y409588D01*
X95845Y409509D01*
X95904Y409428D01*
X95960Y409345D01*
X96013Y409260D01*
X96062Y409172D01*
X96108Y409083D01*
X96150Y408992D01*
X96189Y408899D01*
X96224Y408805D01*
X96255Y408710D01*
X96283Y408613D01*
X96306Y408516D01*
X96326Y408417D01*
X96342Y408318D01*
X96354Y408219D01*
X96362Y408118D01*
X96366Y408018D01*
X96366Y407918D01*
X96362Y407818D01*
X96354Y407717D01*
X96342Y407618D01*
X96326Y407519D01*
X96306Y407420D01*
X96283Y407323D01*
X96255Y407226D01*
X96224Y407131D01*
X96189Y407037D01*
X96150Y406944D01*
X96108Y406853D01*
X96062Y406764D01*
X96013Y406676D01*
X95960Y406591D01*
X95904Y406508D01*
X95845Y406427D01*
X95782Y406348D01*
X95717Y406272D01*
X95648Y406199D01*
X95577Y406128D01*
X95503Y406060D01*
X95426Y405996D01*
X95347Y405934D01*
X95266Y405875D01*
X95182Y405820D01*
X95096Y405768D01*
X95008Y405720D01*
X94918Y405675D01*
X94827Y405634D01*
X94734Y405596D01*
X94639Y405562D01*
X94544Y405532D01*
X94447Y405505D01*
X94349Y405482D01*
X94251Y405464D01*
X94151Y405449D01*
X94052Y405438D01*
X93951Y405431D01*
X93851Y405428D01*
X93751Y405429D01*
X93650Y405434D01*
X93551Y405443D01*
X93451Y405456D01*
X93352Y405473D01*
X93254Y405493D01*
X93156Y405518D01*
X93060Y405546D01*
X92965Y405578D01*
X92871Y405614D01*
X92779Y405654D01*
X92689Y405697D01*
X92600Y405744D01*
X92513Y405794D01*
X92428Y405847D01*
X92345Y405904D01*
X92265Y405964D01*
X92187Y406028D01*
X92112Y406094D01*
X92039Y406163D01*
X91969Y406235D01*
X91902Y406310D01*
X91838Y406387D01*
X91777Y406467D01*
X91719Y406549D01*
X91665Y406633D01*
X91614Y406720D01*
X91566Y406808D01*
X91522Y406898D01*
X91482Y406990D01*
X91445Y407084D01*
X91412Y407178D01*
X91383Y407274D01*
X91357Y407371D01*
X91335Y407469D01*
X91318Y407568D01*
X91304Y407668D01*
X91294Y407767D01*
X91288Y407868D01*
X91286Y407968D01*
D12*
X136498Y412794D02*
X136498Y448862D01*
X99414Y448862D02*
X99414Y412794D01*
D11*
X439508Y89487D02*
X443237Y93216D01*
X443237Y82030D01*
X446965Y82030D02*
X439508Y82030D01*
X66047Y93216D02*
X62318Y89487D01*
X66047Y93216D02*
X66047Y82030D01*
X69775Y82030D02*
X62318Y82030D01*
D13*
X463042Y407924D03*
D14*
X462788Y725678D02*
X622808Y725678D01*
X622808Y509778D01*
X462788Y509778D01*
X462788Y725678D01*
X574098Y304678D02*
X570098Y300678D01*
X574098Y304678D02*
X574098Y384678D01*
X570098Y388678D01*
X490098Y388678D01*
X486098Y384678D01*
X486098Y304678D01*
X490098Y300678D01*
X570098Y300678D01*
D15*
X566098Y308678D03*
D16*
X313806Y378996D02*
X313808Y379066D01*
X313814Y379136D01*
X313824Y379205D01*
X313837Y379274D01*
X313855Y379342D01*
X313876Y379409D01*
X313901Y379474D01*
X313930Y379538D01*
X313962Y379601D01*
X313998Y379661D01*
X314037Y379719D01*
X314079Y379775D01*
X314124Y379829D01*
X314172Y379880D01*
X314223Y379928D01*
X314277Y379973D01*
X314333Y380015D01*
X314391Y380054D01*
X314451Y380090D01*
X314514Y380122D01*
X314578Y380151D01*
X314643Y380176D01*
X314710Y380197D01*
X314778Y380215D01*
X314847Y380228D01*
X314916Y380238D01*
X314986Y380244D01*
X315056Y380246D01*
X315126Y380244D01*
X315196Y380238D01*
X315265Y380228D01*
X315334Y380215D01*
X315402Y380197D01*
X315469Y380176D01*
X315534Y380151D01*
X315598Y380122D01*
X315661Y380090D01*
X315721Y380054D01*
X315779Y380015D01*
X315835Y379973D01*
X315889Y379928D01*
X315940Y379880D01*
X315988Y379829D01*
X316033Y379775D01*
X316075Y379719D01*
X316114Y379661D01*
X316150Y379601D01*
X316182Y379538D01*
X316211Y379474D01*
X316236Y379409D01*
X316257Y379342D01*
X316275Y379274D01*
X316288Y379205D01*
X316298Y379136D01*
X316304Y379066D01*
X316306Y378996D01*
X316304Y378926D01*
X316298Y378856D01*
X316288Y378787D01*
X316275Y378718D01*
X316257Y378650D01*
X316236Y378583D01*
X316211Y378518D01*
X316182Y378454D01*
X316150Y378391D01*
X316114Y378331D01*
X316075Y378273D01*
X316033Y378217D01*
X315988Y378163D01*
X315940Y378112D01*
X315889Y378064D01*
X315835Y378019D01*
X315779Y377977D01*
X315721Y377938D01*
X315661Y377902D01*
X315598Y377870D01*
X315534Y377841D01*
X315469Y377816D01*
X315402Y377795D01*
X315334Y377777D01*
X315265Y377764D01*
X315196Y377754D01*
X315126Y377748D01*
X315056Y377746D01*
X314986Y377748D01*
X314916Y377754D01*
X314847Y377764D01*
X314778Y377777D01*
X314710Y377795D01*
X314643Y377816D01*
X314578Y377841D01*
X314514Y377870D01*
X314451Y377902D01*
X314391Y377938D01*
X314333Y377977D01*
X314277Y378019D01*
X314223Y378064D01*
X314172Y378112D01*
X314124Y378163D01*
X314079Y378217D01*
X314037Y378273D01*
X313998Y378331D01*
X313962Y378391D01*
X313930Y378454D01*
X313901Y378518D01*
X313876Y378583D01*
X313855Y378650D01*
X313837Y378718D01*
X313824Y378787D01*
X313814Y378856D01*
X313808Y378926D01*
X313806Y378996D01*
D17*
X209556Y481496D02*
X204556Y481496D01*
X308556Y382496D02*
X308556Y377496D01*
X308556Y476496D02*
X308556Y481496D01*
X204556Y481496D02*
X204556Y476496D01*
X204556Y382496D02*
X204556Y377496D01*
X209556Y377496D01*
X303556Y377496D02*
X308556Y377496D01*
X308556Y481496D02*
X303556Y481496D01*
D12*
X179166Y302406D02*
X179166Y300406D01*
X196166Y274406D02*
X196166Y340406D01*
X196166Y274406D02*
X152166Y274406D01*
X152166Y340406D02*
X196166Y340406D01*
X152166Y340406D02*
X152166Y274406D01*
X179166Y302406D02*
X169166Y312406D01*
X169166Y314406D01*
D17*
X253594Y299166D02*
X257594Y299166D01*
X257594Y306166D02*
X253594Y306166D01*
X126556Y312996D02*
X126556Y316996D01*
X133556Y316996D02*
X133556Y312996D01*
X133556Y281996D02*
X133556Y277996D01*
X126556Y277996D02*
X126556Y281996D01*
X345806Y381406D02*
X345806Y385406D01*
X338806Y385406D02*
X338806Y381406D01*
X164806Y479406D02*
X164806Y483406D01*
X157806Y483406D02*
X157806Y479406D01*
X164056Y451996D02*
X164056Y447996D01*
X157056Y447996D02*
X157056Y451996D01*
X156556Y420996D02*
X156556Y416996D01*
X163556Y416996D02*
X163556Y420996D01*
X164556Y392996D02*
X164556Y388996D01*
X157556Y388996D02*
X157556Y392996D01*
X224166Y310906D02*
X228166Y310906D01*
X228166Y317906D02*
X224166Y317906D01*
X224166Y296906D02*
X228166Y296906D01*
X228166Y303906D02*
X224166Y303906D01*
D11*
X148356Y261522D02*
X148356Y237628D01*
X136680Y237628D01*
X136680Y261522D02*
X148356Y261522D01*
X136680Y261522D02*
X136680Y237628D01*
X173128Y219144D02*
X197022Y219144D01*
X173128Y219144D02*
X173128Y230820D01*
X197022Y230820D02*
X197022Y219144D01*
X197022Y230820D02*
X173128Y230820D01*
D18*
X141184Y202264D02*
X125056Y202264D01*
X125056Y231496D02*
X141184Y231496D01*
X141184Y221496D02*
X141184Y212424D01*
D17*
X449056Y224746D02*
X475056Y224746D01*
X475056Y270746D02*
X475056Y296246D01*
X470556Y300746D01*
X449056Y296246D02*
X449056Y270746D01*
X453556Y300746D02*
X470556Y300746D01*
X453556Y300746D02*
X449056Y296246D01*
X449056Y251746D02*
X449056Y224746D01*
X475056Y224746D02*
X475056Y251746D01*
D11*
X451152Y222734D02*
X451152Y198840D01*
X451152Y222734D02*
X462828Y222734D01*
X462828Y198840D02*
X451152Y198840D01*
X462828Y198840D02*
X462828Y222734D01*
D16*
X210036Y543966D02*
X210038Y544035D01*
X210044Y544104D01*
X210054Y544172D01*
X210068Y544240D01*
X210085Y544307D01*
X210107Y544373D01*
X210132Y544437D01*
X210161Y544500D01*
X210194Y544561D01*
X210230Y544620D01*
X210269Y544677D01*
X210312Y544731D01*
X210357Y544783D01*
X210406Y544833D01*
X210457Y544879D01*
X210511Y544922D01*
X210568Y544963D01*
X210626Y544999D01*
X210687Y545033D01*
X210749Y545063D01*
X210813Y545089D01*
X210878Y545111D01*
X210945Y545130D01*
X211013Y545145D01*
X211081Y545156D01*
X211150Y545163D01*
X211219Y545166D01*
X211288Y545165D01*
X211357Y545160D01*
X211425Y545151D01*
X211493Y545138D01*
X211560Y545121D01*
X211627Y545101D01*
X211691Y545076D01*
X211754Y545048D01*
X211816Y545017D01*
X211875Y544981D01*
X211933Y544943D01*
X211988Y544901D01*
X212041Y544856D01*
X212091Y544808D01*
X212138Y544758D01*
X212182Y544704D01*
X212223Y544649D01*
X212261Y544591D01*
X212295Y544531D01*
X212326Y544469D01*
X212353Y544405D01*
X212376Y544340D01*
X212396Y544274D01*
X212412Y544206D01*
X212424Y544138D01*
X212432Y544070D01*
X212436Y544001D01*
X212436Y543931D01*
X212432Y543862D01*
X212424Y543794D01*
X212412Y543726D01*
X212396Y543658D01*
X212376Y543592D01*
X212353Y543527D01*
X212326Y543463D01*
X212295Y543401D01*
X212261Y543341D01*
X212223Y543283D01*
X212182Y543228D01*
X212138Y543174D01*
X212091Y543124D01*
X212041Y543076D01*
X211988Y543031D01*
X211933Y542989D01*
X211875Y542951D01*
X211816Y542915D01*
X211754Y542884D01*
X211691Y542856D01*
X211627Y542831D01*
X211560Y542811D01*
X211493Y542794D01*
X211425Y542781D01*
X211357Y542772D01*
X211288Y542767D01*
X211219Y542766D01*
X211150Y542769D01*
X211081Y542776D01*
X211013Y542787D01*
X210945Y542802D01*
X210878Y542821D01*
X210813Y542843D01*
X210749Y542869D01*
X210687Y542899D01*
X210626Y542933D01*
X210568Y542969D01*
X210511Y543010D01*
X210457Y543053D01*
X210406Y543099D01*
X210357Y543149D01*
X210312Y543201D01*
X210269Y543255D01*
X210230Y543312D01*
X210194Y543371D01*
X210161Y543432D01*
X210132Y543495D01*
X210107Y543559D01*
X210085Y543625D01*
X210068Y543692D01*
X210054Y543760D01*
X210044Y543828D01*
X210038Y543897D01*
X210036Y543966D01*
D17*
X214056Y553496D02*
X212056Y555496D01*
X212056Y557496D02*
X216056Y553496D01*
X218056Y553496D02*
X212056Y559496D01*
X212056Y563496D02*
X242056Y563496D01*
X220056Y553496D02*
X212056Y561496D01*
X212056Y563496D02*
X222056Y553496D01*
X212056Y553496D02*
X212056Y563496D01*
X242056Y563496D02*
X242056Y553496D01*
X212056Y553496D01*
D16*
X255036Y543966D02*
X255038Y544035D01*
X255044Y544104D01*
X255054Y544172D01*
X255068Y544240D01*
X255085Y544307D01*
X255107Y544373D01*
X255132Y544437D01*
X255161Y544500D01*
X255194Y544561D01*
X255230Y544620D01*
X255269Y544677D01*
X255312Y544731D01*
X255357Y544783D01*
X255406Y544833D01*
X255457Y544879D01*
X255511Y544922D01*
X255568Y544963D01*
X255626Y544999D01*
X255687Y545033D01*
X255749Y545063D01*
X255813Y545089D01*
X255878Y545111D01*
X255945Y545130D01*
X256013Y545145D01*
X256081Y545156D01*
X256150Y545163D01*
X256219Y545166D01*
X256288Y545165D01*
X256357Y545160D01*
X256425Y545151D01*
X256493Y545138D01*
X256560Y545121D01*
X256627Y545101D01*
X256691Y545076D01*
X256754Y545048D01*
X256816Y545017D01*
X256875Y544981D01*
X256933Y544943D01*
X256988Y544901D01*
X257041Y544856D01*
X257091Y544808D01*
X257138Y544758D01*
X257182Y544704D01*
X257223Y544649D01*
X257261Y544591D01*
X257295Y544531D01*
X257326Y544469D01*
X257353Y544405D01*
X257376Y544340D01*
X257396Y544274D01*
X257412Y544206D01*
X257424Y544138D01*
X257432Y544070D01*
X257436Y544001D01*
X257436Y543931D01*
X257432Y543862D01*
X257424Y543794D01*
X257412Y543726D01*
X257396Y543658D01*
X257376Y543592D01*
X257353Y543527D01*
X257326Y543463D01*
X257295Y543401D01*
X257261Y543341D01*
X257223Y543283D01*
X257182Y543228D01*
X257138Y543174D01*
X257091Y543124D01*
X257041Y543076D01*
X256988Y543031D01*
X256933Y542989D01*
X256875Y542951D01*
X256816Y542915D01*
X256754Y542884D01*
X256691Y542856D01*
X256627Y542831D01*
X256560Y542811D01*
X256493Y542794D01*
X256425Y542781D01*
X256357Y542772D01*
X256288Y542767D01*
X256219Y542766D01*
X256150Y542769D01*
X256081Y542776D01*
X256013Y542787D01*
X255945Y542802D01*
X255878Y542821D01*
X255813Y542843D01*
X255749Y542869D01*
X255687Y542899D01*
X255626Y542933D01*
X255568Y542969D01*
X255511Y543010D01*
X255457Y543053D01*
X255406Y543099D01*
X255357Y543149D01*
X255312Y543201D01*
X255269Y543255D01*
X255230Y543312D01*
X255194Y543371D01*
X255161Y543432D01*
X255132Y543495D01*
X255107Y543559D01*
X255085Y543625D01*
X255068Y543692D01*
X255054Y543760D01*
X255044Y543828D01*
X255038Y543897D01*
X255036Y543966D01*
D17*
X259056Y553496D02*
X257056Y555496D01*
X257056Y557496D02*
X261056Y553496D01*
X263056Y553496D02*
X257056Y559496D01*
X257056Y563496D02*
X287056Y563496D01*
X265056Y553496D02*
X257056Y561496D01*
X257056Y563496D02*
X267056Y553496D01*
X257056Y553496D02*
X257056Y563496D01*
X287056Y563496D02*
X287056Y553496D01*
X257056Y553496D01*
D16*
X300036Y543966D02*
X300038Y544035D01*
X300044Y544104D01*
X300054Y544172D01*
X300068Y544240D01*
X300085Y544307D01*
X300107Y544373D01*
X300132Y544437D01*
X300161Y544500D01*
X300194Y544561D01*
X300230Y544620D01*
X300269Y544677D01*
X300312Y544731D01*
X300357Y544783D01*
X300406Y544833D01*
X300457Y544879D01*
X300511Y544922D01*
X300568Y544963D01*
X300626Y544999D01*
X300687Y545033D01*
X300749Y545063D01*
X300813Y545089D01*
X300878Y545111D01*
X300945Y545130D01*
X301013Y545145D01*
X301081Y545156D01*
X301150Y545163D01*
X301219Y545166D01*
X301288Y545165D01*
X301357Y545160D01*
X301425Y545151D01*
X301493Y545138D01*
X301560Y545121D01*
X301627Y545101D01*
X301691Y545076D01*
X301754Y545048D01*
X301816Y545017D01*
X301875Y544981D01*
X301933Y544943D01*
X301988Y544901D01*
X302041Y544856D01*
X302091Y544808D01*
X302138Y544758D01*
X302182Y544704D01*
X302223Y544649D01*
X302261Y544591D01*
X302295Y544531D01*
X302326Y544469D01*
X302353Y544405D01*
X302376Y544340D01*
X302396Y544274D01*
X302412Y544206D01*
X302424Y544138D01*
X302432Y544070D01*
X302436Y544001D01*
X302436Y543931D01*
X302432Y543862D01*
X302424Y543794D01*
X302412Y543726D01*
X302396Y543658D01*
X302376Y543592D01*
X302353Y543527D01*
X302326Y543463D01*
X302295Y543401D01*
X302261Y543341D01*
X302223Y543283D01*
X302182Y543228D01*
X302138Y543174D01*
X302091Y543124D01*
X302041Y543076D01*
X301988Y543031D01*
X301933Y542989D01*
X301875Y542951D01*
X301816Y542915D01*
X301754Y542884D01*
X301691Y542856D01*
X301627Y542831D01*
X301560Y542811D01*
X301493Y542794D01*
X301425Y542781D01*
X301357Y542772D01*
X301288Y542767D01*
X301219Y542766D01*
X301150Y542769D01*
X301081Y542776D01*
X301013Y542787D01*
X300945Y542802D01*
X300878Y542821D01*
X300813Y542843D01*
X300749Y542869D01*
X300687Y542899D01*
X300626Y542933D01*
X300568Y542969D01*
X300511Y543010D01*
X300457Y543053D01*
X300406Y543099D01*
X300357Y543149D01*
X300312Y543201D01*
X300269Y543255D01*
X300230Y543312D01*
X300194Y543371D01*
X300161Y543432D01*
X300132Y543495D01*
X300107Y543559D01*
X300085Y543625D01*
X300068Y543692D01*
X300054Y543760D01*
X300044Y543828D01*
X300038Y543897D01*
X300036Y543966D01*
D17*
X304056Y553496D02*
X302056Y555496D01*
X302056Y557496D02*
X306056Y553496D01*
X308056Y553496D02*
X302056Y559496D01*
X302056Y563496D02*
X332056Y563496D01*
X310056Y553496D02*
X302056Y561496D01*
X302056Y563496D02*
X312056Y553496D01*
X302056Y553496D02*
X302056Y563496D01*
X332056Y563496D02*
X332056Y553496D01*
X302056Y553496D01*
X354056Y703496D02*
X354056Y724996D01*
X354056Y673996D02*
X354056Y649996D01*
X354056Y724996D02*
X204056Y724996D01*
X328556Y613496D02*
X342056Y613496D01*
X328556Y613496D02*
X328556Y605996D01*
X204056Y703496D02*
X204056Y724996D01*
X204056Y673996D02*
X204056Y649996D01*
X229556Y605996D02*
X328556Y605996D01*
X229556Y605996D02*
X229556Y613496D01*
X216056Y613496D01*
X349556Y564996D02*
X349556Y560996D01*
X342556Y560996D02*
X342556Y564996D01*
D18*
X265100Y131000D02*
X189100Y131000D01*
X189100Y79000D01*
X265100Y79000D01*
D14*
X265100Y79250D02*
X265350Y79250D01*
D18*
X265100Y79250D02*
X265100Y131000D01*
X253988Y122780D02*
X253990Y122899D01*
X253996Y123019D01*
X254006Y123138D01*
X254020Y123256D01*
X254038Y123374D01*
X254059Y123492D01*
X254085Y123608D01*
X254114Y123724D01*
X254148Y123839D01*
X254185Y123952D01*
X254226Y124064D01*
X254270Y124175D01*
X254318Y124285D01*
X254370Y124392D01*
X254425Y124498D01*
X254484Y124602D01*
X254547Y124704D01*
X254612Y124803D01*
X254681Y124901D01*
X254753Y124996D01*
X254828Y125089D01*
X254907Y125179D01*
X254988Y125267D01*
X255072Y125351D01*
X255159Y125433D01*
X255248Y125512D01*
X255340Y125588D01*
X255435Y125661D01*
X255532Y125731D01*
X255631Y125797D01*
X255733Y125860D01*
X255836Y125920D01*
X255941Y125976D01*
X256048Y126029D01*
X256157Y126078D01*
X256268Y126124D01*
X256380Y126165D01*
X256493Y126203D01*
X256607Y126238D01*
X256723Y126268D01*
X256839Y126295D01*
X256956Y126317D01*
X257074Y126336D01*
X257193Y126351D01*
X257312Y126362D01*
X257431Y126369D01*
X257550Y126372D01*
X257670Y126371D01*
X257789Y126366D01*
X257908Y126357D01*
X258027Y126344D01*
X258145Y126327D01*
X258262Y126307D01*
X258379Y126282D01*
X258495Y126253D01*
X258610Y126221D01*
X258724Y126185D01*
X258837Y126145D01*
X258948Y126101D01*
X259057Y126054D01*
X259165Y126003D01*
X259272Y125949D01*
X259376Y125891D01*
X259478Y125829D01*
X259579Y125765D01*
X259677Y125696D01*
X259773Y125625D01*
X259866Y125551D01*
X259957Y125473D01*
X260045Y125393D01*
X260130Y125309D01*
X260213Y125223D01*
X260293Y125134D01*
X260370Y125043D01*
X260443Y124949D01*
X260514Y124852D01*
X260581Y124754D01*
X260645Y124653D01*
X260706Y124550D01*
X260763Y124445D01*
X260816Y124339D01*
X260866Y124230D01*
X260913Y124120D01*
X260955Y124009D01*
X260994Y123896D01*
X261030Y123782D01*
X261061Y123666D01*
X261088Y123550D01*
X261112Y123433D01*
X261132Y123315D01*
X261148Y123197D01*
X261160Y123078D01*
X261168Y122959D01*
X261172Y122840D01*
X261172Y122720D01*
X261168Y122601D01*
X261160Y122482D01*
X261148Y122363D01*
X261132Y122245D01*
X261112Y122127D01*
X261088Y122010D01*
X261061Y121894D01*
X261030Y121778D01*
X260994Y121664D01*
X260955Y121551D01*
X260913Y121440D01*
X260866Y121330D01*
X260816Y121221D01*
X260763Y121115D01*
X260706Y121010D01*
X260645Y120907D01*
X260581Y120806D01*
X260514Y120708D01*
X260443Y120611D01*
X260370Y120517D01*
X260293Y120426D01*
X260213Y120337D01*
X260130Y120251D01*
X260045Y120167D01*
X259957Y120087D01*
X259866Y120009D01*
X259773Y119935D01*
X259677Y119864D01*
X259579Y119795D01*
X259478Y119731D01*
X259376Y119669D01*
X259272Y119611D01*
X259165Y119557D01*
X259057Y119506D01*
X258948Y119459D01*
X258837Y119415D01*
X258724Y119375D01*
X258610Y119339D01*
X258495Y119307D01*
X258379Y119278D01*
X258262Y119253D01*
X258145Y119233D01*
X258027Y119216D01*
X257908Y119203D01*
X257789Y119194D01*
X257670Y119189D01*
X257550Y119188D01*
X257431Y119191D01*
X257312Y119198D01*
X257193Y119209D01*
X257074Y119224D01*
X256956Y119243D01*
X256839Y119265D01*
X256723Y119292D01*
X256607Y119322D01*
X256493Y119357D01*
X256380Y119395D01*
X256268Y119436D01*
X256157Y119482D01*
X256048Y119531D01*
X255941Y119584D01*
X255836Y119640D01*
X255733Y119700D01*
X255631Y119763D01*
X255532Y119829D01*
X255435Y119899D01*
X255340Y119972D01*
X255248Y120048D01*
X255159Y120127D01*
X255072Y120209D01*
X254988Y120293D01*
X254907Y120381D01*
X254828Y120471D01*
X254753Y120564D01*
X254681Y120659D01*
X254612Y120757D01*
X254547Y120856D01*
X254484Y120958D01*
X254425Y121062D01*
X254370Y121168D01*
X254318Y121275D01*
X254270Y121385D01*
X254226Y121496D01*
X254185Y121608D01*
X254148Y121721D01*
X254114Y121836D01*
X254085Y121952D01*
X254059Y122068D01*
X254038Y122186D01*
X254020Y122304D01*
X254006Y122422D01*
X253996Y122541D01*
X253990Y122661D01*
X253988Y122780D01*
D19*
X229450Y156345D02*
X229450Y156955D01*
X253550Y156955D02*
X253550Y156345D01*
D14*
X112900Y65500D02*
X112900Y17500D01*
X188900Y17500D02*
X188900Y65500D01*
X117295Y36500D02*
X117297Y36620D01*
X117303Y36740D01*
X117313Y36859D01*
X117327Y36978D01*
X117345Y37096D01*
X117366Y37214D01*
X117392Y37331D01*
X117422Y37448D01*
X117455Y37563D01*
X117492Y37677D01*
X117533Y37789D01*
X117578Y37900D01*
X117626Y38010D01*
X117678Y38118D01*
X117734Y38224D01*
X117793Y38328D01*
X117856Y38431D01*
X117921Y38531D01*
X117991Y38629D01*
X118063Y38724D01*
X118138Y38817D01*
X118217Y38908D01*
X118298Y38996D01*
X118383Y39081D01*
X118470Y39163D01*
X118560Y39242D01*
X118652Y39319D01*
X118747Y39392D01*
X118845Y39462D01*
X118944Y39528D01*
X119046Y39592D01*
X119150Y39652D01*
X119255Y39708D01*
X119363Y39761D01*
X119472Y39810D01*
X119583Y39856D01*
X119695Y39898D01*
X119809Y39936D01*
X119924Y39970D01*
X120040Y40001D01*
X120156Y40027D01*
X120274Y40050D01*
X120392Y40069D01*
X120511Y40084D01*
X120631Y40095D01*
X120750Y40102D01*
X120870Y40105D01*
X120990Y40104D01*
X121110Y40099D01*
X121229Y40090D01*
X121348Y40077D01*
X121467Y40060D01*
X121585Y40039D01*
X121702Y40015D01*
X121819Y39986D01*
X121934Y39954D01*
X122048Y39917D01*
X122161Y39877D01*
X122273Y39833D01*
X122383Y39786D01*
X122491Y39735D01*
X122598Y39680D01*
X122702Y39622D01*
X122805Y39560D01*
X122906Y39495D01*
X123004Y39427D01*
X123101Y39355D01*
X123194Y39281D01*
X123285Y39203D01*
X123374Y39122D01*
X123460Y39039D01*
X123543Y38952D01*
X123623Y38863D01*
X123700Y38771D01*
X123774Y38677D01*
X123844Y38580D01*
X123912Y38481D01*
X123976Y38380D01*
X124037Y38276D01*
X124094Y38171D01*
X124148Y38064D01*
X124198Y37955D01*
X124245Y37845D01*
X124288Y37733D01*
X124327Y37620D01*
X124362Y37505D01*
X124394Y37390D01*
X124421Y37273D01*
X124445Y37155D01*
X124465Y37037D01*
X124481Y36919D01*
X124493Y36799D01*
X124501Y36680D01*
X124505Y36560D01*
X124505Y36440D01*
X124501Y36320D01*
X124493Y36201D01*
X124481Y36081D01*
X124465Y35963D01*
X124445Y35845D01*
X124421Y35727D01*
X124394Y35610D01*
X124362Y35495D01*
X124327Y35380D01*
X124288Y35267D01*
X124245Y35155D01*
X124198Y35045D01*
X124148Y34936D01*
X124094Y34829D01*
X124037Y34724D01*
X123976Y34620D01*
X123912Y34519D01*
X123844Y34420D01*
X123774Y34323D01*
X123700Y34229D01*
X123623Y34137D01*
X123543Y34048D01*
X123460Y33961D01*
X123374Y33878D01*
X123285Y33797D01*
X123194Y33719D01*
X123101Y33645D01*
X123004Y33573D01*
X122906Y33505D01*
X122805Y33440D01*
X122703Y33378D01*
X122598Y33320D01*
X122491Y33265D01*
X122383Y33214D01*
X122273Y33167D01*
X122161Y33123D01*
X122048Y33083D01*
X121934Y33046D01*
X121819Y33014D01*
X121702Y32985D01*
X121585Y32961D01*
X121467Y32940D01*
X121348Y32923D01*
X121229Y32910D01*
X121110Y32901D01*
X120990Y32896D01*
X120870Y32895D01*
X120750Y32898D01*
X120631Y32905D01*
X120511Y32916D01*
X120392Y32931D01*
X120274Y32950D01*
X120156Y32973D01*
X120040Y32999D01*
X119924Y33030D01*
X119809Y33064D01*
X119695Y33102D01*
X119583Y33144D01*
X119472Y33190D01*
X119363Y33239D01*
X119255Y33292D01*
X119150Y33348D01*
X119046Y33408D01*
X118944Y33472D01*
X118845Y33538D01*
X118747Y33608D01*
X118652Y33681D01*
X118560Y33758D01*
X118470Y33837D01*
X118383Y33919D01*
X118298Y34004D01*
X118217Y34092D01*
X118138Y34183D01*
X118063Y34276D01*
X117991Y34371D01*
X117921Y34469D01*
X117856Y34569D01*
X117793Y34672D01*
X117734Y34776D01*
X117678Y34882D01*
X117626Y34990D01*
X117578Y35100D01*
X117533Y35211D01*
X117492Y35323D01*
X117455Y35437D01*
X117422Y35552D01*
X117392Y35669D01*
X117366Y35786D01*
X117345Y35904D01*
X117327Y36022D01*
X117313Y36141D01*
X117303Y36260D01*
X117297Y36380D01*
X117295Y36500D01*
X90700Y725150D02*
X162700Y725150D01*
X462000Y250D02*
X534000Y250D01*
D18*
X589000Y186270D02*
X594270Y186270D01*
X594270Y181000D01*
X594270Y139000D02*
X594270Y133730D01*
X589000Y133730D01*
X547000Y133730D02*
X541730Y133730D01*
X541730Y139000D01*
X541730Y181000D02*
X547000Y186270D01*
D20*
X541110Y186890D03*
D17*
X516500Y134500D02*
X512500Y134500D01*
X512500Y141500D02*
X516500Y141500D01*
X516500Y146500D02*
X512500Y146500D01*
X512500Y153500D02*
X516500Y153500D01*
X516500Y162500D02*
X512500Y162500D01*
X512500Y169500D02*
X516500Y169500D01*
X516500Y174500D02*
X512500Y174500D01*
X512500Y181500D02*
X516500Y181500D01*
D19*
X496805Y130500D02*
X496195Y130500D01*
X478000Y150695D02*
X478000Y151305D01*
X478000Y162195D02*
X478000Y162805D01*
X496195Y185000D02*
X496805Y185000D01*
X532000Y126305D02*
X532000Y125695D01*
X560195Y98500D02*
X560805Y98500D01*
X549305Y98500D02*
X548695Y98500D01*
X537805Y98500D02*
X537195Y98500D01*
D18*
X121537Y581632D02*
X121537Y628368D01*
X156653Y632178D02*
X156766Y632194D01*
X156880Y632205D01*
X156994Y632212D01*
X157108Y632216D01*
X157223Y632215D01*
X157337Y632211D01*
X157451Y632203D01*
X157565Y632191D01*
X157678Y632175D01*
X157790Y632155D01*
X157902Y632131D01*
X158013Y632104D01*
X158123Y632072D01*
X158232Y632037D01*
X158340Y631999D01*
X158446Y631956D01*
X158550Y631910D01*
X158654Y631861D01*
X158755Y631808D01*
X158854Y631752D01*
X158952Y631692D01*
X159047Y631629D01*
X159140Y631562D01*
X159231Y631493D01*
X159319Y631421D01*
X159405Y631345D01*
X159489Y631267D01*
X159569Y631186D01*
X159647Y631102D01*
X159722Y631015D01*
X159793Y630926D01*
X159862Y630835D01*
X159928Y630741D01*
X159990Y630646D01*
X160049Y630548D01*
X160105Y630448D01*
X160157Y630346D01*
X160206Y630243D01*
X160251Y630138D01*
X160292Y630031D01*
X160330Y629923D01*
X160365Y629814D01*
X160395Y629704D01*
X160422Y629593D01*
X160444Y629481D01*
X160463Y629368D01*
X121537Y581632D02*
X121554Y581502D01*
X121575Y581373D01*
X121600Y581244D01*
X121628Y581116D01*
X121661Y580989D01*
X121697Y580863D01*
X121738Y580738D01*
X121782Y580615D01*
X121829Y580493D01*
X121881Y580372D01*
X121935Y580253D01*
X121994Y580136D01*
X122056Y580021D01*
X122121Y579907D01*
X122190Y579795D01*
X122263Y579686D01*
X122338Y579579D01*
X122417Y579474D01*
X122499Y579372D01*
X122584Y579272D01*
X122671Y579175D01*
X122762Y579080D01*
X122856Y578988D01*
X122952Y578899D01*
X123051Y578813D01*
X123152Y578731D01*
X123256Y578651D01*
X123363Y578574D01*
X123471Y578501D01*
X123582Y578431D01*
X123695Y578364D01*
X123810Y578301D01*
X123926Y578241D01*
X124045Y578185D01*
X124165Y578132D01*
X124286Y578083D01*
X124409Y578038D01*
X124534Y577996D01*
X124659Y577958D01*
X124786Y577925D01*
X124913Y577894D01*
X125042Y577868D01*
X125171Y577846D01*
X125301Y577827D01*
X125431Y577813D01*
X125562Y577802D01*
X125693Y577796D01*
X125824Y577793D01*
X125955Y577794D01*
X126086Y577800D01*
X126216Y577809D01*
X126347Y577822D01*
X121537Y628368D02*
X121539Y628490D01*
X121545Y628612D01*
X121555Y628734D01*
X121568Y628855D01*
X121586Y628976D01*
X121607Y629096D01*
X121632Y629216D01*
X121661Y629335D01*
X121694Y629452D01*
X121731Y629569D01*
X121771Y629684D01*
X121815Y629798D01*
X121863Y629910D01*
X121914Y630021D01*
X121969Y630130D01*
X122027Y630238D01*
X122089Y630343D01*
X122154Y630447D01*
X122222Y630548D01*
X122293Y630647D01*
X122368Y630744D01*
X122446Y630838D01*
X122526Y630930D01*
X122610Y631019D01*
X122696Y631105D01*
X122785Y631189D01*
X122877Y631269D01*
X122971Y631347D01*
X123068Y631422D01*
X123167Y631493D01*
X123268Y631561D01*
X123372Y631626D01*
X123477Y631688D01*
X123585Y631746D01*
X123694Y631801D01*
X123805Y631852D01*
X123917Y631900D01*
X124031Y631944D01*
X124146Y631984D01*
X124263Y632021D01*
X124380Y632054D01*
X124499Y632083D01*
X124619Y632108D01*
X124739Y632129D01*
X124860Y632147D01*
X124981Y632160D01*
X125103Y632170D01*
X125225Y632176D01*
X125347Y632178D01*
X160463Y581633D02*
X160478Y581519D01*
X160490Y581405D01*
X160497Y581291D01*
X160501Y581177D01*
X160500Y581063D01*
X160496Y580948D01*
X160488Y580834D01*
X160476Y580721D01*
X160460Y580608D01*
X160440Y580495D01*
X160416Y580383D01*
X160389Y580272D01*
X160358Y580162D01*
X160323Y580053D01*
X160284Y579946D01*
X160242Y579839D01*
X160196Y579735D01*
X160146Y579632D01*
X160093Y579530D01*
X160037Y579431D01*
X159977Y579333D01*
X159914Y579238D01*
X159848Y579145D01*
X159778Y579054D01*
X159706Y578966D01*
X159630Y578880D01*
X159552Y578797D01*
X159471Y578716D01*
X159387Y578638D01*
X159301Y578564D01*
X159212Y578492D01*
X159120Y578423D01*
X159027Y578357D01*
X158931Y578295D01*
X158833Y578236D01*
X158733Y578180D01*
X158631Y578128D01*
X158528Y578080D01*
X158423Y578034D01*
X158316Y577993D01*
X158208Y577955D01*
X158099Y577921D01*
X157989Y577891D01*
X157878Y577864D01*
X157766Y577841D01*
X157653Y577822D01*
X160463Y581632D02*
X160463Y629368D01*
X156653Y632178D02*
X125347Y632178D01*
X134904Y578330D02*
X134906Y578488D01*
X134912Y578647D01*
X134922Y578805D01*
X134936Y578962D01*
X134953Y579120D01*
X134975Y579276D01*
X135000Y579433D01*
X135030Y579588D01*
X135063Y579743D01*
X135100Y579897D01*
X135141Y580050D01*
X135186Y580202D01*
X135235Y580352D01*
X135287Y580502D01*
X135343Y580650D01*
X135403Y580797D01*
X135466Y580942D01*
X135533Y581085D01*
X135603Y581227D01*
X135677Y581367D01*
X135755Y581505D01*
X135836Y581641D01*
X135920Y581775D01*
X136007Y581907D01*
X136098Y582037D01*
X136192Y582164D01*
X136289Y582289D01*
X136390Y582412D01*
X136493Y582532D01*
X136599Y582649D01*
X136708Y582764D01*
X136820Y582876D01*
X136935Y582985D01*
X137052Y583091D01*
X137172Y583194D01*
X137295Y583295D01*
X137420Y583392D01*
X137547Y583486D01*
X137677Y583577D01*
X137809Y583664D01*
X137943Y583748D01*
X138079Y583829D01*
X138217Y583907D01*
X138357Y583981D01*
X138499Y584051D01*
X138642Y584118D01*
X138787Y584181D01*
X138934Y584241D01*
X139082Y584297D01*
X139232Y584349D01*
X139382Y584398D01*
X139534Y584443D01*
X139687Y584484D01*
X139841Y584521D01*
X139996Y584554D01*
X140151Y584584D01*
X140308Y584609D01*
X140464Y584631D01*
X140622Y584648D01*
X140779Y584662D01*
X140937Y584672D01*
X141096Y584678D01*
X141254Y584680D01*
X141412Y584678D01*
X141571Y584672D01*
X141729Y584662D01*
X141886Y584648D01*
X142044Y584631D01*
X142200Y584609D01*
X142357Y584584D01*
X142512Y584554D01*
X142667Y584521D01*
X142821Y584484D01*
X142974Y584443D01*
X143126Y584398D01*
X143276Y584349D01*
X143426Y584297D01*
X143574Y584241D01*
X143721Y584181D01*
X143866Y584118D01*
X144009Y584051D01*
X144151Y583981D01*
X144291Y583907D01*
X144429Y583829D01*
X144565Y583748D01*
X144699Y583664D01*
X144831Y583577D01*
X144961Y583486D01*
X145088Y583392D01*
X145213Y583295D01*
X145336Y583194D01*
X145456Y583091D01*
X145573Y582985D01*
X145688Y582876D01*
X145800Y582764D01*
X145909Y582649D01*
X146015Y582532D01*
X146118Y582412D01*
X146219Y582289D01*
X146316Y582164D01*
X146410Y582037D01*
X146501Y581907D01*
X146588Y581775D01*
X146672Y581641D01*
X146753Y581505D01*
X146831Y581367D01*
X146905Y581227D01*
X146975Y581085D01*
X147042Y580942D01*
X147105Y580797D01*
X147165Y580650D01*
X147221Y580502D01*
X147273Y580352D01*
X147322Y580202D01*
X147367Y580050D01*
X147408Y579897D01*
X147445Y579743D01*
X147478Y579588D01*
X147508Y579433D01*
X147533Y579276D01*
X147555Y579120D01*
X147572Y578962D01*
X147586Y578805D01*
X147596Y578647D01*
X147602Y578488D01*
X147604Y578330D01*
X134904Y577822D02*
X126474Y577822D01*
X147604Y577822D02*
X157653Y577822D01*
X420463Y83368D02*
X420463Y36632D01*
X385347Y32822D02*
X385234Y32806D01*
X385120Y32795D01*
X385006Y32788D01*
X384892Y32784D01*
X384777Y32785D01*
X384663Y32789D01*
X384549Y32797D01*
X384435Y32809D01*
X384322Y32825D01*
X384210Y32845D01*
X384098Y32869D01*
X383987Y32896D01*
X383877Y32928D01*
X383768Y32963D01*
X383660Y33001D01*
X383554Y33044D01*
X383450Y33090D01*
X383346Y33139D01*
X383245Y33192D01*
X383146Y33248D01*
X383048Y33308D01*
X382953Y33371D01*
X382860Y33438D01*
X382769Y33507D01*
X382681Y33579D01*
X382595Y33655D01*
X382511Y33733D01*
X382431Y33814D01*
X382353Y33898D01*
X382278Y33985D01*
X382207Y34074D01*
X382138Y34165D01*
X382072Y34259D01*
X382010Y34354D01*
X381951Y34452D01*
X381895Y34552D01*
X381843Y34654D01*
X381794Y34757D01*
X381749Y34862D01*
X381708Y34969D01*
X381670Y35077D01*
X381635Y35186D01*
X381605Y35296D01*
X381578Y35407D01*
X381556Y35519D01*
X381537Y35632D01*
X420463Y83368D02*
X420446Y83498D01*
X420425Y83627D01*
X420400Y83756D01*
X420372Y83884D01*
X420339Y84011D01*
X420303Y84137D01*
X420262Y84262D01*
X420218Y84385D01*
X420171Y84507D01*
X420119Y84628D01*
X420065Y84747D01*
X420006Y84864D01*
X419944Y84979D01*
X419879Y85093D01*
X419810Y85205D01*
X419737Y85314D01*
X419662Y85421D01*
X419583Y85526D01*
X419501Y85628D01*
X419416Y85728D01*
X419329Y85825D01*
X419238Y85920D01*
X419144Y86012D01*
X419048Y86101D01*
X418949Y86187D01*
X418848Y86269D01*
X418744Y86349D01*
X418637Y86426D01*
X418529Y86499D01*
X418418Y86569D01*
X418305Y86636D01*
X418190Y86699D01*
X418074Y86759D01*
X417955Y86815D01*
X417835Y86868D01*
X417714Y86917D01*
X417591Y86962D01*
X417466Y87004D01*
X417341Y87042D01*
X417214Y87075D01*
X417087Y87106D01*
X416958Y87132D01*
X416829Y87154D01*
X416699Y87173D01*
X416569Y87187D01*
X416438Y87198D01*
X416307Y87204D01*
X416176Y87207D01*
X416045Y87206D01*
X415914Y87200D01*
X415784Y87191D01*
X415653Y87178D01*
X420463Y36632D02*
X420461Y36510D01*
X420455Y36388D01*
X420445Y36266D01*
X420432Y36145D01*
X420414Y36024D01*
X420393Y35904D01*
X420368Y35784D01*
X420339Y35665D01*
X420306Y35548D01*
X420269Y35431D01*
X420229Y35316D01*
X420185Y35202D01*
X420137Y35090D01*
X420086Y34979D01*
X420031Y34870D01*
X419973Y34762D01*
X419911Y34657D01*
X419846Y34553D01*
X419778Y34452D01*
X419707Y34353D01*
X419632Y34256D01*
X419554Y34162D01*
X419474Y34070D01*
X419390Y33981D01*
X419304Y33895D01*
X419215Y33811D01*
X419123Y33731D01*
X419029Y33653D01*
X418932Y33578D01*
X418833Y33507D01*
X418732Y33439D01*
X418628Y33374D01*
X418523Y33312D01*
X418415Y33254D01*
X418306Y33199D01*
X418195Y33148D01*
X418083Y33100D01*
X417969Y33056D01*
X417854Y33016D01*
X417737Y32979D01*
X417620Y32946D01*
X417501Y32917D01*
X417381Y32892D01*
X417261Y32871D01*
X417140Y32853D01*
X417019Y32840D01*
X416897Y32830D01*
X416775Y32824D01*
X416653Y32822D01*
X381537Y83367D02*
X381522Y83481D01*
X381510Y83595D01*
X381503Y83709D01*
X381499Y83823D01*
X381500Y83937D01*
X381504Y84052D01*
X381512Y84166D01*
X381524Y84279D01*
X381540Y84392D01*
X381560Y84505D01*
X381584Y84617D01*
X381611Y84728D01*
X381642Y84838D01*
X381677Y84947D01*
X381716Y85054D01*
X381758Y85161D01*
X381804Y85265D01*
X381854Y85368D01*
X381907Y85470D01*
X381963Y85569D01*
X382023Y85667D01*
X382086Y85762D01*
X382152Y85855D01*
X382222Y85946D01*
X382294Y86034D01*
X382370Y86120D01*
X382448Y86203D01*
X382529Y86284D01*
X382613Y86362D01*
X382699Y86436D01*
X382788Y86508D01*
X382880Y86577D01*
X382973Y86643D01*
X383069Y86705D01*
X383167Y86764D01*
X383267Y86820D01*
X383369Y86872D01*
X383472Y86920D01*
X383577Y86966D01*
X383684Y87007D01*
X383792Y87045D01*
X383901Y87079D01*
X384011Y87109D01*
X384122Y87136D01*
X384234Y87159D01*
X384347Y87178D01*
X381537Y83368D02*
X381537Y35632D01*
X385347Y32822D02*
X416653Y32822D01*
X407096Y86670D02*
X407094Y86512D01*
X407088Y86353D01*
X407078Y86195D01*
X407064Y86038D01*
X407047Y85880D01*
X407025Y85724D01*
X407000Y85567D01*
X406970Y85412D01*
X406937Y85257D01*
X406900Y85103D01*
X406859Y84950D01*
X406814Y84798D01*
X406765Y84648D01*
X406713Y84498D01*
X406657Y84350D01*
X406597Y84203D01*
X406534Y84058D01*
X406467Y83915D01*
X406397Y83773D01*
X406323Y83633D01*
X406245Y83495D01*
X406164Y83359D01*
X406080Y83225D01*
X405993Y83093D01*
X405902Y82963D01*
X405808Y82836D01*
X405711Y82711D01*
X405610Y82588D01*
X405507Y82468D01*
X405401Y82351D01*
X405292Y82236D01*
X405180Y82124D01*
X405065Y82015D01*
X404948Y81909D01*
X404828Y81806D01*
X404705Y81705D01*
X404580Y81608D01*
X404453Y81514D01*
X404323Y81423D01*
X404191Y81336D01*
X404057Y81252D01*
X403921Y81171D01*
X403783Y81093D01*
X403643Y81019D01*
X403501Y80949D01*
X403358Y80882D01*
X403213Y80819D01*
X403066Y80759D01*
X402918Y80703D01*
X402768Y80651D01*
X402618Y80602D01*
X402466Y80557D01*
X402313Y80516D01*
X402159Y80479D01*
X402004Y80446D01*
X401849Y80416D01*
X401692Y80391D01*
X401536Y80369D01*
X401378Y80352D01*
X401221Y80338D01*
X401063Y80328D01*
X400904Y80322D01*
X400746Y80320D01*
X400588Y80322D01*
X400429Y80328D01*
X400271Y80338D01*
X400114Y80352D01*
X399956Y80369D01*
X399800Y80391D01*
X399643Y80416D01*
X399488Y80446D01*
X399333Y80479D01*
X399179Y80516D01*
X399026Y80557D01*
X398874Y80602D01*
X398724Y80651D01*
X398574Y80703D01*
X398426Y80759D01*
X398279Y80819D01*
X398134Y80882D01*
X397991Y80949D01*
X397849Y81019D01*
X397709Y81093D01*
X397571Y81171D01*
X397435Y81252D01*
X397301Y81336D01*
X397169Y81423D01*
X397039Y81514D01*
X396912Y81608D01*
X396787Y81705D01*
X396664Y81806D01*
X396544Y81909D01*
X396427Y82015D01*
X396312Y82124D01*
X396200Y82236D01*
X396091Y82351D01*
X395985Y82468D01*
X395882Y82588D01*
X395781Y82711D01*
X395684Y82836D01*
X395590Y82963D01*
X395499Y83093D01*
X395412Y83225D01*
X395328Y83359D01*
X395247Y83495D01*
X395169Y83633D01*
X395095Y83773D01*
X395025Y83915D01*
X394958Y84058D01*
X394895Y84203D01*
X394835Y84350D01*
X394779Y84498D01*
X394727Y84648D01*
X394678Y84798D01*
X394633Y84950D01*
X394592Y85103D01*
X394555Y85257D01*
X394522Y85412D01*
X394492Y85567D01*
X394467Y85724D01*
X394445Y85880D01*
X394428Y86038D01*
X394414Y86195D01*
X394404Y86353D01*
X394398Y86512D01*
X394396Y86670D01*
X407096Y87178D02*
X415526Y87178D01*
X394396Y87178D02*
X384347Y87178D01*
D17*
X173000Y644500D02*
X169000Y644500D01*
X169000Y637500D02*
X173000Y637500D01*
X181500Y595000D02*
X181500Y591000D01*
X188500Y591000D02*
X188500Y595000D01*
X359500Y70500D02*
X359500Y66500D01*
X352500Y66500D02*
X352500Y70500D01*
X352500Y44000D02*
X352500Y40000D01*
X359500Y40000D02*
X359500Y44000D01*
D18*
X489730Y203750D02*
X494000Y203750D01*
X494000Y214290D01*
X476270Y203750D02*
X472000Y203750D01*
X472000Y214290D01*
X523730Y208000D02*
X528000Y208000D01*
X528000Y218540D01*
X510270Y208000D02*
X506000Y208000D01*
X506000Y218540D01*
D17*
X489750Y232000D02*
X485750Y232000D01*
X485750Y239000D02*
X489750Y239000D01*
X132000Y544250D02*
X128000Y544250D01*
X128000Y537250D02*
X132000Y537250D01*
X514000Y233500D02*
X518000Y233500D01*
X518000Y240500D02*
X514000Y240500D01*
X423500Y92500D02*
X419500Y92500D01*
X419500Y85500D02*
X423500Y85500D01*
X476500Y185750D02*
X476500Y189750D01*
X469500Y189750D02*
X469500Y185750D01*
X523000Y190500D02*
X527000Y190500D01*
X527000Y197500D02*
X523000Y197500D01*
D18*
X612300Y207350D02*
X612300Y220050D01*
X618650Y226400D01*
X631350Y226400D02*
X637700Y220050D01*
X612300Y181950D02*
X618650Y175600D01*
X612300Y181950D02*
X612300Y194650D01*
X618650Y201000D01*
X631350Y201000D02*
X637700Y194650D01*
X637700Y181950D01*
X631350Y175600D01*
X618650Y201000D02*
X612300Y207350D01*
X631350Y201000D02*
X637700Y207350D01*
X637700Y220050D01*
X612300Y143850D02*
X612300Y131150D01*
X612300Y143850D02*
X618650Y150200D01*
X631350Y150200D02*
X637700Y143850D01*
X618650Y150200D02*
X612300Y156550D01*
X612300Y169250D01*
X618650Y175600D01*
X631350Y175600D02*
X637700Y169250D01*
X637700Y156550D01*
X631350Y150200D01*
X631350Y124800D02*
X618650Y124800D01*
X612300Y131150D01*
X631350Y124800D02*
X637700Y131150D01*
X637700Y143850D01*
X631350Y226400D02*
X618650Y226400D01*
D17*
X589000Y123000D02*
X585000Y123000D01*
X585000Y116000D02*
X589000Y116000D01*
X614000Y122500D02*
X618000Y122500D01*
X618000Y115500D02*
X614000Y115500D01*
D21*
X265000Y15600D03*
X265000Y35100D03*
D14*
X305500Y181100D02*
X305500Y230100D01*
X266500Y230100D01*
X266500Y181100D01*
X305500Y181100D01*
D22*
X309000Y176600D03*
D23*
X307436Y312815D02*
X337436Y312815D01*
X337436Y232815D02*
X307436Y232815D01*
D11*
X285454Y42272D02*
X335746Y42272D01*
X335746Y87928D01*
X285454Y87928D01*
X285454Y42272D01*
D24*
X287740Y44558D02*
X333460Y44558D01*
X333460Y85642D01*
X287740Y85642D01*
X287740Y44558D01*
D11*
X289772Y52908D02*
X289774Y53043D01*
X289780Y53178D01*
X289790Y53312D01*
X289804Y53446D01*
X289822Y53580D01*
X289843Y53713D01*
X289869Y53845D01*
X289899Y53977D01*
X289932Y54108D01*
X289969Y54237D01*
X290011Y54366D01*
X290055Y54493D01*
X290104Y54619D01*
X290156Y54743D01*
X290212Y54866D01*
X290272Y54987D01*
X290335Y55106D01*
X290401Y55223D01*
X290471Y55338D01*
X290545Y55452D01*
X290622Y55563D01*
X290701Y55671D01*
X290785Y55777D01*
X290871Y55881D01*
X290960Y55982D01*
X291052Y56081D01*
X291147Y56176D01*
X291245Y56269D01*
X291345Y56359D01*
X291448Y56446D01*
X291554Y56530D01*
X291662Y56611D01*
X291772Y56688D01*
X291885Y56762D01*
X292000Y56833D01*
X292117Y56901D01*
X292235Y56965D01*
X292356Y57025D01*
X292478Y57082D01*
X292602Y57135D01*
X292728Y57185D01*
X292854Y57231D01*
X292983Y57273D01*
X293112Y57311D01*
X293242Y57345D01*
X293374Y57376D01*
X293506Y57403D01*
X293639Y57425D01*
X293772Y57444D01*
X293906Y57459D01*
X294041Y57470D01*
X294175Y57477D01*
X294310Y57480D01*
X294445Y57479D01*
X294580Y57474D01*
X294714Y57465D01*
X294849Y57452D01*
X294983Y57435D01*
X295116Y57414D01*
X295248Y57390D01*
X295380Y57361D01*
X295511Y57329D01*
X295641Y57292D01*
X295770Y57252D01*
X295897Y57208D01*
X296023Y57160D01*
X296148Y57109D01*
X296271Y57054D01*
X296393Y56995D01*
X296512Y56933D01*
X296630Y56867D01*
X296746Y56798D01*
X296859Y56726D01*
X296971Y56650D01*
X297080Y56571D01*
X297187Y56489D01*
X297291Y56403D01*
X297393Y56315D01*
X297492Y56223D01*
X297589Y56129D01*
X297682Y56032D01*
X297773Y55932D01*
X297861Y55830D01*
X297945Y55725D01*
X298027Y55617D01*
X298105Y55507D01*
X298180Y55395D01*
X298252Y55281D01*
X298320Y55165D01*
X298385Y55046D01*
X298446Y54926D01*
X298504Y54804D01*
X298558Y54681D01*
X298609Y54556D01*
X298655Y54429D01*
X298698Y54302D01*
X298738Y54173D01*
X298773Y54042D01*
X298805Y53911D01*
X298832Y53779D01*
X298856Y53647D01*
X298876Y53513D01*
X298892Y53379D01*
X298904Y53245D01*
X298912Y53110D01*
X298916Y52975D01*
X298916Y52841D01*
X298912Y52706D01*
X298904Y52571D01*
X298892Y52437D01*
X298876Y52303D01*
X298856Y52169D01*
X298832Y52037D01*
X298805Y51905D01*
X298773Y51774D01*
X298738Y51643D01*
X298698Y51514D01*
X298655Y51387D01*
X298609Y51260D01*
X298558Y51135D01*
X298504Y51012D01*
X298446Y50890D01*
X298385Y50770D01*
X298320Y50651D01*
X298252Y50535D01*
X298180Y50421D01*
X298105Y50309D01*
X298027Y50199D01*
X297945Y50091D01*
X297861Y49986D01*
X297773Y49884D01*
X297682Y49784D01*
X297589Y49687D01*
X297492Y49593D01*
X297393Y49501D01*
X297291Y49413D01*
X297187Y49327D01*
X297080Y49245D01*
X296971Y49166D01*
X296859Y49090D01*
X296746Y49018D01*
X296630Y48949D01*
X296512Y48883D01*
X296393Y48821D01*
X296271Y48762D01*
X296148Y48707D01*
X296023Y48656D01*
X295897Y48608D01*
X295770Y48564D01*
X295641Y48524D01*
X295511Y48487D01*
X295380Y48455D01*
X295248Y48426D01*
X295116Y48402D01*
X294983Y48381D01*
X294849Y48364D01*
X294714Y48351D01*
X294580Y48342D01*
X294445Y48337D01*
X294310Y48336D01*
X294175Y48339D01*
X294041Y48346D01*
X293906Y48357D01*
X293772Y48372D01*
X293639Y48391D01*
X293506Y48413D01*
X293374Y48440D01*
X293242Y48471D01*
X293112Y48505D01*
X292983Y48543D01*
X292854Y48585D01*
X292728Y48631D01*
X292602Y48681D01*
X292478Y48734D01*
X292356Y48791D01*
X292235Y48851D01*
X292117Y48915D01*
X292000Y48983D01*
X291885Y49054D01*
X291772Y49128D01*
X291662Y49205D01*
X291554Y49286D01*
X291448Y49370D01*
X291345Y49457D01*
X291245Y49547D01*
X291147Y49640D01*
X291052Y49735D01*
X290960Y49834D01*
X290871Y49935D01*
X290785Y50039D01*
X290701Y50145D01*
X290622Y50253D01*
X290545Y50364D01*
X290471Y50478D01*
X290401Y50593D01*
X290335Y50710D01*
X290272Y50829D01*
X290212Y50950D01*
X290156Y51073D01*
X290104Y51197D01*
X290055Y51323D01*
X290011Y51450D01*
X289969Y51579D01*
X289932Y51708D01*
X289899Y51839D01*
X289869Y51971D01*
X289843Y52103D01*
X289822Y52236D01*
X289804Y52370D01*
X289790Y52504D01*
X289780Y52638D01*
X289774Y52773D01*
X289772Y52908D01*
D14*
X155600Y575250D02*
X118000Y575250D01*
X156000Y575250D02*
X163500Y575250D01*
X163500Y547250D01*
X117500Y547250D01*
X117500Y575250D01*
X155600Y575250D02*
X156000Y575250D01*
X156000Y547750D01*
X390900Y2250D02*
X428500Y2250D01*
X390500Y2250D02*
X383000Y2250D01*
X383000Y30250D01*
X429000Y30250D01*
X429000Y2250D01*
X390900Y2250D02*
X390500Y2250D01*
X390500Y29750D01*
D18*
X615150Y87300D02*
X627850Y87300D01*
X615150Y87300D02*
X608800Y93650D01*
X608800Y106350D02*
X615150Y112700D01*
X608800Y93650D02*
X602450Y87300D01*
X589750Y87300D01*
X583400Y93650D01*
X583400Y106350D02*
X589750Y112700D01*
X602450Y112700D01*
X608800Y106350D01*
X634200Y106350D02*
X634200Y93650D01*
X627850Y87300D01*
X634200Y106350D02*
X627850Y112700D01*
X615150Y112700D01*
X583400Y106350D02*
X583400Y93650D01*
D17*
X272000Y78000D02*
X272000Y74000D01*
X279000Y74000D02*
X279000Y78000D01*
X259500Y48000D02*
X255500Y48000D01*
X255500Y55000D02*
X259500Y55000D01*
X278500Y140250D02*
X282500Y140250D01*
X282500Y147250D02*
X278500Y147250D01*
X278500Y128500D02*
X282500Y128500D01*
X282500Y135500D02*
X278500Y135500D01*
D19*
X454695Y143000D02*
X455305Y143000D01*
X455305Y178000D02*
X454695Y178000D01*
X279500Y120805D02*
X279500Y120195D01*
X279250Y155195D02*
X279250Y155805D01*
D11*
X128852Y146572D02*
X128852Y170466D01*
X128852Y146572D02*
X117176Y146572D01*
X117176Y170466D02*
X128852Y170466D01*
X117176Y170466D02*
X117176Y146572D01*
D18*
X147000Y141500D02*
X162000Y141500D01*
X162000Y117500D01*
X147000Y117500D01*
X127000Y141500D02*
X116000Y141500D01*
X112000Y137500D01*
X112000Y121500D01*
X116000Y117500D01*
X127000Y117500D01*
D19*
X129500Y109805D02*
X129500Y109195D01*
D14*
X629500Y287500D02*
X629500Y293500D01*
X619500Y306500D02*
X615500Y306500D01*
X615500Y274500D02*
X619500Y274500D01*
X605500Y286500D02*
X605500Y294500D01*
D18*
X88100Y609050D02*
X75400Y609050D01*
X69050Y615400D01*
X69050Y628100D02*
X75400Y634450D01*
X69050Y615400D02*
X62700Y609050D01*
X50000Y609050D01*
X43650Y615400D01*
X43650Y628100D02*
X50000Y634450D01*
X62700Y634450D01*
X69050Y628100D01*
X94450Y628100D02*
X94450Y615400D01*
X88100Y609050D01*
X94450Y628100D02*
X88100Y634450D01*
X75400Y634450D01*
X43650Y628100D02*
X43650Y615400D01*
D17*
X591000Y226250D02*
X615000Y226250D01*
X591000Y254250D02*
X590000Y254250D01*
X615000Y254250D02*
X616000Y254250D01*
X175000Y163500D02*
X171000Y163500D01*
X171000Y170500D02*
X175000Y170500D01*
X175000Y182000D02*
X171000Y182000D01*
X171000Y175000D02*
X175000Y175000D01*
M02*
