G04 EAGLE Gerber RS-274X export*
G75*
%MOMM*%
%FSLAX34Y34*%
%LPD*%
%INSoldermask Bottom*%
%IPPOS*%
%AMOC8*
5,1,8,0,0,1.08239X$1,22.5*%
G01*
%ADD10C,2.153200*%
%ADD11R,1.727200X1.727200*%
%ADD12C,1.727200*%
%ADD13C,2.679700*%
%ADD14C,3.403600*%
%ADD15C,1.701800*%
%ADD16C,1.103200*%
%ADD17C,1.203200*%
%ADD18R,0.838200X1.473200*%
%ADD19C,1.511200*%
%ADD20C,0.803200*%
%ADD21C,2.082800*%
%ADD22C,6.203200*%


D10*
X405000Y578600D03*
X405000Y121400D03*
X49400Y121400D03*
X49400Y578600D03*
D11*
X587248Y554228D03*
D12*
X574548Y528828D03*
X561848Y554228D03*
X549148Y528828D03*
X536448Y554228D03*
X523748Y528828D03*
X511048Y554228D03*
X498348Y528828D03*
D13*
X622808Y585978D03*
X462788Y585978D03*
D12*
X476758Y666750D03*
X502158Y666750D03*
X608838Y666750D03*
X583438Y666750D03*
D14*
X599948Y617728D03*
X485648Y617728D03*
D15*
X351556Y681603D02*
X351556Y696589D01*
X206556Y696589D02*
X206556Y681603D01*
X206556Y636989D02*
X206556Y622003D01*
X351556Y622003D02*
X351556Y636989D01*
D16*
X351556Y621996D03*
X351556Y636996D03*
X351556Y626496D03*
X351556Y632496D03*
X351556Y681496D03*
X351556Y696496D03*
X351556Y685996D03*
X351556Y691996D03*
X206556Y621996D03*
X206556Y636996D03*
X206556Y626496D03*
X206556Y632496D03*
X206556Y681496D03*
X206556Y685996D03*
X206556Y696496D03*
X206556Y691996D03*
D17*
X203056Y236081D03*
D18*
X224560Y105000D03*
X214400Y105000D03*
D19*
X169900Y656650D03*
X83500Y656650D03*
X83500Y707150D03*
X169900Y707150D03*
D20*
X162700Y676650D03*
D16*
X90700Y676000D03*
D20*
X162700Y676650D03*
D19*
X454800Y68750D03*
X541200Y68750D03*
X541200Y18250D03*
X454800Y18250D03*
D20*
X462000Y48750D03*
D16*
X534000Y49400D03*
D20*
X462000Y48750D03*
D21*
X623730Y137500D03*
X626270Y162900D03*
X623730Y188300D03*
X626270Y213700D03*
D18*
X336920Y159350D03*
X347080Y159350D03*
X336629Y134061D03*
X346789Y134061D03*
D21*
X623278Y100000D03*
X594322Y100000D03*
D18*
X272372Y110500D03*
X280500Y110500D03*
X288628Y110500D03*
X256128Y110500D03*
X248000Y110500D03*
X239872Y110500D03*
D21*
X83528Y621750D03*
X54572Y621750D03*
D22*
X45000Y670000D03*
X595000Y55000D03*
X45000Y55000D03*
X405000Y670000D03*
M02*
