G04 EAGLE Gerber RS-274X export*
G75*
%MOMM*%
%FSLAX34Y34*%
%LPD*%
%INSoldermask Top*%
%IPPOS*%
%AMOC8*
5,1,8,0,0,1.08239X$1,22.5*%
G01*
%ADD10R,2.003200X1.803200*%
%ADD11R,1.103200X0.903200*%
%ADD12R,0.903200X1.103200*%
%ADD13R,0.733200X1.533200*%
%ADD14R,2.993200X1.473200*%
%ADD15C,2.153200*%
%ADD16R,1.303200X1.203200*%
%ADD17R,1.203200X1.303200*%
%ADD18R,1.983200X1.223200*%
%ADD19R,1.727200X1.727200*%
%ADD20C,1.727200*%
%ADD21C,2.679700*%
%ADD22C,3.403600*%
%ADD23R,1.703200X0.753200*%
%ADD24R,0.753200X1.703200*%
%ADD25R,1.803200X1.603200*%
%ADD26R,1.203200X0.403200*%
%ADD27R,0.403200X1.203200*%
%ADD28R,6.953200X6.953200*%
%ADD29R,1.403200X2.003200*%
%ADD30R,1.003200X1.103200*%
%ADD31R,1.103200X1.003200*%
%ADD32R,1.117600X0.965200*%
%ADD33R,0.965200X1.117600*%
%ADD34R,1.422400X0.762000*%
%ADD35R,2.003200X2.603200*%
%ADD36R,0.703200X1.253200*%
%ADD37R,0.503200X2.803200*%
%ADD38C,1.701800*%
%ADD39C,1.103200*%
%ADD40R,0.603200X1.703200*%
%ADD41R,2.003200X2.203200*%
%ADD42R,1.603200X2.203200*%
%ADD43R,0.473200X1.103200*%
%ADD44R,0.473200X1.003200*%
%ADD45C,1.511200*%
%ADD46C,0.803200*%
%ADD47R,1.003200X0.487800*%
%ADD48R,0.487800X1.003200*%
%ADD49R,3.353200X3.353200*%
%ADD50R,1.403200X0.803200*%
%ADD51R,0.903200X0.903200*%
%ADD52C,2.082800*%
%ADD53R,1.403200X1.403200*%
%ADD54R,1.803200X0.813200*%
%ADD55R,2.823200X3.713200*%
%ADD56R,2.003200X7.703200*%
%ADD57R,1.703200X1.503200*%
%ADD58R,0.553200X1.603200*%
%ADD59R,2.203200X1.903200*%
%ADD60R,1.603200X1.803200*%
%ADD61C,0.312766*%
%ADD62R,1.103200X1.203200*%
%ADD63R,1.903200X0.753200*%
%ADD64C,6.203200*%


D10*
X471051Y106203D03*
X471051Y134203D03*
D11*
X454744Y108351D03*
X454744Y95351D03*
D12*
X126556Y359586D03*
X113556Y359586D03*
D13*
X105256Y414826D03*
X117956Y414826D03*
X130656Y414826D03*
X130656Y446830D03*
X117956Y446830D03*
X105256Y446830D03*
D14*
X433550Y108250D03*
X376450Y108250D03*
X433550Y133650D03*
X376450Y133650D03*
X433550Y159050D03*
X376450Y159050D03*
X433550Y184450D03*
X376450Y184450D03*
X433550Y209850D03*
X376450Y209850D03*
X433550Y235250D03*
X376450Y235250D03*
X433550Y260650D03*
X376450Y260650D03*
X433550Y286050D03*
X376450Y286050D03*
X433550Y311450D03*
X376450Y311450D03*
X433550Y336850D03*
X376450Y336850D03*
X433550Y362250D03*
X376450Y362250D03*
X433550Y387650D03*
X376450Y387650D03*
X433550Y413050D03*
X376450Y413050D03*
X433550Y438450D03*
X376450Y438450D03*
X433550Y463850D03*
X376450Y463850D03*
X433550Y489250D03*
X376450Y489250D03*
X433550Y514650D03*
X376450Y514650D03*
X433550Y540050D03*
X376450Y540050D03*
X433550Y565450D03*
X376450Y565450D03*
X433550Y590850D03*
X376450Y590850D03*
X77950Y108250D03*
X20850Y108250D03*
X77950Y133650D03*
X20850Y133650D03*
X77950Y159050D03*
X20850Y159050D03*
X77950Y184450D03*
X20850Y184450D03*
X77950Y209850D03*
X20850Y209850D03*
X77950Y235250D03*
X20850Y235250D03*
X77950Y260650D03*
X20850Y260650D03*
X77950Y286050D03*
X20850Y286050D03*
X77950Y311450D03*
X20850Y311450D03*
X77950Y336850D03*
X20850Y336850D03*
X77950Y362250D03*
X20850Y362250D03*
X77950Y387650D03*
X20850Y387650D03*
X77950Y413050D03*
X20850Y413050D03*
X77950Y438450D03*
X20850Y438450D03*
X77950Y463850D03*
X20850Y463850D03*
X77950Y489250D03*
X20850Y489250D03*
X77950Y514650D03*
X20850Y514650D03*
X77950Y540050D03*
X20850Y540050D03*
X77950Y565450D03*
X20850Y565450D03*
X77950Y590850D03*
X20850Y590850D03*
D15*
X405000Y578600D03*
X405000Y121400D03*
X49400Y121400D03*
X49400Y578600D03*
D16*
X609000Y329000D03*
X626000Y329000D03*
D17*
X594360Y437778D03*
X594360Y454778D03*
X568198Y437778D03*
X568198Y454778D03*
D16*
X530098Y475878D03*
X530098Y492878D03*
X542798Y437778D03*
X542798Y454778D03*
X466598Y437778D03*
X466598Y454778D03*
X491998Y437778D03*
X491998Y454778D03*
D17*
X466598Y492878D03*
X466598Y475878D03*
D18*
X463042Y399024D03*
X463042Y416824D03*
D17*
X605164Y368808D03*
X622164Y368808D03*
X415562Y622438D03*
X432562Y622438D03*
D19*
X587248Y554228D03*
D20*
X574548Y528828D03*
X561848Y554228D03*
X549148Y528828D03*
X536448Y554228D03*
X523748Y528828D03*
X511048Y554228D03*
X498348Y528828D03*
D21*
X622808Y585978D03*
X462788Y585978D03*
D20*
X476758Y666750D03*
X502158Y666750D03*
X608838Y666750D03*
X583438Y666750D03*
D22*
X599948Y617728D03*
X485648Y617728D03*
D17*
X555498Y492878D03*
X555498Y475878D03*
D23*
X473098Y344678D03*
X473098Y352678D03*
X473098Y360678D03*
X473098Y368678D03*
X473098Y376678D03*
X473098Y384678D03*
X473098Y304678D03*
X473098Y312678D03*
X473098Y320678D03*
X473098Y328678D03*
X473098Y336678D03*
X587098Y344678D03*
X587098Y352678D03*
X587098Y360678D03*
X587098Y320678D03*
X587098Y336678D03*
X587098Y328678D03*
X587098Y312678D03*
X587098Y304678D03*
X587098Y384678D03*
X587098Y376678D03*
X587098Y368678D03*
D24*
X530098Y401678D03*
X522098Y401678D03*
X514098Y401678D03*
X506098Y401678D03*
X498098Y401678D03*
X490098Y401678D03*
X570098Y401678D03*
X562098Y401678D03*
X554098Y401678D03*
X546098Y401678D03*
X538098Y401678D03*
X530098Y287678D03*
X522098Y287678D03*
X514098Y287678D03*
X506098Y287678D03*
X498098Y287678D03*
X490098Y287678D03*
X570098Y287678D03*
X562098Y287678D03*
X538098Y287678D03*
X546098Y287678D03*
X554098Y287678D03*
D25*
X552845Y262255D03*
X522845Y262255D03*
D16*
X618998Y437778D03*
X618998Y454778D03*
X609000Y316500D03*
X626000Y316500D03*
X626217Y264447D03*
X609217Y264447D03*
X569862Y260723D03*
X586862Y260723D03*
X491998Y475878D03*
X491998Y492878D03*
D17*
X517398Y437778D03*
X517398Y454778D03*
X580898Y475878D03*
X580898Y492878D03*
D16*
X457164Y360006D03*
X457164Y377006D03*
D26*
X306056Y387496D03*
X306056Y391496D03*
X306056Y395496D03*
X306056Y399496D03*
X306056Y403496D03*
X306056Y407496D03*
X306056Y411496D03*
X306056Y415496D03*
X306056Y419496D03*
X306056Y423496D03*
X306056Y427496D03*
X306056Y431496D03*
X306056Y435496D03*
X306056Y439496D03*
X306056Y443496D03*
X306056Y447496D03*
X306056Y451496D03*
X306056Y455496D03*
X306056Y459496D03*
X306056Y463496D03*
X306056Y467496D03*
X306056Y471496D03*
D27*
X298556Y478996D03*
X294556Y478996D03*
X290556Y478996D03*
X286556Y478996D03*
X282556Y478996D03*
X278556Y478996D03*
X274556Y478996D03*
X270556Y478996D03*
X266556Y478996D03*
X262556Y478996D03*
X258556Y478996D03*
X254556Y478996D03*
X250556Y478996D03*
X246556Y478996D03*
X242556Y478996D03*
X238556Y478996D03*
X234556Y478996D03*
X230556Y478996D03*
X226556Y478996D03*
X222556Y478996D03*
X218556Y478996D03*
X214556Y478996D03*
D26*
X207056Y471496D03*
X207056Y467496D03*
X207056Y463496D03*
X207056Y459496D03*
X207056Y455496D03*
X207056Y451496D03*
X207056Y447496D03*
X207056Y443496D03*
X207056Y439496D03*
X207056Y435496D03*
X207056Y431496D03*
X207056Y427496D03*
X207056Y423496D03*
X207056Y419496D03*
X207056Y415496D03*
X207056Y411496D03*
X207056Y407496D03*
X207056Y403496D03*
X207056Y399496D03*
X207056Y395496D03*
X207056Y391496D03*
X207056Y387496D03*
D27*
X214556Y379996D03*
X218556Y379996D03*
X222556Y379996D03*
X226556Y379996D03*
X230556Y379996D03*
X234556Y379996D03*
X238556Y379996D03*
X242556Y379996D03*
X246556Y379996D03*
X250556Y379996D03*
X254556Y379996D03*
X258556Y379996D03*
X262556Y379996D03*
X266556Y379996D03*
X270556Y379996D03*
X274556Y379996D03*
X278556Y379996D03*
X282556Y379996D03*
X286556Y379996D03*
X290556Y379996D03*
X294556Y379996D03*
X298556Y379996D03*
D28*
X256556Y429496D03*
D29*
X162166Y327406D03*
X162166Y287406D03*
X186166Y287406D03*
X186166Y327406D03*
D30*
X188166Y350406D03*
X174166Y350406D03*
X160166Y264406D03*
X174166Y264406D03*
D12*
X248094Y302666D03*
X263094Y302666D03*
D11*
X130056Y322496D03*
X130056Y307496D03*
X130056Y272496D03*
X130056Y287496D03*
X342306Y375906D03*
X342306Y390906D03*
D31*
X355306Y390406D03*
X355306Y376406D03*
D11*
X161306Y473906D03*
X161306Y488906D03*
X160556Y442496D03*
X160556Y457496D03*
X160056Y426496D03*
X160056Y411496D03*
X161056Y383496D03*
X161056Y398496D03*
D12*
X218666Y314406D03*
X233666Y314406D03*
X218666Y300406D03*
X233666Y300406D03*
D30*
X341806Y403906D03*
X355806Y403906D03*
X305056Y508996D03*
X319056Y508996D03*
D31*
X175306Y488406D03*
X175306Y474406D03*
X177056Y442996D03*
X177056Y456996D03*
X176056Y397996D03*
X176056Y383996D03*
X175056Y411996D03*
X175056Y425996D03*
X114504Y256556D03*
X114504Y242556D03*
D30*
X274056Y508996D03*
X288056Y508996D03*
X218056Y521996D03*
X204056Y521996D03*
D31*
X128504Y256556D03*
X128504Y242556D03*
D30*
X342306Y419406D03*
X356306Y419406D03*
X218056Y502996D03*
X204056Y502996D03*
X192056Y209996D03*
X178056Y209996D03*
X233166Y347406D03*
X219166Y347406D03*
X233056Y333396D03*
X219056Y333396D03*
X273166Y347406D03*
X287166Y347406D03*
X246166Y347406D03*
X260166Y347406D03*
X246166Y333406D03*
X260166Y333406D03*
X300166Y347406D03*
X314166Y347406D03*
X300166Y333406D03*
X314166Y333406D03*
D32*
X142504Y256414D03*
X142504Y242698D03*
D33*
X191914Y224996D03*
X178198Y224996D03*
D34*
X120055Y226496D03*
X120055Y216996D03*
X120055Y207344D03*
X146264Y207344D03*
X146264Y226496D03*
D35*
X462056Y240746D03*
X462056Y281746D03*
D31*
X160056Y224996D03*
X160056Y210996D03*
X105056Y229996D03*
X105056Y215996D03*
D32*
X457004Y203948D03*
X457004Y217664D03*
D31*
X324746Y332444D03*
X324746Y318444D03*
X336496Y332444D03*
X336496Y318444D03*
D36*
X217556Y544996D03*
X227056Y544996D03*
X236556Y544996D03*
X236556Y571996D03*
X227056Y571996D03*
X217556Y571996D03*
X262556Y544996D03*
X272056Y544996D03*
X281556Y544996D03*
X281556Y571996D03*
X272056Y571996D03*
X262556Y571996D03*
X307556Y544996D03*
X317056Y544996D03*
X326556Y544996D03*
X326556Y571996D03*
X317056Y571996D03*
X307556Y571996D03*
D37*
X234056Y621896D03*
X239056Y621896D03*
X244056Y621896D03*
X249056Y621896D03*
X254056Y621896D03*
X259056Y621896D03*
X264056Y621896D03*
X269056Y621896D03*
X274056Y621896D03*
X279056Y621896D03*
X284056Y621896D03*
X289056Y621896D03*
X294056Y621896D03*
X299056Y621896D03*
X304056Y621896D03*
X309056Y621896D03*
X314056Y621896D03*
X319056Y621896D03*
X324056Y621896D03*
D38*
X351556Y681603D02*
X351556Y696589D01*
X206556Y696589D02*
X206556Y681603D01*
X206556Y636989D02*
X206556Y622003D01*
X351556Y622003D02*
X351556Y636989D01*
D39*
X351556Y621996D03*
X351556Y636996D03*
X351556Y626496D03*
X351556Y632496D03*
X351556Y681496D03*
X351556Y696496D03*
X351556Y685996D03*
X351556Y691996D03*
X206556Y621996D03*
X206556Y636996D03*
X206556Y626496D03*
X206556Y632496D03*
X206556Y681496D03*
X206556Y685996D03*
X206556Y696496D03*
X206556Y691996D03*
D11*
X346056Y555496D03*
X346056Y570496D03*
D40*
X256350Y141250D03*
X249850Y141250D03*
X243350Y141250D03*
X236850Y141250D03*
X230350Y141250D03*
X223850Y141250D03*
X217350Y141250D03*
X210850Y141250D03*
X204350Y141250D03*
X197850Y141250D03*
X197850Y68750D03*
X204350Y68750D03*
X210850Y68750D03*
X217350Y68750D03*
X223850Y68750D03*
X230350Y68750D03*
X236850Y68750D03*
X243350Y68750D03*
X249850Y68750D03*
X256350Y68750D03*
D12*
X235950Y156650D03*
X222950Y156650D03*
X247050Y156650D03*
X260050Y156650D03*
D41*
X176300Y20500D03*
X176300Y62500D03*
X125500Y62500D03*
X125500Y20500D03*
D42*
X150900Y20500D03*
X150900Y62500D03*
D43*
X152950Y649650D03*
X147950Y649650D03*
X142950Y649650D03*
X137950Y649650D03*
X132950Y649650D03*
X127950Y649650D03*
X122950Y649650D03*
X117950Y649650D03*
X112950Y649650D03*
X107950Y649650D03*
X102950Y649650D03*
X97950Y649650D03*
D44*
X100450Y665650D03*
X105450Y665650D03*
X110450Y665650D03*
X115450Y665650D03*
X120450Y665650D03*
X125450Y665650D03*
X130450Y665650D03*
X135450Y665650D03*
X140450Y665650D03*
X145450Y665650D03*
X150450Y665650D03*
X155450Y665650D03*
D45*
X169900Y656650D03*
X83500Y656650D03*
X83500Y707150D03*
X169900Y707150D03*
D46*
X162700Y676650D03*
D39*
X90700Y676000D03*
D46*
X162700Y676650D03*
D43*
X471750Y75750D03*
X476750Y75750D03*
X481750Y75750D03*
X486750Y75750D03*
X491750Y75750D03*
X496750Y75750D03*
X501750Y75750D03*
X506750Y75750D03*
X511750Y75750D03*
X516750Y75750D03*
X521750Y75750D03*
X526750Y75750D03*
D44*
X524250Y59750D03*
X519250Y59750D03*
X514250Y59750D03*
X509250Y59750D03*
X504250Y59750D03*
X499250Y59750D03*
X494250Y59750D03*
X489250Y59750D03*
X484250Y59750D03*
X479250Y59750D03*
X474250Y59750D03*
X469250Y59750D03*
D45*
X454800Y68750D03*
X541200Y68750D03*
X541200Y18250D03*
X454800Y18250D03*
D46*
X462000Y48750D03*
D39*
X534000Y49400D03*
D46*
X462000Y48750D03*
D47*
X543000Y177500D03*
X543000Y172500D03*
X543000Y167500D03*
X543000Y162500D03*
X543000Y157500D03*
X543000Y152500D03*
X543000Y147500D03*
X543000Y142500D03*
D48*
X550500Y135000D03*
X555500Y135000D03*
X560500Y135000D03*
X565500Y135000D03*
X570500Y135000D03*
X575500Y135000D03*
X580500Y135000D03*
X585500Y135000D03*
D47*
X593000Y142500D03*
X593000Y147500D03*
X593000Y152500D03*
X593000Y157500D03*
X593000Y162500D03*
X593000Y167500D03*
X593000Y172500D03*
X593000Y177500D03*
D48*
X585500Y185000D03*
X580500Y185000D03*
X575500Y185000D03*
X570500Y185000D03*
X565500Y185000D03*
X560500Y185000D03*
X555500Y185000D03*
X550500Y185000D03*
D49*
X568000Y160000D03*
D12*
X507000Y138000D03*
X522000Y138000D03*
X507000Y150000D03*
X522000Y150000D03*
X507000Y166000D03*
X522000Y166000D03*
X507000Y178000D03*
X522000Y178000D03*
D11*
X496500Y124000D03*
X496500Y137000D03*
D12*
X471500Y151000D03*
X484500Y151000D03*
X471500Y162500D03*
X484500Y162500D03*
D11*
X496500Y191500D03*
X496500Y178500D03*
D12*
X525500Y126000D03*
X538500Y126000D03*
D11*
X560500Y92000D03*
X560500Y105000D03*
X549000Y92000D03*
X549000Y105000D03*
X537500Y92000D03*
X537500Y105000D03*
D50*
X169000Y585950D03*
X169000Y598650D03*
X169000Y611350D03*
X169000Y624050D03*
X113000Y624050D03*
X113000Y611350D03*
X113000Y598650D03*
X113000Y585950D03*
X373000Y79050D03*
X373000Y66350D03*
X373000Y53650D03*
X373000Y40950D03*
X429000Y40950D03*
X429000Y53650D03*
X429000Y66350D03*
X429000Y79050D03*
D12*
X178500Y641000D03*
X163500Y641000D03*
D11*
X185000Y600500D03*
X185000Y585500D03*
X356000Y61000D03*
X356000Y76000D03*
X356000Y49500D03*
X356000Y34500D03*
D51*
X489500Y220000D03*
X476500Y220000D03*
X483000Y201500D03*
X523500Y224250D03*
X510500Y224250D03*
X517000Y205750D03*
D12*
X480250Y235500D03*
X495250Y235500D03*
X137500Y540750D03*
X122500Y540750D03*
X508500Y237000D03*
X523500Y237000D03*
X429000Y89000D03*
X414000Y89000D03*
D11*
X473000Y180250D03*
X473000Y195250D03*
D12*
X517500Y194000D03*
X532500Y194000D03*
D52*
X623730Y137500D03*
X626270Y162900D03*
X623730Y188300D03*
X626270Y213700D03*
D12*
X594500Y119500D03*
X579500Y119500D03*
X623500Y119000D03*
X608500Y119000D03*
X227500Y15600D03*
X240500Y15600D03*
D53*
X274500Y15600D03*
X253500Y15600D03*
D12*
X227500Y35100D03*
X240500Y35100D03*
D53*
X274500Y35100D03*
X253500Y35100D03*
D54*
X313000Y186550D03*
X313000Y199250D03*
X313000Y211950D03*
X313000Y224650D03*
X259000Y224650D03*
X259000Y211950D03*
X259000Y199250D03*
X259000Y186550D03*
D55*
X286000Y205600D03*
D12*
X238500Y215600D03*
X225500Y215600D03*
D11*
X210720Y228604D03*
X210720Y215604D03*
D12*
X238510Y203312D03*
X225510Y203312D03*
D17*
X319250Y175850D03*
X319250Y158850D03*
X342500Y176100D03*
X342500Y159100D03*
D12*
X238430Y190828D03*
X225430Y190828D03*
D17*
X348968Y199004D03*
X348968Y216004D03*
D12*
X225474Y229658D03*
X238474Y229658D03*
D11*
X261500Y258600D03*
X261500Y245600D03*
D56*
X350436Y272815D03*
X294436Y272815D03*
D57*
X218516Y264350D03*
X218516Y247350D03*
X239699Y264350D03*
X239699Y247350D03*
D12*
X326000Y119830D03*
X339000Y119830D03*
X314000Y116410D03*
X301000Y116410D03*
D58*
X288375Y37350D03*
X294725Y37350D03*
X301075Y37350D03*
X307425Y37350D03*
X313775Y37350D03*
X320125Y37350D03*
X326475Y37350D03*
X332825Y37350D03*
X332825Y92850D03*
X326475Y92850D03*
X320125Y92850D03*
X313775Y92850D03*
X307425Y92850D03*
X301075Y92850D03*
X294725Y92850D03*
X288375Y92850D03*
D11*
X275500Y106000D03*
X275500Y93000D03*
D59*
X117500Y561250D03*
X163500Y561250D03*
X429000Y16250D03*
X383000Y16250D03*
D12*
X332500Y22500D03*
X345500Y22500D03*
X334000Y107500D03*
X347000Y107500D03*
D11*
X343000Y36500D03*
X343000Y49500D03*
D12*
X346000Y95000D03*
X359000Y95000D03*
D52*
X623278Y100000D03*
X594322Y100000D03*
D11*
X275500Y83500D03*
X275500Y68500D03*
D12*
X250000Y51500D03*
X265000Y51500D03*
X273000Y143750D03*
X288000Y143750D03*
X273000Y132000D03*
X288000Y132000D03*
D11*
X455000Y136500D03*
X455000Y149500D03*
X455000Y184500D03*
X455000Y171500D03*
D12*
X286000Y120500D03*
X273000Y120500D03*
X285750Y155500D03*
X272750Y155500D03*
D32*
X123000Y165358D03*
X123000Y151642D03*
D60*
X151000Y129500D03*
X123000Y129500D03*
D12*
X123000Y109500D03*
X136000Y109500D03*
D61*
X603548Y296048D02*
X603548Y307952D01*
X613452Y307952D01*
X613452Y296048D01*
X603548Y296048D01*
X603548Y299020D02*
X613452Y299020D01*
X613452Y301992D02*
X603548Y301992D01*
X603548Y304964D02*
X613452Y304964D01*
X613452Y307936D02*
X603548Y307936D01*
X603548Y284952D02*
X603548Y273048D01*
X603548Y284952D02*
X613452Y284952D01*
X613452Y273048D01*
X603548Y273048D01*
X603548Y276020D02*
X613452Y276020D01*
X613452Y278992D02*
X603548Y278992D01*
X603548Y281964D02*
X613452Y281964D01*
X613452Y284936D02*
X603548Y284936D01*
X621548Y284952D02*
X621548Y273048D01*
X621548Y284952D02*
X631452Y284952D01*
X631452Y273048D01*
X621548Y273048D01*
X621548Y276020D02*
X631452Y276020D01*
X631452Y278992D02*
X621548Y278992D01*
X621548Y281964D02*
X631452Y281964D01*
X631452Y284936D02*
X621548Y284936D01*
X621548Y296048D02*
X621548Y307952D01*
X631452Y307952D01*
X631452Y296048D01*
X621548Y296048D01*
X621548Y299020D02*
X631452Y299020D01*
X631452Y301992D02*
X621548Y301992D01*
X621548Y304964D02*
X631452Y304964D01*
X631452Y307936D02*
X621548Y307936D01*
D52*
X83528Y621750D03*
X54572Y621750D03*
D62*
X582500Y248250D03*
X582500Y232250D03*
X623500Y232250D03*
X623500Y248250D03*
D63*
X603000Y254500D03*
D12*
X165500Y167000D03*
X180500Y167000D03*
X180500Y178500D03*
X165500Y178500D03*
D16*
X230250Y170250D03*
X213250Y170250D03*
X246750Y170250D03*
X263750Y170250D03*
D64*
X45000Y670000D03*
X595000Y55000D03*
X45000Y55000D03*
X405000Y670000D03*
M02*
